<svg width="81" height="80" viewBox="0 0 81 80" fill="none" xmlns="http://www.w3.org/2000/svg">
<g id="drawing-mouse">
<g id="toy02">
<path id="Vector" d="M26.0865 29.287C28.0557 26.9813 30.5825 25.1918 33.4037 24.1188C36.2249 23.0458 39.773 22.441 42.6747 23.6728C44.0572 24.2603 45.2807 25.2445 45.9757 26.6031C46.5311 27.6876 46.6788 28.9662 46.5264 30.1727C46.1815 32.9073 44.6148 35.3271 42.6647 37.2071C40.3246 39.4627 37.2601 40.9854 34.0285 41.237C33.1155 41.3082 33.2126 42.7376 34.1284 42.666C37.3362 42.4162 40.4117 41.0322 42.8631 38.933C45.2152 36.9178 47.1438 34.2709 47.7956 31.1919C48.0976 29.7656 48.0863 28.251 47.6249 26.8668C47.0882 25.2579 45.9633 23.9574 44.5599 23.05C41.548 21.103 37.6509 21.3281 34.321 22.3034C30.7349 23.3542 27.4637 25.4859 25.024 28.3427C24.4235 29.0461 25.4864 29.9896 26.0868 29.2863L26.0865 29.287Z" fill="#EFEFEF"/>
<path id="Vector_2" d="M2.58041 31.2496C7.99287 25.3153 16.0111 22.8843 23.763 22.5173C26.0881 22.4072 28.4155 22.4646 30.7334 22.6356C31.1159 22.6637 31.4881 22.4684 31.5665 22.0591C31.6335 21.7096 31.3871 21.2537 31.002 21.2252C22.7077 20.6134 14.0098 21.4132 6.75739 25.9516C4.82992 27.1579 3.05486 28.6212 1.51826 30.3064C0.894553 30.9904 1.95919 31.9321 2.58113 31.25L2.58041 31.2496Z" fill="#EFEFEF"/>
<path id="Vector_3" d="M49.0925 24.4309C52.9611 24.703 56.6942 25.8426 60.1487 27.5713C63.352 29.1749 66.6596 31.2303 68.6968 34.2692C69.6972 35.7614 70.2943 37.4642 70.7251 39.2049C71.169 40.9968 71.4945 42.8339 71.6625 44.6764C71.9845 48.2053 71.6497 52.0924 69.1553 54.8437C66.8587 57.3765 63.324 58.4344 60.0836 59.0013C56.7058 59.5925 53.2574 59.6319 49.8646 59.2419C42.7389 58.4231 35.8863 55.8981 29.492 52.7471C22.3499 49.227 15.8473 44.5392 10.7493 38.3587C10.13 37.6082 9.53347 36.8401 8.95608 36.0564C8.41386 35.3202 7.22411 36.1184 7.76849 36.8574C10.1714 40.1185 12.9342 43.1112 16.0074 45.7397C19.2287 48.496 22.7922 50.8337 26.5221 52.8355C29.9759 54.6892 33.5766 56.2995 37.2653 57.6278C40.7013 58.865 44.2368 59.8563 47.8522 60.4175C51.388 60.9659 55.0119 61.1124 58.5765 60.6714C62.0631 60.2398 65.793 59.3656 68.6635 57.1978C70.1601 56.0678 71.3542 54.5807 72.0916 52.8476C72.8543 51.0535 73.1487 49.1169 73.1848 47.1823C73.2216 45.2444 72.9872 43.3113 72.639 41.4121C72.2967 39.5498 71.8972 37.674 71.1759 35.9214C69.6773 32.2805 66.7262 29.7536 63.4485 27.7603C60.0114 25.6694 56.2113 24.0962 52.2395 23.379C51.2875 23.2074 50.3261 23.0894 49.3608 23.0213C48.9775 22.9946 48.6058 23.1874 48.5277 23.5978C48.461 23.9466 48.7075 24.4043 49.0921 24.4317L49.0925 24.4309Z" fill="#EFEFEF"/>
<path id="Vector_4" d="M18.4114 30.3181C17.8488 31.1724 17.3716 32.0728 16.9812 33.0183C16.6299 33.8691 17.9032 34.4973 18.2573 33.6407C18.6477 32.6952 19.1249 31.7948 19.6875 30.9405C19.9015 30.6161 19.6774 30.1362 19.3644 29.9835C18.9821 29.7971 18.6257 29.9929 18.4114 30.3181Z" fill="#EFEFEF"/>
<path id="Vector_5" d="M4.46723 32.0598C4.3662 32.3739 4.35645 32.6986 4.36062 33.0255C4.36354 33.2498 4.40219 33.4916 4.33168 33.7105C4.31485 33.7631 4.30055 33.8251 4.2587 33.8637C4.25019 33.8721 4.29934 33.8675 4.19376 33.8482C3.90662 33.795 3.63056 33.6809 3.37011 33.5512C3.1879 33.4605 2.85477 33.3348 2.74234 33.1609C2.82747 33.2928 2.81665 33.1264 2.87163 33.0064C2.93612 32.8651 3.00667 32.7241 3.09082 32.5933C3.39171 32.1287 3.80582 31.782 4.28199 31.5147C4.61921 31.3256 4.68292 30.8215 4.48431 30.5196C4.25769 30.1755 3.83662 30.1357 3.49833 30.3251C2.67427 30.787 1.98916 31.5189 1.59552 32.384C1.39218 32.8317 1.26238 33.3046 1.45971 33.7741C1.65704 34.2436 2.176 34.5415 2.60661 34.7739C3.38419 35.1925 4.51211 35.6164 5.24782 34.8823C5.5616 34.569 5.7318 34.1222 5.7727 33.6865C5.81595 33.2242 5.7206 32.7651 5.86513 32.3164C5.98441 31.9467 5.64381 31.5461 5.30067 31.4826C4.8844 31.4058 4.58721 31.6887 4.46758 32.0591L4.46723 32.0598Z" fill="#EFEFEF"/>
<path id="Vector_6" d="M12.2834 36.3195C15.1108 37.9286 18.0822 39.2642 21.1626 40.311C21.5253 40.4342 21.9305 40.3561 22.1156 39.9765C22.2694 39.6612 22.1581 39.1441 21.7925 39.0196C18.7121 37.9727 15.74 36.6368 12.9133 35.0281C12.1184 34.576 11.4921 35.8691 12.2834 36.3195Z" fill="#EFEFEF"/>
<path id="Vector_7" d="M11.6067 38.8565C14.2522 41.5369 17.0206 44.092 19.9032 46.5129C20.6032 47.1014 21.5506 46.0221 20.8498 45.4333C17.9673 43.0123 15.1996 40.4576 12.5534 37.7769C11.9094 37.1244 10.9673 38.209 11.6067 38.8565Z" fill="#EFEFEF"/>
<path id="Vector_8" d="M6.30781 25.4915C7.15764 23.5859 8.15393 21.7518 9.29071 20.0013C9.50179 19.6755 9.28197 19.1978 8.96759 19.0444C8.58747 18.859 8.2271 19.052 8.0146 19.3789C6.87889 21.129 5.88188 22.9628 5.0317 24.8691C4.65612 25.7117 5.93047 26.3377 6.30781 25.4915Z" fill="#EFEFEF"/>
<path id="Vector_9" d="M3.03968 26.42C2.28323 25.2562 2.12315 23.8453 2.53188 22.514C2.6458 22.1426 2.31449 21.7447 1.96741 21.6802C1.55542 21.6037 1.2486 21.8845 1.13433 22.2567C0.622205 23.9269 0.911737 25.7741 1.85209 27.221C2.35279 27.9915 3.53931 27.1891 3.03968 26.42Z" fill="#EFEFEF"/>
<path id="Vector_10" d="M12.3421 24.5768C12.058 25.0559 11.7736 25.5338 11.4895 26.0129C11.2913 26.3468 11.4883 26.8116 11.8126 26.9698C12.1813 27.1497 12.5667 26.9706 12.7656 26.6353C13.0497 26.1562 13.3341 25.6783 13.6182 25.1992C13.8164 24.8653 13.6195 24.4005 13.2951 24.2423C12.9264 24.0625 12.541 24.2415 12.3421 24.5768Z" fill="#EFEFEF"/>
<path id="Vector_11" d="M13.9513 21.553C15.6703 19.2872 18.0149 17.5682 20.6623 16.576C21.984 16.0803 23.3597 15.7658 24.7625 15.6552C26.1197 15.5473 27.6816 15.5366 28.9748 16.0027C29.6795 16.2569 30.2714 16.7353 30.262 17.5453C30.2544 18.2317 29.9002 18.9218 29.5131 19.4706C29.2906 19.7872 29.2628 20.2087 29.5717 20.482C29.8348 20.715 30.3524 20.7329 30.5763 20.4134C31.5036 19.0961 32.2419 17.1835 31.1032 15.7661C29.967 14.3509 27.8449 14.2172 26.1616 14.1812C22.9279 14.1123 19.6623 15.101 16.9351 16.8679C15.3901 17.8687 14.0049 19.1382 12.8885 20.6094C12.332 21.3423 13.392 22.2899 13.9513 21.553Z" fill="#EFEFEF"/>
<path id="Vector_12" d="M74.0689 49.3956C76.366 50.5795 78.0399 52.7511 78.7735 55.2312C79.4788 57.6151 79.476 61.391 76.9459 62.734C75.7009 63.3951 74.1969 63.3705 72.8387 63.2827C71.9892 63.2273 71.1393 63.1511 70.2861 63.1539C69.5282 63.1575 68.7002 63.1941 68.032 63.6066C67.7318 63.7923 67.4727 64.0732 67.3232 64.3941C67.1438 64.7783 67.1416 65.1854 67.0353 65.5865C66.8895 66.1375 66.435 66.4493 65.9239 66.6377C65.2982 66.8687 64.6335 66.9348 63.973 66.9563C63.1428 66.9828 62.3113 66.9792 61.4813 66.9584C57.6844 66.8618 53.9065 66.2786 50.2515 65.2764C49.8818 65.1749 49.4864 65.4958 49.4184 65.8529C49.3406 66.2608 49.6124 66.5849 49.9829 66.6868C53.4812 67.6456 57.074 68.1967 60.7023 68.3561C62.344 68.4282 64.088 68.5448 65.7072 68.1826C66.4309 68.0208 67.125 67.7257 67.6733 67.209C67.923 66.9745 68.1317 66.6771 68.2663 66.3614C68.4282 65.9821 68.4494 65.5923 68.5443 65.1983C68.7098 64.5145 69.6966 64.5912 70.2421 64.5825C71.1166 64.5686 71.9855 64.6586 72.8571 64.7086C74.4608 64.8007 76.1016 64.7569 77.571 64.0038C80.5382 62.4829 80.9505 58.5092 80.3316 55.5874C79.6582 52.4108 77.5715 49.5823 74.6991 48.1016C73.8863 47.6828 73.2571 48.9746 74.0693 49.3931L74.0689 49.3956Z" fill="#EFEFEF"/>
<path id="Vector_13" d="M64.5949 31.1712C62.0995 31.9931 59.6052 32.8147 57.1099 33.6367C56.5894 33.808 55.9546 33.9271 55.5978 34.3868C55.1991 34.8995 55.3441 35.5162 55.56 36.0637C55.9625 37.0826 56.3494 38.1083 56.6798 39.1537C57.3144 41.1621 57.7509 43.2485 57.6798 45.3728C57.665 45.8256 57.6149 46.2783 57.5431 46.7266C57.4605 47.2422 57.201 47.8487 57.3619 48.3658C57.5502 48.9696 58.1794 49.1395 58.7398 49.0495C59.3954 48.944 60.0474 48.7805 60.696 48.6385C63.4081 48.0467 66.0986 47.3504 68.7616 46.5583C69.6441 46.2959 69.1839 44.9436 68.3046 45.2049C66.6344 45.7024 64.9536 46.1618 63.2623 46.5811C62.4291 46.7878 61.5938 46.9846 60.7562 47.1713C60.3472 47.2627 59.9385 47.3516 59.5288 47.4373C59.3309 47.4786 59.134 47.5196 58.9357 47.5598C58.8186 47.5841 58.7008 47.6117 58.5826 47.6292C58.5448 47.6377 58.5064 47.6422 58.4675 47.6438C58.3628 47.6483 58.3892 47.6576 58.5471 47.6728L58.7475 47.9764C58.7029 47.8777 58.8561 47.4547 58.8845 47.3021C58.9522 46.9422 59.0038 46.5789 59.0383 46.2144C59.1032 45.5335 59.1232 44.8469 59.0926 44.1643C59.0318 42.7803 58.7785 41.4081 58.4296 40.0725C58.0857 38.7537 57.6366 37.4659 57.1458 36.1981C57.0346 35.9111 56.9484 35.5782 56.7995 35.3104C56.7855 35.2848 56.7816 35.222 56.7594 35.2004C56.7415 35.1827 56.6528 35.2594 56.7316 35.2683C56.886 35.2854 57.1862 35.1141 57.3388 35.0641C58.1198 34.8068 58.9014 34.5498 59.6826 34.2918C61.4718 33.7027 63.2613 33.1129 65.0504 32.5239C65.9249 32.2361 65.4668 30.8831 64.5934 31.1705L64.5949 31.1712Z" fill="#EFEFEF"/>
<path id="Vector_14" d="M59.907 33.2027C60.3786 34.002 60.851 34.8016 61.3222 35.6017C61.7895 36.3935 62.9746 35.5886 62.5098 34.8007C62.045 34.0127 61.5659 33.2017 61.0946 32.4017C60.6273 31.6098 59.4422 32.4147 59.907 33.2027Z" fill="#EFEFEF"/>
<path id="Vector_15" d="M63.2791 32.547C63.6314 33.2845 63.9829 34.0217 64.3349 34.7599C64.5006 35.1075 64.8424 35.3387 65.2373 35.2001C65.5681 35.0839 65.8492 34.6365 65.6827 34.2868C65.3304 33.5493 64.9789 32.8121 64.6269 32.0738C64.4612 31.7263 64.1194 31.4951 63.7245 31.6337C63.3937 31.7498 63.1127 32.1973 63.2791 32.547Z" fill="#EFEFEF"/>
<path id="Vector_16" d="M56.6157 42.2302C57.414 42.1568 58.2122 42.0834 59.0108 42.0092C59.923 41.9251 59.8266 40.4961 58.9108 40.5802C58.1126 40.6536 57.3144 40.7271 56.5158 40.8012C55.6035 40.8853 55.6999 42.3144 56.6157 42.2302Z" fill="#EFEFEF"/>
<path id="Vector_17" d="M56.2025 45.2788C57.5537 45.1144 58.9042 44.9496 60.2554 44.7851C61.1629 44.6745 61.0686 43.2448 60.1555 43.3561C58.8043 43.5206 57.4538 43.6854 56.1026 43.8499C55.1951 43.9604 55.2894 45.3902 56.2025 45.2788Z" fill="#EFEFEF"/>
<path id="Vector_18" d="M66.1143 45.8113C66.341 46.7991 66.567 47.7865 66.7934 48.775C66.8794 49.1517 67.3575 49.3339 67.6958 49.2151C68.0906 49.0765 68.2276 48.6797 68.1412 48.3019C67.9145 47.3141 67.6885 46.3267 67.4622 45.3382C67.3761 44.9615 66.898 44.7793 66.5597 44.8981C66.1649 45.0367 66.0279 45.4335 66.1143 45.8113Z" fill="#EFEFEF"/>
</g>
</g>
</svg>
