<svg width="80" height="80" viewBox="0 0 80 80" fill="none" xmlns="http://www.w3.org/2000/svg">
<g id="drawing-fish">
<g id="fish">
<path id="Vector" d="M2.63758 64.3753C1.743 53.264 6.78135 42.7652 13.0769 35.1994C19.4859 27.4967 27.764 22.3132 36.6463 20.4661C42.0146 19.3498 47.566 19.4658 52.9 20.7965C53.8641 21.0369 54.2766 19.2379 53.3081 18.9965C43.5245 16.5557 33.2003 18.0756 24.2055 23.3699C16.0546 28.1678 8.81457 36.0942 4.53244 45.8602C2.05408 51.5121 0.585454 57.9385 1.10364 64.3753C1.14403 64.8771 1.42761 65.3088 1.87104 65.3088C2.25431 65.3088 2.67882 64.8802 2.63844 64.3753L2.63758 64.3753Z" fill="#EFEFEF"/>
<path id="Vector_2" d="M10.3889 52.217C11.2706 53.2478 12.1523 54.2787 13.0331 55.3096C13.7455 56.1429 14.8317 54.8234 14.1185 53.9891C13.2368 52.9582 12.3551 51.9273 11.4743 50.8965C10.7619 50.0632 9.67564 51.3826 10.3889 52.217Z" fill="#EFEFEF"/>
<path id="Vector_3" d="M14.3204 41.8756C16.9998 42.1422 19.4662 43.8125 21.4349 45.9689C23.5489 48.2842 25.3527 51.1765 26.8145 54.1389C27.6231 55.7768 28.2496 57.5528 28.1464 59.4991C28.0828 60.6991 29.6176 60.6938 29.6812 59.4991C29.8849 55.6629 27.758 52.25 25.9594 49.3483C24.1608 46.4466 21.9428 43.5376 19.1809 41.7669C17.6641 40.7948 16.0314 40.1791 14.3213 40.0087C13.9079 39.968 13.5539 40.4676 13.5539 40.9422C13.5539 41.4815 13.9062 41.8348 14.3213 41.8756L14.3204 41.8756Z" fill="#EFEFEF"/>
<path id="Vector_4" d="M5.2775 70.7306C10.492 71.0317 15.7323 70.5571 20.854 69.3227C25.6019 68.1781 30.2183 66.353 34.6706 64.0534C39.0765 61.7768 43.326 59.0298 47.3683 55.9117C51.3411 52.848 55.1368 49.3274 58.2777 45.0439C61.6455 40.4499 64.2812 34.9663 65.388 28.9204C65.602 27.7497 64.123 27.25 63.9082 28.4239C61.9214 39.2791 55.1343 47.4606 47.7464 53.3926C39.9642 59.6412 31.2917 64.552 22.1791 67.0732C16.6424 68.6056 10.9492 69.1909 5.27836 68.8627C4.29097 68.8052 4.29354 70.6721 5.27836 70.7296L5.2775 70.7306Z" fill="#EFEFEF"/>
<path id="Vector_5" d="M60.3453 17.9658C62.0847 16.4146 63.909 15.0087 65.8108 13.7701C66.7526 13.1565 67.728 12.4791 68.7377 12.0443C69.1536 11.8656 69.5524 11.761 69.9305 12.0997C70.3086 12.4384 70.6352 12.9537 70.9566 13.3791C72.4785 15.3923 73.9557 17.4568 75.3856 19.5682C75.7165 20.0574 76.0482 20.5466 76.3722 21.0431C76.6635 21.4916 77.021 22.0226 77.0966 22.6058C77.2229 23.5832 76.361 24.1424 75.6873 24.2657C75.1124 24.3703 74.5117 24.2772 73.9385 24.1978C73.3009 24.1089 72.6641 24.0128 72.0273 23.9208C70.7159 23.7306 69.4046 23.5403 68.0932 23.3511C67.6807 23.2915 67.3258 23.8225 67.3258 24.2846C67.3258 24.8386 67.6799 25.1584 68.0932 25.218C69.4321 25.4124 70.7718 25.6058 72.1107 25.8002C73.3146 25.9748 74.5761 26.3019 75.7895 26.1201C76.8482 25.9612 77.9267 25.3016 78.4002 24.0786C78.933 22.701 78.4655 21.3233 77.7574 20.1912C76.2012 17.7035 74.485 15.3401 72.7629 13.0216C72.0213 12.0234 71.253 10.6509 70.1806 10.1659C68.9972 9.63178 67.7624 10.5056 66.7243 11.115C64.2124 12.5889 61.82 14.3491 59.5719 16.354C59.2385 16.6519 59.0718 17.1641 59.2969 17.6313C59.4894 18.0317 60.011 18.2658 60.347 17.9658L60.3453 17.9658Z" fill="#EFEFEF"/>
<path id="Vector_6" d="M28.901 29.7936C30.1736 29.5239 31.4481 29.9839 32.4681 30.9186C32.7998 31.2218 33.3257 30.9834 33.5182 30.584C33.7477 30.1062 33.5749 29.6107 33.2432 29.3064C31.8812 28.0602 30.1573 27.6409 28.4928 27.9932C28.0846 28.08 27.8543 28.6896 27.9565 29.1412C28.0751 29.6661 28.491 29.8804 28.9001 29.7936L28.901 29.7936Z" fill="#EFEFEF"/>
<path id="Vector_7" d="M41.8221 25.6355C42.6677 25.9219 43.4411 26.3611 44.1707 26.9549C44.994 27.624 45.7639 26.0077 44.945 25.3427C44.126 24.6778 43.1936 24.1623 42.2294 23.8351C41.2652 23.5078 40.8699 25.3135 41.8212 25.6355L41.8221 25.6355Z" fill="#EFEFEF"/>
<path id="Vector_8" d="M36.4512 44.8227C37.1369 45.3904 37.6955 46.1296 38.1217 46.9932C38.6296 48.022 39.9573 47.0841 39.4469 46.0512C38.8814 44.9063 38.1312 43.9612 37.2254 43.2105C36.4065 42.533 35.6382 44.1494 36.4512 44.8227Z" fill="#EFEFEF"/>
<path id="Vector_9" d="M45.7897 37.2465C46.3328 37.6668 46.8759 38.0881 47.4199 38.5084C48.256 39.1556 49.026 37.5402 48.1942 36.8962C47.6511 36.4759 47.1079 36.0546 46.564 35.6343C45.7278 34.9871 44.9579 36.6024 45.7897 37.2465Z" fill="#EFEFEF"/>
<path id="Vector_10" d="M56.7533 28.5957C57.3952 29.1969 58.0371 29.797 58.6791 30.3982C59.0082 30.7055 59.5384 30.4598 59.7292 30.0636C59.9603 29.5816 59.7833 29.0944 59.4542 28.786C58.8123 28.1848 58.1703 27.5847 57.5284 26.9835C57.1993 26.6761 56.669 26.9218 56.4783 27.3181C56.2471 27.8001 56.4241 28.2873 56.7533 28.5957Z" fill="#EFEFEF"/>
<path id="Vector_11" d="M66.3805 18.2205C68.2565 17.7929 70.1316 17.3643 72.0075 16.9366C72.4149 16.8436 72.6469 16.2456 72.5438 15.7887C72.426 15.269 72.0084 15.0432 71.6002 15.1363C69.7242 15.5639 67.8492 15.9925 65.9732 16.4202C65.5659 16.5132 65.3338 17.1112 65.437 17.5681C65.5547 18.0878 65.9723 18.3136 66.3805 18.2205Z" fill="#EFEFEF"/>
<path id="Vector_12" d="M68.6973 21.1483C70.031 21.0865 71.3639 21.0258 72.6976 20.9641C73.6824 20.9191 73.6867 19.0497 72.6976 19.0947C71.3639 19.1565 70.031 19.2172 68.6973 19.2789C67.7125 19.324 67.7082 21.1933 68.6973 21.1483Z" fill="#EFEFEF"/>
</g>
</g>
</svg>
