<svg width="81" height="80" viewBox="0 0 81 80" fill="none" xmlns="http://www.w3.org/2000/svg">
<g id="drawing-mouse-secondary">
<g id="toy02">
<path id="Vector" d="M26.0866 29.2869C28.0559 26.9812 30.5826 25.1917 33.4038 24.1187C36.225 23.0457 39.7731 22.441 42.6749 23.6727C44.0573 24.2602 45.2808 25.2445 45.9759 26.603C46.5313 27.6875 46.6789 28.9662 46.5265 30.1727C46.1816 32.9073 44.6149 35.327 42.6648 37.2071C40.3247 39.4626 37.2603 40.9854 34.0286 41.237C33.1156 41.3081 33.2127 42.7375 34.1286 42.666C37.3364 42.4161 40.4118 41.0321 42.8632 38.9329C45.2153 36.9177 47.144 34.2709 47.7957 31.1918C48.0978 29.7656 48.0865 28.2509 47.625 26.8667C47.0883 25.2578 45.9634 23.9573 44.5601 23.05C41.5481 21.103 37.651 21.3281 34.3211 22.3033C30.735 23.3541 27.4638 25.4858 25.0241 28.3426C24.4236 29.046 25.4865 29.9896 26.087 29.2862L26.0866 29.2869Z" fill="#EF4E23"/>
<path id="Vector_2" d="M2.5803 31.2498C7.99276 25.3156 16.011 22.8846 23.7629 22.5175C26.088 22.4074 28.4154 22.4648 30.7333 22.6358C31.1158 22.6639 31.4879 22.4686 31.5664 22.0593C31.6334 21.7098 31.387 21.2539 31.0019 21.2255C22.7076 20.6136 14.0097 21.4134 6.75729 25.9518C4.82981 27.1581 3.05475 28.6214 1.51816 30.3066C0.894447 30.9906 1.95908 31.9324 2.58102 31.2502L2.5803 31.2498Z" fill="#EF4E23"/>
<path id="Vector_3" d="M49.0925 24.4309C52.9611 24.703 56.6942 25.8426 60.1487 27.5713C63.352 29.1748 66.6596 31.2302 68.6968 34.2691C69.6972 35.7614 70.2943 37.4641 70.7251 39.2049C71.169 40.9968 71.4945 42.8338 71.6625 44.6764C71.9845 48.2053 71.6497 52.0923 69.1553 54.8437C66.8587 57.3764 63.324 58.4344 60.0836 59.0013C56.7058 59.5924 53.2574 59.6319 49.8646 59.2418C42.7389 58.423 35.8863 55.898 29.492 52.7471C22.3499 49.227 15.8473 44.5391 10.7493 38.3586C10.13 37.6081 9.53347 36.8401 8.95608 36.0563C8.41386 35.3201 7.22411 36.1183 7.76849 36.8573C10.1714 40.1184 12.9342 43.1112 16.0074 45.7397C19.2287 48.4959 22.7922 50.8337 26.5221 52.8355C29.9759 54.6891 33.5766 56.2994 37.2653 57.6277C40.7013 58.865 44.2368 59.8563 47.8522 60.4175C51.388 60.9659 55.0119 61.1123 58.5765 60.6713C62.0631 60.2398 65.793 59.3656 68.6635 57.1978C70.1601 56.0677 71.3542 54.5807 72.0916 52.8476C72.8543 51.0534 73.1487 49.1168 73.1848 47.1822C73.2216 45.2444 72.9872 43.3113 72.639 41.4121C72.2967 39.5498 71.8972 37.674 71.1759 35.9213C69.6773 32.2805 66.7262 29.7536 63.4485 27.7602C60.0114 25.6694 56.2113 24.0961 52.2395 23.379C51.2875 23.2073 50.3261 23.0893 49.3608 23.0213C48.9775 22.9946 48.6058 23.1874 48.5277 23.5978C48.461 23.9466 48.7075 24.4042 49.0921 24.4316L49.0925 24.4309Z" fill="#EF4E23"/>
<path id="Vector_4" d="M18.4114 30.3182C17.8487 31.1725 17.3715 32.0729 16.9812 33.0184C16.6299 33.8693 17.9031 34.4975 18.2573 33.6408C18.6477 32.6953 19.1249 31.7949 19.6875 30.9406C19.9014 30.6162 19.6773 30.1363 19.3644 29.9837C18.9821 29.7972 18.6257 29.9931 18.4114 30.3182Z" fill="#EF4E23"/>
<path id="Vector_5" d="M4.46735 32.0598C4.36632 32.3739 4.35657 32.6986 4.36074 33.0255C4.36366 33.2498 4.40232 33.4916 4.33181 33.7105C4.31497 33.7632 4.30067 33.8251 4.25882 33.8638C4.25031 33.8721 4.29946 33.8675 4.19388 33.8482C3.90674 33.795 3.63069 33.6809 3.37023 33.5512C3.18803 33.4605 2.85489 33.3348 2.74246 33.1609C2.8276 33.2928 2.81677 33.1264 2.87175 33.0064C2.93624 32.8651 3.0068 32.7241 3.09094 32.5933C3.39184 32.1287 3.80594 31.782 4.28211 31.5148C4.61933 31.3257 4.68304 30.8215 4.48443 30.5196C4.25781 30.1755 3.83674 30.1357 3.49845 30.3252C2.6744 30.787 1.98928 31.5189 1.59564 32.384C1.3923 32.8318 1.2625 33.3046 1.45983 33.7741C1.65716 34.2436 2.17612 34.5415 2.60673 34.7739C3.38431 35.1925 4.51223 35.6164 5.24794 34.8824C5.56173 34.5691 5.73192 34.1222 5.77282 33.6865C5.81607 33.2243 5.72072 32.7651 5.86525 32.3164C5.98453 31.9468 5.64394 31.5461 5.30079 31.4826C4.88452 31.4058 4.58733 31.6887 4.4677 32.0591L4.46735 32.0598Z" fill="#EF4E23"/>
<path id="Vector_6" d="M12.2832 36.3195C15.1106 37.9286 18.082 39.2641 21.1624 40.311C21.5251 40.4341 21.9303 40.3561 22.1154 39.9764C22.2692 39.6612 22.1579 39.1441 21.7923 39.0195C18.7119 37.9727 15.7398 36.6368 12.9131 35.0281C12.1182 34.5759 11.4919 35.8691 12.2832 36.3195Z" fill="#EF4E23"/>
<path id="Vector_7" d="M11.607 38.8565C14.2524 41.5368 17.0208 44.0919 19.9034 46.5128C20.6034 47.1013 21.5508 46.022 20.8501 45.4332C17.9675 43.0123 15.1998 40.4576 12.5537 37.7769C11.9096 37.1244 10.9675 38.209 11.607 38.8565Z" fill="#EF4E23"/>
<path id="Vector_8" d="M6.30789 25.4914C7.15771 23.5858 8.15401 21.7516 9.29078 20.0012C9.50187 19.6754 9.28205 19.1976 8.96767 19.0443C8.58755 18.8589 8.22718 19.0519 8.01467 19.3788C6.87897 21.1288 5.88195 22.9626 5.03178 24.869C4.6562 25.7116 5.93054 26.3376 6.30789 25.4914Z" fill="#EF4E23"/>
<path id="Vector_9" d="M3.03986 26.4198C2.28342 25.256 2.12333 23.8451 2.53206 22.5138C2.64598 22.1425 2.31467 21.7446 1.9676 21.68C1.5556 21.6035 1.24878 21.8844 1.13451 22.2565C0.622388 23.9267 0.911921 25.774 1.85227 27.2208C2.35298 27.9913 3.53949 27.1889 3.03986 26.4198Z" fill="#EF4E23"/>
<path id="Vector_10" d="M12.3419 24.5766C12.0578 25.0557 11.7734 25.5337 11.4893 26.0127C11.2911 26.3466 11.488 26.8114 11.8124 26.9696C12.1811 27.1495 12.5665 26.9704 12.7654 26.6351C13.0495 26.1561 13.3339 25.6781 13.618 25.199C13.8162 24.8651 13.6192 24.4003 13.2949 24.2421C12.9262 24.0623 12.5408 24.2413 12.3419 24.5766Z" fill="#EF4E23"/>
<path id="Vector_11" d="M13.9511 21.5528C15.6701 19.287 18.0147 17.5681 20.6621 16.5759C21.9838 16.0802 23.3595 15.7657 24.7623 15.655C26.1195 15.5472 27.6814 15.5365 28.9745 16.0025C29.6793 16.2567 30.2712 16.7352 30.2618 17.5451C30.2542 18.2315 29.9 18.9216 29.5129 19.4704C29.2904 19.787 29.2626 20.2085 29.5715 20.4818C29.8346 20.7149 30.3522 20.7328 30.5761 20.4133C31.5034 19.0959 32.2417 17.1833 31.103 15.766C29.9668 14.3507 27.8447 14.2171 26.1614 14.1811C22.9277 14.1122 19.6621 15.1009 16.9349 16.8678C15.3898 17.8686 14.0047 19.1381 12.8883 20.6093C12.3318 21.3422 13.3918 22.2897 13.9511 21.5528Z" fill="#EF4E23"/>
<path id="Vector_12" d="M74.0689 49.3955C76.3661 50.5795 78.0399 52.751 78.7735 55.2311C79.4788 57.615 79.476 61.391 76.9459 62.7339C75.7009 63.3951 74.197 63.3704 72.8388 63.2827C71.9893 63.2273 71.1393 63.1511 70.2862 63.1539C69.5282 63.1574 68.7002 63.194 68.032 63.6065C67.7318 63.7922 67.4727 64.0731 67.3233 64.3941C67.1438 64.7783 67.1416 65.1854 67.0354 65.5864C66.8896 66.1374 66.435 66.4492 65.9239 66.6376C65.2982 66.8686 64.6336 66.9347 63.973 66.9562C63.1428 66.9828 62.3114 66.9791 61.4813 66.9583C57.6845 66.8617 53.9065 66.2785 50.2515 65.2764C49.8818 65.1748 49.4864 65.4958 49.4184 65.8528C49.3407 66.2607 49.6125 66.5848 49.9829 66.6867C53.4812 67.6455 57.074 68.1967 60.7023 68.356C62.3441 68.4281 64.088 68.5447 65.7073 68.1825C66.4309 68.0208 67.125 67.7256 67.6733 67.2089C67.923 66.9744 68.1318 66.677 68.2663 66.3613C68.4283 65.9821 68.4494 65.5923 68.5444 65.1982C68.7098 64.5145 69.6966 64.5912 70.2422 64.5825C71.1166 64.5686 71.9855 64.6585 72.8571 64.7085C74.4608 64.8006 76.1017 64.7568 77.571 64.0037C80.5382 62.4828 80.9505 58.5092 80.3316 55.5873C79.6582 52.4107 77.5715 49.5822 74.6992 48.1016C73.8863 47.6827 73.2571 48.9745 74.0693 49.393L74.0689 49.3955Z" fill="#EF4E23"/>
<path id="Vector_13" d="M64.5947 31.1714C62.0994 31.9934 59.6051 32.815 57.1098 33.6369C56.5893 33.8082 55.9545 33.9274 55.5976 34.3871C55.199 34.8997 55.3439 35.5165 55.5598 36.0639C55.9624 37.0829 56.3493 38.1085 56.6796 39.154C57.3142 41.1624 57.7507 43.2487 57.6796 45.373C57.6648 45.8259 57.6148 46.2785 57.5429 46.7268C57.4604 47.2424 57.2008 47.8489 57.3617 48.366C57.5501 48.9699 58.1792 49.1398 58.7397 49.0497C59.3952 48.9443 60.0472 48.7807 60.6958 48.6388C63.4079 48.0469 66.0985 47.3506 68.7615 46.5585C69.6439 46.2961 69.1837 44.9438 68.3045 45.2051C66.6343 45.7027 64.9535 46.162 63.2622 46.5813C62.429 46.7881 61.5936 46.9848 60.756 47.1715C60.347 47.263 59.9384 47.3519 59.5286 47.4376C59.3307 47.4789 59.1339 47.5198 58.9356 47.56C58.8185 47.5844 58.7006 47.6119 58.5824 47.6295C58.5447 47.6379 58.5062 47.6424 58.4674 47.6441C58.3626 47.6485 58.389 47.6578 58.547 47.6731L58.7474 47.9767C58.7027 47.8779 58.8559 47.455 58.8844 47.3023C58.952 46.9424 59.0036 46.5791 59.0381 46.2146C59.1031 45.5338 59.1231 44.8472 59.0925 44.1645C59.0316 42.7805 58.7784 41.4084 58.4294 40.0728C58.0856 38.7539 57.6364 37.4661 57.1456 36.1983C57.0344 35.9113 56.9483 35.5784 56.7993 35.3106C56.7853 35.285 56.7814 35.2222 56.7592 35.2007C56.7413 35.183 56.6526 35.2597 56.7314 35.2686C56.8858 35.2857 57.1861 35.1144 57.3387 35.0644C58.1196 34.8071 58.9012 34.5501 59.6825 34.292C61.4716 33.7029 63.2611 33.1132 65.0503 32.5241C65.9248 32.2363 65.4667 30.8833 64.5933 31.1707L64.5947 31.1714Z" fill="#EF4E23"/>
<path id="Vector_14" d="M59.9072 33.2028C60.3788 34.0021 60.8512 34.8018 61.3224 35.6018C61.7898 36.3936 62.9748 35.5887 62.51 34.8008C62.0452 34.0128 61.5661 33.2018 61.0948 32.4018C60.6275 31.6099 59.4424 32.4149 59.9072 33.2028Z" fill="#EF4E23"/>
<path id="Vector_15" d="M63.279 32.5468C63.6313 33.2843 63.9829 34.0215 64.3348 34.7597C64.5005 35.1073 64.8424 35.3385 65.2373 35.1999C65.5681 35.0837 65.8491 34.6363 65.6827 34.2866C65.3304 33.5491 64.9788 32.8119 64.6269 32.0737C64.4612 31.7261 64.1193 31.4949 63.7245 31.6335C63.3936 31.7496 63.1126 32.1971 63.279 32.5468Z" fill="#EF4E23"/>
<path id="Vector_16" d="M56.6158 42.2304C57.414 42.157 58.2123 42.0835 59.0108 42.0094C59.9231 41.9253 59.8267 40.4962 58.9109 40.5804C58.1127 40.6538 57.3144 40.7272 56.5158 40.8014C55.6036 40.8855 55.7 42.3145 56.6158 42.2304Z" fill="#EF4E23"/>
<path id="Vector_17" d="M56.2027 45.2788C57.554 45.1144 58.9044 44.9495 60.2557 44.7851C61.1631 44.6745 61.0689 43.2447 60.1557 43.3561C58.8045 43.5206 57.454 43.6854 56.1028 43.8498C55.1953 43.9604 55.2896 45.3902 56.2027 45.2788Z" fill="#EF4E23"/>
<path id="Vector_18" d="M66.1143 45.8116C66.341 46.7993 66.567 47.7867 66.7933 48.7752C66.8794 49.1519 67.3575 49.3341 67.6958 49.2154C68.0906 49.0768 68.2276 48.6799 68.1412 48.3021C67.9145 47.3143 67.6885 46.3269 67.4621 45.3384C67.3761 44.9617 66.898 44.7795 66.5597 44.8983C66.1649 45.0369 66.0279 45.4338 66.1143 45.8116Z" fill="#EF4E23"/>
</g>
</g>
</svg>
