<svg width="81" height="80" viewBox="0 0 81 80" fill="none" xmlns="http://www.w3.org/2000/svg">
<g id="drawing-cat-food-secondary">
<g id="food">
<g id="food_2">
<g id="Group">
<path id="Vector" d="M8.58996 41.9414C8.75598 39.7558 9.75942 37.6656 11.307 36.1278C12.943 34.5025 15.1671 33.605 17.4629 33.5676C18.7874 33.5463 20.1207 33.7974 21.3303 34.3475C21.6712 34.5025 22.216 34.4136 22.2899 33.9553C22.6285 31.8512 23.7475 29.8955 25.4501 28.6044C26.1983 28.0367 27.0489 27.6012 27.9887 27.4793C28.7595 27.3794 29.6898 27.4976 30.1857 28.1711C30.3605 28.4083 30.6223 28.5559 30.9229 28.4722C31.1796 28.4017 31.4312 28.1219 31.4027 27.8399C31.1518 25.3972 33.3276 23.462 35.1305 22.1885C37.2331 20.7028 39.8061 19.6511 42.3461 20.6139C43.5529 21.0715 44.6141 21.8859 45.6307 22.6644C46.5624 23.3783 47.4847 24.1222 48.2643 25.005C48.9576 25.7901 49.5676 26.7647 49.6554 27.8355C49.708 28.4832 49.6693 29.2044 50.4248 29.4526C50.9514 29.626 51.5562 29.4049 52.1003 29.4159C54.3983 29.4629 56.5053 31.2373 56.9485 33.4941C57.0202 33.8591 57.4269 34.017 57.7516 33.9524C60.5388 33.3943 63.7276 32.8148 66.2676 34.4841C66.7971 34.8322 67.2125 35.2832 67.6053 35.7767C67.8159 36.0418 68.0302 36.2908 68.2979 36.5001C68.6058 36.741 68.9502 36.8835 69.3049 37.0392C70.4393 37.5393 71.2416 38.5168 71.6695 39.6728C72.267 41.2885 72.1829 43.0467 72.0644 44.7366C72.0052 45.579 73.3121 45.5753 73.3706 44.7366C73.582 41.7218 73.4284 38.1481 70.658 36.2835C70.0619 35.8817 69.3188 35.7503 68.8244 35.2053C68.33 34.6604 67.9007 34.0743 67.2922 33.6116C66.1389 32.734 64.7237 32.2941 63.2997 32.1318C61.3265 31.9071 59.3328 32.3014 57.4049 32.6877L58.208 33.146C57.7472 30.801 55.7908 28.9004 53.5148 28.304C52.9436 28.1542 52.3387 28.0807 51.7485 28.1101C51.4772 28.1233 51.211 28.1821 50.9404 28.2012C50.8051 28.2107 50.7327 28.1373 50.887 28.2886C51.0903 28.4883 50.9492 28.3664 50.9784 28.3091C51.0311 28.2063 50.9667 27.8883 50.9572 27.7811C50.8358 26.4915 50.247 25.3663 49.4411 24.3741C48.6205 23.3643 47.6002 22.5418 46.5763 21.7508C45.4712 20.8974 44.3493 20.0462 43.0577 19.4969C40.31 18.327 37.4116 19.137 34.9966 20.6999C32.5817 22.2627 29.7769 24.7186 30.0972 27.8391L31.3142 27.5079C30.1813 25.9708 28.1393 25.8753 26.474 26.5275C24.6559 27.2398 23.1397 28.7278 22.1729 30.4096C21.6068 31.3944 21.2126 32.4828 21.0312 33.6058L21.9908 33.2136C19.5239 32.0929 16.6591 31.9342 14.1001 32.8574C11.6756 33.7321 9.65337 35.5197 8.45978 37.8125C7.79058 39.0992 7.39491 40.4931 7.28448 41.9399C7.22085 42.7816 8.52707 42.7779 8.59069 41.9399L8.58996 41.9414Z" fill="#EF4E23"/>
<path id="Vector_2" d="M8.49269 45.2832C8.824 46.9525 10.5851 47.6913 12.0588 48.0534C14.1322 48.5623 16.2437 48.9464 18.3493 49.2931C22.6856 50.0069 27.062 50.4637 31.4466 50.7399C35.8289 51.016 40.2208 51.1137 44.6104 51.1196C49.1039 51.1255 53.5996 51.052 58.0873 50.8052C60.5052 50.6723 62.9355 50.5254 65.3395 50.2251C67.4824 49.957 69.6604 49.4826 71.4405 48.1871C71.7258 47.9792 71.8655 47.6164 71.6746 47.2896C71.51 47.0068 71.0683 46.8453 70.7808 47.0546C69.2896 48.14 67.5102 48.602 65.711 48.8634C63.6705 49.1602 61.5942 49.2769 59.5376 49.4077C55.1845 49.6853 50.8219 49.7866 46.4608 49.805C37.9842 49.8402 29.4719 49.5905 21.0692 48.3927C18.6908 48.0534 16.3234 47.6399 13.9735 47.1383C13.0586 46.9429 12.1034 46.7836 11.2346 46.4222C10.5493 46.1373 9.90349 45.7047 9.75064 44.9343C9.58681 44.1074 8.3274 44.4569 8.49123 45.2832H8.49269Z" fill="#EF4E23"/>
<path id="Vector_3" d="M5.827 46.145C3.82891 49.4322 2.09631 52.8723 0.632113 56.4312C0.277401 57.2927 -0.258689 58.2644 0.14283 59.1993C0.472675 59.9675 1.24938 60.5726 1.87178 61.0992C3.19189 62.2148 4.6612 63.1335 6.20731 63.8973C9.47431 65.5108 13.0236 66.5912 16.5642 67.4049C20.1047 68.2186 24.0204 68.7709 27.7935 69.0764C35.4414 69.6956 43.1617 69.5068 50.8213 69.2196C54.8204 69.0698 58.8202 68.8157 62.7893 68.2899C66.2363 67.8331 69.6803 67.1706 72.9356 65.9148C74.5475 65.2927 76.1112 64.5385 77.5651 63.6006C78.2424 63.1636 79.0417 62.698 79.5617 62.0716C80.2192 61.2791 80.0203 60.4177 79.7182 59.5209C78.4267 55.6917 77.089 51.8779 75.7052 48.0809C75.3681 47.1563 75.028 46.2324 74.6857 45.3092C74.5629 44.9773 74.244 44.7511 73.8827 44.851C73.5653 44.9383 73.3027 45.3239 73.4263 45.6573C74.7779 49.3001 76.0885 52.9589 77.3552 56.6325C77.6763 57.563 77.9944 58.495 78.3096 59.4269C78.4471 59.8323 78.6373 60.2532 78.7075 60.6769C78.7719 61.0639 78.5444 61.2828 78.2621 61.5127C77.0268 62.5218 75.5736 63.3193 74.135 63.9913C71.1284 65.3955 67.8562 66.1799 64.5951 66.7101C60.8878 67.3131 57.1308 67.6061 53.3825 67.7956C49.5853 67.9873 45.7815 68.0747 41.9806 68.1268C38.1797 68.179 34.6574 68.1606 31.0006 67.9748C23.7915 67.6076 16.5437 66.5596 9.75516 64.0053C8.23904 63.4346 6.7551 62.7707 5.3538 61.9526C4.6356 61.5332 3.93496 61.075 3.27746 60.5638C2.66384 60.0872 2.00854 59.5606 1.51487 58.9547C1.24061 58.6183 1.28449 58.3429 1.42638 57.9478C1.58362 57.5079 1.76939 57.0761 1.94784 56.6442C2.30255 55.7872 2.67701 54.9382 3.06609 54.0965C3.84061 52.4213 4.67875 50.7762 5.57833 49.1657C6.02227 48.371 6.48157 47.5852 6.95476 46.8082C7.39358 46.0855 6.26508 45.426 5.827 46.1465V46.145Z" fill="#EF4E23"/>
</g>
<g id="Group_2">
<path id="Vector_4" d="M12.3743 18.9824C13.0472 19.6581 13.7193 20.333 14.3922 21.0086C14.9875 21.6065 15.9112 20.6789 15.3159 20.0811C14.643 19.4054 13.9709 18.7305 13.298 18.0548C12.7027 17.457 11.779 18.3846 12.3743 18.9824Z" fill="#EF4E23"/>
<path id="Vector_5" d="M22.9631 13.5399C23.4633 14.0922 23.9636 14.6445 24.4638 15.1975C25.0306 15.8233 25.9522 14.8935 25.3876 14.27C24.8873 13.7177 24.387 13.1654 23.8868 12.6124C23.32 11.9867 22.3985 12.9164 22.9631 13.5399Z" fill="#EF4E23"/>
<path id="Vector_6" d="M35.8788 9.65583C35.9578 10.3741 36.0368 11.0924 36.1158 11.8099C36.1545 12.1617 36.3886 12.4657 36.7689 12.4657C37.0921 12.4657 37.4607 12.1639 37.422 11.8099C37.343 11.0916 37.264 10.3734 37.185 9.65583C37.1462 9.30405 36.9122 9 36.5319 9C36.2086 9 35.84 9.30185 35.8788 9.65583Z" fill="#EF4E23"/>
<path id="Vector_7" d="M48.6486 9.73364C48.3963 10.4512 48.144 11.1687 47.8924 11.8862C47.6123 12.6838 48.8739 13.0268 49.1518 12.2351C49.4041 11.5175 49.6564 10.8 49.908 10.0825C50.1881 9.28491 48.9265 8.94193 48.6486 9.73364Z" fill="#EF4E23"/>
<path id="Vector_8" d="M60.0394 13.6222C59.5347 14.129 59.0308 14.635 58.5262 15.1417C57.9309 15.7395 58.8546 16.6671 59.4499 16.0693C59.9545 15.5625 60.4585 15.0565 60.9631 14.5498C61.5584 13.952 60.6347 13.0244 60.0394 13.6222Z" fill="#EF4E23"/>
<path id="Vector_9" d="M69.1245 19.4714C68.4517 19.9782 67.7796 20.4842 67.1067 20.9909C66.8251 21.2032 66.6796 21.5579 66.8727 21.8884C67.035 22.1675 67.4826 22.3371 67.7664 22.1234C68.4392 21.6166 69.1114 21.1106 69.7842 20.6039C70.0658 20.3916 70.2113 20.0369 70.0183 19.7064C69.8559 19.4273 69.4083 19.2577 69.1245 19.4714Z" fill="#EF4E23"/>
</g>
<g id="Group_3">
<path id="Vector_10" d="M54.141 39.2813C54.0569 38.9589 53.9721 38.6365 53.8879 38.3149L53.7797 37.9006L53.7073 37.6245C53.6678 37.4651 53.6605 37.4402 53.6846 37.5489L53.3848 37.941C53.3138 37.9924 53.4169 37.9557 53.4798 37.9623C53.572 37.9719 53.6641 37.9756 53.7563 37.9836C53.9633 38.0013 54.1703 38.0226 54.3772 38.0468C54.7327 38.0887 55.0859 38.1474 55.437 38.2142C55.8231 38.2877 56.2064 38.3743 56.5874 38.4728C56.6679 38.4933 56.7732 38.5433 56.8551 38.5447L56.9626 38.5763L56.8602 38.4081C56.8456 38.4155 56.8266 38.8752 56.8229 38.9009C56.7308 39.5355 56.5457 40.1729 56.2722 40.7516C56.1332 41.0454 55.9745 41.3304 55.7975 41.6028C55.7025 41.7497 55.603 41.8944 55.4948 42.0325C55.4494 42.0905 55.4019 42.147 55.3543 42.2029C55.328 42.2337 55.3017 42.2645 55.2746 42.2954C55.192 42.374 55.2315 42.3718 55.3924 42.2903L55.7222 42.3799C55.5233 42.2866 55.3302 41.9752 55.1861 41.7982C54.9974 41.5669 54.819 41.3296 54.6449 41.0873C54.4387 40.8001 54.0766 40.6613 53.7512 40.8523C53.4689 41.0182 53.3094 41.4604 53.5171 41.7497C53.8587 42.2256 54.2178 42.692 54.6047 43.1312C55.0267 43.6093 55.6264 43.7899 56.1281 43.3001C56.8975 42.5495 57.4446 41.475 57.7854 40.4667C57.9609 39.9475 58.0692 39.4121 58.1342 38.8679C58.2081 38.2561 58.1094 37.6656 57.4921 37.3851C56.9685 37.1471 56.3468 37.0561 55.7844 36.9488C55.1598 36.8299 54.5279 36.7417 53.8945 36.6837C53.5683 36.6536 53.1939 36.5831 52.8831 36.7175C52.5722 36.8519 52.3652 37.1648 52.3667 37.5114C52.3682 37.858 52.5079 38.2025 52.5927 38.5256C52.6892 38.8936 52.7858 39.2623 52.8823 39.6302C53.0959 40.4461 54.356 40.1002 54.1417 39.2813H54.141Z" fill="#EF4E23"/>
<path id="Vector_11" d="M28.0157 40.1605C28.426 40.0945 28.8012 39.913 29.1756 39.7397C29.428 39.6222 29.771 39.4232 30.0584 39.5054C30.4285 39.6119 30.7707 40.1091 31.0238 40.3772C31.3507 40.7246 31.7815 41.1021 31.998 41.5302L31.9087 41.199C32.0462 41.0198 32.0536 40.9824 31.93 41.0866C31.8605 41.1381 31.7932 41.1917 31.7274 41.2475C31.622 41.3481 31.5299 41.4663 31.4494 41.5875C31.3105 41.7976 31.222 42.0326 31.1108 42.2573C31.0223 42.4365 30.9558 42.601 30.7554 42.6605C30.487 42.7398 30.1754 42.695 29.8982 42.7281C29.7198 42.7494 29.5596 42.7839 29.3899 42.8397C29.2641 42.8816 29.1062 42.8683 29.2568 42.9623C29.0593 42.839 28.9445 42.4343 28.848 42.2404C28.5079 41.5581 28.1671 40.8759 27.827 40.1936C27.4503 39.4386 26.3233 40.1025 26.6992 40.8553C26.9969 41.4524 27.2953 42.0495 27.593 42.6466C27.8285 43.1188 28.0303 43.6747 28.4699 43.9979C28.6915 44.1609 28.9518 44.2446 29.2283 44.2307C29.5047 44.2167 29.7432 44.0669 30.0138 44.0258C30.5864 43.9384 31.135 44.0331 31.6381 43.6711C32.0382 43.3832 32.2086 42.9587 32.4192 42.5327C32.6299 42.1068 33.1543 41.9136 33.2164 41.401C33.2925 40.7716 32.6555 40.2274 32.2722 39.8014C31.8634 39.3461 31.4421 38.8503 30.9397 38.4971C30.4372 38.1438 29.8244 38.1086 29.2583 38.2922C28.6922 38.4758 28.2388 38.8026 27.6698 38.8944C27.3209 38.951 27.1278 39.3865 27.2134 39.7008C27.315 40.0732 27.6676 40.2156 28.0164 40.1591L28.0157 40.1605Z" fill="#EF4E23"/>
<path id="Vector_12" d="M40.634 30.7188C41.301 30.5029 42.3761 30.099 42.9743 30.6769C43.3751 31.064 43.3554 31.8028 42.9904 32.2016C42.5501 32.6826 41.7332 32.6812 41.2191 32.3294C40.6032 31.9086 40.4168 31.0603 40.593 30.3692C40.8014 29.5511 39.542 29.2022 39.3336 30.0204C38.8165 32.0488 40.3319 34.1977 42.5165 33.8423C43.4534 33.6903 44.2615 33.0183 44.4934 32.0789C44.7077 31.2116 44.4663 30.2069 43.7627 29.6289C42.7586 28.8042 41.4158 29.0877 40.288 29.4527C39.4916 29.7105 39.8317 30.9773 40.6354 30.7173L40.634 30.7188Z" fill="#EF4E23"/>
</g>
</g>
</g>
</g>
</svg>
