<svg width="80" height="80" viewBox="0 0 80 80" fill="none" xmlns="http://www.w3.org/2000/svg">
<g id="drawing-yarn">
<g id="toy01">
<path id="Vector" d="M12.3282 43.8018C9.89797 40.0249 9.99126 35.2338 11.1123 31.0321C12.1401 27.1824 14.034 23.5679 16.5522 20.4843C19.0856 17.3825 22.2113 14.7852 25.736 12.8827C29.4791 10.8627 33.6508 9.69902 37.8931 9.4229C42.3439 9.13388 46.8266 9.77335 51.0332 11.2503C55.3103 12.7522 59.2969 15.1561 62.5645 18.3049C65.7509 21.3756 68.1181 25.1897 69.4546 29.4088C70.7531 33.5096 71.1142 37.9343 70.3678 42.1792C69.6602 46.2042 67.9763 49.9947 65.5514 53.2786C63.1622 56.5138 60.0304 59.2136 56.4776 61.0956C55.6182 61.5507 54.7353 61.9581 53.829 62.31C53.4884 62.442 53.2517 62.7652 53.3557 63.1429C53.4452 63.4684 53.8456 63.749 54.1885 63.6163C58.1478 62.0787 61.7172 59.6368 64.6063 56.5229C67.4878 53.4166 69.6935 49.6761 70.9352 45.6201C72.2557 41.3046 72.4211 36.6789 71.5723 32.2549C70.7182 27.806 68.7955 23.5762 65.9724 20.0322C62.9703 16.2636 58.9495 13.2726 54.592 11.2472C50.3657 9.28408 45.7601 8.17202 41.1007 8.01804C36.5468 7.86784 31.9533 8.65447 27.7498 10.425C23.8777 12.0566 20.3484 14.4787 17.4146 17.4872C14.4808 20.4957 12.1507 24.086 10.6602 28.0206C9.07425 32.2079 8.32865 37.0559 9.71593 41.4032C10.0618 42.4872 10.5427 43.5287 11.1586 44.4853C11.6288 45.2158 12.8022 44.5376 12.3282 43.8018Z" fill="#EFEFEF"/>
<path id="Vector_2" d="M29.7219 55.0718C36.8744 52.5928 43.7653 49.0116 49.275 43.7487C54.3705 38.881 58.3807 32.4393 59.4972 25.4013C60.1282 21.4257 59.8028 17.1261 57.5038 13.7035C57.0199 12.9836 55.8465 13.661 56.3343 14.3869C58.2654 17.2627 58.681 20.7923 58.3078 24.1724C57.9354 27.5427 56.7605 30.8493 55.1745 33.832C51.8508 40.0833 46.5755 45.039 40.5379 48.6445C37.0094 50.7518 33.2405 52.4199 29.3608 53.764C28.5424 54.0477 28.8944 55.357 29.7211 55.0703L29.7219 55.0718Z" fill="#EFEFEF"/>
<path id="Vector_3" d="M38.3656 56.3598C44.2257 52.8515 49.9955 49.0101 54.7361 44.0445C59.1065 39.4666 62.6236 33.8441 63.954 27.5981C64.689 24.1481 64.8354 20.2438 62.8216 17.1754C62.3453 16.4495 61.1719 17.1276 61.652 17.8589C63.3321 20.4183 63.3237 23.6505 62.7829 26.5619C62.2254 29.5613 61.1431 32.4385 59.6799 35.1109C56.6308 40.6795 52.0693 45.24 47.0253 49.0275C44.0399 51.2691 40.8846 53.2732 37.683 55.1894C36.9359 55.6369 37.6162 56.8089 38.3664 56.3591L38.3656 56.3598Z" fill="#EFEFEF"/>
<path id="Vector_4" d="M46.5118 56.237C51.1795 53.1572 55.7487 49.7914 59.4774 45.5898C63.1478 41.4548 65.9564 36.4695 66.8924 30.973C67.4105 27.9319 67.3468 24.8119 66.539 21.8262C66.3114 20.9857 65.0045 21.3422 65.2328 22.1865C66.6095 27.2719 65.6614 32.7131 63.4034 37.4026C61.0619 42.265 57.3483 46.2823 53.2199 49.6951C50.8701 51.637 48.3716 53.3901 45.8284 55.068C45.104 55.5459 45.7814 56.7194 46.5118 56.2377V56.237Z" fill="#EFEFEF"/>
<path id="Vector_5" d="M11.6251 45.2423C13.8618 48.1901 16.9808 50.2215 20.3113 51.7493C23.9642 53.4242 27.8363 54.7517 31.7296 55.7386C39.423 57.6881 47.4812 57.6926 55.1563 55.6362C59.3697 54.5067 63.4269 52.7734 67.1458 50.4924C67.8876 50.0372 67.208 48.8652 66.4624 49.3226C60.0645 53.2475 52.6768 55.486 45.1806 55.8167C41.3465 55.9859 37.5154 55.6506 33.7677 54.8291C30.02 54.0075 25.9924 52.6914 22.2917 51.1478C18.7344 49.664 15.1664 47.6841 12.7954 44.5589C12.5747 44.2676 12.2114 44.1151 11.8685 44.3161C11.5818 44.4838 11.4028 44.9495 11.6258 45.2431L11.6251 45.2423Z" fill="#EFEFEF"/>
<path id="Vector_6" d="M9.75839 44.2767C10.7983 47.8313 12.2849 51.4679 15.2256 53.8771C16.7357 55.1143 18.4628 56.0124 20.221 56.84C22.1089 57.7283 24.0135 58.5999 25.9848 59.2872C30.0222 60.695 34.3282 61.025 38.5772 60.975C42.8566 60.9249 47.1375 60.4197 51.313 59.4829C53.5908 58.9724 55.842 58.3329 58.0431 57.5569C60.1889 56.7998 62.2967 55.8858 64.1747 54.5863C64.4751 54.3785 64.6124 53.9924 64.4175 53.6594C64.2438 53.362 63.7932 53.2073 63.4906 53.4166C60.2397 55.6665 56.2887 56.8537 52.4925 57.8102C48.5256 58.81 44.4623 59.4017 40.3748 59.5724C36.2873 59.7431 32.0762 59.6247 28.1116 58.5339C26.1494 57.9946 24.266 57.2125 22.4168 56.3705C20.6776 55.5785 18.9149 54.7873 17.313 53.7375C15.6215 52.63 14.279 51.1735 13.2725 49.4228C12.2819 47.6993 11.6205 45.8173 11.0645 43.9156C10.8203 43.0804 9.51264 43.4362 9.75839 44.2759V44.2767Z" fill="#EFEFEF"/>
<path id="Vector_7" d="M17.9926 57.0425C21.8032 60.9924 27.1445 62.948 32.4668 63.7892C38.2632 64.7056 44.3266 64.651 50.0752 63.438C53.3921 62.7379 56.6187 61.597 59.598 59.9729C60.3633 59.5557 59.6807 58.3852 58.9146 58.8032C53.7895 61.597 47.9658 62.8243 42.1656 63.014C36.7796 63.19 31.1683 62.6908 26.1099 60.7277C23.434 59.6892 20.9492 58.1561 18.9513 56.0845C18.3445 55.4556 17.388 56.4145 17.9933 57.0425H17.9926Z" fill="#EFEFEF"/>
<path id="Vector_8" d="M38.3345 65.345C43.7342 66.1468 49.281 65.6356 54.4251 63.7907C55.2397 63.4987 54.8886 62.1887 54.0648 62.4845C49.1635 64.2429 43.851 64.8042 38.6948 64.0388C38.3338 63.9849 37.9666 64.1291 37.862 64.5121C37.774 64.8315 37.9712 65.2912 38.3353 65.345H38.3345Z" fill="#EFEFEF"/>
<path id="Vector_9" d="M15.3674 55.2819C12.9554 55.1795 10.5161 56.3045 8.99537 58.1774C7.42226 60.1147 6.92393 62.6628 7.58609 65.0667C7.90617 66.2295 8.48718 67.3135 9.28359 68.2192C10.1748 69.2327 11.3505 69.9268 12.5853 70.4388C15.3811 71.5964 18.5 71.9779 21.4892 72.2654C27.8006 72.8715 34.1674 73.0513 40.5023 72.7888C43.6606 72.6576 46.8152 72.4111 49.9546 72.0379C53.0887 71.6654 56.1886 71.1026 59.3068 70.6269C62.343 70.1634 65.4642 69.8411 68.5262 70.2552C71.4896 70.6558 74.2779 71.9567 77.2838 72.1016C78.0301 72.1372 78.7711 72.0803 79.5054 71.9484C79.8656 71.8839 80.0689 71.4447 79.9787 71.1154C79.874 70.7362 79.5069 70.5776 79.1458 70.6421C76.3402 71.1458 73.5611 69.9768 70.8783 69.3313C67.971 68.6319 64.9894 68.6061 62.0275 68.9156C59.0011 69.2319 56.0149 69.8335 53.0068 70.2772C50.0122 70.7187 46.9995 71.0343 43.98 71.2421C37.9143 71.6601 31.8221 71.6351 25.7557 71.2459C22.7718 71.054 19.7614 70.8477 16.8268 70.2507C14.3935 69.7561 11.5902 69.0552 10.0057 66.9767C8.69273 65.254 8.28163 62.8858 8.99992 60.8377C9.72883 58.7569 11.6744 57.2193 13.7981 56.7589C14.3154 56.6466 14.8388 56.6147 15.3674 56.6375C16.2389 56.6747 16.2374 55.3199 15.3674 55.2827V55.2819Z" fill="#EFEFEF"/>
<path id="Vector_10" d="M70.0644 15.4262C71.7179 17.4356 72.7828 19.8683 73.2068 22.43C73.2668 22.7911 73.7135 22.9928 74.0397 22.9033C74.4227 22.7979 74.5729 22.4323 74.513 22.0704C74.0495 19.2698 72.8223 16.6565 71.0216 14.4688C70.7888 14.1859 70.3049 14.2276 70.0637 14.4688C69.7838 14.7488 69.8308 15.1432 70.0637 15.4269L70.0644 15.4262Z" fill="#EFEFEF"/>
<path id="Vector_11" d="M75.188 17.6374C75.9541 19.1963 76.2848 20.9175 76.1968 22.6493C76.1521 23.5209 77.5067 23.5186 77.5515 22.6493C77.6524 20.6755 77.2284 18.7244 76.3584 16.954C75.9738 16.1719 74.805 16.8576 75.1888 17.6374H75.188Z" fill="#EFEFEF"/>
<path id="Vector_12" d="M6.17757 25.9755C5.1703 27.9372 4.66742 30.1196 4.74934 32.3255C4.78119 33.1948 6.13586 33.1986 6.104 32.3255C6.03119 30.3585 6.4476 28.412 7.34792 26.659C7.74537 25.8845 6.5773 25.1988 6.17833 25.9755H6.17757Z" fill="#EFEFEF"/>
<path id="Vector_13" d="M0.0724886 30.8888C-0.277175 34.3508 0.648183 37.9161 2.63163 40.7751C2.84022 41.0755 3.22553 41.2128 3.55851 41.0179C3.85584 40.8442 4.01133 40.3928 3.80123 40.0909C1.93686 37.4026 1.09873 34.143 1.42715 30.888C1.46432 30.5231 1.08962 30.2106 0.74982 30.2106C0.35313 30.2106 0.109655 30.5224 0.0724886 30.888V30.8888Z" fill="#EFEFEF"/>
<path id="Vector_14" d="M11.6182 29.1843C11.4999 34.275 12.5398 39.3513 14.6044 44.0021C15.1915 45.3242 15.8658 46.6055 16.6182 47.8412C17.071 48.5845 18.2429 47.9049 17.7878 47.1577C15.2468 42.9848 13.6313 38.2468 13.1344 33.3837C12.9918 31.9887 12.9403 30.5868 12.9729 29.185C12.9934 28.3127 11.6387 28.3134 11.6182 29.185V29.1843Z" fill="#EFEFEF"/>
<path id="Vector_15" d="M16.1502 22.2578C16.3611 30.5269 18.3847 38.7126 22.0194 46.1412C23.0502 48.2485 24.2137 50.2883 25.4986 52.2507C25.9742 52.9774 27.1476 52.2993 26.6682 51.5672C22.2333 44.7933 19.3063 37.087 18.0942 29.0819C17.7521 26.8229 17.5625 24.5411 17.5041 22.2578C17.4821 21.3877 16.1275 21.3839 16.1494 22.2578H16.1502Z" fill="#EFEFEF"/>
<path id="Vector_16" d="M21.3231 17.9408C21.2139 22.8525 21.8662 27.7832 23.2193 32.5053C24.5717 37.2243 26.6196 41.7583 29.2873 45.8803C30.7898 48.2015 32.4911 50.396 34.3646 52.4297C34.9562 53.0723 35.9127 52.1127 35.3226 51.4717C32.0838 47.9565 29.4071 43.949 27.3523 39.6343C25.2999 35.3241 23.8959 30.7014 23.1807 25.9824C22.7779 23.3244 22.6179 20.6284 22.6778 17.9408C22.6975 17.0685 21.3428 17.0693 21.3231 17.9408Z" fill="#EFEFEF"/>
<path id="Vector_17" d="M59.0276 46.5804C58.8464 48.6726 58.304 50.7397 57.4295 52.6497C57.277 52.982 57.3347 53.3787 57.6722 53.5767C57.9635 53.7474 58.4459 53.6677 58.5991 53.3339C59.5798 51.1918 60.179 48.9282 60.3823 46.5804C60.4142 46.2156 60.0486 45.903 59.705 45.903C59.3121 45.903 59.0595 46.2141 59.0276 46.5804Z" fill="#EFEFEF"/>
<path id="Vector_18" d="M65.7767 35.6359C66.567 40.7243 66.0634 45.9728 64.3833 50.836C64.0981 51.6621 65.4058 52.0163 65.6894 51.1963C67.4529 46.0927 67.9103 40.6075 67.0828 35.2763C67.0267 34.9145 66.5731 34.7142 66.25 34.803C65.8639 34.9092 65.7205 35.2733 65.7767 35.6359Z" fill="#EFEFEF"/>
<path id="Vector_19" d="M25.0496 23.0938C27.6292 18.487 31.9063 15.2176 36.3526 12.5345C37.6359 11.76 38.9436 11.028 40.2596 10.3127C41.0256 9.89625 40.343 8.72578 39.5762 9.14299C34.8561 11.71 30.0738 14.5546 26.5233 18.6675C25.5236 19.8259 24.6286 21.0745 23.8807 22.4103C23.4545 23.1719 24.624 23.8554 25.0503 23.0938H25.0496Z" fill="#EFEFEF"/>
<path id="Vector_20" d="M26.4467 30.7568C30.7618 24.9158 36.1675 19.8767 42.2809 15.961C44.0111 14.8527 45.7981 13.8355 47.6321 12.9093C48.4103 12.5163 47.7254 11.3466 46.9487 11.7396C40.3127 15.0917 34.2925 19.6734 29.2895 25.173C27.8681 26.7356 26.5324 28.3749 25.2771 30.0741C25.0594 30.3684 25.2286 30.8304 25.5198 31.001C25.8642 31.2028 26.2283 31.0534 26.4467 30.7583V30.7568Z" fill="#EFEFEF"/>
<path id="Vector_21" d="M29.4078 37.3411C32.6686 33.4466 36.1789 29.7631 39.919 26.326C43.38 23.1453 47.0131 20.0163 51.1833 17.7959C53.4596 16.5845 55.8951 15.6993 58.4497 15.3116C58.8115 15.257 59.0117 14.8011 58.923 14.4787C58.8168 14.0919 58.4527 13.9508 58.0901 14.0054C53.4133 14.7147 49.19 17.0806 45.4545 19.8881C41.4656 22.8859 37.7778 26.3245 34.3016 29.8973C32.2711 31.9849 30.3203 34.1491 28.4506 36.3823C28.2162 36.663 28.176 37.0658 28.4506 37.3404C28.6918 37.5816 29.1727 37.6225 29.4086 37.3404L29.4078 37.3411Z" fill="#EFEFEF"/>
<path id="Vector_22" d="M41.3123 26.414C46.1083 25.0622 51.0658 24.3917 56.0483 24.4228C56.9198 24.4281 56.9213 23.0733 56.0483 23.068C50.9528 23.0369 45.8572 23.7249 40.9521 25.1077C40.1139 25.3437 40.4704 26.6514 41.3123 26.414Z" fill="#EFEFEF"/>
<path id="Vector_23" d="M31.1046 36.999C37.1164 34.5473 43.3648 32.6858 49.7407 31.4592C51.5254 31.1156 53.32 30.8197 55.1222 30.5777C55.4847 30.5292 55.7995 30.3009 55.7995 29.9003C55.7995 29.5719 55.487 29.1736 55.1222 29.2229C48.6007 30.0976 42.1755 31.5942 35.9521 33.7349C34.1985 34.3379 32.4623 34.9918 30.7443 35.6927C30.406 35.8308 30.1663 36.1433 30.271 36.5256C30.359 36.8465 30.7633 37.1378 31.1038 36.999H31.1046Z" fill="#EFEFEF"/>
<path id="Vector_24" d="M32.5814 43.6198C37.2757 41.4085 42.2294 39.7579 47.3082 38.6952C48.7463 38.394 50.1943 38.1422 51.6483 37.9358C52.0108 37.8843 52.2096 37.423 52.1216 37.1029C52.0146 36.713 51.6521 36.578 51.2888 36.6296C46.0696 37.3715 40.9422 38.7217 36.0393 40.6591C34.6399 41.2121 33.2587 41.8098 31.898 42.4508C31.5673 42.6063 31.4823 43.0819 31.6552 43.3778C31.8532 43.7169 32.2499 43.7775 32.5821 43.6205L32.5814 43.6198Z" fill="#EFEFEF"/>
<path id="Vector_25" d="M35.4257 46.9415C38.6106 46.0813 41.7963 45.2203 44.9812 44.3601C45.8216 44.1333 45.4651 42.8256 44.6209 43.0539C41.436 43.9141 38.2503 44.7751 35.0654 45.6353C34.225 45.8621 34.5815 47.1699 35.4257 46.9415Z" fill="#EFEFEF"/>
<path id="Vector_26" d="M50.5546 19.9237C52.5547 19.7348 54.5617 19.6476 56.5701 19.662C57.4416 19.6681 57.4432 18.3133 56.5701 18.3072C54.5617 18.2928 52.5547 18.38 50.5546 18.5689C50.1905 18.603 49.8772 18.8556 49.8772 19.2463C49.8772 19.5861 50.1882 19.9586 50.5546 19.9237Z" fill="#EFEFEF"/>
</g>
</g>
</svg>
