<svg width="80" height="80" viewBox="0 0 80 80" fill="none" xmlns="http://www.w3.org/2000/svg">
<g id="drawing-yarn-secondary">
<g id="toy01">
<path id="Vector" d="M12.328 43.8018C9.89783 40.0249 9.99112 35.2338 11.1122 31.0321C12.1399 27.1824 14.0339 23.5679 16.5521 20.4843C19.0854 17.3825 22.2112 14.7852 25.7359 12.8827C29.479 10.8627 33.6507 9.69902 37.8929 9.4229C42.3438 9.13388 46.8264 9.77335 51.033 11.2503C55.3101 12.7522 59.2968 15.1561 62.5643 18.3049C65.7508 21.3756 68.118 25.1897 69.4545 29.4088C70.753 33.5096 71.114 37.9343 70.3677 42.1792C69.66 46.2042 67.9762 49.9947 65.5513 53.2786C63.162 56.5138 60.0302 59.2136 56.4775 61.0956C55.6181 61.5507 54.7352 61.9581 53.8288 62.31C53.4883 62.442 53.2516 62.7652 53.3555 63.1429C53.445 63.4684 53.8455 63.749 54.1883 63.6163C58.1477 62.0787 61.7171 59.6368 64.6062 56.5229C67.4877 53.4166 69.6934 49.6761 70.935 45.6201C72.2556 41.3046 72.4209 36.6789 71.5722 32.2549C70.7181 27.806 68.7953 23.5762 65.9722 20.0322C62.9701 16.2636 58.9494 13.2726 54.5919 11.2472C50.3655 9.28408 45.76 8.17202 41.1006 8.01804C36.5466 7.86784 31.9532 8.65447 27.7497 10.425C23.8776 12.0566 20.3483 14.4787 17.4145 17.4872C14.4806 20.4957 12.1505 24.086 10.6601 28.0206C9.07411 32.2079 8.32851 37.0559 9.71579 41.4032C10.0617 42.4872 10.5425 43.5287 11.1584 44.4853C11.6287 45.2158 12.8021 44.5376 12.328 43.8018Z" fill="#EF4E23"/>
<path id="Vector_2" d="M29.7219 55.0719C36.8745 52.5929 43.7654 49.0117 49.275 43.7488C54.3706 38.8811 58.3807 32.4393 59.4972 25.4014C60.1283 21.4257 59.8029 17.1262 57.5039 13.7035C57.02 12.9837 55.8466 13.6611 56.3343 14.387C58.2654 17.2627 58.6811 20.7923 58.3079 24.1725C57.9355 27.5428 56.7606 30.8494 55.1746 33.832C51.8509 40.0834 46.5756 45.0391 40.538 48.6445C37.0095 50.7518 33.2405 52.4199 29.3609 53.7641C28.5425 54.0478 28.8944 55.3571 29.7212 55.0703L29.7219 55.0719Z" fill="#EF4E23"/>
<path id="Vector_3" d="M38.3658 56.3599C44.2259 52.8516 49.9957 49.0102 54.7363 44.0446C59.1067 39.4667 62.6238 33.8442 63.9542 27.5982C64.6892 24.1482 64.8356 20.2439 62.8218 17.1755C62.3454 16.4495 61.1721 17.1277 61.6522 17.859C63.3322 20.4184 63.3239 23.6506 62.7831 26.562C62.2256 29.5613 61.1432 32.4386 59.6801 35.111C56.631 40.6796 52.0694 45.2401 47.0255 49.0276C44.04 51.2692 40.8847 53.2733 37.6831 55.1894C36.936 55.637 37.6164 56.809 38.3665 56.3592L38.3658 56.3599Z" fill="#EF4E23"/>
<path id="Vector_4" d="M46.5118 56.2369C51.1796 53.1571 55.7487 49.7914 59.4775 45.5897C63.1478 41.4547 65.9565 36.4694 66.8925 30.9729C67.4105 27.9318 67.3468 24.8118 66.539 21.8261C66.3115 20.9856 65.0046 21.3421 65.2329 22.1864C66.6096 27.2718 65.6614 32.713 63.4034 37.4025C61.062 42.2649 57.3484 46.2822 53.2199 49.695C50.8701 51.6369 48.3717 53.39 45.8285 55.0679C45.1041 55.5458 45.7814 56.7193 46.5118 56.2376V56.2369Z" fill="#EF4E23"/>
<path id="Vector_5" d="M11.6249 45.2423C13.8617 48.19 16.9806 50.2215 20.3111 51.7492C23.964 53.4241 27.8361 54.7516 31.7294 55.7385C39.4228 57.688 47.481 57.6926 55.1562 55.6361C59.3696 54.5066 63.4267 52.7733 67.1456 50.4923C67.8874 50.0372 67.2078 48.8652 66.4622 49.3226C60.0643 53.2474 52.6767 55.4859 45.1805 55.8167C41.3463 55.9858 37.5152 55.6505 33.7675 54.829C30.0198 54.0075 25.9922 52.6914 22.2915 51.1477C18.7342 49.6639 15.1663 47.6841 12.7952 44.5588C12.5745 44.2675 12.2112 44.115 11.8684 44.3161C11.5817 44.4837 11.4027 44.9495 11.6257 45.243L11.6249 45.2423Z" fill="#EF4E23"/>
<path id="Vector_6" d="M9.75863 44.2768C10.7985 47.8315 12.2852 51.468 15.2258 53.8772C16.736 55.1145 18.4631 56.0126 20.2212 56.8402C22.1091 57.7285 24.0137 58.6001 25.985 59.2873C30.0225 60.6952 34.3284 61.0252 38.5775 60.9751C42.8569 60.9251 47.1378 60.4199 51.3133 59.483C53.591 58.9725 55.8422 58.333 58.0433 57.557C60.1891 56.8 62.297 55.8859 64.175 54.5865C64.4753 54.3787 64.6126 53.9925 64.4177 53.6595C64.244 53.3622 63.7935 53.2074 63.4908 53.4168C60.2399 55.6667 56.289 56.8538 52.4927 57.8104C48.5258 58.8102 44.4626 59.4019 40.3751 59.5725C36.2876 59.7432 32.0764 59.6249 28.1118 58.5341C26.1496 57.9947 24.2663 57.2126 22.4171 56.3706C20.6779 55.5787 18.9151 54.7875 17.3132 53.7377C15.6218 52.6302 14.2792 51.1737 13.2727 49.4229C12.2821 47.6995 11.6207 45.8175 11.0648 43.9158C10.8205 43.0806 9.51288 43.4364 9.75863 44.2761V44.2768Z" fill="#EF4E23"/>
<path id="Vector_7" d="M17.9927 57.0427C21.8033 60.9926 27.1446 62.9482 32.4669 63.7894C38.2633 64.7058 44.3267 64.6512 50.0753 63.4382C53.3922 62.7381 56.6188 61.5972 59.5981 59.9731C60.3635 59.5559 59.6808 58.3854 58.9147 58.8034C53.7896 61.5972 47.9659 62.8245 42.1658 63.0142C36.7797 63.1902 31.1684 62.691 26.11 60.7279C23.4341 59.6894 20.9493 58.1563 18.9514 56.0847C18.3446 55.4558 17.3882 56.4147 17.9934 57.0427H17.9927Z" fill="#EF4E23"/>
<path id="Vector_8" d="M38.3347 65.3452C43.7344 66.147 49.2812 65.6357 54.4253 63.7909C55.2399 63.4988 54.8887 62.1888 54.065 62.4846C49.1636 64.243 43.8512 64.8043 38.6949 64.0389C38.3339 63.985 37.9668 64.1292 37.8621 64.5122C37.7741 64.8316 37.9713 65.2913 38.3354 65.3452H38.3347Z" fill="#EF4E23"/>
<path id="Vector_9" d="M15.3675 55.2818C12.9555 55.1794 10.5162 56.3044 8.99544 58.1773C7.42234 60.1146 6.92401 62.6627 7.58617 65.0666C7.90625 66.2294 8.48726 67.3134 9.28367 68.2192C10.1749 69.2326 11.3506 69.9267 12.5854 70.4387C15.3812 71.5963 18.5001 71.9778 21.4893 72.2653C27.8007 72.8714 34.1675 73.0512 40.5024 72.7887C43.6607 72.6575 46.8153 72.411 49.9547 72.0378C53.0888 71.6653 56.1887 71.1025 59.3069 70.6268C62.3431 70.1634 65.4643 69.841 68.5263 70.2551C71.4897 70.6557 74.2779 71.9566 77.2838 72.1015C78.0302 72.1371 78.7712 72.0803 79.5054 71.9483C79.8657 71.8838 80.069 71.4446 79.9787 71.1154C79.8741 70.7361 79.507 70.5775 79.1459 70.642C76.3403 71.1457 73.5612 69.9768 70.8784 69.3312C67.9711 68.6318 64.9895 68.606 62.0276 68.9155C59.0012 69.2318 56.015 69.8334 53.0068 70.2771C50.0123 70.7186 46.9996 71.0342 43.98 71.242C37.9144 71.66 31.8222 71.635 25.7558 71.2458C22.7719 71.0539 19.7615 70.8476 16.8269 70.2506C14.3936 69.756 11.5902 69.0551 10.0058 66.9766C8.69281 65.2539 8.28171 62.8857 9 60.8376C9.7289 58.7568 11.6744 57.2192 13.7982 56.7588C14.3155 56.6465 14.8389 56.6146 15.3675 56.6374C16.239 56.6746 16.2375 55.3198 15.3675 55.2826V55.2818Z" fill="#EF4E23"/>
<path id="Vector_10" d="M70.0645 15.4262C71.718 17.4356 72.783 19.8683 73.207 22.43C73.2669 22.7911 73.7136 22.9928 74.0398 22.9033C74.4228 22.7979 74.573 22.4323 74.5131 22.0704C74.0496 19.2698 72.8224 16.6565 71.0217 14.4688C70.7889 14.1859 70.305 14.2276 70.0638 14.4688C69.7839 14.7488 69.8309 15.1432 70.0638 15.4269L70.0645 15.4262Z" fill="#EF4E23"/>
<path id="Vector_11" d="M75.1879 17.6375C75.9539 19.1963 76.2847 20.9175 76.1967 22.6493C76.1519 23.5209 77.5066 23.5186 77.5513 22.6493C77.6522 20.6755 77.2282 18.7245 76.3582 16.954C75.9737 16.1719 74.8048 16.8576 75.1886 17.6375H75.1879Z" fill="#EF4E23"/>
<path id="Vector_12" d="M6.17759 25.9755C5.17032 27.9371 4.66744 30.1195 4.74936 32.3254C4.78121 33.1947 6.13588 33.1985 6.10402 32.3254C6.03121 30.3585 6.44762 28.412 7.34794 26.6589C7.74539 25.8844 6.57732 25.1987 6.17835 25.9755H6.17759Z" fill="#EF4E23"/>
<path id="Vector_13" d="M0.0724886 30.8886C-0.277175 34.3507 0.648183 37.916 2.63163 40.775C2.84022 41.0754 3.22553 41.2127 3.55851 41.0177C3.85584 40.844 4.01133 40.3927 3.80123 40.0908C1.93686 37.4024 1.09873 34.1429 1.42715 30.8878C1.46432 30.523 1.08962 30.2104 0.74982 30.2104C0.35313 30.2104 0.109655 30.5222 0.0724886 30.8878V30.8886Z" fill="#EF4E23"/>
<path id="Vector_14" d="M11.6185 29.1845C11.5001 34.2752 12.54 39.3515 14.6046 44.0023C15.1917 45.3245 15.866 46.6057 16.6184 47.8414C17.0712 48.5848 18.2431 47.9051 17.788 47.1579C15.2471 42.985 13.6315 38.247 13.1347 33.3839C12.9921 31.9889 12.9405 30.5871 12.9731 29.1852C12.9936 28.3129 11.6389 28.3136 11.6185 29.1852V29.1845Z" fill="#EF4E23"/>
<path id="Vector_15" d="M16.1504 22.258C16.3613 30.5271 18.3849 38.7128 22.0196 46.1414C23.0504 48.2487 24.2139 50.2885 25.4988 52.2509C25.9744 52.9776 27.1478 52.2994 26.6684 51.5674C22.2335 44.7934 19.3065 37.0872 18.0944 29.082C17.7524 26.823 17.5627 24.5413 17.5043 22.258C17.4823 21.3879 16.1277 21.3841 16.1497 22.258H16.1504Z" fill="#EF4E23"/>
<path id="Vector_16" d="M21.3233 17.9411C21.2141 22.8528 21.8664 27.7835 23.2195 32.5055C24.5719 37.2246 26.6198 41.7585 29.2874 45.8805C30.79 48.2018 32.4913 50.3963 34.3648 52.43C34.9564 53.0725 35.9129 52.1129 35.3227 51.4719C32.084 47.9567 29.4073 43.9492 27.3525 39.6345C25.3001 35.3244 23.8961 30.7017 23.1808 25.9826C22.7781 23.3246 22.618 20.6287 22.678 17.9411C22.6977 17.0687 21.343 17.0695 21.3233 17.9411Z" fill="#EF4E23"/>
<path id="Vector_17" d="M59.0277 46.5802C58.8464 48.6724 58.3041 50.7394 57.4295 52.6495C57.2771 52.9818 57.3347 53.3785 57.6722 53.5765C57.9635 53.7472 58.4459 53.6675 58.5991 53.3337C59.5798 51.1915 60.179 48.928 60.3823 46.5802C60.4142 46.2154 60.0486 45.9028 59.705 45.9028C59.3121 45.9028 59.0595 46.2138 59.0277 46.5802Z" fill="#EF4E23"/>
<path id="Vector_18" d="M65.7765 35.6361C66.5669 40.7245 66.0632 45.973 64.3832 50.8362C64.098 51.6623 65.4056 52.0165 65.6893 51.1965C67.4528 46.0929 67.9102 40.6077 67.0827 35.2765C67.0265 34.9147 66.573 34.7144 66.2498 34.8032C65.8638 34.9094 65.7204 35.2735 65.7765 35.6361Z" fill="#EF4E23"/>
<path id="Vector_19" d="M25.0494 23.094C27.629 18.4872 31.9062 15.2178 36.3524 12.5347C37.6358 11.7602 38.9434 11.0282 40.2594 10.3129C41.0255 9.89645 40.3428 8.72598 39.576 9.14319C34.8559 11.7102 30.0736 14.5548 26.5231 18.6677C25.5235 19.8261 24.6284 21.0747 23.8806 22.4105C23.4543 23.1721 24.6239 23.8556 25.0502 23.094H25.0494Z" fill="#EF4E23"/>
<path id="Vector_20" d="M26.4467 30.7569C30.7617 24.916 36.1675 19.8769 42.2809 15.9611C44.011 14.8529 45.798 13.8356 47.632 12.9094C48.4102 12.5165 47.7253 11.3468 46.9486 11.7397C40.3126 15.0918 34.2925 19.6736 29.2895 25.1732C27.8681 26.7358 26.5324 28.3751 25.2771 30.0742C25.0594 30.3686 25.2285 30.8305 25.5198 31.0012C25.8641 31.203 26.2282 31.0535 26.4467 30.7585V30.7569Z" fill="#EF4E23"/>
<path id="Vector_21" d="M29.4076 37.3412C32.6684 33.4467 36.1787 29.7631 39.9188 26.326C43.3798 23.1454 47.013 20.0163 51.1831 17.796C53.4594 16.5846 55.8949 15.6993 58.4495 15.3117C58.8113 15.2571 59.0115 14.8012 58.9228 14.4788C58.8166 14.0919 58.4525 13.9508 58.0899 14.0054C53.4131 14.7147 49.1898 17.0807 45.4543 19.8881C41.4654 22.886 37.7776 26.3245 34.3014 29.8974C32.2709 31.9849 30.3201 34.1491 28.4504 36.3823C28.2161 36.663 28.1759 37.0658 28.4504 37.3404C28.6916 37.5816 29.1725 37.6226 29.4084 37.3404L29.4076 37.3412Z" fill="#EF4E23"/>
<path id="Vector_22" d="M41.3121 26.4139C46.1081 25.0622 51.0656 24.3916 56.0481 24.4227C56.9196 24.428 56.9211 23.0732 56.0481 23.0679C50.9526 23.0368 45.857 23.7248 40.9519 25.1077C40.1137 25.3436 40.4702 26.6514 41.3121 26.4139Z" fill="#EF4E23"/>
<path id="Vector_23" d="M31.1045 36.999C37.1163 34.5473 43.3647 32.6858 49.7406 31.4592C51.5253 31.1155 53.3199 30.8197 55.1221 30.5777C55.4846 30.5292 55.7994 30.3008 55.7994 29.9003C55.7994 29.5719 55.4869 29.1736 55.1221 29.2229C48.6006 30.0975 42.1754 31.5942 35.952 33.7349C34.1984 34.3379 32.4622 34.9918 30.7442 35.6927C30.4059 35.8308 30.1662 36.1433 30.2709 36.5256C30.3589 36.8465 30.7632 37.1378 31.1037 36.999H31.1045Z" fill="#EF4E23"/>
<path id="Vector_24" d="M32.5814 43.6198C37.2757 41.4086 42.2294 39.758 47.3083 38.6952C48.7464 38.3941 50.1943 38.1422 51.6484 37.9359C52.0109 37.8843 52.2096 37.4231 52.1216 37.103C52.0147 36.7131 51.6521 36.5781 51.2888 36.6297C46.0697 37.3715 40.9423 38.7218 36.0394 40.6592C34.64 41.2122 33.2588 41.8099 31.898 42.4509C31.5673 42.6064 31.4824 43.082 31.6553 43.3779C31.8533 43.7169 32.25 43.7776 32.5822 43.6206L32.5814 43.6198Z" fill="#EF4E23"/>
<path id="Vector_25" d="M35.4256 46.9416C38.6105 46.0814 41.7962 45.2205 44.9811 44.3602C45.8215 44.1334 45.465 42.8257 44.6208 43.054C41.4359 43.9142 38.2502 44.7752 35.0653 45.6354C34.2249 45.8622 34.5814 47.17 35.4256 46.9416Z" fill="#EF4E23"/>
<path id="Vector_26" d="M50.5548 19.9237C52.5549 19.7348 54.5619 19.6476 56.5704 19.662C57.4419 19.6681 57.4434 18.3133 56.5704 18.3072C54.5619 18.2928 52.5549 18.38 50.5548 18.5689C50.1907 18.603 49.8774 18.8556 49.8774 19.2463C49.8774 19.5861 50.1884 19.9586 50.5548 19.9237Z" fill="#EF4E23"/>
</g>
</g>
</svg>
