<svg width="81" height="80" viewBox="0 0 81 80" fill="none" xmlns="http://www.w3.org/2000/svg">
<g id="drawing-cat-food">
<g id="food">
<g id="food_2">
<g id="Group">
<path id="Vector" d="M8.59002 41.9416C8.75604 39.7559 9.75948 37.6658 11.307 36.1279C12.9431 34.5027 15.1672 33.6052 17.4629 33.5677C18.7874 33.5464 20.1207 33.7976 21.3304 34.3477C21.6712 34.5027 22.2161 34.4138 22.29 33.9555C22.6286 31.8514 23.7476 29.8957 25.4502 28.6046C26.1984 28.0368 27.0489 27.6013 27.9887 27.4794C28.7596 27.3795 29.6899 27.4978 30.1858 28.1712C30.3606 28.4085 30.6224 28.5561 30.923 28.4724C31.1797 28.4019 31.4313 28.122 31.4028 27.84C31.1519 25.3974 33.3277 23.4622 35.1305 22.1887C37.2332 20.703 39.8061 19.6513 42.3462 20.6141C43.5529 21.0716 44.6141 21.8861 45.6307 22.6646C46.5625 23.3784 47.4847 24.1224 48.2644 25.0052C48.9577 25.7903 49.5677 26.7648 49.6554 27.8356C49.7081 28.4834 49.6693 29.2046 50.4248 29.4528C50.9514 29.6261 51.5562 29.4051 52.1004 29.4161C54.3983 29.4631 56.5054 31.2374 56.9486 33.4943C57.0203 33.8593 57.4269 34.0172 57.7516 33.9526C60.5389 33.3944 63.7276 32.815 66.2677 34.4843C66.7972 34.8324 67.2126 35.2833 67.6053 35.7769C67.816 36.042 68.0302 36.291 68.2979 36.5003C68.6058 36.7412 68.9503 36.8836 69.305 37.0393C70.4394 37.5395 71.2417 38.517 71.6695 39.673C72.267 41.2887 72.1829 43.0469 72.0645 44.7368C72.0052 45.5791 73.3122 45.5755 73.3707 44.7368C73.582 41.722 73.4284 38.1483 70.658 36.2836C70.062 35.8819 69.3189 35.7504 68.8245 35.2055C68.3301 34.6606 67.9008 34.0745 67.2923 33.6118C66.1389 32.7342 64.7237 32.2943 63.2998 32.132C61.3266 31.9072 59.3329 32.3016 57.405 32.6879L58.208 33.1462C57.7473 30.8012 55.7909 28.9005 53.5148 28.3042C52.9436 28.1544 52.3388 28.0809 51.7486 28.1103C51.4773 28.1235 51.211 28.1823 50.9404 28.2014C50.8051 28.2109 50.7327 28.1375 50.8871 28.2888C51.0904 28.4885 50.9492 28.3666 50.9785 28.3093C51.0311 28.2065 50.9668 27.8885 50.9573 27.7813C50.8359 26.4916 50.2471 25.3665 49.4411 24.3743C48.6206 23.3645 47.6003 22.5419 46.5764 21.751C45.4713 20.8976 44.3494 20.0464 43.0578 19.497C40.3101 18.3271 37.4117 19.1372 34.9967 20.7C32.5817 22.2629 29.7769 24.7188 30.0973 27.8393L31.3143 27.5081C30.1814 25.9709 28.1394 25.8755 26.4741 26.5276C24.6559 27.24 23.1398 28.7279 22.1729 30.4097C21.6069 31.3946 21.2127 32.483 21.0313 33.6059L21.9908 33.2138C19.5239 32.093 16.6592 31.9344 14.1001 32.8576C11.6757 33.7323 9.65343 35.5198 8.45984 37.8127C7.79064 39.0994 7.39497 40.4933 7.28454 41.9401C7.22091 42.7817 8.52713 42.7781 8.59076 41.9401L8.59002 41.9416Z" fill="#EFEFEF"/>
<path id="Vector_2" d="M8.49275 45.2832C8.82406 46.9525 10.5852 47.6913 12.0589 48.0534C14.1323 48.5623 16.2438 48.9464 18.3494 49.2931C22.6856 50.0069 27.0621 50.4637 31.4466 50.7399C35.829 51.016 40.2208 51.1137 44.6105 51.1196C49.104 51.1254 53.5997 51.052 58.0873 50.8052C60.5052 50.6723 62.9356 50.5254 65.3396 50.225C67.4824 49.957 69.6605 49.4825 71.4406 48.187C71.7258 47.9792 71.8655 47.6164 71.6746 47.2896C71.5101 47.0068 71.0683 46.8453 70.7809 47.0546C69.2896 48.14 67.5102 48.602 65.7111 48.8634C63.6706 49.1601 61.5942 49.2769 59.5376 49.4076C55.1845 49.6852 50.822 49.7866 46.4608 49.805C37.9843 49.8402 29.472 49.5905 21.0693 48.3927C18.6909 48.0534 16.3235 47.6399 13.9736 47.1383C13.0587 46.9429 12.1035 46.7836 11.2346 46.4222C10.5493 46.1373 9.90355 45.7047 9.7507 44.9343C9.58687 44.1074 8.32746 44.4569 8.49129 45.2832H8.49275Z" fill="#EFEFEF"/>
<path id="Vector_3" d="M5.82694 46.1453C3.82885 49.4326 2.09624 52.8726 0.632052 56.4316C0.27734 57.2931 -0.25875 58.2647 0.142769 59.1996C0.472614 59.9678 1.24932 60.573 1.87172 61.0995C3.19183 62.2151 4.66114 63.1339 6.20725 63.8977C9.47425 65.5112 13.0236 66.5915 16.5641 67.4052C20.1046 68.219 24.0204 68.7713 27.7935 69.0768C35.4414 69.6959 43.1616 69.5071 50.8212 69.22C54.8203 69.0702 58.8202 68.8161 62.7893 68.2902C66.2362 67.8334 69.6802 67.171 72.9355 65.9151C74.5474 65.2931 76.1111 64.5388 77.565 63.601C78.2423 63.164 79.0417 62.6984 79.5617 62.0719C80.2192 61.2795 80.0202 60.418 79.7182 59.5213C78.4266 55.692 77.0889 51.8782 75.7052 48.0813C75.368 47.1566 75.0279 46.2327 74.6857 45.3096C74.5628 44.9776 74.2439 44.7514 73.8826 44.8513C73.5652 44.9387 73.3027 45.3243 73.4263 45.6577C74.7778 49.3004 76.0884 52.9593 77.3551 56.6328C77.6762 57.5633 77.9944 58.4953 78.3096 59.4273C78.4471 59.8327 78.6372 60.2535 78.7074 60.6772C78.7718 61.0643 78.5443 61.2831 78.262 61.513C77.0268 62.5221 75.5735 63.3197 74.1349 63.9917C71.1283 65.3959 67.8562 66.1802 64.595 66.7105C60.8877 67.3134 57.1307 67.6065 53.3825 67.796C49.5852 67.9876 45.7814 68.075 41.9805 68.1272C38.1796 68.1793 34.6573 68.161 31.0005 67.9751C23.7914 67.6079 16.5436 66.5599 9.7551 64.0056C8.23898 63.435 6.75504 62.7711 5.35374 61.9529C4.63554 61.5336 3.9349 61.0753 3.2774 60.5641C2.66378 60.0875 2.00848 59.5609 1.51481 58.955C1.24055 58.6187 1.28443 58.3433 1.42631 57.9481C1.58356 57.5082 1.76932 57.0764 1.94778 56.6446C2.30249 55.7875 2.67695 54.9385 3.06603 54.0969C3.84055 52.4217 4.67869 50.7766 5.57827 49.166C6.02221 48.3713 6.48151 47.5855 6.9547 46.8085C7.39352 46.0858 6.26502 45.4263 5.82694 46.1468V46.1453Z" fill="#EFEFEF"/>
</g>
<g id="Group_2">
<path id="Vector_4" d="M12.3741 18.9822C13.0469 19.6579 13.7191 20.3328 14.3919 21.0085C14.9873 21.6063 15.911 20.6787 15.3156 20.0809C14.6428 19.4052 13.9707 18.7303 13.2978 18.0546C12.7025 17.4568 11.7788 18.3844 12.3741 18.9822Z" fill="#EFEFEF"/>
<path id="Vector_5" d="M22.9628 13.5402C23.4631 14.0924 23.9633 14.6447 24.4636 15.1977C25.0304 15.8235 25.9519 14.8937 25.3873 14.2702C24.887 13.7179 24.3868 13.1656 23.8865 12.6126C23.3197 11.9869 22.3982 12.9166 22.9628 13.5402Z" fill="#EFEFEF"/>
<path id="Vector_6" d="M35.8787 9.65583C35.9577 10.3741 36.0367 11.0924 36.1157 11.8099C36.1544 12.1617 36.3885 12.4657 36.7688 12.4657C37.092 12.4657 37.4606 12.1639 37.4219 11.8099C37.3429 11.0916 37.2639 10.3734 37.1849 9.65583C37.1462 9.30405 36.9121 9 36.5318 9C36.2085 9 35.8399 9.30185 35.8787 9.65583Z" fill="#EFEFEF"/>
<path id="Vector_7" d="M48.6483 9.73367C48.396 10.4512 48.1437 11.1687 47.8921 11.8862C47.612 12.6838 48.8736 13.0268 49.1515 12.2351C49.4038 11.5176 49.6562 10.8 49.9078 10.0825C50.1879 9.28494 48.9263 8.94196 48.6483 9.73367Z" fill="#EFEFEF"/>
<path id="Vector_8" d="M60.0394 13.6224C59.5347 14.1292 59.0308 14.6352 58.5262 15.1419C57.9308 15.7397 58.8545 16.6673 59.4499 16.0695C59.9545 15.5628 60.4584 15.0567 60.9631 14.55C61.5584 13.9522 60.6347 13.0246 60.0394 13.6224Z" fill="#EFEFEF"/>
<path id="Vector_9" d="M69.1244 19.4713C68.4515 19.9781 67.7794 20.4841 67.1065 20.9908C66.8249 21.2031 66.6794 21.5578 66.8725 21.8883C67.0348 22.1674 67.4824 22.337 67.7662 22.1233C68.4391 21.6166 69.1112 21.1105 69.784 20.6038C70.0656 20.3916 70.2112 20.0368 70.0181 19.7063C69.8557 19.4273 69.4081 19.2576 69.1244 19.4713Z" fill="#EFEFEF"/>
</g>
<g id="Group_3">
<path id="Vector_10" d="M54.1409 39.2815C54.0568 38.9591 53.972 38.6367 53.8879 38.315L53.7796 37.9008L53.7072 37.6246C53.6677 37.4653 53.6604 37.4403 53.6845 37.549L53.3847 37.9412C53.3137 37.9926 53.4169 37.9559 53.4798 37.9625C53.5719 37.972 53.6641 37.9757 53.7562 37.9838C53.9632 38.0014 54.1702 38.0227 54.3771 38.0469C54.7326 38.0888 55.0858 38.1475 55.4369 38.2144C55.823 38.2878 56.2063 38.3745 56.5873 38.4729C56.6678 38.4935 56.7731 38.5434 56.855 38.5449L56.9625 38.5764L56.8601 38.4083C56.8455 38.4156 56.8265 38.8754 56.8228 38.9011C56.7307 39.5356 56.5456 40.1731 56.2721 40.7518C56.1331 41.0456 55.9744 41.3305 55.7974 41.603C55.7024 41.7499 55.6029 41.8945 55.4947 42.0326C55.4493 42.0906 55.4018 42.1472 55.3542 42.203C55.3279 42.2338 55.3016 42.2647 55.2745 42.2955C55.1919 42.3741 55.2314 42.3719 55.3923 42.2904L55.7221 42.38C55.5232 42.2867 55.3301 41.9753 55.186 41.7983C54.9973 41.567 54.8189 41.3298 54.6448 41.0874C54.4386 40.8003 54.0765 40.6615 53.7511 40.8524C53.4688 41.0184 53.3093 41.4605 53.5171 41.7499C53.8586 42.2258 54.2177 42.6921 54.6046 43.1313C55.0266 43.6094 55.6263 43.7901 56.128 43.3002C56.8974 42.5496 57.4445 41.4752 57.7853 40.4668C57.9608 39.9476 58.0691 39.4122 58.1342 38.868C58.208 38.2562 58.1093 37.6658 57.492 37.3852C56.9684 37.1473 56.3467 37.0562 55.7843 36.949C55.1597 36.83 54.5278 36.7419 53.8944 36.6839C53.5682 36.6537 53.1938 36.5832 52.883 36.7176C52.5721 36.852 52.3652 37.1649 52.3666 37.5115C52.3681 37.8582 52.5078 38.2026 52.5926 38.5258C52.6891 38.8937 52.7857 39.2624 52.8822 39.6303C53.0958 40.4463 54.3559 40.1004 54.1416 39.2815H54.1409Z" fill="#EFEFEF"/>
<path id="Vector_11" d="M28.0158 40.1606C28.4261 40.0945 28.8013 39.9131 29.1758 39.7398C29.4281 39.6223 29.7711 39.4232 30.0585 39.5055C30.4286 39.612 30.7709 40.1092 31.0239 40.3772C31.3508 40.7246 31.7816 41.1021 31.9981 41.5303L31.9089 41.1991C32.0464 41.0199 32.0537 40.9824 31.9301 41.0867C31.8606 41.1381 31.7933 41.1917 31.7275 41.2475C31.6222 41.3481 31.53 41.4664 31.4496 41.5876C31.3106 41.7976 31.2221 42.0326 31.1109 42.2574C31.0225 42.4366 30.9559 42.6011 30.7555 42.6605C30.4871 42.7399 30.1755 42.6951 29.8983 42.7281C29.7199 42.7494 29.5597 42.7839 29.39 42.8397C29.2643 42.8816 29.1063 42.8684 29.2569 42.9624C29.0595 42.839 28.9446 42.4343 28.8481 42.2405C28.508 41.5582 28.1672 40.8759 27.8271 40.1936C27.4505 39.4387 26.3234 40.1026 26.6994 40.8554C26.997 41.4524 27.2954 42.0495 27.5931 42.6466C27.8286 43.1188 28.0304 43.6748 28.47 43.9979C28.6916 44.161 28.952 44.2447 29.2284 44.2307C29.5049 44.2168 29.7433 44.067 30.0139 44.0258C30.5866 43.9384 31.1351 44.0332 31.6383 43.6711C32.0383 43.3832 32.2087 42.9587 32.4194 42.5328C32.63 42.1068 33.1544 41.9136 33.2165 41.401C33.2926 40.7716 32.6556 40.2274 32.2724 39.8015C31.8635 39.3461 31.4423 38.8504 30.9398 38.4971C30.4374 38.1439 29.8245 38.1086 29.2584 38.2922C28.6923 38.4758 28.2389 38.8027 27.6699 38.8945C27.321 38.951 27.1279 39.3865 27.2135 39.7008C27.3152 40.0732 27.6677 40.2157 28.0165 40.1591L28.0158 40.1606Z" fill="#EFEFEF"/>
<path id="Vector_12" d="M40.6341 30.7189C41.3011 30.503 42.3762 30.0991 42.9744 30.6771C43.3752 31.0641 43.3555 31.8029 42.9905 32.2017C42.5502 32.6828 41.7333 32.6813 41.2191 32.3295C40.6033 31.9087 40.4168 31.0604 40.5931 30.3693C40.8015 29.5512 39.5421 29.2024 39.3337 30.0205C38.8166 32.049 40.332 34.1979 42.5166 33.8424C43.4535 33.6904 44.2616 33.0184 44.4935 32.0791C44.7078 31.2117 44.4664 30.207 43.7628 29.6291C42.7587 28.8043 41.4159 29.0878 40.2881 29.4528C39.4917 29.7106 39.8317 30.9774 40.6355 30.7175L40.6341 30.7189Z" fill="#EFEFEF"/>
</g>
</g>
</g>
</g>
</svg>
