<svg width="80" height="80" viewBox="0 0 80 80" fill="none" xmlns="http://www.w3.org/2000/svg">
<g id="drawing-fish-secondary">
<g id="fish">
<path id="Vector" d="M2.63758 64.3752C1.743 53.2639 6.78135 42.7651 13.0769 35.1993C19.4859 27.4966 27.764 22.3131 36.6463 20.4661C42.0146 19.3497 47.566 19.4657 52.9 20.7964C53.8641 21.0368 54.2766 19.2379 53.3081 18.9964C43.5245 16.5557 33.2003 18.0755 24.2055 23.3699C16.0546 28.1677 8.81457 36.0941 4.53244 45.8601C2.05408 51.512 0.585454 57.9384 1.10364 64.3752C1.14403 64.877 1.42761 65.3087 1.87104 65.3087C2.25431 65.3087 2.67882 64.8801 2.63844 64.3752L2.63758 64.3752Z" fill="#EF4E23"/>
<path id="Vector_2" d="M10.3888 52.2169C11.2705 53.2478 12.1522 54.2787 13.033 55.3095C13.7454 56.1428 14.8316 54.8234 14.1183 53.9891C13.2367 52.9582 12.355 51.9273 11.4741 50.8964C10.7617 50.0631 9.67552 51.3826 10.3888 52.2169Z" fill="#EF4E23"/>
<path id="Vector_3" d="M14.3202 41.8756C16.9997 42.1421 19.466 43.8125 21.4348 45.9689C23.5488 48.2842 25.3526 51.1765 26.8143 54.1388C27.6229 55.7768 28.2494 57.5527 28.1463 59.499C28.0827 60.699 29.6175 60.6938 29.6811 59.499C29.8848 55.6628 27.7579 52.25 25.9593 49.3483C24.1606 46.4466 21.9427 43.5376 19.1807 41.7669C17.664 40.7947 16.0312 40.1791 14.3211 40.0087C13.9078 39.9679 13.5537 40.4676 13.5537 40.9421C13.5537 41.4815 13.906 41.8348 14.3211 41.8756L14.3202 41.8756Z" fill="#EF4E23"/>
<path id="Vector_4" d="M5.27729 70.7307C10.4918 71.0317 15.7321 70.5572 20.8538 69.3227C25.6017 68.1781 30.2181 66.353 34.6704 64.0534C39.0763 61.7768 43.3258 59.0298 47.3681 55.9117C51.3409 52.848 55.1366 49.3275 58.2775 45.0439C61.6453 40.4499 64.2809 34.9663 65.3878 28.9204C65.6018 27.7497 64.1228 27.2501 63.908 28.4239C61.9212 39.2792 55.134 47.4606 47.7462 53.3926C39.964 59.6413 31.2915 64.552 22.1789 67.0732C16.6422 68.6056 10.949 69.191 5.27815 68.8628C4.29076 68.8053 4.29334 70.6721 5.27815 70.7296L5.27729 70.7307Z" fill="#EF4E23"/>
<path id="Vector_5" d="M60.3454 17.9658C62.0847 16.4146 63.9091 15.0087 65.8109 13.77C66.7527 13.1565 67.7281 12.4791 68.7378 12.0443C69.1537 11.8655 69.5525 11.761 69.9306 12.0997C70.3087 12.4384 70.6352 12.9537 70.9566 13.3791C72.4785 15.3923 73.9558 17.4568 75.3857 19.5682C75.7166 20.0574 76.0483 20.5466 76.3722 21.0431C76.6636 21.4916 77.021 22.0226 77.0967 22.6058C77.223 23.5832 76.3611 24.1424 75.6873 24.2657C75.1124 24.3703 74.5118 24.2772 73.9386 24.1978C73.3009 24.1089 72.6642 24.0128 72.0274 23.9208C70.716 23.7305 69.4046 23.5403 68.0933 23.3511C67.6808 23.2915 67.3259 23.8225 67.3259 24.2845C67.3259 24.8385 67.6799 25.1584 68.0933 25.218C69.4321 25.4124 70.7719 25.6058 72.1107 25.8002C73.3147 25.9748 74.5762 26.3019 75.7896 26.1201C76.8483 25.9612 77.9268 25.3016 78.4003 24.0786C78.9331 22.7009 78.4656 21.3233 77.7575 20.1912C76.2012 17.7034 74.4851 15.3401 72.763 13.0216C72.0214 12.0234 71.2531 10.6509 70.1806 10.1659C68.9973 9.63177 67.7624 10.5056 66.7243 11.115C64.2125 12.5889 61.82 14.3491 59.572 16.354C59.2386 16.6519 59.0719 17.1641 59.297 17.6313C59.4895 18.0317 60.0111 18.2658 60.3471 17.9658L60.3454 17.9658Z" fill="#EF4E23"/>
<path id="Vector_6" d="M28.9007 29.7934C30.1734 29.5237 31.4478 29.9837 32.4679 30.9184C32.7996 31.2216 33.3255 30.9832 33.518 30.5839C33.7474 30.1061 33.5747 29.6105 33.243 29.3062C31.8809 28.06 30.1571 27.6407 28.4925 27.9931C28.0843 28.0798 27.854 28.6894 27.9563 29.141C28.0749 29.6659 28.4908 29.8802 28.8999 29.7934L28.9007 29.7934Z" fill="#EF4E23"/>
<path id="Vector_7" d="M41.8222 25.6353C42.6678 25.9217 43.4412 26.3609 44.1708 26.9547C44.994 27.6238 45.764 26.0075 44.9451 25.3425C44.1261 24.6776 43.1937 24.1621 42.2295 23.8349C41.2653 23.5076 40.87 25.3132 41.8213 25.6353L41.8222 25.6353Z" fill="#EF4E23"/>
<path id="Vector_8" d="M36.451 44.8226C37.1368 45.3903 37.6954 46.1295 38.1216 46.9931C38.6295 48.0219 39.9572 47.0841 39.4467 46.0511C38.8813 44.9063 38.1311 43.9611 37.2253 43.2104C36.4063 42.5329 35.6381 44.1493 36.451 44.8226Z" fill="#EF4E23"/>
<path id="Vector_9" d="M45.7898 37.2462C46.3329 37.6665 46.876 38.0879 47.42 38.5082C48.2561 39.1553 49.0261 37.54 48.1943 36.896C47.6512 36.4757 47.1081 36.0543 46.5641 35.634C45.7279 34.9869 44.958 36.6022 45.7898 37.2462Z" fill="#EF4E23"/>
<path id="Vector_10" d="M56.7535 28.5958C57.3954 29.197 58.0373 29.7971 58.6793 30.3983C59.0084 30.7057 59.5386 30.46 59.7294 30.0637C59.9606 29.5817 59.7835 29.0945 59.4544 28.7861C58.8125 28.1849 58.1705 27.5848 57.5286 26.9836C57.1995 26.6763 56.6693 26.922 56.4785 27.3182C56.2473 27.8002 56.4243 28.2874 56.7535 28.5958Z" fill="#EF4E23"/>
<path id="Vector_11" d="M66.3806 18.2204C68.2565 17.7928 70.1316 17.3642 72.0076 16.9365C72.4149 16.8435 72.6469 16.2455 72.5438 15.7886C72.4261 15.2689 72.0084 15.0431 71.6002 15.1362C69.7243 15.5638 67.8492 15.9924 65.9732 16.4201C65.5659 16.5131 65.3339 17.1111 65.437 17.568C65.5547 18.0877 65.9724 18.3135 66.3806 18.2204Z" fill="#EF4E23"/>
<path id="Vector_12" d="M68.6973 21.1481C70.031 21.0864 71.3638 21.0257 72.6975 20.9639C73.6823 20.9189 73.6866 19.0495 72.6975 19.0946C71.3638 19.1563 70.031 19.217 68.6973 19.2788C67.7124 19.3238 67.7081 21.1931 68.6973 21.1481Z" fill="#EF4E23"/>
</g>
</g>
</svg>
