<svg width="150" height="131" viewBox="0 0 150 131" fill="none" xmlns="http://www.w3.org/2000/svg">
<g id="Graphic Element">
<g id="Group">
<path id="Vector" d="M25.2057 25.9877C26.4542 30.5035 28.021 34.9237 29.8643 39.2299C30.315 40.2832 30.784 41.3286 31.2687 42.3662C31.5359 42.9387 32.36 43.0841 32.8696 42.7854C33.4565 42.4422 33.5574 41.7596 33.2888 41.1845C31.3578 37.0486 29.7123 32.7857 28.359 28.4271C27.6922 26.2786 27.0961 24.1065 26.5734 21.9187C26.4817 21.5335 26.3599 21.1326 26.3874 20.7318C26.407 20.4488 26.3874 20.454 26.5918 20.4566C27.5625 20.4671 28.566 20.72 29.5158 20.9021C37.6854 22.4741 45.462 25.8476 52.1891 30.7446C53.0184 31.3485 53.8058 32.0494 54.7516 32.466C55.9032 32.973 56.9945 32.8066 58.1801 32.5276C60.2998 32.0271 62.4391 31.6158 64.5942 31.2988C68.9528 30.6555 73.3795 30.4197 77.7826 30.5415C82.153 30.6621 86.5063 31.1507 90.7916 32.0154C92.965 32.4542 95.1187 32.9861 97.2463 33.611C98.31 33.9228 99.3673 34.2582 100.415 34.6172C101.402 34.9538 102.392 35.432 103.411 35.6534C104.589 35.9102 105.594 35.5748 106.68 35.149C107.765 34.722 108.856 34.308 109.95 33.9071C112.139 33.104 114.348 32.3507 116.571 31.6485C120.979 30.2559 125.451 29.0638 129.966 28.0747C130.391 27.9817 130.818 27.8926 131.244 27.8035C128.996 33.6241 126.347 39.2823 123.322 44.7413C122.592 46.0593 124.611 47.241 125.342 45.9217C128.789 39.7015 131.748 33.2193 134.21 26.5485C134.544 25.6432 133.565 24.9541 132.771 25.11C123.424 26.9402 114.387 29.7162 105.498 33.1145C105.074 33.277 104.609 33.4761 104.144 33.4237C103.587 33.3621 103.013 33.066 102.493 32.8761C101.415 32.4831 100.326 32.1136 99.231 31.7704C97.0786 31.0944 94.8947 30.514 92.6912 30.0306C88.2605 29.0572 83.7382 28.4638 79.2053 28.2555C74.6961 28.0485 70.1698 28.2306 65.692 28.807C63.4282 29.0978 61.1762 29.4738 58.9452 29.9572C58.4028 30.0752 57.863 30.2009 57.3233 30.328C56.8294 30.4446 56.346 30.5756 55.8508 30.4027C54.9023 30.0725 54.0783 29.2419 53.2752 28.6603C46.3672 23.6532 38.2985 20.1841 29.9141 18.6055C28.0787 18.2597 25.0996 17.3387 24.2271 19.6889C23.8838 20.6138 24.0908 21.6147 24.3122 22.541C24.5887 23.6951 24.8834 24.8441 25.2005 25.9877H25.2057Z" fill="#155640"/>
<path id="Vector_2" d="M93.2676 57.2735C92.8156 60.2225 92.4934 63.1885 92.3217 66.1676C92.2353 67.6715 94.575 67.6663 94.6615 66.1676C94.8213 63.3981 95.103 60.6378 95.5235 57.8958C95.6192 57.2722 95.365 56.6381 94.706 56.4573C94.1519 56.3054 93.3632 56.646 93.2676 57.2748V57.2735Z" fill="#155640"/>
<path id="Vector_3" d="M59.3487 54.648L58.6635 63.4568C58.5469 64.9582 60.8867 64.9503 61.0033 63.4568L61.6885 54.648C61.8051 53.1466 59.4653 53.1545 59.3487 54.648Z" fill="#155640"/>
<path id="Vector_4" d="M66.0169 90.0655C64.5549 89.7078 63.9313 91.9638 65.3946 92.3214C69.2724 93.2699 72.3865 90.8292 74.8795 88.1606C76.3861 91.9074 80.3766 94.5813 84.4495 94.3402C85.9456 94.2511 85.9561 91.9114 84.4495 92.0004C80.7014 92.2218 77.2599 89.4445 76.6258 85.7554C76.5184 85.1318 75.7533 84.7833 75.1874 84.9379C75.0695 84.9706 74.9647 85.0178 74.8717 85.0767C74.6293 85.0951 74.3843 85.2091 74.1708 85.4553C72.1729 87.7467 69.4519 90.9039 66.0169 90.0642V90.0655Z" fill="#155640"/>
<path id="Vector_5" d="M74.8979 80.853C75.7114 80.8727 76.2682 80.1731 76.8119 79.6609C77.4132 79.0936 78.0145 78.5264 78.6158 77.9591C79.2119 77.3971 78.9761 76.1499 78.0997 76.0032C76.5996 75.7543 75.0904 75.5722 73.5734 75.4687C73.1371 75.4385 72.828 75.6154 72.6459 75.884C72.6432 75.8853 72.6393 75.8866 72.6354 75.8892C72.038 76.2377 71.9607 76.9084 72.2162 77.4901C72.524 78.191 72.8633 78.8748 73.2485 79.5364C73.6245 80.1836 74.0673 80.8321 74.8966 80.8517L74.8979 80.853ZM75.1127 78.0783C75.0865 78.0312 75.0603 77.984 75.0341 77.9368C75.1036 77.9434 75.173 77.9512 75.2411 77.9578C75.1979 77.9984 75.1546 78.0377 75.1114 78.0783H75.1127Z" fill="#155640"/>
<path id="Vector_6" d="M148.83 74.017C145.048 73.5781 141.249 73.2925 137.444 73.1615C136.057 68.9025 134.197 64.8007 131.877 60.9491C130.653 58.9172 129.297 56.9757 127.845 55.0996C127.459 54.5992 126.598 54.6922 126.191 55.0996C125.697 55.5935 125.803 56.2525 126.191 56.7543C129.993 61.667 132.955 67.223 134.971 73.0986C130.678 73.0266 126.382 73.1497 122.1 73.4759C119.587 73.6672 117.081 73.9292 114.582 74.2541C113.956 74.3353 113.412 74.7336 113.412 75.424C113.412 75.9926 113.951 76.6764 114.582 76.5939C121.589 75.6808 128.66 75.2969 135.722 75.4502C135.96 76.2533 136.181 77.0629 136.383 77.8752C136.924 80.0472 137.346 82.2521 137.623 84.474C137.701 85.1002 138.105 85.6438 138.792 85.6438C139.364 85.6438 140.041 85.1054 139.962 84.474C139.585 81.4451 138.982 78.4529 138.158 75.5236C139.206 75.5642 140.253 75.6166 141.3 75.6821C143.815 75.838 146.325 76.066 148.828 76.3555C149.456 76.4288 149.997 75.7659 149.997 75.1856C149.997 74.4926 149.458 74.0891 148.828 74.0157L148.83 74.017Z" fill="#155640"/>
<path id="Vector_7" d="M147.031 90.7679C136.889 88.4203 126.707 86.239 116.494 84.2268C115.023 83.9373 114.394 86.1919 115.871 86.4827C126.086 88.4963 136.267 90.6776 146.409 93.0239C147.874 93.3632 148.5 91.1073 147.031 90.7679Z" fill="#155640"/>
<path id="Vector_8" d="M139.45 111.569C135.251 107.808 130.834 104.294 126.226 101.049C128.303 100.068 130.336 98.9948 132.313 97.8196C133.222 97.2786 134.118 96.7152 135.001 96.1323C136.253 95.3069 135.082 93.2803 133.821 94.1121C130.684 96.1794 127.387 97.9611 123.979 99.5005C120.977 97.4699 117.898 95.5506 114.747 93.7532C113.437 93.0051 112.257 95.0266 113.567 95.7733C116.24 97.2982 118.86 98.9096 121.425 100.602C118.097 101.969 114.678 103.119 111.209 104.091C103.084 106.369 94.7113 107.753 86.336 108.706C81.7089 109.233 77.0398 109.566 72.3838 109.284C67.8824 109.012 63.4741 108.046 59.1797 106.694C51.6035 104.31 44.1715 101.052 37.3932 96.9C32.4857 93.8947 27.8638 90.2933 24.028 85.9871C24.0817 85.9675 24.1354 85.9491 24.1891 85.9295C25.6 85.4316 24.9922 83.1705 23.5668 83.6735C23.1843 83.8085 22.803 83.9473 22.4205 84.0836C21.8598 83.3814 21.32 82.6635 20.8039 81.9259C20.2694 81.1648 19.7624 80.3853 19.275 79.5927C18.489 78.3114 16.4649 79.4853 17.2549 80.773C18.1366 82.2115 19.0969 83.5923 20.1253 84.9168C15.2361 86.7155 10.398 88.6505 5.61497 90.7178C5.03461 90.968 4.9036 91.8195 5.19574 92.3187C5.54684 92.9174 6.21367 92.9894 6.79665 92.7379C11.7002 90.6195 16.668 88.6518 21.6882 86.8269C25.1048 90.8016 29.1385 94.2353 33.4984 97.1751C40.1562 101.665 47.5463 105.056 55.0857 107.774C59.3696 109.318 63.7754 110.582 68.2938 111.209C73.0533 111.867 77.8507 111.822 82.6298 111.417C91.3955 110.675 100.217 109.304 108.753 107.163C113.859 105.882 118.908 104.257 123.75 102.169C128.659 105.552 133.354 109.239 137.801 113.222C138.919 114.224 140.579 112.575 139.455 111.567L139.45 111.569Z" fill="#155640"/>
<path id="Vector_9" d="M3.55688 59.0223C8.19714 59.6249 12.7981 60.5354 17.3244 61.7276C15.7117 64.0385 14.2077 66.4242 12.8243 68.8806C12.0854 70.1946 14.1055 71.3749 14.8444 70.0609C16.334 67.4133 17.9637 64.8534 19.7205 62.3865C23.1109 63.3599 26.4568 64.4918 29.7412 65.777C30.3294 66.0076 31.025 65.5242 31.1796 64.9595C31.3617 64.2966 30.953 63.7516 30.3622 63.5211C27.3464 62.342 24.2848 61.3005 21.1864 60.3887C23.5865 57.2183 26.2079 54.2157 29.0351 51.4043C30.1041 50.3405 28.4495 48.6859 27.3804 49.7496C24.2664 52.8466 21.3895 56.1795 18.7759 59.7062C13.782 58.3581 8.69758 57.3507 3.55557 56.6825C2.92805 56.6013 2.38568 57.2786 2.38568 57.8524C2.38568 58.552 2.92543 58.9398 3.55557 59.0223H3.55688Z" fill="#155640"/>
<path id="Vector_10" d="M30.9294 76.0402C31.0866 75.469 30.7368 74.7197 30.1119 74.6017C20.5642 72.7952 10.8461 71.9436 1.12932 72.0917C-0.374633 72.1152 -0.379874 74.4537 1.12932 74.4314C10.6378 74.286 20.1449 75.0891 29.4896 76.8577C30.1093 76.9756 30.7512 76.6848 30.9281 76.0402H30.9294Z" fill="#155640"/>
<path id="Vector_11" d="M25.3891 111.37C23.6231 110.546 21.5938 110.513 19.782 111.229C17.699 112.051 16.0313 113.671 15.3579 115.831C14.9099 117.272 17.1671 117.888 17.6139 116.453C18.4064 113.908 21.603 112.343 24.1 113.343C28.1402 114.96 24.8205 120.381 23.2445 122.692C22.1349 124.319 20.8497 125.814 19.5475 127.29C18.4274 126.649 17.2104 126.217 15.9357 125.892C14.2483 125.464 12.498 125.21 10.8749 124.557C9.59101 124.041 8.26784 123.239 7.56826 122.006C6.88703 120.808 7.03114 119.289 7.9115 118.226C9.05126 116.846 11.0413 116.782 12.4509 117.766C12.9697 118.127 13.7505 117.86 14.0518 117.347C14.3924 116.764 14.1513 116.109 13.6326 115.746C11.9151 114.546 9.57398 114.438 7.72547 115.405C5.9333 116.343 4.80795 118.367 4.79223 120.366C4.75948 124.641 9.19406 126.724 12.7417 127.555C14.9217 128.064 17.3938 128.385 19.199 129.828C19.6916 130.222 20.3715 130.31 20.8536 129.828C21.0659 129.615 21.1903 129.283 21.193 128.958C22.6039 127.354 23.9939 125.726 25.2044 123.965C26.5433 122.017 27.7891 119.764 28.2228 117.415C28.456 116.153 28.4363 114.872 27.8651 113.699C27.3647 112.671 26.4175 111.851 25.3904 111.371L25.3891 111.37Z" fill="#155640"/>
<path id="Vector_12" d="M132.008 16.5851C132.283 16.7344 132.551 16.7632 132.792 16.7121C132.832 16.7423 132.872 16.7711 132.917 16.7986C133.961 17.4418 135.09 17.1287 136.164 16.7501C137.178 16.3925 138.185 16.0165 139.172 15.5907C141.076 14.7693 142.983 13.6636 144.314 12.0391C145.59 10.4815 146.448 8.47968 146.376 6.43728C146.304 4.38703 145.245 2.20446 143.224 1.45903C140.633 0.502682 138.276 2.32236 136.491 3.9796C135.385 5.00669 137.042 6.65738 138.145 5.63421C139.323 4.54031 141.604 2.47171 143.159 4.15646C144.314 5.40757 144.196 7.33206 143.589 8.80589C142.844 10.6098 141.31 11.8649 139.637 12.778C138.714 13.2824 137.747 13.6872 136.762 14.0553C136.289 14.2322 135.815 14.4012 135.338 14.5662C134.998 14.6842 134.434 14.9881 134.096 14.7798C133.812 14.6042 133.533 14.5676 133.284 14.6239C133.252 14.6029 133.221 14.5833 133.187 14.5649C129.956 12.816 125.638 10.0321 126.314 5.71806C126.588 3.97043 127.996 2.59617 129.752 2.35381C131.569 2.10358 133.214 3.26692 133.931 4.87962C134.188 5.45735 135.029 5.5936 135.532 5.29884C136.126 4.95036 136.209 4.27829 135.951 3.69793C135.178 1.96079 133.534 0.611418 131.685 0.165995C129.702 -0.312179 127.627 0.2577 126.083 1.56908C122.752 4.40144 123.716 9.36397 126.251 12.3496C127.804 14.1798 129.917 15.4545 132.004 16.5851H132.008Z" fill="#155640"/>
</g>
</g>
</svg>
