<svg width="393" height="132" viewBox="0 0 393 132" fill="none" xmlns="http://www.w3.org/2000/svg">
<path d="M116.838 89.1281C34.6973 140.262 4.72072 89.5542 0 57.8087V0.922363H393V57.8087C368.5 57.8087 360 75.4224 321.5 89.1281C238.921 118.526 219.514 25.2109 116.838 89.1281Z" fill="#F7E6B1"/>
<mask id="mask0_48_605" style="mask-type:luminance" maskUnits="userSpaceOnUse" x="0" y="40" width="281" height="92">
<path d="M0.250026 107.085L0 40.3403C1.28585 54.8796 7.78651 72.1271 18.2519 81.4279C37.0752 98.1409 59.7204 102.667 81.4726 95.2544C112.19 84.8133 144.693 60.6525 175.554 50.7459C190.341 46.0064 205.592 42.1934 221.13 41.9439C244.061 41.5519 273.778 50.0688 279.386 75.6193C280.243 79.5749 280.421 83.7798 278.993 87.5572C276.671 93.6508 270.349 97.7133 263.848 98.426C251.561 99.8157 243.596 91.6196 234.417 85.1696C227.702 80.4301 219.915 77.2229 211.807 75.9044C199.235 73.8732 186.233 76.439 174.446 81.2497C151.337 90.6931 131.406 105.054 108.975 115.852C87.2589 126.257 63.2565 135.309 39.3254 129.714C31.0389 127.79 23.1095 124.475 15.9302 119.95C10.1796 116.315 4.96479 111.967 0.250026 107.05" fill="white"/>
</mask>
<g mask="url(#mask0_48_605)">
<path d="M0.250026 107.085L0 40.3403C1.28585 54.8796 7.78651 72.1271 18.2519 81.4279C37.0752 98.1409 59.7204 102.667 81.4726 95.2544C112.19 84.8133 144.693 60.6525 175.554 50.7459C190.341 46.0064 205.592 42.1934 221.13 41.9439C244.061 41.5519 273.778 50.0688 279.386 75.6193C280.243 79.5749 280.421 83.7798 278.993 87.5572C276.671 93.6508 270.349 97.7133 263.848 98.426C251.561 99.8157 243.596 91.6196 234.417 85.1696C227.702 80.4301 219.915 77.2229 211.807 75.9044C199.235 73.8732 186.233 76.439 174.446 81.2497C151.337 90.6931 131.406 105.054 108.975 115.852C87.2589 126.257 63.2565 135.309 39.3254 129.714C31.0389 127.79 23.1095 124.475 15.9302 119.95C10.1796 116.315 4.96479 111.967 0.250026 107.05" fill="#EF4E23"/>
<path d="M236.417 25.8011C236.417 25.8011 199.913 44.6522 212.843 83.8867C225.773 123.157 260.062 132.672 283.1 132.101C306.138 131.531 350 86.1318 350 86.1318L296.03 19.4224L236.417 25.8011Z" fill="#F1A41F"/>
<path d="M178.625 37.9171C178.625 37.9171 170.732 71.7351 177.554 94.2923C183.626 114.426 160.945 100.208 159.409 104.235C159.409 104.235 144.479 68.421 164.017 42.8704C172.017 32.3936 179.411 34.6387 178.59 37.9171H178.625Z" fill="#F1A41F"/>
<path d="M126.941 56.9464C126.941 56.9464 104.868 113.963 137.585 118.097C129.299 131.888 113.476 127.611 111.083 121.91C108.69 116.208 93.1523 90.2298 107.797 70.5947C119.226 55.2715 124.62 50.1757 126.941 56.9464Z" fill="#F1A41F"/>
<path d="M84.0085 136.948C59.4703 112.466 75.4719 79.5036 75.4719 79.5036C75.4719 79.5036 65.3638 66.7461 57.3272 85.1696C46.2904 110.471 62.292 144.396 62.292 144.396C62.292 144.396 104.332 157.26 83.9728 136.948H84.0085Z" fill="#F1A41F"/>
</g>
</svg>
