<svg width="1514" height="189" viewBox="0 0 1514 189" fill="none" xmlns="http://www.w3.org/2000/svg">
<path d="M327 93.5C72.7843 172.304 13.5856 95.8013 0 32.4357V0.0888672H1514V76.3321C1356.5 32.4357 1243.5 186.266 951.5 118.641C694.137 59.0377 661.5 -10.1913 327 93.5Z" fill="#155640"/>
<mask id="mask0_176_30733" style="mask-type:luminance" maskUnits="userSpaceOnUse" x="0" y="0" width="580" height="189">
<path d="M0.517821 138.447L0 0.289062C2.66308 30.3843 16.1264 66.0855 37.8009 85.3375C76.7854 119.932 123.685 129.3 168.736 113.958C232.354 92.345 299.67 42.3339 363.584 21.8278C394.209 12.0173 425.796 4.12473 457.975 3.60839C505.467 2.797 567.014 20.4263 578.628 73.3142C580.403 81.5019 580.773 90.2059 577.814 98.0248C573.005 110.638 559.912 119.047 546.449 120.522C521.002 123.399 504.505 106.434 485.494 93.0826C471.587 83.2722 455.46 76.6335 438.668 73.9043C412.629 69.6998 385.702 75.0108 361.291 84.9687C313.429 104.516 272.152 134.242 225.696 156.592C180.719 178.131 131.009 196.867 81.4458 185.286C64.2837 181.303 47.8614 174.443 32.9926 165.075C21.0827 157.551 10.2824 148.552 0.517821 138.373" fill="white"/>
</mask>
<g mask="url(#mask0_176_30733)">
<path d="M0.517821 138.447L0 0.289062C2.66308 30.3843 16.1264 66.0855 37.8009 85.3375C76.7854 119.932 123.685 129.3 168.736 113.958C232.354 92.345 299.67 42.3339 363.584 21.8278C394.209 12.0173 425.796 4.12473 457.975 3.60839C505.467 2.797 567.014 20.4263 578.628 73.3142C580.403 81.5019 580.773 90.2059 577.814 98.0248C573.005 110.638 559.912 119.047 546.449 120.522C521.002 123.399 504.505 106.434 485.494 93.0826C471.587 83.2722 455.46 76.6335 438.668 73.9043C412.629 69.6998 385.702 75.0108 361.291 84.9687C313.429 104.516 272.152 134.242 225.696 156.592C180.719 178.131 131.009 196.867 81.4458 185.286C64.2837 181.303 47.8614 174.443 32.9926 165.075C21.0827 157.551 10.2824 148.552 0.517821 138.373" fill="#F7E6B1"/>
<path d="M489.637 -29.8062C489.637 -29.8062 414.035 9.21429 440.814 90.4271C467.592 171.714 538.608 191.408 586.321 190.228C634.035 189.048 724.875 95.0742 724.875 95.0742L613.1 -43.0098L489.637 -29.8062Z" fill="#F1A41F"/>
<path d="M369.946 -4.72682C369.946 -4.72682 353.598 65.2741 367.727 111.966C380.303 153.642 333.329 124.211 330.148 132.546C330.148 132.546 299.227 58.4141 339.691 5.5262C356.261 -16.1601 371.574 -11.513 369.872 -4.72682H369.946Z" fill="#F1A41F"/>
<path d="M262.905 34.6623C262.905 34.6623 217.189 152.683 284.949 161.239C267.787 189.785 235.017 180.934 230.06 169.132C225.104 157.33 192.925 103.557 223.255 62.9135C246.927 31.1955 258.097 20.6474 262.905 34.6623Z" fill="#F1A41F"/>
<path d="M173.988 200.26C123.168 149.585 156.308 81.3542 156.308 81.3542C156.308 81.3542 135.373 54.9471 118.729 93.0825C95.8712 145.454 129.012 215.676 129.012 215.676C129.012 215.676 216.08 242.305 173.914 200.26H173.988Z" fill="#F1A41F"/>
</g>
</svg>
