<svg width="393" height="131" viewBox="0 0 393 131" fill="none" xmlns="http://www.w3.org/2000/svg">
<path d="M116.838 88.2058C34.6973 139.34 4.72072 88.6319 0 56.8863V0H393V56.8863C368.5 56.8863 360 74.5 321.5 88.2058C238.921 117.603 219.514 24.2885 116.838 88.2058Z" fill="#155640"/>
<mask id="mask0_28_2795" style="mask-type:luminance" maskUnits="userSpaceOnUse" x="0" y="39" width="281" height="92">
<path d="M0.250026 106.163L0 39.418C1.28585 53.9572 7.78651 71.2047 18.2519 80.5055C37.0752 97.2185 59.7204 101.744 81.4726 94.3321C112.19 83.8909 144.693 59.7301 175.554 49.8235C190.341 45.084 205.592 41.271 221.13 41.0216C244.061 40.6296 273.778 49.1464 279.386 74.697C280.243 78.6525 280.421 82.8575 278.993 86.6348C276.671 92.7285 270.349 96.7909 263.848 97.5036C251.561 98.8934 243.596 90.6973 234.417 84.2473C227.702 79.5078 219.915 76.3006 211.807 74.9821C199.235 72.9508 186.233 75.5166 174.446 80.3274C151.337 89.7707 131.406 104.132 108.975 114.929C87.2589 125.335 63.2565 134.386 39.3254 128.791C31.0389 126.867 23.1095 123.553 15.9302 119.027C10.1796 115.393 4.96479 111.045 0.250026 106.127" fill="white"/>
</mask>
<g mask="url(#mask0_28_2795)">
<path d="M0.250026 106.163L0 39.418C1.28585 53.9572 7.78651 71.2047 18.2519 80.5055C37.0752 97.2185 59.7204 101.744 81.4726 94.3321C112.19 83.8909 144.693 59.7301 175.554 49.8235C190.341 45.084 205.592 41.271 221.13 41.0216C244.061 40.6296 273.778 49.1464 279.386 74.697C280.243 78.6525 280.421 82.8575 278.993 86.6348C276.671 92.7285 270.349 96.7909 263.848 97.5036C251.561 98.8934 243.596 90.6973 234.417 84.2473C227.702 79.5078 219.915 76.3006 211.807 74.9821C199.235 72.9508 186.233 75.5166 174.446 80.3274C151.337 89.7707 131.406 104.132 108.975 114.929C87.2589 125.335 63.2565 134.386 39.3254 128.791C31.0389 126.867 23.1095 123.553 15.9302 119.027C10.1796 115.393 4.96479 111.045 0.250026 106.127" fill="#F7E6B1"/>
<path d="M236.417 24.8787C236.417 24.8787 199.913 43.7298 212.843 82.9644C225.773 122.235 260.062 131.749 283.1 131.179C306.138 130.609 350 85.2094 350 85.2094L296.03 18.5L236.417 24.8787Z" fill="#F1A41F"/>
<path d="M178.625 36.9948C178.625 36.9948 170.732 70.8127 177.554 93.3699C183.626 113.504 160.945 99.2854 159.409 103.312C159.409 103.312 144.479 67.4986 164.017 41.9481C172.018 31.4713 179.411 33.7163 178.59 36.9948H178.625Z" fill="#F1A41F"/>
<path d="M126.942 56.024C126.942 56.024 104.868 113.041 137.585 117.174C129.299 130.965 113.476 126.689 111.083 120.987C108.69 115.286 93.1524 89.3074 107.797 69.6724C119.226 54.3492 124.62 49.2533 126.942 56.024Z" fill="#F1A41F"/>
<path d="M84.0086 136.025C59.4704 111.544 75.472 78.5812 75.472 78.5812C75.472 78.5812 65.3638 65.8237 57.3273 84.2472C46.2904 109.548 62.2921 143.473 62.2921 143.473C62.2921 143.473 104.332 156.338 83.9729 136.025H84.0086Z" fill="#F1A41F"/>
</g>
</svg>
