<svg width="1514" height="226" viewBox="0 0 1514 226" fill="none" xmlns="http://www.w3.org/2000/svg">
<path d="M327 131.217C72.7843 231.662 13.5856 121.997 0 41.2297V0H1514V97.1807C1356.5 41.2297 1243.5 237.304 951.5 151.108C694.137 75.1371 661.5 -0.949524 327 131.217Z" fill="#F7E6B1"/>
<mask id="mask0_182_34276" style="mask-type:luminance" maskUnits="userSpaceOnUse" x="0" y="37" width="580" height="189">
<path d="M0.517821 175.269L0 37.1111C2.66308 67.2063 16.1264 102.907 37.8009 122.16C76.7854 156.754 123.685 166.122 168.736 150.78C232.354 129.167 299.67 79.1559 363.584 58.6498C394.209 48.8394 425.796 40.9468 457.975 40.4304C505.467 39.619 567.014 57.2483 578.628 110.136C580.403 118.324 580.773 127.028 577.814 134.847C573.005 147.46 559.912 155.869 546.449 157.344C521.002 160.221 504.505 143.256 485.494 129.905C471.587 120.094 455.46 113.456 438.668 110.726C412.629 106.522 385.702 111.833 361.291 121.791C313.429 141.338 272.152 171.064 225.696 193.414C180.719 214.953 131.009 233.689 81.4458 222.108C64.2837 218.125 47.8614 211.265 32.9926 201.897C21.0827 194.373 10.2824 185.374 0.517821 175.195" fill="white"/>
</mask>
<g mask="url(#mask0_182_34276)">
<path d="M0.517821 175.269L0 37.1111C2.66308 67.2063 16.1264 102.907 37.8009 122.16C76.7854 156.754 123.685 166.122 168.736 150.78C232.354 129.167 299.67 79.1559 363.584 58.6498C394.209 48.8394 425.796 40.9468 457.975 40.4304C505.467 39.619 567.014 57.2483 578.628 110.136C580.403 118.324 580.773 127.028 577.814 134.847C573.005 147.46 559.912 155.869 546.449 157.344C521.002 160.221 504.505 143.256 485.494 129.905C471.587 120.094 455.46 113.456 438.668 110.726C412.629 106.522 385.702 111.833 361.291 121.791C313.429 141.338 272.152 171.064 225.696 193.414C180.719 214.953 131.009 233.689 81.4458 222.108C64.2837 218.125 47.8614 211.265 32.9926 201.897C21.0827 194.373 10.2824 185.374 0.517821 175.195" fill="#EF4E23"/>
<path d="M489.636 7.01579C489.636 7.01579 414.034 46.0363 440.813 127.249C467.591 208.536 538.607 228.23 586.32 227.05C634.034 225.87 724.874 131.896 724.874 131.896L613.099 -6.18774L489.636 7.01579Z" fill="#F1A41F"/>
<path d="M369.944 32.0952C369.944 32.0952 353.596 102.096 367.725 148.788C380.301 190.464 333.327 161.033 330.146 169.368C330.146 169.368 299.225 95.2361 339.689 42.3482C356.259 20.662 371.572 25.309 369.871 32.0952H369.944Z" fill="#F1A41F"/>
<path d="M262.904 71.4843C262.904 71.4843 217.188 189.505 284.948 198.061C267.786 226.607 235.016 217.756 230.059 205.954C225.103 194.152 192.924 140.379 223.254 99.7355C246.926 68.0175 258.096 57.4694 262.904 71.4843Z" fill="#F1A41F"/>
<path d="M173.987 237.082C123.167 186.407 156.307 118.176 156.307 118.176C156.307 118.176 135.372 91.7691 118.728 129.904C95.8702 182.276 129.011 252.498 129.011 252.498C129.011 252.498 216.079 279.127 173.913 237.082H173.987Z" fill="#F1A41F"/>
</g>
</svg>
