<svg width="20" height="20" viewBox="0 0 20 20" fill="none" xmlns="http://www.w3.org/2000/svg">
<g id="icon-dollar">
<g id="Subtract">
<path d="M8.42421 6.66283C8.65725 6.47771 8.93406 6.34309 9.23077 6.25896V9.12559C8.92838 9.03973 8.65234 8.903 8.42421 8.72178C8.02038 8.40098 7.86412 8.02354 7.86412 7.69231C7.86412 7.36107 8.02038 6.98363 8.42421 6.66283Z" fill="white"/>
<path d="M10.7692 13.7555V10.8598C11.1254 10.9464 11.45 11.0931 11.7142 11.2913C12.1516 11.6193 12.3077 11.9947 12.3077 12.3077C12.3077 12.6206 12.1516 12.996 11.7142 13.3241C11.45 13.5222 11.1254 13.6689 10.7692 13.7555Z" fill="white"/>
<path fill-rule="evenodd" clip-rule="evenodd" d="M10 0C4.47715 0 0 4.47715 0 10C0 15.5228 4.47715 20 10 20C15.5228 20 20 15.5228 20 10C20 4.47715 15.5228 0 10 0ZM10.7692 3.84615C10.7692 3.42132 10.4248 3.07692 10 3.07692C9.57517 3.07692 9.23077 3.42132 9.23077 3.84615V4.68269C8.5878 4.79661 7.97469 5.05511 7.46726 5.45821C6.73664 6.03862 6.32566 6.84236 6.32566 7.69231C6.32566 8.54225 6.73664 9.34599 7.46726 9.9264C7.9826 10.3358 8.59761 10.5898 9.23077 10.7019V13.7554C8.87471 13.6688 8.55015 13.5222 8.28604 13.3241L7.38463 12.648C7.04476 12.3931 6.56261 12.462 6.3077 12.8018C6.05279 13.1417 6.12166 13.6238 6.46153 13.8787L7.36294 14.5548C7.90981 14.965 8.56199 15.216 9.23077 15.3234V16.1538C9.23077 16.5787 9.57517 16.9231 10 16.9231C10.4248 16.9231 10.7692 16.5787 10.7692 16.1538V15.3234C11.4381 15.216 12.0904 14.965 12.6373 14.5548C13.4015 13.9817 13.8462 13.1759 13.8462 12.3077C13.8462 11.4394 13.4015 10.6337 12.6373 10.0605C12.0904 9.65029 11.4381 9.39931 10.7692 9.29188V6.25904C11.0658 6.34318 11.3425 6.47777 11.5755 6.66283L12.001 7.00087C12.3337 7.26513 12.8176 7.20968 13.0818 6.87704C13.3461 6.54439 13.2906 6.06051 12.958 5.79625L12.5325 5.45821C12.0251 5.05517 11.4121 4.79668 10.7692 4.68274V3.84615Z" fill="white"/>
</g>
</g>
</svg>
