<svg width="1513" height="164" viewBox="0 0 1513 164" fill="none" xmlns="http://www.w3.org/2000/svg">
<path d="M747.632 162.728C1118.94 168.697 1493.17 125.953 1511.32 94.2078V0H0.282593V102.714C282.881 132.608 459.732 158.1 747.632 162.728Z" fill="#155640"/>
<path fill-rule="evenodd" clip-rule="evenodd" d="M2.50512 96.0512C1.67052 95.9321 0.835481 95.8128 0 95.6934L0.566039 91.7336C1.40118 91.853 2.23587 91.9722 3.07012 92.0913L2.50512 96.0512ZM14.493 97.7539C12.8322 97.5191 11.1697 97.2836 9.50539 97.0473L10.0675 93.087C11.7311 93.3231 13.3929 93.5586 15.053 93.7933L14.493 97.7539ZM26.4508 99.4367C24.7884 99.2038 23.1243 98.9703 21.4584 98.736L22.0154 94.775C23.6805 95.0092 25.3439 95.2426 27.0056 95.4754L26.4508 99.4367ZM38.4398 101.108C36.7787 100.877 35.1159 100.646 33.4515 100.414L34.0033 96.4527C35.667 96.6845 37.329 96.9155 38.9894 97.1458L38.4398 101.108ZM50.406 102.759C48.7412 102.531 47.0749 102.301 45.4068 102.071L45.9533 98.1089C47.6206 98.3389 49.2862 98.5681 50.9502 98.7966L50.406 102.759ZM62.3954 104.397C60.7341 104.172 59.0712 103.945 57.4066 103.718L57.9476 99.7547C59.6114 99.9818 61.2735 100.208 62.9341 100.434L62.3954 104.397ZM74.3707 106.016C72.7032 105.792 71.0341 105.567 69.3635 105.342L69.8989 101.378C71.5688 101.603 73.2371 101.828 74.9037 102.052L74.3707 106.016ZM1512.7 106.67C1511.88 106.843 1511.06 107.016 1510.24 107.188L1509.41 103.273C1510.23 103.101 1511.05 102.929 1511.87 102.757L1512.7 106.67ZM86.3597 107.62C84.6983 107.399 83.0353 107.177 81.3708 106.955L81.9006 102.99C83.5643 103.212 85.2264 103.434 86.887 103.655L86.3597 107.62ZM98.3447 109.204C96.6761 108.985 95.006 108.765 93.3343 108.544L93.8582 104.579C95.529 104.799 97.1983 105.019 98.8661 105.239L98.3447 109.204ZM1503.35 108.623C1501.71 108.963 1500.08 109.3 1498.44 109.636L1497.64 105.717C1499.27 105.382 1500.9 105.045 1502.54 104.706L1503.35 108.623ZM110.333 110.772C108.671 110.556 107.009 110.339 105.344 110.122L105.862 106.155C107.526 106.373 109.188 106.589 110.848 106.805L110.333 110.772ZM1491.57 111.036C1489.93 111.368 1488.29 111.698 1486.65 112.026L1485.86 108.104C1487.5 107.776 1489.14 107.446 1490.77 107.115L1491.57 111.036ZM122.328 112.321C120.66 112.107 118.99 111.892 117.319 111.676L117.831 107.709C119.501 107.924 121.17 108.139 122.837 108.353L122.328 112.321ZM134.315 113.85C132.654 113.639 130.991 113.428 129.326 113.216L129.832 109.248C131.496 109.46 133.158 109.671 134.818 109.882L134.315 113.85ZM1479.75 113.397C1478.11 113.721 1476.47 114.043 1474.83 114.364L1474.06 110.438C1475.7 110.118 1477.34 109.796 1478.98 109.473L1479.75 113.397ZM146.32 115.362C144.652 115.153 142.983 114.944 141.312 114.734L141.812 110.765C143.482 110.975 145.15 111.185 146.817 111.393L146.32 115.362ZM1467.95 115.7C1466.3 116.017 1464.66 116.331 1463.02 116.644L1462.27 112.715C1463.91 112.402 1465.55 112.088 1467.19 111.772L1467.95 115.7ZM158.306 116.852C156.645 116.647 154.982 116.441 153.318 116.235L153.811 112.265C155.474 112.472 157.136 112.677 158.797 112.882L158.306 116.852ZM170.322 118.326C168.654 118.123 166.985 117.919 165.315 117.714L165.801 113.744C167.471 113.948 169.139 114.152 170.805 114.355L170.322 118.326ZM1456.11 117.95C1454.47 118.259 1452.82 118.566 1451.18 118.871L1450.45 114.938C1452.09 114.633 1453.73 114.327 1455.37 114.019L1456.11 117.95ZM182.307 119.775C180.645 119.576 178.982 119.376 177.318 119.175L177.798 115.203C179.461 115.404 181.123 115.604 182.784 115.804L182.307 119.775ZM1444.28 120.142C1442.64 120.443 1440.99 120.742 1439.34 121.039L1438.63 117.103C1440.28 116.806 1441.92 116.507 1443.56 116.207L1444.28 120.142ZM194.332 121.209C192.665 121.012 190.996 120.814 189.326 120.615L189.799 116.643C191.468 116.841 193.136 117.039 194.802 117.237L194.332 121.209ZM206.329 122.618C204.663 122.424 202.996 122.229 201.328 122.033L201.794 118.06C203.461 118.256 205.127 118.451 206.792 118.645L206.329 122.618ZM1432.43 122.279C1430.78 122.572 1429.14 122.863 1427.49 123.152L1426.8 119.213C1428.44 118.924 1430.08 118.633 1431.73 118.341L1432.43 122.279ZM218.351 124.008C216.684 123.817 215.016 123.625 213.347 123.432L213.806 119.459C215.474 119.651 217.141 119.843 218.807 120.034L218.351 124.008ZM1420.58 124.357C1418.93 124.642 1417.28 124.926 1415.63 125.207L1414.96 121.264C1416.6 120.983 1418.25 120.7 1419.89 120.416L1420.58 124.357ZM230.36 125.376C228.69 125.187 227.019 124.998 225.347 124.808L225.799 120.833C227.47 121.023 229.14 121.212 230.809 121.401L230.36 125.376ZM242.38 126.722C240.713 126.537 239.045 126.351 237.376 126.164L237.82 122.189C239.488 122.375 241.155 122.561 242.821 122.746L242.38 126.722ZM1408.7 126.38C1407.05 126.657 1405.41 126.932 1403.76 127.206L1403.1 123.26C1404.75 122.987 1406.39 122.712 1408.04 122.435L1408.7 126.38ZM254.399 128.046C252.728 127.863 251.055 127.68 249.382 127.496L249.82 123.52C251.492 123.704 253.163 123.887 254.833 124.069L254.399 128.046ZM1396.83 128.344C1395.18 128.613 1393.53 128.881 1391.88 129.146L1391.24 125.197C1392.89 124.932 1394.54 124.665 1396.19 124.396L1396.83 128.344ZM266.417 129.347C264.75 129.168 263.082 128.988 261.413 128.808L261.843 124.831C263.511 125.011 265.178 125.191 266.844 125.37L266.417 129.347ZM278.446 130.626C276.776 130.45 275.104 130.273 273.431 130.095L273.853 126.118C275.525 126.295 277.196 126.472 278.866 126.648L278.446 130.626ZM1384.94 130.252C1383.29 130.513 1381.64 130.772 1379.98 131.029L1379.37 127.077C1381.02 126.82 1382.67 126.561 1384.32 126.301L1384.94 130.252ZM290.463 131.881C288.796 131.708 287.128 131.535 285.46 131.361L285.874 127.383C287.542 127.556 289.209 127.729 290.875 127.902L290.463 131.881ZM1373.04 132.101C1371.39 132.354 1369.74 132.605 1368.09 132.854L1367.49 128.899C1369.14 128.65 1370.79 128.399 1372.44 128.147L1373.04 132.101ZM302.502 133.114C300.831 132.944 299.16 132.774 297.488 132.603L297.895 128.624C299.566 128.795 301.236 128.965 302.906 129.134L302.502 133.114ZM314.526 134.322C312.857 134.156 311.186 133.989 309.515 133.821L309.914 129.841C311.584 130.009 313.254 130.176 314.922 130.342L314.526 134.322ZM1361.14 133.892C1359.49 134.137 1357.83 134.38 1356.18 134.622L1355.6 130.664C1357.25 130.423 1358.9 130.18 1360.55 129.935L1361.14 133.892ZM326.566 135.508C324.896 135.345 323.224 135.181 321.552 135.017L321.944 131.036C323.615 131.2 325.285 131.364 326.954 131.526L326.566 135.508ZM1349.23 135.626C1347.57 135.863 1345.92 136.098 1344.26 136.331L1343.7 132.371C1345.36 132.138 1347.01 131.903 1348.66 131.667L1349.23 135.626ZM338.6 136.668C336.927 136.509 335.254 136.348 333.58 136.187L333.963 132.205C335.636 132.366 337.308 132.527 338.98 132.686L338.6 136.668ZM1337.31 137.302C1335.65 137.531 1333.99 137.758 1332.34 137.983L1331.8 134.02C1333.45 133.795 1335.11 133.568 1336.76 133.34L1337.31 137.302ZM350.639 137.805C348.969 137.649 347.297 137.492 345.625 137.335L346.001 133.352C347.671 133.51 349.342 133.666 351.011 133.822L350.639 137.805ZM362.681 138.917C361.008 138.764 359.335 138.611 357.66 138.457L358.028 134.473C359.701 134.628 361.373 134.781 363.045 134.934L362.681 138.917ZM1325.37 138.921C1323.72 139.141 1322.06 139.36 1320.4 139.578L1319.88 135.612C1321.54 135.395 1323.19 135.176 1324.85 134.956L1325.37 138.921ZM374.722 140.005C373.05 139.855 371.379 139.705 369.706 139.555L370.066 135.571C371.737 135.722 373.407 135.871 375.077 136.02L374.722 140.005ZM1313.44 140.481C1311.78 140.694 1310.12 140.905 1308.46 141.115L1307.96 137.146C1309.62 136.937 1311.28 136.726 1312.93 136.514L1313.44 140.481ZM386.77 141.068C385.097 140.922 383.424 140.775 381.75 140.628L382.1 136.643C383.773 136.791 385.446 136.937 387.118 137.083L386.77 141.068ZM398.814 142.105C397.142 141.963 395.469 141.82 393.796 141.676L394.139 137.691C395.811 137.834 397.482 137.977 399.153 138.12L398.814 142.105ZM1301.49 141.985C1299.83 142.19 1298.18 142.393 1296.52 142.595L1296.04 138.624C1297.69 138.423 1299.35 138.22 1301 138.016L1301.49 141.985ZM410.867 143.118C409.194 142.979 407.52 142.84 405.846 142.699L406.18 138.713C407.853 138.854 409.526 138.993 411.198 139.132L410.867 143.118ZM1289.55 143.432C1287.88 143.629 1286.22 143.824 1284.56 144.018L1284.1 140.045C1285.76 139.851 1287.42 139.656 1289.07 139.459L1289.55 143.432ZM422.918 144.106C421.244 143.97 419.57 143.834 417.895 143.697L418.221 139.71C419.894 139.847 421.567 139.983 423.24 140.119L422.918 144.106ZM434.973 145.068C433.299 144.936 431.624 144.803 429.95 144.67L430.268 140.683C431.941 140.816 433.614 140.948 435.287 141.08L434.973 145.068ZM1277.58 144.822C1275.92 145.011 1274.26 145.199 1272.6 145.384L1272.16 141.409C1273.82 141.224 1275.47 141.037 1277.13 140.848L1277.58 144.822ZM447.028 146.004C445.354 145.876 443.679 145.747 442.004 145.617L442.313 141.629C443.987 141.759 445.66 141.888 447.334 142.016L447.028 146.004ZM1265.62 146.156C1263.96 146.337 1262.3 146.517 1260.63 146.696L1260.21 142.719C1261.87 142.54 1263.53 142.361 1265.19 142.179L1265.62 146.156ZM459.086 146.916C457.412 146.791 455.737 146.665 454.062 146.539L454.363 142.55C456.036 142.677 457.71 142.802 459.384 142.927L459.086 146.916ZM471.146 147.801C469.471 147.68 467.796 147.558 466.121 147.435L466.413 143.446C468.087 143.569 469.761 143.691 471.435 143.812L471.146 147.801ZM1253.65 147.435C1251.99 147.608 1250.33 147.78 1248.67 147.951L1248.26 143.971C1249.92 143.801 1251.57 143.63 1253.23 143.457L1253.65 147.435ZM483.209 148.662C481.533 148.544 479.858 148.425 478.182 148.306L478.466 144.316C480.14 144.435 481.815 144.554 483.489 144.671L483.209 148.662ZM1241.68 148.657C1240.01 148.824 1238.35 148.988 1236.68 149.152L1236.29 145.171C1237.96 145.008 1239.62 144.843 1241.28 144.677L1241.68 148.657ZM495.271 149.496C493.595 149.382 491.92 149.267 490.244 149.151L490.52 145.161C492.194 145.276 493.868 145.391 495.543 145.505L495.271 149.496ZM1229.69 149.827C1228.03 149.985 1226.37 150.142 1224.7 150.297L1224.33 146.314C1225.99 146.159 1227.65 146.003 1229.31 145.845L1229.69 149.827ZM507.337 150.305C505.661 150.194 503.986 150.083 502.311 149.971L502.578 145.98C504.252 146.092 505.926 146.203 507.601 146.314L507.337 150.305ZM519.403 151.088C517.727 150.981 516.05 150.874 514.374 150.765L514.633 146.773C516.308 146.882 517.983 146.99 519.658 147.097L519.403 151.088ZM1217.71 150.941C1216.04 151.092 1214.38 151.242 1212.71 151.39L1212.35 147.406C1214.02 147.258 1215.69 147.108 1217.35 146.957L1217.71 150.941ZM531.472 151.846C529.796 151.743 528.121 151.639 526.446 151.534L526.696 147.542C528.37 147.646 530.044 147.751 531.718 147.854L531.472 151.846ZM1205.71 152.003C1204.05 152.146 1202.39 152.288 1200.72 152.428L1200.39 148.443C1202.05 148.302 1203.71 148.161 1205.37 148.017L1205.71 152.003ZM543.544 152.579C541.866 152.479 540.189 152.378 538.512 152.277L538.753 148.284C540.429 148.385 542.105 148.486 543.782 148.586L543.544 152.579ZM555.612 153.286C553.936 153.19 552.26 153.092 550.585 152.995L550.818 149.001C552.492 149.099 554.167 149.196 555.842 149.293L555.612 153.286ZM1193.73 153.01C1192.06 153.147 1190.39 153.282 1188.72 153.416L1188.4 149.429C1190.07 149.295 1191.73 149.16 1193.4 149.024L1193.73 153.01ZM567.692 153.968C566.013 153.875 564.334 153.781 562.656 153.687L562.881 149.693C564.558 149.788 566.235 149.881 567.913 149.974L567.692 153.968ZM1181.72 153.968C1180.05 154.097 1178.39 154.224 1176.73 154.35L1176.42 150.362C1178.09 150.236 1179.75 150.108 1181.41 149.98L1181.72 153.968ZM579.759 154.625C578.082 154.535 576.405 154.445 574.729 154.354L574.946 150.36C576.621 150.451 578.296 150.541 579.972 150.63L579.759 154.625ZM1169.72 154.872C1168.05 154.995 1166.38 155.116 1164.71 155.235L1164.43 151.245C1166.1 151.126 1167.76 151.005 1169.43 150.883L1169.72 154.872ZM591.84 155.257C590.162 155.171 588.485 155.084 586.808 154.996L587.016 151.002C588.692 151.089 590.368 151.176 592.045 151.262L591.84 155.257ZM603.913 155.863C602.234 155.781 600.556 155.697 598.879 155.613L599.079 151.618C600.755 151.702 602.432 151.785 604.109 151.868L603.913 155.863ZM1157.7 155.728C1156.04 155.843 1154.38 155.956 1152.71 156.069L1152.44 152.078C1154.11 151.966 1155.77 151.852 1157.43 151.737L1157.7 155.728ZM615.992 156.445C614.317 156.366 612.641 156.287 610.967 156.206L611.159 152.211C612.832 152.291 614.506 152.371 616.181 152.45L615.992 156.445ZM1145.71 156.532C1144.04 156.641 1142.37 156.748 1140.69 156.854L1140.44 152.862C1142.11 152.756 1143.78 152.649 1145.45 152.541L1145.71 156.532ZM628.073 157.003C626.393 156.927 624.714 156.851 623.036 156.774L623.219 152.778C624.896 152.855 626.574 152.931 628.253 153.007L628.073 157.003ZM1133.68 157.29C1132.02 157.391 1130.35 157.491 1128.69 157.59L1128.45 153.597C1130.11 153.499 1131.78 153.399 1133.44 153.297L1133.68 157.29ZM640.15 157.536C638.473 157.464 636.797 157.391 635.122 157.317L635.298 153.321C636.972 153.395 638.646 153.468 640.322 153.54L640.15 157.536ZM652.239 158.046C650.557 157.977 648.877 157.907 647.198 157.836L647.365 153.84C649.044 153.91 650.723 153.98 652.403 154.049L652.239 158.046ZM1121.68 157.998C1120.01 158.093 1118.34 158.187 1116.66 158.28L1116.44 154.286C1118.11 154.193 1119.78 154.099 1121.45 154.004L1121.68 157.998ZM664.312 158.531C662.634 158.465 660.957 158.399 659.281 158.332L659.441 154.335C661.116 154.402 662.792 154.468 664.469 154.534L664.312 158.531ZM1109.64 158.661C1107.98 158.749 1106.31 158.836 1104.65 158.922L1104.44 154.927C1106.11 154.841 1107.77 154.754 1109.43 154.666L1109.64 158.661ZM676.409 158.993C674.727 158.93 673.045 158.867 671.365 158.803L671.517 154.806C673.196 154.87 674.877 154.933 676.558 154.996L676.409 158.993ZM688.479 159.431C686.8 159.371 685.122 159.311 683.445 159.251L683.59 155.254C685.265 155.314 686.942 155.374 688.62 155.433L688.479 159.431ZM1097.64 159.275C1095.97 159.358 1094.3 159.439 1092.62 159.519L1092.43 155.523C1094.11 155.443 1095.78 155.362 1097.44 155.28L1097.64 159.275ZM698.062 159.762C697.22 159.733 696.379 159.705 695.538 159.676L695.675 155.678L698.197 155.764C699.039 155.792 699.881 155.821 700.722 155.849L700.589 159.847L698.062 159.762ZM1085.59 159.847C1083.93 159.923 1082.27 159.997 1080.6 160.071L1080.42 156.075C1081.25 156.038 1082.08 156.001 1082.91 155.964C1083.74 155.927 1084.57 155.889 1085.41 155.851L1085.59 159.847ZM712.665 160.242C710.993 160.189 709.32 160.135 707.643 160.08L707.774 156.082C709.449 156.137 711.122 156.191 712.793 156.244L712.665 160.242ZM1073.6 160.372C1071.92 160.442 1070.25 160.511 1068.58 160.579L1068.42 156.582C1070.09 156.514 1071.76 156.446 1073.43 156.375L1073.6 160.372ZM724.655 160.617C722.995 160.566 721.333 160.515 719.669 160.463L719.794 156.465C721.457 156.517 723.118 156.568 724.777 156.619L724.655 160.617ZM736.701 160.975C735.023 160.927 733.343 160.877 731.66 160.828L731.778 156.829C733.46 156.879 735.14 156.928 736.817 156.977L736.701 160.975ZM1061.53 160.856C1059.87 160.92 1058.21 160.983 1056.54 161.044L1056.4 157.047C1058.06 156.986 1059.72 156.923 1061.38 156.859L1061.53 160.856ZM748.739 161.314C747.073 161.268 745.405 161.222 743.734 161.175L743.846 157.177C745.516 157.223 747.183 157.27 748.848 157.315L748.739 161.314ZM1049.54 161.296C1047.87 161.354 1046.2 161.411 1044.53 161.467L1044.39 157.47C1046.06 157.414 1047.73 157.357 1049.4 157.298L1049.54 161.296ZM760.719 161.631C759.056 161.588 757.39 161.545 755.722 161.501L755.827 157.502C757.494 157.546 759.159 157.589 760.822 157.632L760.719 161.631ZM1037.48 161.696C1035.82 161.749 1034.15 161.8 1032.48 161.851L1032.36 157.852C1034.03 157.802 1035.69 157.751 1037.36 157.698L1037.48 161.696ZM772.802 161.93C771.129 161.89 769.455 161.849 767.778 161.808L767.876 157.809C769.552 157.85 771.226 157.891 772.897 157.931L772.802 161.93ZM1025.48 162.055C1023.81 162.102 1022.14 162.148 1020.47 162.193L1020.36 158.194C1022.03 158.149 1023.7 158.103 1025.37 158.056L1025.48 162.055ZM784.798 162.206C783.138 162.169 781.475 162.131 779.81 162.093L779.901 158.095C781.565 158.133 783.227 158.17 784.886 158.206L784.798 162.206ZM796.848 162.461C795.17 162.427 793.49 162.392 791.807 162.357L791.891 158.357C793.573 158.393 795.252 158.427 796.928 158.461L796.848 162.461ZM1013.43 162.375C1011.76 162.417 1010.08 162.457 1008.41 162.497L1008.31 158.498C1009.99 158.458 1011.66 158.418 1013.33 158.376L1013.43 162.375ZM808.884 162.693C807.218 162.662 805.55 162.631 803.879 162.599L803.956 158.6C805.625 158.632 807.292 158.663 808.957 158.693L808.884 162.693ZM1001.42 162.656C999.748 162.692 998.078 162.727 996.407 162.762L996.325 158.763C997.995 158.728 999.663 158.693 1001.33 158.657L1001.42 162.656ZM820.882 162.9C819.213 162.873 817.54 162.845 815.866 162.816L815.934 158.817C817.608 158.846 819.279 158.874 820.948 158.901L820.882 162.9ZM989.372 162.9C987.694 162.931 986.014 162.962 984.332 162.991L984.262 158.992C985.943 158.962 987.621 158.932 989.297 158.9L989.372 162.9ZM832.954 163.085C831.284 163.061 829.61 163.037 827.935 163.011L827.995 159.012C829.67 159.037 831.342 159.062 833.012 159.086L832.954 163.085ZM977.343 163.107C975.678 163.133 974.01 163.158 972.34 163.183L972.282 159.183C973.951 159.159 975.617 159.134 977.28 159.107L977.343 163.107ZM844.942 163.244C843.283 163.224 841.621 163.203 839.957 163.181L840.01 159.181C841.672 159.203 843.333 159.224 844.991 159.244L844.942 163.244ZM965.314 163.279C963.638 163.3 961.959 163.321 960.279 163.34L960.232 159.341C961.911 159.321 963.588 159.301 965.263 159.279L965.314 163.279ZM857.014 163.378C855.339 163.361 853.661 163.344 851.981 163.325L852.025 159.326C853.704 159.344 855.38 159.361 857.054 159.378L857.014 163.378ZM953.264 163.416C951.601 163.433 949.936 163.448 948.269 163.463L948.233 159.463C949.899 159.448 951.563 159.433 953.224 159.416L953.264 163.416ZM869.034 163.485C867.37 163.472 865.704 163.458 864.036 163.444L864.07 159.444C865.738 159.458 867.402 159.472 869.065 159.485L869.034 163.485ZM941.252 163.519C939.578 163.531 937.902 163.543 936.224 163.553L936.199 159.553C937.876 159.543 939.551 159.532 941.223 159.519L941.252 163.519ZM881.066 163.564C879.387 163.555 877.706 163.545 876.022 163.534L876.048 159.534C877.73 159.545 879.41 159.555 881.088 159.564L881.066 163.564ZM929.177 163.59C927.517 163.598 925.855 163.605 924.191 163.61L924.177 159.61C925.84 159.605 927.501 159.598 929.159 159.59L929.177 163.59ZM893.114 163.615C891.447 163.61 889.777 163.604 888.104 163.597L888.12 159.597C889.791 159.604 891.46 159.61 893.126 159.615L893.114 163.615ZM917.186 163.629C915.515 163.632 913.842 163.635 912.166 163.636L912.163 159.636C913.837 159.635 915.509 159.632 917.178 159.629L917.186 163.629ZM905.114 163.637C903.447 163.636 901.777 163.634 900.104 163.632L900.111 159.632C901.782 159.634 903.45 159.636 905.117 159.637L905.114 163.637Z" fill="#F7E6B1"/>
</svg>
