<svg width="396" height="121" viewBox="0 0 396 121" fill="none" xmlns="http://www.w3.org/2000/svg">
<path d="M0 0V41.9984C56.9313 90.0141 96.7289 120.004 199.008 120C308.336 119.996 357.71 81.0285 396 63.9007V0H0Z" fill="#155640"/>
<path fill-rule="evenodd" clip-rule="evenodd" d="M171.672 116.078C173.317 116.078 174.949 116.063 176.569 116.036L176.637 120.035C174.996 120.063 173.341 120.078 171.674 120.078L171.672 116.078ZM159.942 115.846C161.58 115.912 163.21 115.963 164.83 116.001L164.737 120C163.095 119.962 161.442 119.91 159.78 119.843L159.942 115.846ZM183.411 115.841C185.056 115.775 186.685 115.697 188.297 115.606L188.521 119.6C186.888 119.692 185.237 119.771 183.57 119.838L183.411 115.841ZM148.244 115.127C149.872 115.262 151.495 115.382 153.11 115.487L152.85 119.478C151.212 119.372 149.566 119.25 147.913 119.113L148.244 115.127ZM195.128 115.145C196.774 115.015 198.398 114.873 199.999 114.72L200.379 118.702C198.756 118.857 197.11 119.001 195.443 119.132L195.128 115.145ZM136.583 113.898C138.205 114.106 139.823 114.298 141.436 114.474L141.002 118.45C139.364 118.272 137.721 118.077 136.074 117.866L136.583 113.898ZM206.807 113.992C207.614 113.897 208.414 113.798 209.207 113.697C210.026 113.593 210.84 113.488 211.65 113.38L212.176 117.346C211.359 117.454 210.537 117.56 209.711 117.665C208.908 117.768 208.097 117.867 207.279 117.964L206.807 113.992ZM124.997 112.134C126.605 112.418 128.211 112.686 129.814 112.936L129.197 116.888C127.567 116.634 125.935 116.362 124.3 116.073L124.997 112.134ZM218.409 112.433C220.028 112.193 221.63 111.947 223.216 111.694L223.846 115.644C222.246 115.899 220.629 116.148 218.994 116.39L218.409 112.433ZM113.524 109.807C115.112 110.172 116.701 110.518 118.288 110.847L117.477 114.764C115.862 114.429 114.246 114.077 112.63 113.706L113.524 109.807ZM229.949 110.561C231.568 110.275 233.17 109.981 234.756 109.68L235.502 113.61C233.9 113.914 232.282 114.211 230.646 114.5L229.949 110.561ZM241.445 108.347C243.049 108.012 244.635 107.669 246.206 107.319L247.077 111.223C245.488 111.577 243.884 111.923 242.263 112.262L241.445 108.347ZM102.187 106.885C103.754 107.335 105.323 107.765 106.893 108.177L105.878 112.046C104.279 111.627 102.68 111.188 101.084 110.73L102.187 106.885ZM252.847 105.769C254.435 105.382 256.007 104.987 257.564 104.584L258.567 108.456C256.991 108.864 255.401 109.264 253.794 109.655L252.847 105.769ZM91.0447 103.341C92.579 103.879 94.1172 104.396 95.6585 104.894L94.4284 108.701C92.8566 108.193 91.2877 107.665 89.7223 107.116L91.0447 103.341ZM264.148 102.806C265.72 102.365 267.276 101.914 268.82 101.456L269.959 105.29C268.397 105.754 266.821 106.21 265.231 106.657L264.148 102.806ZM80.1348 99.1449C81.6343 99.7755 83.1394 100.385 84.6493 100.975L83.1949 104.701C81.6533 104.099 80.1161 103.476 78.5843 102.832L80.1348 99.1449ZM275.337 99.4448C276.89 98.9478 278.43 98.4419 279.959 97.9274L281.235 101.718C279.687 102.239 278.128 102.751 276.556 103.254L275.337 99.4448ZM69.5182 94.2746C70.9723 95 72.4335 95.7038 73.9012 96.3865L72.2142 100.013C70.7138 99.3155 69.2197 98.5958 67.7325 97.8539L69.5182 94.2746ZM286.4 95.6847C287.933 95.1335 289.455 94.5733 290.969 94.0043L292.376 97.7484C290.845 98.3241 289.305 98.8909 287.754 99.4487L286.4 95.6847ZM297.33 91.541C298.842 90.939 300.346 90.3281 301.844 89.7083L303.373 93.4045C301.859 94.0308 300.339 94.6484 298.81 95.2571L297.33 91.541ZM59.2556 88.7146C60.6572 89.5373 62.0673 90.3376 63.4853 91.1161L61.5603 94.6224C60.1091 93.8257 58.6657 93.0065 57.2308 92.1642L59.2556 88.7146ZM308.126 87.044C309.617 86.3967 311.103 85.7406 312.587 85.0759L314.222 88.7263C312.725 89.397 311.225 90.0593 309.719 90.713L308.126 87.044ZM49.4066 82.4563C50.7465 83.3764 52.0962 84.2736 53.4552 85.1482L51.2903 88.5118C49.8982 87.6158 48.5153 86.6966 47.1423 85.7537L49.4066 82.4563ZM318.797 82.2375C320.269 81.5519 321.74 80.8579 323.211 80.1556L324.934 83.7655C323.452 84.4729 321.97 85.1723 320.486 85.8634L318.797 82.2375ZM40.042 75.5109C41.3113 76.5266 42.5916 77.5188 43.8824 78.4883L41.4802 81.6867C40.157 80.6929 38.8444 79.6755 37.5429 78.6342L40.042 75.5109ZM329.36 77.1752C330.817 76.4593 332.275 75.7354 333.737 75.0037L335.527 78.5807C334.058 79.3163 332.591 80.0444 331.125 80.7649L329.36 77.1752ZM339.84 71.9159C341.284 71.1776 342.734 70.4321 344.19 69.6793L346.027 73.2323C344.566 73.9878 343.111 74.7363 341.66 75.4777L339.84 71.9159ZM31.2137 67.8924C32.4043 68.9998 33.6068 70.0838 34.8209 71.1446L32.1889 74.1567C30.9438 73.0687 29.7104 71.957 28.4893 70.8212L31.2137 67.8924ZM350.261 66.5181C351.699 65.7653 353.143 65.0058 354.596 64.2397L356.462 67.7781C355.006 68.5456 353.558 69.3068 352.117 70.0615L350.261 66.5181ZM22.9791 59.6384C24.0862 60.8342 25.2062 62.0064 26.3384 63.1554L23.4892 65.9629C22.328 64.7844 21.1794 63.5823 20.044 62.356L22.9791 59.6384ZM360.652 61.0368C362.087 60.276 363.53 59.5093 364.985 58.7366L366.862 62.2689C365.407 63.0419 363.962 63.8092 362.526 64.5706L360.652 61.0368ZM371.038 55.5193C372.47 54.7583 373.913 53.9919 375.368 53.2203L377.242 56.754C375.789 57.525 374.347 58.2909 372.915 59.0516L371.038 55.5193ZM15.3834 50.8005C16.3955 52.0697 17.4209 53.3158 18.4591 54.5392L15.4091 57.1273C14.3448 55.8729 13.2935 54.5955 12.256 53.2945L15.3834 50.8005ZM381.435 50.009C382.866 49.2539 384.308 48.4941 385.763 47.7297L387.623 51.2706C386.171 52.0338 384.731 52.7923 383.303 53.5463L381.435 50.009ZM391.845 44.5467C392.573 44.1677 393.304 43.7876 394.038 43.4065L395.881 46.9565C395.148 47.3368 394.419 47.716 393.693 48.0942L391.845 44.5467ZM8.43442 41.4086C9.36099 42.7595 10.3013 44.0875 11.255 45.3928L8.02521 47.7525C7.04807 46.4151 6.08478 45.0547 5.13577 43.6711L8.43442 41.4086ZM3.41837 33.6427C3.84491 34.3445 4.27496 35.0407 4.70844 35.7312L1.32059 37.8578C0.876862 37.151 0.436737 36.4384 0.000213623 35.7202L3.41837 33.6427Z" fill="#F7E6B1"/>
</svg>
