<svg width="1514" height="121" viewBox="0 0 1514 121" fill="none" xmlns="http://www.w3.org/2000/svg">
<path d="M1511.31 120.078V78.1274C1294.07 30.166 1142.21 0.209991 751.942 0.213989C334.773 0.218262 146.373 39.1415 0.267822 56.2499V120.078L1511.31 120.078Z" fill="#F7E6B1"/>
<path fill-rule="evenodd" clip-rule="evenodd" d="M860.591 4.00021C858.927 3.99969 857.265 4.00013 855.607 4.00151L855.603 0.00151081C857.263 0.000131793 858.926 -0.000306778 860.592 0.000209875L860.591 4.00021ZM872.631 4.02061C870.952 4.01543 869.275 4.01124 867.602 4.00803L867.609 0.00803442C869.284 0.0112533 870.963 0.0154473 872.644 0.020631L872.631 4.02061ZM848.534 4.01309C846.851 4.0172 845.172 4.02227 843.497 4.02828L843.482 0.02831C845.159 0.0222935 846.84 0.0172201 848.524 0.0131051L848.534 4.01309ZM884.703 4.07475C883.034 4.06492 881.367 4.05608 879.704 4.04822L879.722 0.0482608C881.388 0.0561293 883.056 0.0649789 884.727 0.0748233L884.703 4.07475ZM836.481 4.05903C834.816 4.06765 833.154 4.07719 831.496 4.08763L831.471 0.0877116C833.13 0.077257 834.793 0.0677086 836.46 0.0590817L836.481 4.05903ZM896.731 4.16259C895.054 4.14797 893.38 4.13437 891.708 4.12177L891.738 0.121887C893.411 0.134494 895.087 0.148109 896.765 0.162745L896.731 4.16259ZM824.436 4.13773C822.751 4.15103 821.07 4.16526 819.393 4.18039L819.356 0.180553C821.035 0.165405 822.718 0.151167 824.405 0.137856L824.436 4.13773ZM908.816 4.28534C907.138 4.26587 905.461 4.24744 903.788 4.23004L903.829 0.23026C905.505 0.247677 907.182 0.266123 908.862 0.28561L908.816 4.28534ZM812.373 4.24926C810.708 4.2669 809.047 4.28544 807.391 4.30484L807.344 0.305118C809.002 0.285696 810.664 0.267145 812.331 0.249481L812.373 4.24926ZM920.831 4.44209C919.157 4.41781 917.485 4.39459 915.816 4.37241L915.869 0.372767C917.54 0.394968 919.214 0.41821 920.889 0.442506L920.831 4.44209ZM800.338 4.39304C798.65 4.41547 796.967 4.4388 795.289 4.463L795.231 0.463414C796.911 0.439191 798.595 0.415844 800.284 0.39339L800.338 4.39304ZM932.921 4.63522C931.237 4.60582 929.555 4.5775 927.875 4.55026L927.94 0.550782C929.622 0.578055 931.305 0.606401 932.991 0.635832L932.921 4.63522ZM788.27 4.56974C786.606 4.59635 784.947 4.62382 783.293 4.65211L783.224 0.6527C784.88 0.624377 786.54 0.596887 788.206 0.570248L788.27 4.56974ZM944.933 4.86283C943.261 4.82865 941.591 4.79555 939.923 4.76353L940 0.764267C941.669 0.796321 943.341 0.829451 945.015 0.863669L944.933 4.86283ZM776.235 4.77843C774.546 4.80999 772.863 4.84241 771.185 4.87567L771.106 0.876453C772.785 0.843168 774.47 0.810721 776.16 0.779131L776.235 4.77843ZM957 5.12792C955.32 5.08845 953.642 5.05009 951.965 5.01284L952.054 1.01382C953.732 1.05111 955.413 1.08951 957.094 1.12903L957 5.12792ZM764.173 5.0202C762.512 5.05576 760.856 5.09213 759.206 5.12929L759.116 1.1303C760.767 1.09311 762.425 1.05671 764.088 1.02112L764.173 5.0202ZM752.128 5.29439C750.44 5.33511 748.758 5.37665 747.083 5.41898L746.982 1.42026C748.659 1.37789 750.342 1.33631 752.031 1.29555L752.128 5.29439ZM969.034 5.42925C967.364 5.38484 965.695 5.34154 964.028 5.29936L964.129 1.30064C965.798 1.34287 967.468 1.3862 969.14 1.43067L969.034 5.42925ZM740.088 5.60138C738.43 5.64593 736.779 5.69125 735.135 5.7373L735.023 1.73887C736.669 1.69277 738.321 1.64742 739.98 1.60283L740.088 5.60138ZM981.083 5.76864C979.406 5.71876 977.731 5.67003 976.057 5.62244L976.171 1.62406C977.846 1.6717 979.524 1.72048 981.202 1.77041L981.083 5.76864ZM728.017 5.94256C726.333 5.99251 724.657 6.04324 722.988 6.0947L722.865 2.0966C724.535 2.04509 726.213 1.99432 727.899 1.94431L728.017 5.94256ZM993.131 6.14642C991.462 6.09139 989.794 6.03753 988.127 5.98481L988.254 1.98681C989.922 2.03958 991.592 2.0935 993.263 2.14859L993.131 6.14642ZM716.024 6.31514C715.201 6.34189 714.379 6.36881 713.559 6.39591C712.717 6.42377 711.875 6.45175 711.035 6.47984L710.901 2.48207C711.742 2.45396 712.584 2.42597 713.427 2.39809C714.248 2.37097 715.07 2.34402 715.894 2.31725L716.024 6.31514ZM1005.17 6.56292C1003.49 6.50223 1001.82 6.44274 1000.15 6.38443L1000.29 2.38686C1001.96 2.44523 1003.64 2.50479 1005.31 2.56555L1005.17 6.56292ZM704.004 6.71854C702.337 6.77603 700.674 6.83397 699.016 6.89238L698.875 2.89486C700.534 2.83642 702.198 2.77843 703.867 2.72092L704.004 6.71854ZM1017.22 7.02011C1015.55 6.95381 1013.88 6.88873 1012.2 6.82485L1012.36 2.82776C1014.03 2.89171 1015.7 2.95687 1017.38 3.02324L1017.22 7.02011ZM692.08 7.1404C690.435 7.2001 688.794 7.26026 687.158 7.32087L687.01 3.32362C688.647 3.26296 690.288 3.20277 691.935 3.14303L692.08 7.1404ZM1029.25 7.517C1027.58 7.44505 1025.91 7.37433 1024.23 7.30483L1024.4 3.30829C1026.07 3.37786 1027.75 3.44866 1029.42 3.5207L1029.25 7.517ZM680.16 7.58398C678.485 7.64789 676.815 7.71228 675.15 7.77716L674.994 3.78019C676.661 3.71527 678.332 3.65084 680.008 3.58689L680.16 7.58398ZM1041.3 8.05659C1039.62 7.97864 1037.95 7.90195 1036.28 7.82651L1036.46 3.83057C1038.13 3.90609 1039.81 3.98287 1041.48 4.06092L1041.3 8.05659ZM668.182 8.05251C666.53 8.11875 664.882 8.18547 663.239 8.25268L663.075 4.25602C664.719 4.18877 666.368 4.122 668.022 4.05572L668.182 8.05251ZM1053.33 8.63791C1051.65 8.55414 1049.98 8.47165 1048.31 8.39044L1048.51 4.39516C1050.18 4.47647 1051.85 4.55905 1053.53 4.64292L1053.33 8.63791ZM656.328 8.53931C654.647 8.61 652.97 8.68121 651.299 8.75292L651.128 4.7566C652.8 4.68484 654.477 4.61358 656.16 4.54284L656.328 8.53931ZM1065.36 9.26334C1063.69 9.17335 1062.02 9.08467 1060.35 8.9973L1060.55 5.00275C1062.23 5.09023 1063.9 5.17902 1065.58 5.26912L1065.36 9.26334ZM644.307 9.05712C642.649 9.13026 640.995 9.20392 639.346 9.27807L639.167 5.28211C640.817 5.2079 642.471 5.1342 644.131 5.06101L644.307 9.05712ZM632.448 9.59251C630.779 9.6696 629.115 9.74722 627.456 9.82536L627.268 5.82979C628.928 5.75159 630.594 5.67392 632.264 5.59677L632.448 9.59251ZM1077.39 9.93346C1075.72 9.83725 1074.05 9.74239 1072.38 9.64884L1072.61 5.6551C1074.28 5.74876 1075.95 5.84375 1077.62 5.94007L1077.39 9.93346ZM620.446 10.1599C618.783 10.2403 617.126 10.3213 615.473 10.4027L615.276 6.40759C616.93 6.32606 618.589 6.24506 620.253 6.1646L620.446 10.1599ZM1089.42 10.6493C1087.75 10.5466 1086.08 10.4453 1084.41 10.3454L1084.65 6.35252C1086.32 6.45261 1087.99 6.55405 1089.66 6.65685L1089.42 10.6493ZM608.557 10.748C606.905 10.8316 605.257 10.9157 603.615 11.0003L603.409 7.0056C605.053 6.92091 606.701 6.83676 608.355 6.75314L608.557 10.748ZM1101.44 11.4124C1099.77 11.3031 1098.1 11.1951 1096.43 11.0886L1096.69 7.09668C1098.36 7.20339 1100.03 7.31147 1101.71 7.42095L1101.44 11.4124ZM596.593 11.3667C594.928 11.4547 593.267 11.5433 591.612 11.6324L591.397 7.63823C593.054 7.54903 594.715 7.46038 596.382 7.37229L596.593 11.3667ZM1113.47 12.2239C1111.8 12.1079 1110.13 11.9932 1108.46 11.8799L1108.73 7.88908C1110.4 8.0025 1112.07 8.11734 1113.74 8.23359L1113.47 12.2239ZM584.684 12.0101C583.041 12.1007 581.403 12.192 579.769 12.2838L579.544 8.29006C581.18 8.1982 582.819 8.10689 584.464 8.01614L584.684 12.0101ZM572.745 12.6833C571.079 12.7792 569.417 12.8758 567.76 12.9729L567.526 8.97976C569.184 8.88256 570.847 8.78593 572.515 8.68988L572.745 12.6833ZM1125.48 13.0845C1123.81 12.9616 1122.14 12.84 1120.47 12.7199L1120.76 8.73026C1122.43 8.85053 1124.1 8.97223 1125.77 9.09539L1125.48 13.0845ZM560.826 13.3842C559.182 13.483 557.542 13.5823 555.906 13.6822L555.662 9.68963C557.299 9.58965 558.941 9.49025 560.586 9.39143L560.826 13.3842ZM1137.5 13.9978C1135.83 13.8674 1134.16 13.7385 1132.49 13.6111L1132.8 9.62268C1134.47 9.75029 1136.14 9.87936 1137.81 10.0099L1137.5 13.9978ZM548.901 14.1152C547.234 14.2194 545.573 14.3243 543.915 14.4297L543.661 10.4378C545.32 10.3322 546.983 10.2273 548.651 10.123L548.901 14.1152ZM1149.5 14.9622C1147.84 14.8247 1146.17 14.6886 1144.5 14.5541L1144.83 10.5671C1146.5 10.7018 1148.16 10.838 1149.83 10.9758L1149.5 14.9622ZM536.981 14.876C535.336 14.9831 533.696 15.0908 532.06 15.1991L531.795 11.2079C533.433 11.0995 535.075 10.9917 536.721 10.8845L536.981 14.876ZM1161.51 15.9826C1159.85 15.837 1158.18 15.6929 1156.51 15.5504L1156.85 11.5649C1158.52 11.7076 1160.19 11.8519 1161.86 11.9977L1161.51 15.9826ZM525.06 15.6678C523.396 15.7806 521.735 15.8939 520.079 16.008L519.804 12.0174C521.462 11.9033 523.124 11.7898 524.79 11.6769L525.06 15.6678ZM513.148 16.4904C511.504 16.6062 509.864 16.7225 508.229 16.8395L507.943 12.8497C509.58 12.7326 511.222 12.6162 512.868 12.5003L513.148 16.4904ZM1173.51 17.0581C1171.85 16.9049 1170.18 16.7534 1168.52 16.6034L1168.88 12.6195C1170.54 12.7697 1172.21 12.9215 1173.88 13.0749L1173.51 17.0581ZM501.226 17.3458C499.564 17.4674 497.906 17.5895 496.252 17.7124L495.956 13.7233C497.611 13.6004 499.271 13.4781 500.935 13.3565L501.226 17.3458ZM1185.5 18.1918C1183.83 18.0298 1182.16 17.8695 1180.49 17.7108L1180.87 13.7287C1182.54 13.8876 1184.22 14.0482 1185.89 14.2105L1185.5 18.1918ZM489.329 18.232C487.68 18.3571 486.035 18.4828 484.394 18.6092L484.086 14.621C485.729 14.4945 487.376 14.3686 489.026 14.2434L489.329 18.232ZM1197.5 19.3863C1195.83 19.2165 1194.17 19.0483 1192.51 18.8817L1192.9 14.9016C1194.57 15.0684 1196.24 15.2369 1197.9 15.4071L1197.5 19.3863ZM477.401 19.1533C475.742 19.2838 474.087 19.415 472.436 19.5468L472.117 15.5595C473.77 15.4275 475.427 15.2963 477.088 15.1657L477.401 19.1533ZM465.523 20.1043C463.866 20.2392 462.213 20.3749 460.563 20.5112L460.234 16.5248C461.885 16.3883 463.54 16.2526 465.198 16.1175L465.523 20.1043ZM1209.46 20.6404C1207.8 20.4618 1206.13 20.2849 1204.47 20.1096L1204.89 16.1316C1206.56 16.3072 1208.22 16.4844 1209.89 16.6633L1209.46 20.6404ZM453.589 21.0934C451.933 21.233 450.281 21.3732 448.633 21.5141L448.293 17.5287C449.942 17.3876 451.596 17.2473 453.253 17.1076L453.589 21.0934ZM1221.46 21.9634C1219.79 21.7754 1218.13 21.5893 1216.46 21.4048L1216.9 17.4291C1218.57 17.6139 1220.24 17.8004 1221.9 17.9887L1221.46 21.9634ZM441.732 22.11C440.067 22.2551 438.405 22.4009 436.747 22.5474L436.395 18.563C438.055 18.4163 439.718 18.2703 441.385 18.1251L441.732 22.11ZM1233.39 23.3468C1231.74 23.1504 1230.08 22.9558 1228.42 22.763L1228.89 18.7898C1230.55 18.983 1232.2 19.178 1233.86 19.3748L1233.39 23.3468ZM429.791 23.1679C428.139 23.3166 426.491 23.466 424.846 23.6161L424.483 19.6327C426.129 19.4824 427.779 19.3329 429.432 19.1841L429.791 23.1679ZM1245.38 24.8076C1243.72 24.6002 1242.05 24.3946 1240.39 24.1908L1240.87 20.2204C1242.54 20.4245 1244.21 20.6306 1245.87 20.8384L1245.38 24.8076ZM417.925 24.2533C416.263 24.4078 414.604 24.5629 412.948 24.7188L412.573 20.7364C414.23 20.5804 415.891 20.4251 417.555 20.2705L417.925 24.2533ZM406.009 25.3775C404.362 25.5353 402.717 25.6938 401.075 25.853L400.689 21.8717C402.332 21.7123 403.979 21.5536 405.628 21.3957L406.009 25.3775ZM1257.3 26.3336C1255.65 26.1171 1254 25.9026 1252.34 25.6899L1252.85 21.7225C1254.51 21.9356 1256.17 22.1506 1257.82 22.3675L1257.3 26.3336ZM394.13 26.5321C392.473 26.6955 390.819 26.8597 389.167 27.0245L388.77 23.0443C390.423 22.8793 392.079 22.715 393.738 22.5514L394.13 26.5321ZM1269.26 27.9405C1267.6 27.7118 1265.94 27.485 1264.27 27.2602L1264.8 23.2961C1266.47 23.5214 1268.14 23.7486 1269.81 23.9779L1269.26 27.9405ZM382.245 27.7209C380.598 27.8881 378.952 28.0559 377.31 28.2244L376.902 24.2453C378.546 24.0766 380.192 23.9086 381.841 23.7414L382.245 27.7209ZM1281.17 29.6215C1279.53 29.3833 1277.88 29.147 1276.22 28.9127L1276.78 24.9523C1278.44 25.1871 1280.09 25.4239 1281.75 25.6626L1281.17 29.6215ZM370.356 28.9435C368.704 29.1157 367.053 29.2886 365.405 29.4622L364.986 25.4842C366.636 25.3105 368.287 25.1374 369.941 24.965L370.356 28.9435ZM358.496 30.1956C356.841 30.3726 355.188 30.5503 353.537 30.7287L353.108 26.7519C354.76 26.5733 356.414 26.3955 358.071 26.2183L358.496 30.1956ZM1293.09 31.3866C1291.43 31.1346 1289.77 30.8848 1288.1 30.637L1288.69 26.6805C1290.36 26.9288 1292.03 27.1793 1293.69 27.4319L1293.09 31.3866ZM346.602 31.4836C344.953 31.6643 343.306 31.8457 341.661 32.0278L341.221 28.0521C342.867 27.8698 344.516 27.6882 346.166 27.5074L346.602 31.4836ZM1304.99 33.2372C1303.35 32.9751 1301.7 32.7151 1300.05 32.4572L1300.67 28.5051C1302.32 28.7636 1303.97 29.0242 1305.62 29.287L1304.99 33.2372ZM334.741 32.7991C333.088 32.9845 331.437 33.1707 329.787 33.3576L329.337 29.383C330.988 29.1959 332.641 29.0096 334.295 28.824L334.741 32.7991ZM322.865 34.1467C321.218 34.3355 319.573 34.5251 317.929 34.7154L317.469 30.7419C319.115 30.5515 320.761 30.3617 322.409 30.1727L322.865 34.1467ZM1316.87 35.1747C1315.21 34.8978 1313.55 34.6231 1311.89 34.3506L1312.53 30.4032C1314.2 30.6764 1315.87 30.9518 1317.53 31.2295L1316.87 35.1747ZM311 35.5222C309.351 35.7154 307.703 35.9093 306.055 36.1039L305.586 32.1315C307.235 31.9367 308.885 31.7427 310.535 31.5494L311 35.5222ZM1328.75 37.2115C1327.11 36.9232 1325.46 36.6372 1323.82 36.3534L1324.49 32.4113C1326.15 32.6958 1327.8 32.9827 1329.44 33.2718L1328.75 37.2115ZM299.14 36.9253C297.492 37.1222 295.845 37.3197 294.198 37.518L293.72 33.5467C295.368 33.3483 297.017 33.1506 298.666 32.9536L299.14 36.9253ZM287.278 38.3556C285.631 38.556 283.984 38.7571 282.337 38.9589L281.851 34.9886C283.498 34.7866 285.146 34.5854 286.795 34.3848L287.278 38.3556ZM1340.57 39.3386C1338.93 39.0354 1337.28 38.7345 1335.63 38.436L1336.34 34.4997C1338 34.799 1339.65 35.1008 1341.3 35.4049L1340.57 39.3386ZM275.422 39.8104C273.776 40.0142 272.13 40.2186 270.483 40.4237L269.989 36.4544C271.636 36.2491 273.283 36.0446 274.931 35.8407L275.422 39.8104ZM1352.44 41.581C1350.8 41.2637 1349.16 40.9489 1347.51 40.6365L1348.26 36.7066C1349.91 37.02 1351.55 37.3358 1353.2 37.6541L1352.44 41.581ZM263.568 41.2891C261.921 41.4961 260.274 41.7038 258.626 41.9122L258.124 37.9438C259.773 37.7353 261.421 37.5275 263.069 37.3204L263.568 41.2891ZM251.717 42.7897C250.072 42.9994 248.427 43.2099 246.781 43.421L246.272 39.4535C247.919 39.2422 249.565 39.0317 251.211 38.8218L251.717 42.7897ZM1364.2 43.9183C1362.57 43.5857 1360.93 43.2556 1359.29 42.9281L1360.07 39.0053C1361.72 39.3339 1363.36 39.665 1365 39.9987L1364.2 43.9183ZM239.863 44.3115C238.218 44.524 236.573 44.7371 234.926 44.9509L234.411 40.9843C236.059 40.7703 237.705 40.5571 239.35 40.3445L239.863 44.3115ZM1376.03 46.3887C1374.4 46.0393 1372.76 45.6925 1371.12 45.3483L1371.94 41.4335C1373.59 41.7789 1375.23 42.1268 1376.87 42.4775L1376.03 46.3887ZM228.023 45.8505C226.378 46.0656 224.732 46.2813 223.085 46.4977L222.564 42.5317C224.212 42.3153 225.859 42.0994 227.505 41.8842L228.023 45.8505ZM216.164 47.4094C214.525 47.626 212.884 47.8433 211.242 48.0612L210.715 44.0959C212.359 43.8779 214 43.6606 215.64 43.4438L216.164 47.4094ZM1387.73 48.9613C1386.11 48.5954 1384.48 48.2323 1382.85 47.8718L1383.71 43.9658C1385.35 44.3275 1386.98 44.692 1388.61 45.0593L1387.73 48.9613ZM204.334 48.98C202.687 49.1997 201.039 49.42 199.388 49.6409L198.858 45.6762C200.509 45.4553 202.158 45.2349 203.805 45.0151L204.334 48.98ZM192.488 50.5667C190.848 50.7873 189.206 51.0084 187.562 51.2302L187.027 47.2661C188.672 47.0443 190.314 46.823 191.955 46.6024L192.488 50.5667ZM1399.51 51.686C1397.89 51.3007 1396.26 50.9183 1394.62 50.5388L1395.53 46.6426C1397.17 47.0236 1398.8 47.4075 1400.43 47.7943L1399.51 51.686ZM180.644 52.1651C178.998 52.3882 177.348 52.6118 175.697 52.836L175.159 48.8724C176.811 48.6481 178.46 48.4244 180.108 48.2013L180.644 52.1651ZM1411.15 54.5251C1409.53 54.1208 1407.91 53.7194 1406.29 53.321L1407.24 49.4358C1408.87 49.8358 1410.5 50.2388 1412.12 50.6449L1411.15 54.5251ZM168.815 53.772C167.173 53.9957 165.529 54.2199 163.882 54.4448L163.341 50.4815C164.988 50.2567 166.633 50.0324 168.275 49.8086L168.815 53.772ZM156.95 55.3924C155.313 55.6165 153.674 55.8411 152.032 56.0662L151.489 52.1033C153.131 51.8781 154.771 51.6535 156.408 51.4294L156.95 55.3924ZM1422.85 57.5347C1421.24 57.1092 1419.62 56.6869 1418 56.2677L1419 52.3949C1420.63 52.816 1422.25 53.2402 1423.87 53.6675L1422.85 57.5347ZM145.141 57.0122C143.497 57.2382 141.849 57.4647 140.199 57.6918L139.654 53.7291C141.304 53.502 142.952 53.2754 144.597 53.0494L145.141 57.0122ZM133.275 58.6453C131.642 58.8703 130.006 59.0959 128.367 59.3219L127.82 55.3595C129.459 55.1334 131.096 54.9078 132.729 54.6827L133.275 58.6453ZM1434.42 60.6789C1432.81 60.2293 1431.19 59.783 1429.57 59.34L1430.62 55.4811C1432.25 55.9262 1433.88 56.3746 1435.5 56.8263L1434.42 60.6789ZM121.464 60.2745L116.511 60.9587L115.963 56.9963L120.917 56.3121L121.464 60.2745ZM109.613 61.9119L104.698 62.5912L104.151 58.6289L109.065 57.9496L109.613 61.9119ZM1446.01 64.0094C1444.42 63.5387 1442.82 63.0714 1441.21 62.6074L1442.32 58.7644C1443.93 59.2307 1445.54 59.7004 1447.14 60.1736L1446.01 64.0094ZM97.7829 63.5473L92.8173 64.2337L92.2696 60.2714L97.2351 59.585L97.7829 63.5473ZM85.9473 65.1832L81.0258 65.863L80.4786 61.9006L85.3998 61.2208L85.9473 65.1832ZM1457.5 67.507C1455.89 67.0032 1454.28 66.5031 1452.65 66.0066L1453.82 62.1814C1455.45 62.6805 1457.08 63.1834 1458.69 63.6901L1457.5 67.507ZM74.0974 66.8195L69.1361 67.5039L68.5898 63.5414L73.5506 62.8571L74.0974 66.8195ZM62.2768 68.4491C60.6382 68.6748 58.9956 68.9009 57.349 69.1274L56.8038 65.1648C58.4502 64.9382 60.0926 64.7122 61.7311 64.4865L62.2768 68.4491ZM1468.93 71.201C1467.37 70.6789 1465.79 70.1607 1464.2 69.6461L1465.44 65.8416C1467.03 66.3592 1468.62 66.8805 1470.2 67.4057L1468.93 71.201ZM50.4092 70.0814C48.7652 70.3073 47.1172 70.5335 45.465 70.7601L44.9213 66.7972C46.5733 66.5706 48.2211 66.3444 49.8648 66.1187L50.4092 70.0814ZM38.6011 71.7008C36.961 71.9254 35.3169 72.1503 33.6684 72.3757L33.1266 68.4126C34.7748 68.1872 36.4187 67.9623 38.0585 67.7378L38.6011 71.7008ZM26.7199 73.3246C25.0794 73.5483 23.4346 73.7725 21.7855 73.9971L21.2458 70.0336C22.8946 69.8091 24.5391 69.585 26.1793 69.3613L26.7199 73.3246ZM1480.32 75.1127C1478.74 74.5521 1477.15 73.9956 1475.55 73.4432L1476.85 69.662C1478.47 70.218 1480.07 70.7782 1481.66 71.3425L1480.32 75.1127ZM14.9199 74.9307C13.2792 75.1536 11.6342 75.3768 9.98483 75.6004L9.4475 71.6367C11.0965 71.4131 12.7412 71.1899 14.3815 70.9671L14.9199 74.9307ZM3.03139 76.5417L0.535281 76.8789L0 72.9149L2.49556 72.5777L3.03139 76.5417ZM1491.55 79.2202C1490.01 78.6398 1488.46 78.0635 1486.91 77.4914L1488.29 73.7375C1489.86 74.3136 1491.41 74.894 1492.96 75.4787L1491.55 79.2202ZM1502.8 83.6223C1501.25 82.9972 1499.7 82.3766 1498.13 81.7605L1499.6 78.0381C1501.18 78.6589 1502.74 79.2844 1504.3 79.9146L1502.8 83.6223ZM1511.48 87.2356C1510.73 86.9142 1509.98 86.5939 1509.22 86.2748L1510.77 82.5891C1511.54 82.9109 1512.3 83.234 1513.05 83.5582L1511.48 87.2356Z" fill="#EF4E23"/>
</svg>
