<svg width="154" height="80" viewBox="0 0 154 80" fill="none" xmlns="http://www.w3.org/2000/svg">
<path d="M110.25 8.56922C111.13 4.56639 114.98 0.410492 118.631 1.15289C122.327 1.90294 124.172 7.32168 123.453 11.3781C122.718 15.5034 119.013 19.8583 115.401 19.3072C111.635 18.7332 109.27 13.016 110.25 8.56922Z" fill="#F1A41F"/>
<path d="M126.231 12.5337C127.119 7.96452 131.657 3.82393 135.209 4.67348C139.097 5.61487 141.278 12.4189 139.166 17.1718C137.803 20.2256 134.214 23.4554 130.77 22.5752C127.027 21.6185 125.489 16.3299 126.223 12.5337H126.231Z" fill="#F1A41F"/>
<path d="M137.221 23.9454C139.188 21.4656 143.206 19.9119 145.847 21.611C148.786 23.5091 148.724 28.6294 146.49 31.6372C144.53 34.2701 140.451 35.9156 137.803 34.2624C134.81 32.3949 134.78 27.0221 137.229 23.9377L137.221 23.9454Z" fill="#F1A41F"/>
<path d="M102.023 12.2966C105.115 11.8833 108.161 14.8376 108.949 17.9373C109.913 21.7182 107.725 26.5706 104.104 27.1063C101.005 27.5655 97.9738 24.7031 97.1243 21.7182C96.0145 17.8225 98.3642 12.7941 102.023 12.3043V12.2966Z" fill="#F1A41F"/>
<path d="M105.589 31.637C106.377 30.3742 112.026 21.6491 121.463 22.8354C129.009 23.7844 133.448 30.3895 134.703 35.6399C135.683 39.7422 135.576 46.6381 131.259 49.6077C130.93 49.8373 128.741 51.2915 125.955 51.0465C122.435 50.7404 122.128 48.0846 118.34 47.059C114.62 46.0487 113.526 48.2377 109.531 47.1509C108.781 46.9442 105.252 45.9875 103.637 43.0562C101.219 38.686 104.747 32.9917 105.597 31.637H105.589Z" fill="#F1A41F"/>
<path d="M123.193 29.4253C123.797 29.1957 124.119 30.4049 124.119 31.3004C124.142 33.6807 122.175 34.8746 119.197 34.27L118.195 42.1915C118.195 42.245 118.195 42.2604 118.103 42.2986C117.628 42.4517 116.105 42.5129 115.738 42.5129C115.294 42.5129 113.901 42.3981 113.534 42.2527C113.48 42.2374 113.442 42.2144 113.45 42.1838C113.648 40.8597 113.947 38.5713 114.628 33.4893C111.299 33.1143 110.633 34.2623 110.25 34.2547C109.791 34.2547 109.324 33.2597 109.324 32.3643C109.324 30.3896 110.579 29.0503 112.853 29.0656C114.797 29.0732 120.361 30.4891 123.193 29.4253Z" fill="#155640"/>
<path d="M130.295 41.12C129.231 43.8906 126.384 44.9927 123.507 44.2656C120.613 43.5309 119.243 41.0588 120.269 38.3647C121.341 35.5635 124.149 34.4843 127.02 35.2114C129.874 35.9385 131.336 38.4336 130.295 41.12ZM126.247 40.0026C126.775 38.6249 126.905 37.5458 126.185 37.3621C125.328 37.1478 124.838 38.1504 124.333 39.4209C123.912 40.5 123.476 41.8088 124.348 42.0308C125.206 42.2451 125.726 41.3266 126.247 40.0026Z" fill="#155640"/>
<path d="M102.107 48.0999C106.37 47.5182 109.951 45.2145 110.434 45.1456C111.39 45.0155 112.623 46.883 112.875 48.7581C113.442 52.9369 111 55.7917 106.086 56.4652C104.915 56.626 103.591 56.6719 102.16 56.603L102.39 78.4157C102.374 78.6377 102.168 78.7142 102.168 78.7142C100.905 79.1964 99.0528 79.5791 97.5756 79.7857C96.0525 79.9924 94.3764 80.046 93.037 79.9618C93.037 79.9618 92.861 79.9388 92.8763 79.7628C92.9069 79.6709 92.7998 68.1676 92.6773 56.2203C91.3532 56.2663 90.0827 56.3504 88.8658 56.5188C83.9981 57.223 81.9393 59.3277 81.1587 59.4272C80.202 59.5573 78.9697 57.6898 78.7172 55.8147C78.1508 51.6358 80.5923 48.781 85.5059 48.1075C89.723 47.5335 96.55 48.8576 102.122 48.1075L102.107 48.0999Z" fill="#F7E6B1"/>
<path d="M126.912 71.7648C126.575 73.816 122.572 78.8138 115.86 78.5688C108.49 78.301 104.227 73.4945 105.314 66.4149C106.439 59.5573 111.957 55.057 119.633 55.3325C126.744 55.5851 129.269 59.718 128.756 62.9096C127.907 68.2365 122.144 69.6524 118.24 69.5146C116.044 69.4381 114.613 68.9483 113.916 68.8335C113.87 71.3362 116.411 72.7904 119.044 72.8822C123.521 73.0429 125.825 71.1066 126.621 71.1372C126.973 71.1525 126.958 71.5428 126.904 71.7648H126.912ZM114.238 65.1138C114.238 65.1138 114.72 65.1291 115.248 65.1904C118.409 65.3052 120.223 63.6137 120.452 62.1289C120.674 60.9503 120.047 60.0089 118.424 59.9477C116.228 59.8711 114.651 62.3126 114.238 65.1138Z" fill="#F7E6B1"/>
<path d="M130.035 73.6858L132.315 45.5206C132.354 45.4288 132.399 45.3446 132.522 45.291C133.785 44.9772 135.4 44.7323 136.762 44.6787C138.3 44.6175 139.709 44.694 140.987 44.9466C140.987 44.9466 141.163 44.9848 141.125 45.1609L139.135 69.6677C138.928 72.1398 139.494 73.1654 140.627 73.9154C140.941 74.1221 140.987 74.2063 140.964 74.5583C140.91 75.3543 138.851 78.7755 135.124 78.9285C131.963 79.0586 129.782 77.26 130.035 73.6858Z" fill="#F7E6B1"/>
<path d="M142.089 67.4175L144.37 39.2523C144.408 39.1604 144.454 39.0763 144.577 39.0227C145.839 38.7089 147.454 38.464 148.817 38.4104C150.355 38.3492 151.763 38.4257 153.041 38.6783C153.041 38.6783 153.218 38.7165 153.179 38.8926L151.189 63.3994C150.983 65.8715 151.549 66.8971 152.682 67.6471C152.996 67.8538 153.041 67.938 153.019 68.29C152.965 69.086 150.906 72.5071 147.179 72.6602C144.018 72.7903 141.837 70.9917 142.089 67.4175Z" fill="#F7E6B1"/>
<path d="M24.2389 6.2119C28.5402 6.2119 32.4053 4.41331 32.8875 4.41331C33.8518 4.41331 34.8162 6.43385 34.8162 8.31664C34.8162 12.5338 32.0073 15.0365 27.0478 15.0365C26.2136 15.0365 25.341 14.6538 24.5068 14.7763C22.2643 15.0977 21.3153 19.1159 20.6953 20.8609C19.708 23.6391 19.0421 26.5322 18.6901 29.4559C18.3074 32.6398 18.3227 35.7012 18.6135 38.9004C18.8891 42.0231 20.282 45.7274 22.5245 47.725C26.558 51.3145 31.4103 52.2865 36.0714 50.6946C42.6535 48.4521 49.6182 43.2629 56.2309 41.1352C59.3995 40.1173 62.6676 39.2984 65.9969 39.2448C70.9105 39.1606 77.2783 40.9898 78.4799 46.4775C78.6636 47.327 78.7019 48.2301 78.3957 49.0414C77.8983 50.3502 76.5436 51.2227 75.1506 51.3758C72.5178 51.6742 70.811 49.9139 68.8441 48.5286C67.4052 47.5107 65.7367 46.8219 63.9993 46.5387C61.3053 46.1024 58.5194 46.6535 55.9937 47.6867C51.0418 49.7149 46.7711 52.7993 41.9646 55.1184C37.3113 57.3532 32.168 59.2972 27.0401 58.0956C25.2645 57.6823 23.5654 56.9705 22.027 55.9985C18.6518 53.8708 16.1491 50.5492 14.4423 46.9443C9.78129 37.0635 10.6921 25.4913 12.9805 15.1207C13.0417 14.8298 13.2866 12.9011 13.8224 13.0083C12.5902 12.771 11.2278 12.7481 9.96498 12.7634C5.05137 12.8093 2.72468 14.6079 1.92871 14.6079C0.964353 14.6079 0 12.5873 0 10.7046C0.00765359 6.47977 2.81652 3.97705 7.77605 3.97705C12.0314 3.97705 18.6212 6.21955 24.2389 6.21955V6.2119Z" fill="#F7E6B1"/>
<mask id="mask0_869_28633" style="mask-type:luminance" maskUnits="userSpaceOnUse" x="0" y="3" width="79" height="56">
<path d="M24.2389 6.2119C28.5402 6.2119 32.4053 4.41331 32.8875 4.41331C33.8518 4.41331 34.8162 6.43385 34.8162 8.31664C34.8162 12.5338 32.0073 15.0365 27.0478 15.0365C26.2136 15.0365 25.341 14.6538 24.5068 14.7763C22.2643 15.0977 21.3153 19.1159 20.6953 20.8609C19.708 23.6391 19.0421 26.5322 18.6901 29.4559C18.3074 32.6398 18.3227 35.7012 18.6135 38.9004C18.8891 42.0231 20.282 45.7274 22.5245 47.725C26.558 51.3145 31.4103 52.2865 36.0714 50.6946C42.6535 48.4521 49.6182 43.2629 56.2309 41.1352C59.3995 40.1173 62.6676 39.2984 65.9969 39.2448C70.9105 39.1606 77.2783 40.9898 78.4799 46.4775C78.6636 47.327 78.7019 48.2301 78.3957 49.0414C77.8983 50.3502 76.5436 51.2227 75.1506 51.3758C72.5178 51.6742 70.811 49.9139 68.8441 48.5286C67.4052 47.5107 65.7367 46.8219 63.9993 46.5387C61.3053 46.1024 58.5194 46.6535 55.9937 47.6867C51.0418 49.7149 46.7711 52.7993 41.9646 55.1184C37.3113 57.3532 32.168 59.2972 27.0401 58.0956C25.2645 57.6823 23.5654 56.9705 22.027 55.9985C18.6518 53.8708 16.1491 50.5492 14.4423 46.9443C9.78129 37.0635 10.6921 25.4913 12.9805 15.1207C13.0417 14.8298 13.2866 12.9011 13.8224 13.0083C12.5902 12.771 11.2278 12.7481 9.96498 12.7634C5.05137 12.8093 2.72468 14.6079 1.92871 14.6079C0.964353 14.6079 0 12.5873 0 10.7046C0.00765359 6.47977 2.81652 3.97705 7.77605 3.97705C12.0314 3.97705 18.6212 6.21955 24.2389 6.21955V6.2119Z" fill="white"/>
</mask>
<g mask="url(#mask0_869_28633)">
<path d="M69.2722 35.7778C69.2722 35.7778 61.4503 39.8265 64.2209 48.2532C66.9915 56.6874 74.3389 58.7309 79.2755 58.6085C84.2121 58.486 93.6107 48.7353 93.6107 48.7353L82.0461 34.4001L69.2722 35.7701V35.7778Z" fill="#F1A41F"/>
<path d="M56.8892 38.38C56.8892 38.38 55.1977 45.6432 56.6595 50.4879C57.9607 54.8122 53.1006 51.7584 52.7715 52.6233C52.7715 52.6233 49.5723 44.9314 53.7588 39.4438C55.4732 37.1937 57.0575 37.6758 56.8815 38.38H56.8892Z" fill="#F1A41F"/>
<path d="M45.8146 42.4671C45.8146 42.4671 41.0847 54.7129 48.0954 55.6007C46.3198 58.5626 42.9292 57.6442 42.4164 56.4196C41.9036 55.1951 38.5743 49.6156 41.7123 45.3985C44.1614 42.1074 45.3171 41.013 45.8146 42.4671Z" fill="#F1A41F"/>
<path d="M34.7855 47.3116C34.7855 47.3116 31.3567 54.3989 36.6147 59.6492C40.9773 64.0118 31.969 61.2488 31.969 61.2488C31.969 61.2488 28.5402 53.9626 30.9052 48.5286C32.6196 44.5717 34.7932 47.3116 34.7932 47.3116H34.7855Z" fill="#F1A41F"/>
</g>
<path d="M51.2331 34.0479C51.478 34.2851 51.5622 34.3846 51.4856 34.729C51.1871 36.2904 48.2405 38.5711 45.1791 38.3415C42.2018 38.1119 40.4032 36.298 40.5333 33.4509H40.4032C38.6582 36.122 35.7269 37.5685 32.7496 37.3466C27.2314 36.9256 25.2721 30.9175 26.4737 25.1085C27.6294 19.2075 31.8695 13.9036 37.602 14.3399C40.5333 14.5618 42.5692 16.1308 43.3116 18.5187H43.4417L44.4443 15.7864C44.452 15.6563 44.5515 15.5721 44.6816 15.5415C46.1893 15.396 47.3374 15.396 48.7763 15.5032C50.307 15.618 51.7841 15.8706 52.8633 16.1691C52.9934 16.2226 53.0699 16.3145 53.0623 16.4522C53.0623 16.4522 50.8198 26.754 50.2381 29.7083C49.7483 32.0885 50.1922 33.183 51.2254 34.0555L51.2331 34.0479ZM42.1942 26.2182C42.8371 23.0573 42.1942 20.4092 39.967 20.2331C37.778 20.0647 36.1325 22.5369 35.4973 25.6978C34.862 28.8204 35.4973 31.4686 37.6786 31.637C39.8598 31.8054 41.5513 29.3409 42.1865 26.2182H42.1942Z" fill="#F7E6B1"/>
<path d="M53.0852 28.1547L56.4987 11.2938C56.4987 11.2096 56.5523 11.1254 56.6901 11.0872C57.9759 10.9188 59.6137 10.8729 60.9684 10.9724C62.4992 11.0872 63.938 11.3321 65.1779 11.7377C65.1779 11.7377 65.308 11.7913 65.2927 11.9673L62.5986 25.231C62.1012 27.6572 62.5451 28.7517 63.5783 29.6242C63.8232 29.8614 63.9074 29.9609 63.8309 30.3053C63.6855 31.086 61.2363 34.2469 57.5167 33.9561C54.3634 33.7112 52.3658 31.6677 53.0776 28.1547H53.0852ZM57.0574 3.9387C57.5473 1.55844 60.3715 -0.209543 63.387 0.0200649C66.4101 0.249673 68.5302 2.40033 68.0404 4.7806C67.5429 7.20679 64.6804 8.92885 61.6649 8.69159C58.6494 8.45432 56.56 6.36489 57.0574 3.93105V3.9387Z" fill="#F7E6B1"/>
<path d="M65.6221 31.6295L70.0229 3.7168C70.0688 3.63261 70.1147 3.54077 70.2525 3.5025C71.5306 3.28054 73.1608 3.16574 74.5232 3.21166C76.0616 3.26524 77.4545 3.44892 78.7174 3.80099C78.7174 3.80099 78.8934 3.85456 78.8398 4.02294L75.0054 28.3078C74.615 30.7569 75.1049 31.8284 76.1687 32.655C76.4672 32.8846 76.5055 32.9765 76.4519 33.3209C76.3371 34.1092 74.0257 37.362 70.2984 37.2319C67.1375 37.1247 65.1016 35.1578 65.6221 31.6218V31.6295Z" fill="#F7E6B1"/>
<path d="M87.4649 33.2137C83.4774 33.4969 78.1199 32.3412 77.7525 27.2592C77.6147 25.2923 79.1761 22.5829 82.7273 22.3303C84.7862 22.1849 85.9495 23.111 85.9878 23.5932C86.0337 24.2514 85.2454 25.4913 85.3449 26.8919C85.3908 27.5501 85.9571 28.6522 87.3195 28.6905C88.5517 28.7364 89.8911 27.6725 89.6385 26.0576C89.3171 23.9682 83.2784 20.2179 82.9187 15.136C82.712 12.2046 85.2071 9.60241 88.7124 9.35749C91.7739 9.13554 94.1235 10.5132 94.3302 11.026C94.4832 11.3245 94.2766 11.5541 93.9858 11.799C93.4883 12.2276 92.6847 12.7251 92.8148 13.8655C93.2969 17.5698 98.7004 19.2536 99.0218 23.8075C99.2591 27.1368 96.0829 32.6015 87.4573 33.2137H87.4649Z" fill="#F7E6B1"/>
<path d="M51.4168 56.6106C53.0164 51.8348 58.3663 49.6765 63.0809 50.5873C64.6499 50.8551 66.15 51.5057 67.4052 52.4471C66.0352 51.6817 64.558 51.1307 63.0197 50.9393C58.328 50.1969 53.3915 52.0644 51.4092 56.603L51.4168 56.6106Z" fill="#F6DEAE"/>
<path d="M57.4092 52.6462C59.1312 51.6283 61.2742 51.7048 63.1647 52.1487C65.0551 52.5697 66.6853 53.9933 68.6982 53.5417C68.2543 53.7483 67.7492 53.8096 67.2517 53.7943C65.7746 53.7254 64.4505 52.8758 63.0728 52.5467C61.213 52.0875 59.246 52.0416 57.4092 52.6539V52.6462Z" fill="#F6DEAE"/>
<path d="M30.2393 47.679C33.1782 47.8474 35.7805 46.3702 38.3291 45.1303C39.8292 44.3879 41.4671 43.4772 43.1126 43.1174C38.9644 44.8471 34.9845 48.3525 30.2393 47.679Z" fill="#F6DEAE"/>
<path d="M27.9354 45.6738C32.1066 47.5948 34.4256 44.4798 38.2065 43.8828C37.7779 44.0129 37.334 44.1507 36.9207 44.3344C34.0736 45.6814 30.9586 48.0234 27.9277 45.6738H27.9354Z" fill="#F6DEAE"/>
</svg>
