<svg width="139" height="136" viewBox="0 0 139 136" fill="none" xmlns="http://www.w3.org/2000/svg">
<g id="Tails To Tell Logo V 1">
<g id="Layer 8">
<g id="Group">
<g id="Group_2">
<g id="Group_3">
<path id="Vector" d="M21.9428 77.9281C23.0673 72.8141 27.9857 67.5046 32.6499 68.4531C37.3728 69.4113 39.7293 76.3343 38.8102 81.5167C37.8715 86.7871 33.1388 92.3509 28.5235 91.6469C23.7127 90.9135 20.6912 83.6092 21.9428 77.9281Z" fill="#F1A41F"/>
<path id="Vector_2" d="M42.3499 82.9932C43.4842 77.1556 49.2826 71.8656 53.8197 72.951C58.787 74.1537 61.5738 82.8465 58.875 88.9187C57.1345 92.8202 52.5485 96.9466 48.1483 95.8221C43.3668 94.5998 41.4014 87.8431 42.3401 82.9932H42.3499Z" fill="#F1A41F"/>
<path id="Vector_3" d="M56.4012 97.5822C58.9142 94.4141 64.0477 92.4291 67.4212 94.5998C71.176 97.0248 71.0977 103.566 68.2425 107.409C65.7393 110.773 60.5276 112.875 57.1443 110.763C53.3211 108.377 53.2819 101.513 56.411 97.5724L56.4012 97.5822Z" fill="#F1A41F"/>
<path id="Vector_4" d="M11.4314 82.7C15.3818 82.172 19.2735 85.9463 20.2806 89.9065C21.5127 94.7369 18.7161 100.936 14.091 101.621C10.1309 102.207 6.25873 98.5504 5.17336 94.7369C3.75552 89.7598 6.75742 83.3356 11.4314 82.7098V82.7Z" fill="#F1A41F"/>
<path id="Vector_5" d="M15.988 107.4C16.9951 105.786 24.2114 94.639 36.2679 96.1547C45.9092 97.3672 51.5805 105.806 53.1841 112.514C54.4357 117.755 54.2988 126.565 48.7839 130.359C48.3635 130.652 45.5669 132.51 42.0077 132.197C37.5097 131.806 37.1186 128.413 32.2784 127.103C27.5262 125.812 26.1279 128.608 21.0237 127.22C20.0655 126.956 15.5578 125.734 13.4946 121.989C10.4047 116.405 14.9124 109.13 15.9978 107.4H15.988Z" fill="#F1A41F"/>
</g>
<g id="Group_4">
<path id="Vector_6" d="M38.468 104.584C39.2405 104.29 39.6512 105.835 39.6512 106.979C39.6805 110.02 37.1675 111.546 33.3638 110.773L32.0829 120.893C32.0829 120.962 32.0829 120.981 31.9655 121.03C31.3593 121.226 29.4135 121.304 28.9441 121.304C28.377 121.304 26.5973 121.157 26.128 120.972C26.0595 120.952 26.0107 120.923 26.0204 120.884C26.2747 119.192 26.656 116.268 27.5263 109.776C23.2728 109.297 22.4221 110.763 21.9332 110.754C21.3465 110.754 20.75 109.482 20.75 108.338C20.75 105.816 22.3536 104.104 25.2577 104.124C27.7414 104.134 34.8501 105.943 38.468 104.584Z" fill="#155640"/>
<path id="Vector_7" d="M47.5519 119.525C46.1927 123.064 42.5553 124.472 38.8787 123.543C35.1825 122.605 33.4322 119.446 34.7425 116.005C36.1115 112.426 39.7 111.047 43.3669 111.976C47.0141 112.905 48.8817 116.093 47.5519 119.525ZM42.3793 118.097C43.054 116.337 43.2202 114.958 42.301 114.724C41.2059 114.45 40.5801 115.731 39.9347 117.354C39.3969 118.733 38.8396 120.405 39.9543 120.688C41.0494 120.962 41.7143 119.789 42.3793 118.097Z" fill="#155640"/>
</g>
</g>
<g id="Group_5">
<g id="Group_6">
<path id="Vector_8" d="M32.5033 7.93628C37.9986 7.93628 42.9366 5.63841 43.5526 5.63841C44.7847 5.63841 46.0167 8.21984 46.0167 10.6253C46.0167 16.013 42.4282 19.2105 36.0919 19.2105C35.0261 19.2105 33.9114 18.7216 32.8456 18.878C29.9806 19.2887 28.7681 24.4223 27.976 26.6517C26.7146 30.2011 25.8639 33.8973 25.4142 37.6325C24.9252 41.7003 24.9448 45.6115 25.3164 49.6988C25.6684 53.6883 27.448 58.4209 30.313 60.973C35.4661 65.559 41.6655 66.8008 47.6203 64.7669C56.0296 61.9019 64.9277 55.2724 73.376 52.554C77.4242 51.2535 81.5995 50.2073 85.853 50.1388C92.1305 50.0313 100.266 52.3682 101.801 59.3792C102.036 60.4646 102.085 61.6184 101.694 62.6549C101.058 64.3269 99.3273 65.4416 97.5476 65.6372C94.184 66.0186 92.0034 63.7696 89.4904 61.9997C87.6521 60.6992 85.5205 59.8192 83.3009 59.4574C79.8589 58.9 76.2997 59.6041 73.0729 60.9241C66.7464 63.5153 61.2902 67.4559 55.1495 70.4187C49.2044 73.2739 42.6335 75.7576 36.0821 74.2224C33.8136 73.6944 31.6428 72.785 29.6774 71.5432C25.3653 68.8249 22.1678 64.5812 19.9873 59.9756C14.0324 47.352 15.196 32.5675 18.1196 19.3181C18.1979 18.9465 18.5108 16.4824 19.1952 16.6193C17.621 16.3162 15.8804 16.2868 14.2671 16.3064C7.98947 16.3651 5.01691 18.6629 3.99998 18.6629C2.76794 18.6629 1.53589 16.0815 1.53589 13.6761C1.54567 8.27851 5.13425 5.08105 11.4705 5.08105C16.9072 5.08105 25.3262 7.94606 32.5033 7.94606V7.93628Z" fill="#F7E6B1"/>
<g id="Clip path group">
<mask id="mask0_11_619" style="mask-type:luminance" maskUnits="userSpaceOnUse" x="1" y="5" width="101" height="70">
<g id="clippath">
<path id="Vector_9" d="M32.5033 7.93628C37.9986 7.93628 42.9366 5.63841 43.5526 5.63841C44.7847 5.63841 46.0167 8.21984 46.0167 10.6253C46.0167 16.013 42.4282 19.2105 36.0919 19.2105C35.0261 19.2105 33.9114 18.7216 32.8456 18.878C29.9806 19.2887 28.7681 24.4223 27.976 26.6517C26.7146 30.2011 25.8639 33.8973 25.4142 37.6325C24.9252 41.7003 24.9448 45.6115 25.3164 49.6988C25.6684 53.6883 27.448 58.4209 30.313 60.973C35.4661 65.559 41.6655 66.8008 47.6203 64.7669C56.0296 61.9019 64.9277 55.2724 73.376 52.554C77.4242 51.2535 81.5995 50.2073 85.853 50.1388C92.1305 50.0313 100.266 52.3682 101.801 59.3792C102.036 60.4646 102.085 61.6184 101.694 62.6549C101.058 64.3269 99.3273 65.4416 97.5476 65.6372C94.184 66.0186 92.0034 63.7696 89.4904 61.9997C87.6521 60.6992 85.5205 59.8192 83.3009 59.4574C79.8589 58.9 76.2997 59.6041 73.0729 60.9241C66.7464 63.5153 61.2902 67.4559 55.1495 70.4187C49.2044 73.2739 42.6335 75.7576 36.0821 74.2224C33.8136 73.6944 31.6428 72.785 29.6774 71.5432C25.3653 68.8249 22.1678 64.5812 19.9873 59.9756C14.0324 47.352 15.196 32.5675 18.1196 19.3181C18.1979 18.9465 18.5108 16.4824 19.1952 16.6193C17.621 16.3162 15.8804 16.2868 14.2671 16.3064C7.98947 16.3651 5.01691 18.6629 3.99998 18.6629C2.76794 18.6629 1.53589 16.0815 1.53589 13.6761C1.54567 8.27851 5.13425 5.08105 11.4705 5.08105C16.9072 5.08105 25.3262 7.94606 32.5033 7.94606V7.93628Z" fill="white"/>
</g>
</mask>
<g mask="url(#mask0_11_619)">
<g id="Group_7">
<path id="Vector_10" d="M90.0381 45.7093C90.0381 45.7093 80.0448 50.8819 83.5845 61.6477C87.1242 72.4232 96.5112 75.034 102.818 74.8775C109.125 74.7211 121.133 62.2637 121.133 62.2637L106.358 43.9492L90.0381 45.6995V45.7093Z" fill="#F1A41F"/>
<path id="Vector_11" d="M74.217 49.0339C74.217 49.0339 72.056 58.3133 73.9237 64.5029C75.586 70.0276 69.3768 66.1261 68.9564 67.231C68.9564 67.231 64.8691 57.404 70.2178 50.393C72.4081 47.5183 74.4321 48.1343 74.2072 49.0339H74.217Z" fill="#F1A41F"/>
<path id="Vector_12" d="M60.0679 54.2553C60.0679 54.2553 54.025 69.9003 62.9818 71.0346C60.7133 74.8187 56.3816 73.6453 55.7264 72.0808C55.0713 70.5163 50.8178 63.3881 54.8269 58.0003C57.9559 53.7957 59.4324 52.3974 60.0679 54.2553Z" fill="#F1A41F"/>
<path id="Vector_13" d="M45.9777 60.4451C45.9777 60.4451 41.597 69.4997 48.3146 76.2075C53.8882 81.781 42.3793 78.2511 42.3793 78.2511C42.3793 78.2511 37.9987 68.9423 41.0201 61.9998C43.2104 56.9445 45.9874 60.4451 45.9874 60.4451H45.9777Z" fill="#F1A41F"/>
</g>
</g>
</g>
</g>
<path id="Vector_14" d="M66.9909 43.4995C67.3038 43.8026 67.4114 43.9297 67.3136 44.3697C66.9323 46.3645 63.1677 49.2784 59.2564 48.985C55.3451 48.6917 53.1548 46.3743 53.3211 42.7368H53.1548C50.9254 46.1494 47.1804 47.9974 43.3767 47.7139C36.3266 47.1761 33.8234 39.5002 35.3586 32.0786C36.8351 24.5396 42.2522 17.7634 49.576 18.3207C53.3211 18.6043 55.922 20.6088 56.8705 23.6596H57.0368L58.3177 20.1688C58.3275 20.0026 58.4546 19.895 58.6208 19.8559C60.5471 19.6701 62.0138 19.6701 63.8521 19.807C65.8078 19.9537 67.695 20.2763 69.0737 20.6577C69.2399 20.7261 69.3377 20.8435 69.3279 21.0195C69.3279 21.0195 66.4629 34.1809 65.7198 37.9553C65.094 40.9963 65.6611 42.3945 66.9811 43.5093L66.9909 43.4995ZM55.4429 33.4964C56.2643 29.458 55.4429 26.0748 52.5975 25.8499C49.8009 25.6348 47.6986 28.7931 46.887 32.8315C46.0754 36.821 46.887 40.2042 49.6738 40.4194C52.529 40.6345 54.6216 37.4859 55.4331 33.4964H55.4429Z" fill="#F7E6B1"/>
<path id="Vector_15" d="M69.3572 35.9701L73.7182 14.4289C73.7182 14.3213 73.7867 14.2137 73.9627 14.1649C75.6054 13.9497 77.698 13.8911 79.4287 14.0182C81.3843 14.1649 83.2226 14.4778 84.8067 14.996C84.8067 14.996 84.9729 15.0644 84.9534 15.2893L81.5114 32.2349C80.8759 35.3346 81.443 36.7328 82.763 37.8476C83.0759 38.1507 83.1835 38.2778 83.0857 38.7178C82.8999 39.7152 79.7709 43.7536 75.0187 43.382C70.9901 43.0691 68.438 40.4583 69.3474 35.9701H69.3572ZM74.4321 5.03205C75.0579 1.99104 78.666 -0.26771 82.5186 0.0256348C86.381 0.31898 89.0895 3.06664 88.4637 6.10765C87.8281 9.20733 84.1711 11.4074 80.3185 11.1043C76.4659 10.8012 73.7965 8.13173 74.4321 5.02227V5.03205Z" fill="#F7E6B1"/>
<path id="Vector_16" d="M85.3738 40.4094L90.9963 4.74847C91.0549 4.64091 91.1136 4.52357 91.2896 4.47468C92.9225 4.19111 95.0053 4.04444 96.7458 4.10311C98.7112 4.17156 100.491 4.40623 102.104 4.85603C102.104 4.85603 102.329 4.92448 102.261 5.1396L97.3618 36.1657C96.8631 39.2947 97.4889 40.6637 98.8481 41.7197C99.2295 42.013 99.2783 42.1304 99.2099 42.5704C99.0632 43.5775 96.1102 47.7333 91.3483 47.567C87.3099 47.4301 84.7089 44.9172 85.3738 40.3996V40.4094Z" fill="#F7E6B1"/>
<path id="Vector_17" d="M113.281 42.4335C108.186 42.7953 101.342 41.3188 100.872 34.8261C100.696 32.3131 102.691 28.8516 107.228 28.529C109.858 28.3432 111.345 29.5263 111.394 30.1423C111.452 30.9833 110.445 32.5673 110.572 34.3567C110.631 35.1977 111.354 36.6057 113.095 36.6546C114.669 36.7133 116.38 35.3541 116.058 33.2909C115.647 30.6215 107.932 25.8302 107.473 19.3375C107.208 15.5924 110.396 12.2679 114.875 11.955C118.786 11.6714 121.788 13.4315 122.052 14.0866C122.247 14.468 121.983 14.7613 121.612 15.0742C120.976 15.6218 119.949 16.2574 120.116 17.7143C120.732 22.4469 127.635 24.5981 128.046 30.4161C128.349 34.6696 124.291 41.6512 113.271 42.4335H113.281Z" fill="#F7E6B1"/>
<path id="Vector_18" d="M67.2256 72.3252C69.2692 66.2236 76.1042 63.4662 82.1275 64.6298C84.132 64.972 86.0485 65.8032 87.6522 67.0059C85.9019 66.0281 84.0147 65.324 82.0493 65.0796C76.0553 64.1311 69.7484 66.517 67.2158 72.3154L67.2256 72.3252Z" fill="#F6DEAE"/>
<path id="Vector_19" d="M74.8818 67.2603C77.0819 65.9598 79.8198 66.0576 82.235 66.6247C84.6502 67.1625 86.733 68.9813 89.3046 68.4044C88.7375 68.6684 88.0921 68.7466 87.4565 68.7271C85.5694 68.6391 83.8777 67.5537 82.1177 67.1332C79.7416 66.5465 77.2286 66.4879 74.8818 67.2701V67.2603Z" fill="#F6DEAE"/>
<path id="Vector_20" d="M40.1694 60.9142C43.9242 61.1293 47.2488 59.2421 50.5049 57.6581C52.4215 56.7096 54.514 55.546 56.6163 55.0864C51.3165 57.2963 46.2319 61.7747 40.1694 60.9142Z" fill="#F6DEAE"/>
<path id="Vector_21" d="M37.2262 58.3523C42.5553 60.8066 45.5181 56.8269 50.3485 56.0642C49.8009 56.2304 49.2338 56.4064 48.7058 56.6411C45.0683 58.3621 41.0886 61.3542 37.2164 58.3523H37.2262Z" fill="#F6DEAE"/>
</g>
<g id="Group_8">
<path id="Vector_22" d="M71.6746 87.5106C77.1211 86.7675 81.6973 83.8242 82.3133 83.7362C83.5355 83.57 85.1098 85.9559 85.4325 88.3515C86.1561 93.6904 83.0369 97.3377 76.7593 98.1981C75.2632 98.4035 73.5716 98.4621 71.7431 98.3741L72.0364 126.242C72.0169 126.525 71.7529 126.623 71.7529 126.623C70.1395 127.239 67.7732 127.728 65.886 127.992C63.9401 128.256 61.7987 128.325 60.0875 128.217C60.0875 128.217 59.8626 128.188 59.8822 127.963C59.9213 127.846 59.7844 113.149 59.6279 97.8852C57.9363 97.9439 56.3131 98.0515 54.7584 98.2666C48.5395 99.1662 45.9092 101.855 44.9118 101.982C43.6895 102.149 42.1153 99.7626 41.7926 97.367C41.069 92.0281 44.1882 88.3809 50.4658 87.5204C55.8536 86.787 64.5757 88.4786 71.6942 87.5204L71.6746 87.5106Z" fill="#F7E6B1"/>
<path id="Vector_23" d="M103.366 117.745C102.935 120.366 97.8214 126.751 89.246 126.438C79.8296 126.096 74.3832 119.955 75.7717 110.91C77.2091 102.149 84.2591 96.3994 94.0666 96.7514C103.151 97.0741 106.377 102.354 105.722 106.432C104.637 113.237 97.2738 115.046 92.287 114.87C89.4806 114.773 87.6521 114.147 86.7623 114C86.7036 117.198 89.95 119.055 93.3137 119.173C99.0339 119.378 101.977 116.904 102.994 116.943C103.444 116.963 103.424 117.462 103.356 117.745H103.366ZM87.173 109.248C87.173 109.248 87.789 109.267 88.4637 109.346C92.5021 109.492 94.8195 107.331 95.1129 105.434C95.3964 103.929 94.5946 102.726 92.5216 102.648C89.7153 102.55 87.701 105.669 87.173 109.248Z" fill="#F7E6B1"/>
<path id="Vector_24" d="M107.355 120.199L110.269 84.2154C110.318 84.0981 110.377 83.9905 110.533 83.9221C112.146 83.5212 114.21 83.2083 115.95 83.1398C117.916 83.0616 119.715 83.1594 121.348 83.4821C121.348 83.4821 121.573 83.531 121.524 83.7558L118.981 115.066C118.717 118.224 119.441 119.534 120.888 120.492C121.289 120.756 121.348 120.864 121.318 121.314C121.25 122.331 118.62 126.702 113.858 126.897C109.819 127.063 107.032 124.765 107.355 120.199Z" fill="#F7E6B1"/>
<path id="Vector_25" d="M122.756 112.191L125.67 76.2074C125.719 76.09 125.777 75.9825 125.934 75.914C127.547 75.5131 129.61 75.2002 131.351 75.1318C133.316 75.0535 135.115 75.1513 136.748 75.474C136.748 75.474 136.973 75.5229 136.924 75.7478L134.382 107.057C134.118 110.216 134.842 111.526 136.289 112.484C136.69 112.748 136.748 112.856 136.719 113.306C136.65 114.323 134.02 118.693 129.258 118.889C125.22 119.055 122.433 116.757 122.756 112.191Z" fill="#F7E6B1"/>
</g>
</g>
</g>
</g>
</svg>
