<svg width="1514" height="164" viewBox="0 0 1514 164" fill="none" xmlns="http://www.w3.org/2000/svg">
<path d="M749.31 162.728C1120.62 168.697 1494.85 125.953 1513 94.2078V0H1.96033V102.714C284.559 132.608 461.41 158.1 749.31 162.728Z" fill="#F7E6B1"/>
<path fill-rule="evenodd" clip-rule="evenodd" d="M3.22289 95.0512C2.38829 94.9321 1.55325 94.8128 0.717773 94.6934L1.28381 90.7336C2.11895 90.853 2.95364 90.9722 3.78789 91.0913L3.22289 95.0512ZM15.2108 96.7539C13.55 96.5191 11.8874 96.2836 10.2232 96.0473L10.7852 92.087C12.4488 92.3231 14.1107 92.5586 15.7708 92.7933L15.2108 96.7539ZM27.1685 98.4367C25.5061 98.2038 23.842 97.9703 22.1762 97.736L22.7332 93.775C24.3983 94.0092 26.0617 94.2426 27.7234 94.4754L27.1685 98.4367ZM39.1576 100.108C37.4965 99.8774 35.8337 99.6463 34.1693 99.4145L34.721 95.4527C36.3848 95.6845 38.0468 95.9155 39.7072 96.1458L39.1576 100.108ZM51.1238 101.759C49.459 101.531 47.7926 101.301 46.1246 101.071L46.671 97.1089C48.3383 97.3389 50.004 97.5681 51.668 97.7966L51.1238 101.759ZM63.1132 103.397C61.4518 103.172 59.7889 102.945 58.1244 102.718L58.6654 98.7547C60.3292 98.9818 61.9913 99.2082 63.6518 99.4339L63.1132 103.397ZM75.0885 105.016C73.421 104.792 71.7519 104.567 70.0813 104.342L70.6167 100.378C72.2866 100.603 73.9548 100.828 75.6215 101.052L75.0885 105.016ZM1513.41 105.67C1512.59 105.843 1511.77 106.016 1510.95 106.188L1510.13 102.273C1510.95 102.101 1511.77 101.929 1512.59 101.757L1513.41 105.67ZM87.0775 106.62C85.4161 106.399 83.7531 106.177 82.0886 105.955L82.6183 101.99C84.282 102.212 85.9442 102.434 87.6048 102.655L87.0775 106.62ZM99.0625 108.204C97.3939 107.985 95.7237 107.765 94.052 107.544L94.576 103.579C96.2468 103.799 97.9161 104.019 99.5839 104.239L99.0625 108.204ZM1504.07 107.623C1502.43 107.963 1500.79 108.3 1499.16 108.636L1498.35 104.717C1499.99 104.382 1501.62 104.045 1503.26 103.706L1504.07 107.623ZM111.051 109.772C109.389 109.556 107.726 109.339 106.062 109.122L106.58 105.155C108.243 105.373 109.906 105.589 111.566 105.805L111.051 109.772ZM1492.28 110.036C1490.64 110.368 1489.01 110.698 1487.37 111.026L1486.58 107.104C1488.22 106.776 1489.85 106.446 1491.49 106.115L1492.28 110.036ZM123.046 111.321C121.377 111.107 119.708 110.892 118.037 110.676L118.548 106.709C120.219 106.924 121.888 107.139 123.555 107.353L123.046 111.321ZM135.033 112.85C133.371 112.639 131.709 112.428 130.044 112.216L130.55 108.248C132.213 108.46 133.875 108.671 135.536 108.882L135.033 112.85ZM1480.47 112.397C1478.83 112.721 1477.19 113.043 1475.55 113.364L1474.78 109.438C1476.42 109.118 1478.06 108.796 1479.7 108.473L1480.47 112.397ZM147.038 114.362C145.37 114.153 143.701 113.944 142.03 113.734L142.53 109.765C144.199 109.975 145.868 110.185 147.535 110.393L147.038 114.362ZM1468.66 114.7C1467.02 115.017 1465.38 115.331 1463.74 115.644L1462.99 111.715C1464.63 111.402 1466.27 111.088 1467.91 110.772L1468.66 114.7ZM159.024 115.852C157.363 115.647 155.7 115.441 154.036 115.235L154.529 111.265C156.192 111.472 157.854 111.677 159.514 111.882L159.024 115.852ZM171.039 117.326C169.372 117.123 167.703 116.919 166.033 116.714L166.519 112.744C168.188 112.948 169.856 113.152 171.523 113.355L171.039 117.326ZM1456.83 116.95C1455.19 117.259 1453.54 117.566 1451.9 117.871L1451.17 113.938C1452.81 113.633 1454.45 113.327 1456.09 113.019L1456.83 116.95ZM183.025 118.775C181.363 118.576 179.7 118.376 178.036 118.175L178.516 114.203C180.179 114.404 181.841 114.604 183.502 114.804L183.025 118.775ZM1445 119.142C1443.35 119.443 1441.71 119.742 1440.06 120.039L1439.35 116.103C1440.99 115.806 1442.64 115.507 1444.28 115.207L1445 119.142ZM195.05 120.209C193.382 120.012 191.714 119.814 190.044 119.615L190.517 115.643C192.186 115.841 193.853 116.039 195.52 116.237L195.05 120.209ZM207.047 121.618C205.381 121.424 203.714 121.229 202.046 121.033L202.512 117.06C204.179 117.256 205.845 117.451 207.51 117.645L207.047 121.618ZM1433.15 121.279C1431.5 121.572 1429.85 121.863 1428.21 122.152L1427.51 118.213C1429.16 117.924 1430.8 117.633 1432.45 117.341L1433.15 121.279ZM219.069 123.008C217.402 122.817 215.734 122.625 214.064 122.432L214.523 118.459C216.192 118.651 217.859 118.843 219.525 119.034L219.069 123.008ZM1421.29 123.357C1419.64 123.642 1418 123.926 1416.35 124.207L1415.67 120.264C1417.32 119.983 1418.97 119.7 1420.61 119.416L1421.29 123.357ZM231.078 124.376C229.408 124.187 227.737 123.998 226.065 123.808L226.516 119.833C228.188 120.023 229.858 120.212 231.527 120.401L231.078 124.376ZM243.097 125.722C241.43 125.537 239.762 125.351 238.093 125.164L238.538 121.189C240.206 121.375 241.873 121.561 243.539 121.746L243.097 125.722ZM1409.42 125.38C1407.77 125.657 1406.12 125.932 1404.47 126.206L1403.82 122.26C1405.47 121.987 1407.11 121.712 1408.76 121.435L1409.42 125.38ZM255.117 127.046C253.446 126.863 251.773 126.68 250.1 126.496L250.537 122.52C252.21 122.704 253.881 122.887 255.551 123.069L255.117 127.046ZM1397.55 127.344C1395.9 127.613 1394.25 127.881 1392.59 128.146L1391.96 124.197C1393.61 123.932 1395.26 123.665 1396.9 123.396L1397.55 127.344ZM267.135 128.347C265.468 128.168 263.8 127.988 262.131 127.808L262.561 123.831C264.229 124.011 265.895 124.191 267.561 124.37L267.135 128.347ZM279.164 129.626C277.493 129.45 275.821 129.273 274.149 129.095L274.571 125.118C276.243 125.295 277.914 125.472 279.583 125.648L279.164 129.626ZM1385.66 129.252C1384.01 129.513 1382.35 129.772 1380.7 130.029L1380.09 126.077C1381.74 125.82 1383.39 125.561 1385.03 125.301L1385.66 129.252ZM291.181 130.881C289.514 130.708 287.846 130.535 286.178 130.361L286.592 126.383C288.26 126.556 289.927 126.729 291.593 126.902L291.181 130.881ZM1373.76 131.101C1372.11 131.354 1370.46 131.605 1368.8 131.854L1368.21 127.899C1369.86 127.65 1371.51 127.399 1373.16 127.147L1373.76 131.101ZM303.22 132.114C301.549 131.944 299.878 131.774 298.206 131.603L298.613 127.624C300.284 127.795 301.954 127.965 303.624 128.134L303.22 132.114ZM315.244 133.322C313.574 133.156 311.904 132.989 310.233 132.821L310.632 128.841C312.302 129.009 313.971 129.176 315.64 129.342L315.244 133.322ZM1361.86 132.892C1360.2 133.137 1358.55 133.38 1356.89 133.622L1356.32 129.664C1357.97 129.423 1359.62 129.18 1361.27 128.935L1361.86 132.892ZM327.284 134.508C325.613 134.345 323.942 134.181 322.27 134.017L322.661 130.036C324.332 130.2 326.003 130.364 327.672 130.526L327.284 134.508ZM1349.94 134.626C1348.29 134.863 1346.63 135.098 1344.98 135.331L1344.42 131.371C1346.07 131.138 1347.73 130.903 1349.38 130.667L1349.94 134.626ZM339.318 135.668C337.645 135.509 335.972 135.348 334.298 135.187L334.681 131.205C336.354 131.366 338.026 131.527 339.698 131.686L339.318 135.668ZM1338.02 136.302C1336.37 136.531 1334.71 136.758 1333.05 136.983L1332.51 133.02C1334.17 132.795 1335.82 132.568 1337.48 132.34L1338.02 136.302ZM351.357 136.805C349.686 136.649 348.015 136.492 346.343 136.335L346.718 132.352C348.389 132.51 350.059 132.666 351.729 132.822L351.357 136.805ZM363.399 137.917C361.726 137.764 360.052 137.611 358.378 137.457L358.745 133.473C360.418 133.628 362.091 133.781 363.763 133.934L363.399 137.917ZM1326.09 137.921C1324.44 138.141 1322.78 138.36 1321.12 138.578L1320.6 134.612C1322.26 134.395 1323.91 134.176 1325.56 133.956L1326.09 137.921ZM375.439 139.005C373.768 138.855 372.096 138.705 370.424 138.555L370.783 134.571C372.454 134.722 374.125 134.871 375.795 135.02L375.439 139.005ZM1314.16 139.481C1312.5 139.694 1310.84 139.905 1309.18 140.115L1308.68 136.146C1310.34 135.937 1311.99 135.726 1313.65 135.514L1314.16 139.481ZM387.488 140.068C385.815 139.922 384.141 139.775 382.467 139.628L382.818 135.643C384.491 135.791 386.163 135.937 387.836 136.083L387.488 140.068ZM399.532 141.105C397.86 140.963 396.187 140.82 394.514 140.676L394.857 136.691C396.528 136.834 398.2 136.977 399.871 137.12L399.532 141.105ZM1302.21 140.985C1300.55 141.19 1298.89 141.393 1297.24 141.595L1296.75 137.624C1298.41 137.423 1300.06 137.22 1301.72 137.016L1302.21 140.985ZM411.585 142.118C409.912 141.979 408.238 141.84 406.564 141.699L406.898 137.713C408.571 137.854 410.244 137.993 411.916 138.132L411.585 142.118ZM1290.26 142.432C1288.6 142.629 1286.94 142.824 1285.28 143.018L1284.81 139.045C1286.47 138.851 1288.13 138.656 1289.79 138.459L1290.26 142.432ZM423.636 143.106C421.962 142.97 420.287 142.834 418.613 142.697L418.939 138.71C420.612 138.847 422.285 138.983 423.958 139.119L423.636 143.106ZM435.69 144.068C434.016 143.936 432.342 143.803 430.668 143.67L430.986 139.683C432.659 139.816 434.332 139.948 436.004 140.08L435.69 144.068ZM1278.3 143.822C1276.64 144.011 1274.98 144.199 1273.32 144.384L1272.88 140.409C1274.53 140.224 1276.19 140.037 1277.85 139.848L1278.3 143.822ZM447.746 145.004C446.071 144.876 444.397 144.747 442.722 144.617L443.031 140.629C444.705 140.759 446.378 140.888 448.052 141.016L447.746 145.004ZM1266.34 145.156C1264.68 145.337 1263.02 145.517 1261.35 145.696L1260.92 141.719C1262.59 141.54 1264.25 141.361 1265.91 141.179L1266.34 145.156ZM459.804 145.916C458.129 145.791 456.455 145.665 454.78 145.539L455.081 141.55C456.754 141.677 458.428 141.802 460.101 141.927L459.804 145.916ZM471.864 146.801C470.189 146.68 468.514 146.558 466.839 146.435L467.131 142.446C468.805 142.569 470.478 142.691 472.152 142.812L471.864 146.801ZM1254.37 146.435C1252.71 146.608 1251.04 146.78 1249.38 146.951L1248.97 142.971C1250.63 142.801 1252.29 142.63 1253.95 142.457L1254.37 146.435ZM483.927 147.662C482.251 147.544 480.575 147.425 478.9 147.306L479.184 143.316C480.858 143.435 482.532 143.554 484.207 143.671L483.927 147.662ZM1242.4 147.657C1240.73 147.824 1239.07 147.988 1237.4 148.152L1237.01 144.171C1238.67 144.008 1240.34 143.843 1242 143.677L1242.4 147.657ZM495.989 148.496C494.313 148.382 492.637 148.267 490.962 148.151L491.237 144.161C492.911 144.276 494.586 144.391 496.26 144.505L495.989 148.496ZM1230.41 148.827C1228.75 148.985 1227.09 149.142 1225.42 149.297L1225.05 145.314C1226.71 145.159 1228.37 145.003 1230.03 144.845L1230.41 148.827ZM508.055 149.305C506.379 149.194 504.704 149.083 503.028 148.971L503.295 144.98C504.969 145.092 506.644 145.203 508.318 145.314L508.055 149.305ZM520.121 150.088C518.445 149.981 516.768 149.874 515.092 149.765L515.351 145.773C517.025 145.882 518.701 145.99 520.376 146.097L520.121 150.088ZM1218.43 149.941C1216.76 150.092 1215.09 150.242 1213.43 150.39L1213.07 146.406C1214.74 146.258 1216.4 146.108 1218.07 145.957L1218.43 149.941ZM532.189 150.846C530.514 150.743 528.839 150.639 527.164 150.534L527.414 146.542C529.087 146.646 530.761 146.751 532.436 146.854L532.189 150.846ZM1206.43 151.003C1204.77 151.146 1203.11 151.288 1201.44 151.428L1201.1 147.443C1202.77 147.302 1204.43 147.161 1206.09 147.017L1206.43 151.003ZM544.262 151.579C542.584 151.479 540.906 151.378 539.23 151.277L539.471 147.284C541.147 147.385 542.823 147.486 544.5 147.586L544.262 151.579ZM556.33 152.286C554.654 152.19 552.978 152.092 551.302 151.995L551.536 148.001C553.21 148.099 554.884 148.196 556.56 148.293L556.33 152.286ZM1194.44 152.01C1192.78 152.147 1191.11 152.282 1189.44 152.416L1189.12 148.429C1190.78 148.295 1192.45 148.16 1194.12 148.024L1194.44 152.01ZM568.41 152.968C566.731 152.875 565.052 152.781 563.374 152.687L563.599 148.693C565.276 148.788 566.953 148.881 568.631 148.974L568.41 152.968ZM1182.43 152.968C1180.77 153.097 1179.11 153.224 1177.44 153.35L1177.14 149.362C1178.8 149.236 1180.47 149.108 1182.13 148.98L1182.43 152.968ZM580.477 153.625C578.8 153.535 577.123 153.445 575.447 153.354L575.663 149.36C577.338 149.451 579.014 149.541 580.69 149.63L580.477 153.625ZM1170.44 153.872C1168.77 153.995 1167.1 154.116 1165.43 154.235L1165.14 150.245C1166.81 150.126 1168.48 150.005 1170.15 149.883L1170.44 153.872ZM592.558 154.257C590.88 154.171 589.203 154.084 587.526 153.996L587.734 150.002C589.41 150.089 591.086 150.176 592.763 150.262L592.558 154.257ZM604.63 154.863C602.952 154.781 601.274 154.697 599.597 154.613L599.797 150.618C601.473 150.702 603.15 150.785 604.827 150.868L604.63 154.863ZM1158.42 154.728C1156.76 154.843 1155.1 154.956 1153.43 155.069L1153.16 151.078C1154.82 150.966 1156.49 150.852 1158.15 150.737L1158.42 154.728ZM616.71 155.445C615.034 155.366 613.359 155.287 611.685 155.206L611.877 151.211C613.55 151.291 615.224 151.371 616.899 151.45L616.71 155.445ZM1146.43 155.532C1144.76 155.641 1143.08 155.748 1141.41 155.854L1141.16 151.862C1142.83 151.756 1144.5 151.649 1146.17 151.541L1146.43 155.532ZM628.79 156.003C627.111 155.927 625.432 155.851 623.753 155.774L623.937 151.778C625.614 151.855 627.292 151.931 628.971 152.007L628.79 156.003ZM1134.4 156.29C1132.73 156.391 1131.07 156.491 1129.4 156.59L1129.17 152.597C1130.83 152.499 1132.49 152.399 1134.15 152.297L1134.4 156.29ZM640.867 156.536C639.191 156.464 637.515 156.391 635.84 156.317L636.016 152.321C637.69 152.395 639.364 152.468 641.04 152.54L640.867 156.536ZM652.956 157.046C651.275 156.977 649.595 156.907 647.915 156.836L648.083 152.84C649.761 152.91 651.441 152.98 653.121 153.049L652.956 157.046ZM1122.4 156.998C1120.73 157.093 1119.05 157.187 1117.38 157.28L1117.16 153.286C1118.83 153.193 1120.5 153.099 1122.17 153.004L1122.4 156.998ZM665.03 157.531C663.352 157.465 661.675 157.399 659.999 157.332L660.159 153.335C661.834 153.402 663.51 153.468 665.186 153.534L665.03 157.531ZM1110.36 157.661C1108.7 157.749 1107.03 157.836 1105.37 157.922L1105.16 153.927C1106.82 153.841 1108.49 153.754 1110.15 153.666L1110.36 157.661ZM677.127 157.993C675.445 157.93 673.763 157.867 672.083 157.803L672.235 153.806C673.914 153.87 675.594 153.933 677.276 153.996L677.127 157.993ZM689.197 158.431C687.518 158.371 685.84 158.311 684.163 158.251L684.307 154.254C685.983 154.314 687.66 154.374 689.338 154.433L689.197 158.431ZM1098.36 158.275C1096.69 158.358 1095.02 158.439 1093.34 158.519L1093.15 154.523C1094.82 154.443 1096.49 154.362 1098.16 154.28L1098.36 158.275ZM698.78 158.762C697.938 158.733 697.097 158.705 696.256 158.676L696.392 154.678L698.915 154.764C699.757 154.792 700.599 154.821 701.44 154.849L701.306 158.847L698.78 158.762ZM1086.31 158.847C1084.65 158.923 1082.98 158.997 1081.32 159.071L1081.14 155.075C1081.97 155.038 1082.8 155.001 1083.62 154.964C1084.46 154.927 1085.29 154.889 1086.13 154.851L1086.31 158.847ZM713.382 159.242C711.711 159.189 710.037 159.135 708.361 159.08L708.492 155.082C710.167 155.137 711.84 155.191 713.51 155.244L713.382 159.242ZM1074.31 159.372C1072.64 159.442 1070.97 159.511 1069.3 159.579L1069.13 155.582C1070.81 155.514 1072.48 155.446 1074.15 155.375L1074.31 159.372ZM725.372 159.617C723.713 159.566 722.051 159.515 720.387 159.463L720.511 155.465C722.175 155.517 723.836 155.568 725.494 155.619L725.372 159.617ZM737.419 159.975C735.741 159.927 734.06 159.877 732.378 159.828L732.496 155.829C734.178 155.879 735.857 155.928 737.535 155.977L737.419 159.975ZM1062.25 159.856C1060.59 159.92 1058.93 159.983 1057.26 160.044L1057.11 156.047C1058.78 155.986 1060.44 155.923 1062.1 155.859L1062.25 159.856ZM749.457 160.314C747.791 160.268 746.122 160.222 744.451 160.175L744.563 156.177C746.233 156.223 747.901 156.27 749.566 156.315L749.457 160.314ZM1050.26 160.296C1048.59 160.354 1046.92 160.411 1045.24 160.467L1045.11 156.47C1046.78 156.414 1048.45 156.357 1050.12 156.298L1050.26 160.296ZM761.437 160.631C759.774 160.588 758.108 160.545 756.439 160.501L756.545 156.502C758.212 156.546 759.877 156.589 761.54 156.632L761.437 160.631ZM1038.2 160.696C1036.53 160.749 1034.87 160.8 1033.2 160.851L1033.08 156.852C1034.74 156.802 1036.41 156.751 1038.07 156.698L1038.2 160.696ZM773.519 160.93C771.847 160.89 770.173 160.849 768.496 160.808L768.594 156.809C770.27 156.85 771.944 156.891 773.615 156.931L773.519 160.93ZM1026.2 161.055C1024.53 161.102 1022.86 161.148 1021.19 161.193L1021.08 157.194C1022.75 157.149 1024.42 157.103 1026.09 157.056L1026.2 161.055ZM785.516 161.206C783.855 161.169 782.193 161.131 780.527 161.093L780.619 157.095C782.283 157.133 783.945 157.17 785.604 157.206L785.516 161.206ZM797.565 161.461C795.888 161.427 794.208 161.392 792.525 161.357L792.609 157.357C794.291 157.393 795.97 157.427 797.646 157.461L797.565 161.461ZM1014.15 161.375C1012.47 161.417 1010.8 161.457 1009.12 161.497L1009.03 157.498C1010.7 157.458 1012.38 157.418 1014.05 157.376L1014.15 161.375ZM809.602 161.693C807.936 161.662 806.268 161.631 804.597 161.599L804.673 157.6C806.343 157.632 808.01 157.663 809.675 157.693L809.602 161.693ZM1002.13 161.656C1000.47 161.692 998.796 161.727 997.125 161.762L997.042 157.763C998.713 157.728 1000.38 157.693 1002.05 157.657L1002.13 161.656ZM821.6 161.9C819.93 161.873 818.258 161.845 816.583 161.816L816.652 157.817C818.326 157.846 819.997 157.874 821.665 157.901L821.6 161.9ZM990.09 161.9C988.412 161.931 986.732 161.962 985.05 161.991L984.98 157.992C986.661 157.962 988.339 157.932 990.015 157.9L990.09 161.9ZM833.672 162.085C832.001 162.061 830.328 162.037 828.653 162.011L828.713 158.012C830.388 158.037 832.06 158.062 833.729 158.086L833.672 162.085ZM978.061 162.107C976.396 162.133 974.728 162.158 973.058 162.183L973 158.183C974.668 158.159 976.334 158.134 977.998 158.107L978.061 162.107ZM845.66 162.244C844.001 162.224 842.339 162.203 840.675 162.181L840.727 158.181C842.39 158.203 844.051 158.224 845.709 158.244L845.66 162.244ZM966.032 162.279C964.355 162.3 962.677 162.321 960.996 162.34L960.95 158.341C962.629 158.321 964.306 158.301 965.98 158.279L966.032 162.279ZM857.732 162.378C856.057 162.361 854.379 162.344 852.699 162.325L852.743 158.326C854.421 158.344 856.098 158.361 857.772 158.378L857.732 162.378ZM953.982 162.416C952.319 162.433 950.654 162.448 948.987 162.463L948.951 158.463C950.617 158.448 952.281 158.433 953.942 158.416L953.982 162.416ZM869.752 162.485C868.088 162.472 866.422 162.458 864.753 162.444L864.788 158.444C866.455 158.458 868.12 158.472 869.783 158.485L869.752 162.485ZM941.97 162.519C940.296 162.531 938.62 162.543 936.941 162.553L936.917 158.553C938.594 158.543 940.269 158.532 941.941 158.519L941.97 162.519ZM881.784 162.564C880.105 162.555 878.424 162.545 876.74 162.534L876.765 158.534C878.448 158.545 880.128 158.555 881.806 158.564L881.784 162.564ZM929.895 162.59C928.235 162.598 926.573 162.605 924.908 162.61L924.895 158.61C926.558 158.605 928.218 158.598 929.877 158.59L929.895 162.59ZM893.832 162.615C892.164 162.61 890.494 162.604 888.822 162.597L888.838 158.597C890.509 158.604 892.178 158.61 893.844 158.615L893.832 162.615ZM917.904 162.629C916.233 162.632 914.56 162.635 912.884 162.636L912.88 158.636C914.555 158.635 916.227 158.632 917.896 158.629L917.904 162.629ZM905.832 162.637C904.164 162.636 902.494 162.634 900.822 162.632L900.828 158.632C902.499 158.634 904.168 158.636 905.834 158.637L905.832 162.637Z" fill="#EF4E23"/>
</svg>
