<svg width="396" height="120" viewBox="0 0 396 120" fill="none" xmlns="http://www.w3.org/2000/svg">
<path d="M396 120V78.0016C339.069 29.9859 299.271 -0.00400108 196.992 1.39642e-06C87.6641 0.00427885 38.2901 38.9715 8.22544e-06 56.0993V120L396 120Z" fill="#155640"/>
<path fill-rule="evenodd" clip-rule="evenodd" d="M224.209 13.8538C222.564 13.8544 220.931 13.8689 219.312 13.8964L219.244 9.897C220.885 9.86912 222.54 9.85444 224.207 9.85376L224.209 13.8538ZM235.939 14.0863C234.301 14.0202 232.671 13.9688 231.051 13.9313L231.144 9.93235C232.786 9.97036 234.439 10.0225 236.1 10.0895L235.939 14.0863ZM212.47 14.0911C210.825 14.1568 209.196 14.2353 207.584 14.3259L207.359 10.3322C208.993 10.2404 210.644 10.1608 212.311 10.0943L212.47 14.0911ZM247.637 14.8052C246.009 14.67 244.386 14.5503 242.771 14.4454L243.03 10.4538C244.669 10.5603 246.315 10.6817 247.968 10.8189L247.637 14.8052ZM200.753 14.7873C199.107 14.9172 197.483 15.059 195.882 15.2117L195.502 11.2297C197.125 11.075 198.77 10.9313 200.438 10.7997L200.753 14.7873ZM259.298 16.0339C257.676 15.8259 256.058 15.6342 254.445 15.4583L254.879 11.4818C256.517 11.6605 258.16 11.8551 259.807 12.0664L259.298 16.0339ZM189.074 15.9398C188.267 16.0356 187.467 16.134 186.674 16.2348C185.855 16.3389 185.041 16.4446 184.23 16.5519L183.705 12.5865C184.522 12.4783 185.344 12.3717 186.169 12.2667C186.973 12.1645 187.784 12.0648 188.602 11.9677L189.074 15.9398ZM270.884 17.7981C269.276 17.5137 267.67 17.2465 266.067 16.996L266.684 13.044C268.314 13.2985 269.946 13.5701 271.581 13.8593L270.884 17.7981ZM177.472 17.4991C175.853 17.7388 174.251 17.9852 172.665 18.2384L172.034 14.2884C173.635 14.0328 175.252 13.7841 176.887 13.5422L177.472 17.4991ZM282.357 20.1248C280.769 19.7603 279.18 19.414 277.593 19.0852L278.404 15.1683C280.019 15.5028 281.635 15.8552 283.251 16.2262L282.357 20.1248ZM165.932 19.3709C164.313 19.6574 162.71 19.9512 161.125 20.2523L160.379 16.3225C161.981 16.0183 163.599 15.7214 165.235 15.432L165.932 19.3709ZM154.436 21.5855C152.832 21.9205 151.246 22.2632 149.675 22.6136L148.804 18.7095C150.392 18.3552 151.997 18.0087 153.618 17.67L154.436 21.5855ZM293.693 23.0471C292.127 22.5974 290.558 22.1668 288.988 21.7548L290.003 17.8858C291.602 18.3054 293.201 18.7441 294.797 19.2023L293.693 23.0471ZM143.034 24.163C141.446 24.5501 139.874 24.9453 138.317 25.3486L137.314 21.4763C138.89 21.0682 140.48 20.6684 142.087 20.2768L143.034 24.163ZM304.836 26.5909C303.302 26.0534 301.764 25.5359 300.222 25.0378L301.452 21.2316C303.024 21.7396 304.593 22.2675 306.159 22.8158L304.836 26.5909ZM131.733 27.126C130.161 27.5676 128.604 28.0177 127.061 28.4762L125.922 24.6419C127.484 24.1778 129.06 23.7221 130.65 23.2751L131.733 27.126ZM315.746 30.7872C314.247 30.1566 312.741 29.547 311.232 28.9576L312.686 25.2314C314.228 25.8331 315.765 26.4558 317.297 27.0999L315.746 30.7872ZM120.544 30.4873C118.991 30.9844 117.451 31.4902 115.922 32.0047L114.646 28.2137C116.194 27.6929 117.753 27.1809 119.324 26.6777L120.544 30.4873ZM326.363 35.6575C324.909 34.9321 323.447 34.2283 321.98 33.5456L323.667 29.9188C325.167 30.6166 326.661 31.3363 328.148 32.0782L326.363 35.6575ZM109.48 34.2474C107.948 34.7986 106.426 35.3588 104.912 35.9278L103.505 32.1837C105.036 31.6081 106.576 31.0413 108.127 30.4835L109.48 34.2474ZM98.5506 38.3911C97.0393 38.9931 95.5353 39.6041 94.0373 40.2238L92.5081 36.5276C94.022 35.9013 95.5423 35.2838 97.0704 34.6751L98.5506 38.3911ZM336.625 41.2175C335.224 40.3949 333.814 39.5945 332.396 38.8161L334.321 35.3097C335.772 36.1064 337.215 36.9256 338.65 37.7679L336.625 41.2175ZM87.7548 42.8881C86.2641 43.5355 84.7776 44.1915 83.294 44.8562L81.6586 41.2058C83.1557 40.5351 84.6563 39.8728 86.1615 39.2192L87.7548 42.8881ZM346.474 47.4758C345.134 46.5557 343.785 45.6586 342.426 44.7839L344.591 41.4203C345.983 42.3164 347.366 43.2356 348.739 44.1784L346.474 47.4758ZM77.0839 47.6946C75.6119 48.3802 74.141 49.0742 72.6697 49.7765L70.9467 46.1667C72.4287 45.4592 73.911 44.7599 75.3949 44.0687L77.0839 47.6946ZM355.839 54.4212C354.57 53.4056 353.289 52.4133 351.999 51.4439L354.401 48.2455C355.724 49.2393 357.036 50.2566 358.338 51.298L355.839 54.4212ZM66.5204 52.7569C65.0641 53.4729 63.6057 54.1968 62.1439 54.9284L60.3535 51.3515C61.8232 50.6158 63.2902 49.8877 64.7555 49.1673L66.5204 52.7569ZM56.041 58.0163C54.5964 58.7545 53.1469 59.5001 51.6912 60.2528L49.8538 56.6998C51.3147 55.9443 52.7699 55.1958 54.2208 54.4544L56.041 58.0163ZM364.667 62.0397C363.477 60.9323 362.274 59.8484 361.06 58.7875L363.692 55.7755C364.937 56.8634 366.17 57.9751 367.392 59.1109L364.667 62.0397ZM45.6194 63.414C44.1821 64.1668 42.7375 64.9263 41.2844 65.6924L39.4189 62.1541C40.8747 61.3866 42.3225 60.6254 43.7635 59.8706L45.6194 63.414ZM372.902 70.2937C371.795 69.098 370.675 67.9257 369.542 66.7767L372.392 63.9692C373.553 65.1477 374.701 66.3499 375.837 67.5761L372.902 70.2937ZM35.2287 68.8954C33.7942 69.6561 32.3504 70.4228 30.8962 71.1955L29.0193 67.6632C30.474 66.8902 31.9189 66.1229 33.3547 65.3615L35.2287 68.8954ZM24.8428 74.4129C23.4107 75.1738 21.9676 75.9402 20.5128 76.7118L18.6385 73.1782C20.0921 72.4071 21.5342 71.6413 22.9658 70.8806L24.8428 74.4129ZM380.497 79.1316C379.485 77.8624 378.46 76.6163 377.422 75.3929L380.472 72.8048C381.536 74.0592 382.587 75.3367 383.625 76.6376L380.497 79.1316ZM14.4455 79.9232C13.0153 80.6782 11.5731 81.438 10.1181 82.2025L8.2576 78.6615C9.71003 77.8984 11.1499 77.1398 12.578 76.3858L14.4455 79.9232ZM4.03557 85.3854C3.30811 85.7644 2.57733 86.1445 1.84315 86.5257L0 82.9756C0.732432 82.5954 1.46152 82.2161 2.18736 81.838L4.03557 85.3854ZM387.446 88.5235C386.52 87.1726 385.58 85.8447 384.626 84.5394L387.856 82.1796C388.833 83.517 389.796 84.8774 390.745 86.261L387.446 88.5235ZM392.462 96.2894C392.036 95.5876 391.606 94.8915 391.172 94.2009L394.56 92.0743C395.004 92.7812 395.444 93.4937 395.881 94.2119L392.462 96.2894Z" fill="#F7E6B1"/>
</svg>
