<svg width="1512" height="110" viewBox="0 0 1512 110" fill="none" xmlns="http://www.w3.org/2000/svg">
<path d="M0 110L0 68.0016C220 47 364.481 -0.0039978 755 0C1117 0.00370789 1361.5 52.5 1512 68V110H0Z" fill="#F7E6B1"/>
<path fill-rule="evenodd" clip-rule="evenodd" d="M773 11.5C773.841 11.5 774.682 11.5002 775.521 11.5007L775.523 7.50069C774.683 7.50023 773.842 7.5 773 7.5C772.177 7.5 771.353 7.50018 770.528 7.50053L770.53 11.5005C771.354 11.5002 772.178 11.5 773 11.5ZM758.586 11.5186C760.255 11.5142 761.92 11.5106 763.58 11.5079L763.574 7.50786C761.912 7.51066 760.246 7.51422 758.575 7.51859L758.586 11.5186ZM782.55 11.5099C784.218 11.5133 785.882 11.5177 787.543 11.523L787.555 7.52301C785.894 7.51773 784.228 7.51336 782.559 7.50989L782.55 11.5099ZM746.655 11.5635C748.314 11.5553 749.969 11.548 751.62 11.5414L751.604 7.54146C749.952 7.54799 748.296 7.55534 746.635 7.56354L746.655 11.5635ZM794.493 11.5504C796.142 11.5582 797.788 11.5669 799.43 11.5765L799.453 7.57655C797.81 7.56696 796.163 7.55827 794.512 7.55047L794.493 11.5504ZM734.688 11.6372C736.35 11.6249 738.008 11.6135 739.661 11.603L739.636 7.60307C737.981 7.6136 736.322 7.625 734.658 7.63731L734.688 11.6372ZM806.431 11.6229C808.106 11.6353 809.776 11.6487 811.443 11.663L811.477 7.66316C809.809 7.64885 808.137 7.63546 806.461 7.62301L806.431 11.6229ZM722.745 11.7409C724.414 11.7242 726.078 11.7085 727.739 11.6938L727.703 7.69393C726.041 7.7087 724.375 7.7244 722.705 7.74106L722.745 11.7409ZM818.42 11.7285C820.076 11.7454 821.728 11.7632 823.376 11.782L823.422 7.78224C821.772 7.76349 820.118 7.74565 818.461 7.72874L818.42 11.7285ZM710.815 11.8758C712.473 11.8548 714.126 11.8348 715.776 11.8158L715.73 7.81604C714.079 7.83508 712.423 7.85508 710.764 7.87608L710.815 11.8758ZM830.302 11.8664C831.982 11.8883 833.658 11.9111 835.33 11.9348L835.387 7.93525C833.713 7.91145 832.036 7.88861 830.354 7.86673L830.302 11.8664ZM698.841 12.0439C700.507 12.0182 702.169 11.9935 703.827 11.9698L703.77 7.97023C702.111 7.99391 700.447 8.01862 698.779 8.04437L698.841 12.0439ZM842.33 12.0403C843.991 12.0667 845.648 12.0941 847.301 12.1224L847.37 8.12299C845.715 8.09464 844.056 8.06723 842.393 8.04078L842.33 12.0403ZM686.915 12.245C688.581 12.2145 690.244 12.1851 691.901 12.1568L691.833 8.15736C690.174 8.18573 688.51 8.21516 686.842 8.24569L686.915 12.245ZM854.223 12.2469C855.89 12.2783 857.552 12.3106 859.211 12.3439L859.291 8.34472C857.631 8.31138 855.967 8.27899 854.298 8.24757L854.223 12.2469ZM674.977 12.481C676.631 12.4459 678.281 12.4118 679.927 12.3789L679.847 8.37968C678.199 8.41266 676.547 8.44672 674.892 8.48189L674.977 12.481ZM866.228 12.491C867.893 12.5274 869.554 12.5647 871.211 12.6031L871.304 8.60412C869.645 8.56577 867.982 8.52838 866.315 8.49197L866.228 12.491ZM662.996 12.7535C664.67 12.7129 666.34 12.6734 668.005 12.6351L667.913 8.6362C666.246 8.67453 664.575 8.71401 662.899 8.75465L662.996 12.7535ZM878.151 12.7696C879.801 12.8107 881.447 12.8527 883.089 12.8957L883.194 8.89708C881.55 8.85405 879.902 8.81197 878.25 8.77085L878.151 12.7696ZM651.094 13.0603C652.755 13.015 654.412 12.9708 656.065 12.9277L655.961 8.9291C654.307 8.97218 652.648 9.01642 650.985 9.06184L651.094 13.0603ZM890.118 13.0861C891.786 13.1328 893.45 13.1805 895.111 13.2292L895.228 9.23094C893.566 9.1822 891.9 9.13444 890.23 9.08768L890.118 13.0861ZM639.134 13.4057C640.792 13.3552 642.445 13.306 644.094 13.2579L643.977 9.25964C642.326 9.30774 640.672 9.35703 639.013 9.40753L639.134 13.4057ZM902.063 13.4395C903.713 13.4909 905.359 13.5433 907.001 13.5966L907.131 9.59876C905.487 9.54533 903.839 9.49288 902.187 9.4414L902.063 13.4395ZM627.199 13.7878C628.867 13.7318 630.53 13.677 632.189 13.6235L632.06 9.62556C630.399 9.67917 628.734 9.73401 627.065 9.79009L627.199 13.7878ZM914.004 13.8308C915.674 13.8882 917.34 13.9466 919.003 14.006L919.145 10.0085C917.481 9.94906 915.813 9.89059 914.142 9.83312L914.004 13.8308ZM615.272 14.2077C616.926 14.1468 618.576 14.0872 620.221 14.0288L620.08 10.0314C618.432 10.0898 616.781 10.1495 615.125 10.2104L615.272 14.2077ZM925.963 14.2613C927.615 14.3235 929.263 14.3867 930.908 14.4509L931.064 10.4539C929.417 10.3897 927.767 10.3264 926.113 10.2642L925.963 14.2613ZM603.299 14.6678C604.971 14.6008 606.64 14.5351 608.304 14.4707L608.149 10.4737C606.483 10.5382 604.813 10.604 603.138 10.671L603.299 14.6678ZM937.887 14.7298C939.558 14.7982 941.225 14.8677 942.888 14.9381L943.057 10.9417C941.392 10.8712 939.723 10.8017 938.051 10.7332L937.887 14.7298ZM591.403 15.1636C593.062 15.0918 594.716 15.0213 596.367 14.952L596.199 10.9555C594.547 11.0248 592.89 11.0954 591.23 11.1673L591.403 15.1636ZM949.852 15.2398C951.506 15.313 953.155 15.3873 954.801 15.4625L954.984 11.4667C953.336 11.3913 951.685 11.317 950.029 11.2437L949.852 15.2398ZM579.435 15.7016C581.099 15.6241 582.759 15.5478 584.416 15.4729L584.235 11.477C582.577 11.552 580.915 11.6283 579.248 11.706L579.435 15.7016ZM961.767 15.7877C963.437 15.8674 965.104 15.948 966.767 16.0297L966.963 12.0345C965.298 11.9528 963.63 11.872 961.957 11.7923L961.767 15.7877ZM567.533 16.2759C569.195 16.1929 570.853 16.1113 572.508 16.0311L572.314 12.0358C570.658 12.1161 568.998 12.1978 567.334 12.2808L567.533 16.2759ZM973.732 16.3788C975.386 16.4633 977.036 16.5488 978.682 16.6354L978.892 12.6409C977.244 12.5542 975.592 12.4686 973.936 12.384L973.732 16.3788ZM555.59 16.8917C557.24 16.8038 558.887 16.7173 560.53 16.6321L560.323 12.6375C558.678 12.7228 557.029 12.8094 555.377 12.8973L555.59 16.8917ZM985.642 17.0081C987.311 17.0992 988.977 17.1913 990.639 17.2844L990.863 13.2907C989.199 13.1974 987.531 13.1052 985.86 13.014L985.642 17.0081ZM543.666 17.5461C545.331 17.452 546.992 17.3592 548.65 17.2678L548.43 13.2738C546.77 13.3654 545.107 13.4582 543.44 13.5525L543.666 17.5461ZM997.602 17.6815C999.255 17.7775 1000.9 17.8745 1002.55 17.9725L1002.79 13.9795C1001.14 13.8814 999.489 13.7843 997.834 13.6883L997.602 17.6815ZM531.746 18.2401C533.396 18.1413 535.042 18.0438 536.684 17.9478L536.451 13.9546C534.806 14.0508 533.159 14.1483 531.507 14.2472L531.746 18.2401ZM1009.51 18.3938C1011.18 18.4964 1012.84 18.6001 1014.5 18.7047L1014.75 14.7126C1013.09 14.6078 1011.43 14.5041 1009.76 14.4013L1009.51 18.3938ZM519.806 18.9751C521.473 18.8696 523.137 18.7656 524.796 18.663L524.55 14.6706C522.888 14.7734 521.223 14.8775 519.553 14.983L519.806 18.9751ZM1021.46 19.1503C1023.11 19.2579 1024.76 19.3664 1026.41 19.4759L1026.67 15.4847C1025.03 15.3751 1023.37 15.2664 1021.72 15.1588L1021.46 19.1503ZM507.907 19.7472C509.559 19.6373 511.206 19.5288 512.85 19.4216L512.59 15.4301C510.944 15.5374 509.295 15.646 507.642 15.756L507.907 19.7472ZM1033.37 19.9465C1035.04 20.0607 1036.7 20.1759 1038.36 20.2922L1038.64 16.3019C1036.98 16.1856 1035.31 16.0702 1033.65 15.9559L1033.37 19.9465ZM495.957 20.5627C497.625 20.446 499.29 20.3308 500.951 20.217L500.678 16.2263C499.015 16.3403 497.348 16.4556 495.678 16.5724L495.957 20.5627ZM1045.31 20.7863C1046.96 20.9054 1048.61 21.0255 1050.25 21.1465L1050.54 17.1573C1048.9 17.0361 1047.25 16.9159 1045.59 16.7967L1045.31 20.7863ZM484.077 21.4129C485.729 21.2919 487.377 21.1723 489.022 21.0542L488.735 17.0644C487.089 17.1828 485.438 17.3025 483.784 17.4236L484.077 21.4129ZM1057.22 21.6667C1058.88 21.7924 1060.54 21.9192 1062.2 22.0469L1062.51 18.0587C1060.85 17.9308 1059.19 17.804 1057.52 17.6781L1057.22 21.6667ZM472.121 22.3083C473.79 22.1805 475.455 22.0542 477.117 21.9293L476.817 17.9405C475.154 18.0656 473.486 18.1921 471.815 18.32L472.121 22.3083ZM1069.14 22.5893C1070.79 22.7198 1072.44 22.8514 1074.08 22.9839L1074.4 18.9968C1072.76 18.8641 1071.11 18.7325 1069.46 18.6018L1069.14 22.5893ZM460.255 23.2364C461.908 23.1044 463.556 22.9739 465.201 22.8448L464.888 18.857C463.241 18.9863 461.591 19.117 459.937 19.2491L460.255 23.2364ZM1081.06 23.5534C1082.72 23.6905 1084.37 23.8286 1086.03 23.9677L1086.36 19.9818C1084.71 19.8425 1083.05 19.7043 1081.39 19.567L1081.06 23.5534ZM448.301 24.211C449.969 24.0722 451.635 23.9348 453.297 23.7989L452.97 19.8122C451.307 19.9483 449.64 20.0858 447.969 20.2248L448.301 24.211ZM1092.96 24.5576C1094.61 24.6999 1096.26 24.8431 1097.91 24.9873L1098.26 21.0026C1096.61 20.8582 1094.96 20.7148 1093.3 20.5724L1092.96 24.5576ZM436.446 25.2166C438.098 25.0738 439.746 24.9324 441.39 24.7925L441.051 20.8069C439.405 20.947 437.755 21.0885 436.102 21.2314L436.446 25.2166ZM1104.88 25.6041C1106.53 25.7523 1108.19 25.9015 1109.84 26.0517L1110.2 22.0681C1108.55 21.9178 1106.89 21.7684 1105.23 21.62L1104.88 25.6041ZM424.498 26.2693C426.166 26.1196 427.83 25.9714 429.491 25.8246L429.139 21.8401C427.476 21.9871 425.81 22.1355 424.14 22.2853L424.498 26.2693ZM1116.76 26.688C1118.42 26.8419 1120.08 26.9967 1121.73 27.1524L1122.1 23.1701C1120.45 23.0142 1118.79 22.8592 1117.13 22.7052L1116.76 26.688ZM412.65 27.3519C414.3 27.1985 415.946 27.0465 417.59 26.8959L417.225 22.9126C415.579 23.0633 413.931 23.2155 412.279 23.3691L412.65 27.3519ZM1128.68 27.8146C1130.34 27.9736 1131.99 28.1336 1133.64 28.2944L1134.03 24.3133C1132.37 24.1523 1130.72 23.9922 1129.07 23.833L1128.68 27.8146ZM400.713 28.4815C402.379 28.3211 404.042 28.1622 405.701 28.0048L405.323 24.0227C403.662 24.1803 401.997 24.3393 400.33 24.4999L400.713 28.4815ZM1140.56 28.9759C1142.22 29.1408 1143.87 29.3066 1145.53 29.4733L1145.93 25.4934C1144.27 25.3265 1142.61 25.1606 1140.95 24.9955L1140.56 28.9759ZM388.866 29.6408C390.514 29.4769 392.159 29.3144 393.8 29.1534L393.409 25.1725C391.766 25.3337 390.12 25.4964 388.47 25.6604L388.866 29.6408ZM1152.47 30.179C1154.12 30.3483 1155.77 30.5185 1157.42 30.6897L1157.83 26.711C1156.18 26.5397 1154.53 26.3694 1152.88 26.1999L1152.47 30.179ZM376.946 30.8456C378.61 30.6748 380.27 30.5055 381.927 30.3376L381.523 26.3579C379.865 26.526 378.203 26.6955 376.538 26.8665L376.946 30.8456ZM1164.35 31.4156C1166.01 31.5904 1167.66 31.7661 1169.31 31.9427L1169.74 27.9653C1168.08 27.7886 1166.43 27.6127 1164.77 27.4377L1164.35 31.4156ZM365.096 32.0813C366.741 31.9072 368.383 31.7344 370.021 31.5631L369.605 27.5848C367.965 27.7563 366.321 27.9292 364.675 28.1035L365.096 32.0813ZM1176.24 32.6896C1177.89 32.8687 1179.54 33.0486 1181.19 33.2295L1181.62 29.2533C1179.98 29.0724 1178.33 28.8922 1176.68 28.713L1176.24 32.6896ZM353.198 33.3597C354.858 33.1787 356.515 32.9991 358.169 32.821L357.74 28.844C356.085 29.0223 354.426 29.2021 352.764 29.3833L353.198 33.3597ZM1188.12 33.9968C1189.78 34.1809 1191.43 34.3659 1193.08 34.5517L1193.53 30.5768C1191.87 30.3908 1190.22 30.2057 1188.57 30.0214L1188.12 33.9968ZM341.337 34.6715C342.979 34.4874 344.617 34.3046 346.252 34.1233L345.812 30.1477C344.175 30.3292 342.535 30.5121 340.891 30.6964L341.337 34.6715ZM1200 35.3372C1201.65 35.5255 1203.3 35.7146 1204.95 35.9046L1205.41 31.9309C1203.76 31.7408 1202.11 31.5515 1200.46 31.363L1200 35.3372ZM329.465 36.0217C331.122 35.8307 332.775 35.6412 334.425 35.4531L333.972 31.4788C332.32 31.6671 330.665 31.8568 329.007 32.048L329.465 36.0217ZM1211.88 36.7093C1213.53 36.902 1215.18 37.0956 1216.83 37.2899L1217.3 33.3174C1215.65 33.1229 1214 32.9292 1212.34 32.7363L1211.88 36.7093ZM317.589 37.4093C319.227 37.2155 320.861 37.023 322.492 36.832L322.027 32.8591C320.394 33.0504 318.758 33.243 317.119 33.437L317.589 37.4093ZM1223.75 38.111C1225.4 38.3077 1227.05 38.5053 1228.7 38.7036L1229.17 34.7323C1227.53 34.5338 1225.88 34.3361 1224.22 34.1391L1223.75 38.111ZM305.748 38.8294C307.4 38.6287 309.049 38.4295 310.695 38.2317L310.217 34.2603C308.57 34.4583 306.919 34.6577 305.266 34.8586L305.748 38.8294ZM1235.62 39.5415C1237.27 39.7421 1238.92 39.9434 1240.57 40.1455L1241.05 36.1752C1239.4 35.973 1237.75 35.7715 1236.1 35.5708L1235.62 39.5415ZM293.85 40.2928C295.5 40.0873 297.148 39.8832 298.792 39.6805L298.303 35.7105C296.657 35.9134 295.008 36.1177 293.355 36.3235L293.85 40.2928ZM1247.49 40.9986C1249.14 41.2027 1250.78 41.4075 1252.43 41.6131L1252.93 37.6438C1251.28 37.4382 1249.63 37.2332 1247.98 37.029L1247.49 40.9986ZM282.044 41.7807C283.69 41.5707 285.334 41.3621 286.975 41.1549L286.474 37.1864C284.832 37.3938 283.186 37.6026 281.538 37.8129L282.044 41.7807ZM1259.35 42.4806C1261 42.6882 1262.65 42.8964 1264.3 43.1054L1264.8 39.1372C1263.15 38.9281 1261.5 38.7197 1259.85 38.512L1259.35 42.4806ZM270.135 43.3175C271.796 43.1006 273.454 42.8852 275.109 42.6712L274.596 38.7042C272.94 38.9184 271.28 39.1341 269.617 39.3512L270.135 43.3175ZM1271.21 43.9861C1272.86 44.1965 1274.51 44.4076 1276.15 44.6194L1276.66 40.6521C1275.01 40.4402 1273.37 40.2289 1271.72 40.0184L1271.21 43.9861ZM258.349 44.8737C259.99 44.6545 261.629 44.4368 263.264 44.2205L262.739 40.255C261.102 40.4716 259.462 40.6895 257.82 40.9089L258.349 44.8737ZM1283.07 45.5128C1284.72 45.7265 1286.37 45.9408 1288.02 46.1558L1288.54 42.1893C1286.88 41.9742 1285.24 41.7598 1283.59 41.546L1283.07 45.5128ZM246.482 46.4757C248.137 46.2498 249.789 46.0253 251.439 45.8023L250.903 41.8384C249.252 42.0616 247.598 42.2863 245.941 42.5124L246.482 46.4757ZM1294.93 47.0588C1296.57 47.2747 1298.22 47.4912 1299.86 47.7083L1300.39 43.7426C1298.74 43.5254 1297.09 43.3088 1295.45 43.0928L1294.93 47.0588ZM234.661 48.1063C236.296 47.8784 237.928 47.6518 239.558 47.4266L239.01 43.4643C237.379 43.6897 235.745 43.9164 234.109 44.1446L234.661 48.1063ZM1306.79 48.6237C1308.43 48.842 1310.08 49.0608 1311.73 49.2803L1312.25 45.3153C1310.61 45.0958 1308.96 44.8768 1307.31 44.6584L1306.79 48.6237ZM222.839 49.7714C224.488 49.5368 226.134 49.3036 227.777 49.0718L227.218 45.111C225.573 45.343 223.926 45.5765 222.276 45.8113L222.839 49.7714ZM1318.63 50.2023C1320.28 50.4226 1321.92 50.6435 1323.57 50.865L1324.1 46.9006C1322.45 46.6791 1320.81 46.4581 1319.16 46.2377L1318.63 50.2023ZM210.975 51.4767C212.619 51.2381 214.26 51.0009 215.898 50.765L215.328 46.8058C213.688 47.0419 212.046 47.2794 210.401 47.5182L210.975 51.4767ZM1330.5 51.7984C1332.14 52.0199 1333.78 52.2419 1335.42 52.4644L1335.96 48.5006C1334.32 48.278 1332.68 48.0559 1331.03 47.8343L1330.5 51.7984ZM199.202 53.2027C200.844 52.9597 202.483 52.7181 204.119 52.4778L203.538 48.5202C201.9 48.7607 200.26 49.0026 198.617 49.2458L199.202 53.2027ZM1342.33 53.4015C1343.98 53.6253 1345.62 53.8497 1347.27 54.0746L1347.81 50.1112C1346.16 49.8863 1344.52 49.6619 1342.87 49.438L1342.33 53.4015ZM187.334 54.9764C188.989 54.7268 190.641 54.4785 192.291 54.2316L191.699 50.2756C190.047 50.5228 188.394 50.7713 186.737 51.0212L187.334 54.9764ZM1354.2 55.0198C1355.83 55.2439 1357.47 55.4685 1359.12 55.6936L1359.66 51.7307C1358.02 51.5055 1356.38 51.2809 1354.74 51.0567L1354.2 55.0198ZM175.567 56.768C177.202 56.5169 178.833 56.2671 180.462 56.0187L179.859 52.0644C178.229 52.3131 176.596 52.5631 174.96 52.8144L175.567 56.768ZM1366.03 56.6418C1367.67 56.8682 1369.32 57.0951 1370.98 57.3224L1371.52 53.3597C1369.87 53.1324 1368.22 52.9055 1366.57 52.679L1366.03 56.6418ZM163.753 58.5997C165.401 58.342 167.045 58.0857 168.687 57.8308L168.073 53.8781C166.43 54.1333 164.784 54.3899 163.135 54.6478L163.753 58.5997ZM1377.88 58.2741C1379.52 58.5001 1381.16 58.7266 1382.81 58.9534L1383.36 54.991C1381.71 54.7641 1380.07 54.5376 1378.43 54.3116L1377.88 58.2741ZM151.929 60.4657C153.562 60.2059 155.191 59.9473 156.819 59.6901L156.194 55.7392C154.565 55.9966 152.934 56.2554 151.3 56.5155L151.929 60.4657ZM1389.72 59.9088L1394.68 60.5941L1395.23 56.6318L1390.27 55.9464L1389.72 59.9088ZM1401.57 61.5479L1406.5 62.23L1407.05 58.2678L1402.12 57.5856L1401.57 61.5479ZM140.172 62.3532C141.812 62.0878 143.448 61.8238 145.082 61.5611L144.447 57.6118C142.812 57.8747 141.174 58.139 139.533 58.4046L140.172 62.3532ZM1413.42 63.1887L1418.39 63.8759L1418.93 59.9137L1413.97 59.2265L1413.42 63.1887ZM128.325 64.2874C129.977 64.0155 131.626 63.745 133.273 63.4758L132.627 59.5282C130.979 59.7976 129.328 60.0684 127.675 60.3406L128.325 64.2874ZM1425.26 64.828L1430.19 65.5103L1430.74 61.5481L1425.81 60.8658L1425.26 64.828ZM116.586 66.2355C118.216 65.9628 119.844 65.6913 121.47 65.4212L120.814 61.4753C119.187 61.7457 117.558 62.0174 115.926 62.2904L116.586 66.2355ZM1437.12 66.4688L1442.08 67.1529L1442.62 63.1905L1437.67 62.5064L1437.12 66.4688ZM104.801 68.2226C106.444 67.9434 108.084 67.6655 109.722 67.389L109.056 63.4448C107.417 63.7216 105.775 63.9997 104.131 64.2791L104.801 68.2226ZM1448.95 68.1022C1450.6 68.3287 1452.24 68.5553 1453.89 68.7823L1454.43 64.8197C1452.79 64.5928 1451.14 64.3661 1449.5 64.1397L1448.95 68.1022ZM92.9875 70.2456C94.6227 69.9634 96.2554 69.6826 97.8855 69.4031L97.2094 65.4606C95.5779 65.7404 93.9438 66.0215 92.3073 66.3039L92.9875 70.2456ZM1460.83 69.737C1462.47 69.9631 1464.12 70.1894 1465.77 70.416L1466.31 66.4532C1464.66 66.2266 1463.02 66.0003 1461.37 65.7743L1460.83 69.737ZM1472.65 71.3595C1474.29 71.5844 1475.94 71.8096 1477.59 72.035L1478.13 68.0718C1476.48 67.8465 1474.84 67.6213 1473.19 67.3964L1472.65 71.3595ZM81.2678 72.2832C82.9015 71.9971 84.5327 71.7122 86.1615 71.4287L85.4755 67.488C83.8455 67.7717 82.2128 68.0568 80.5778 68.3432L81.2678 72.2832ZM1484.53 72.9828C1486.18 73.2067 1487.82 73.4308 1489.47 73.6552L1490.01 69.6916C1488.36 69.4674 1486.72 69.2433 1485.07 69.0195L1484.53 72.9828ZM69.4615 74.3664C71.1074 74.0739 72.7506 73.7827 74.3914 73.4928L73.6956 69.5538C72.0535 69.8439 70.4088 70.1353 68.7616 70.4281L69.4615 74.3664ZM1496.35 74.5897C1498 74.8125 1499.64 75.0354 1501.29 75.2585L1501.83 71.2946C1500.18 71.0716 1498.53 70.8487 1496.89 70.626L1496.35 74.5897ZM57.7191 76.4685C59.3433 76.1756 60.9651 75.8841 62.5844 75.5939L61.8787 71.6566C60.2581 71.9471 58.6349 72.2389 57.0094 72.5319L57.7191 76.4685ZM1508.24 76.1966L1510.73 76.5321L1511.27 72.5678L1508.78 72.2324L1508.24 76.1966ZM45.9827 78.5992C47.6185 78.3002 49.252 78.0024 50.8831 77.7059L50.1677 73.7704C49.2042 73.9456 48.2399 74.1211 47.2745 74.2972L45.2633 74.6644L45.9827 78.5992ZM34.1616 80.7751C35.8093 80.4698 37.4546 80.1657 39.0973 79.863L38.3724 75.9292C36.7283 76.2322 35.0817 76.5365 33.4327 76.8421L34.1616 80.7751ZM22.4834 82.9539C24.1091 82.6486 25.7325 82.3445 27.3536 82.0418L26.6193 78.1097C24.9968 78.4128 23.3722 78.717 21.7451 79.0226L22.4834 82.9539ZM10.7365 85.1743C12.3737 84.8629 14.0085 84.5527 15.641 84.2437L14.8973 80.3135C13.2635 80.6227 11.6274 80.9331 9.98889 81.2448L10.7365 85.1743ZM1.37732 86.9641C2.20081 86.8058 3.0238 86.6478 3.84607 86.4902L3.09302 82.5617C2.27002 82.7195 1.44653 82.8775 0.622437 83.0359L1.37732 86.9641Z" fill="#EF4E23"/>
</svg>
