<svg width="1512" height="112" viewBox="0 0 1512 112" fill="none" xmlns="http://www.w3.org/2000/svg">
<path d="M0 112L0 69.238C220 47.8545 364.481 -0.00406858 755 1.90735e-06C1117 0.00377721 1361.5 53.4545 1512 69.2364V112H0Z" fill="#155640"/>
<path fill-rule="evenodd" clip-rule="evenodd" d="M773 11.7091C773.841 11.7091 774.682 11.7093 775.521 11.7098L775.523 7.63705C774.683 7.63659 773.842 7.63635 773 7.63635C772.177 7.63635 771.353 7.63653 770.528 7.6369L770.53 11.7096C771.354 11.7093 772.178 11.7091 773 11.7091ZM758.586 11.728C760.255 11.7236 761.92 11.7199 763.58 11.7171L763.574 7.64435C761.912 7.6472 760.246 7.65083 758.575 7.65528L758.586 11.728ZM782.55 11.7191C784.218 11.7227 785.882 11.7271 787.543 11.7325L787.555 7.65978C785.894 7.6544 784.228 7.64995 782.559 7.64642L782.55 11.7191ZM746.655 11.7737C748.314 11.7654 749.969 11.7579 751.62 11.7513L751.604 7.67857C749.952 7.68522 748.296 7.6927 746.635 7.70105L746.655 11.7737ZM794.493 11.7604C796.142 11.7684 797.788 11.7772 799.43 11.787L799.453 7.71429C797.81 7.70453 796.163 7.69568 794.512 7.68774L794.493 11.7604ZM734.688 11.8488C736.35 11.8363 738.008 11.8247 739.661 11.8139L739.636 7.74129C737.981 7.75201 736.322 7.76363 734.658 7.77616L734.688 11.8488ZM806.431 11.8342C808.106 11.8469 809.776 11.8605 811.443 11.8751L811.477 7.80248C809.809 7.78791 808.137 7.77428 806.461 7.7616L806.431 11.8342ZM722.745 11.9543C724.414 11.9374 726.078 11.9214 727.739 11.9064L727.703 7.83381C726.041 7.84884 724.375 7.86483 722.705 7.8818L722.745 11.9543ZM818.42 11.9418C820.076 11.959 821.728 11.9771 823.376 11.9962L823.422 7.92372C821.772 7.90463 820.118 7.88647 818.461 7.86925L818.42 11.9418ZM710.815 12.0917C712.473 12.0703 714.126 12.05 715.776 12.0306L715.73 7.95814C714.079 7.97752 712.423 7.99789 710.764 8.01927L710.815 12.0917ZM830.302 12.0821C831.982 12.1044 833.658 12.1276 835.33 12.1518L835.387 8.07951C833.713 8.05528 832.036 8.03203 830.354 8.00975L830.302 12.0821ZM698.841 12.2629C700.507 12.2367 702.169 12.2115 703.827 12.1874L703.77 8.11513C702.111 8.13924 700.447 8.1644 698.779 8.19062L698.841 12.2629ZM842.33 12.2592C843.991 12.2861 845.648 12.314 847.301 12.3428L847.37 8.27066C845.715 8.2418 844.056 8.2139 842.393 8.18696L842.33 12.2592ZM686.915 12.4676C688.581 12.4366 690.244 12.4067 691.901 12.3778L691.833 8.30566C690.174 8.33455 688.51 8.36452 686.842 8.3956L686.915 12.4676ZM854.223 12.4695C855.89 12.5015 857.552 12.5344 859.211 12.5683L859.291 8.49644C857.631 8.46249 855.967 8.42951 854.298 8.39751L854.223 12.4695ZM674.977 12.7079C676.631 12.6721 678.281 12.6375 679.927 12.6039L679.847 8.53203C678.199 8.5656 676.547 8.60028 674.892 8.63609L674.977 12.7079ZM866.228 12.7181C867.893 12.7552 869.554 12.7932 871.211 12.8322L871.304 8.76055C869.645 8.7215 867.982 8.68343 866.315 8.64635L866.228 12.7181ZM662.996 12.9853C664.67 12.944 666.34 12.9039 668.005 12.8649L667.913 8.79321C666.246 8.83224 664.575 8.87243 662.899 8.91382L662.996 12.9853ZM878.151 13.0018C879.801 13.0436 881.447 13.0864 883.089 13.1302L883.194 9.05884C881.55 9.01502 879.902 8.97218 878.25 8.93031L878.151 13.0018ZM651.094 13.2978C652.755 13.2516 654.412 13.2066 656.065 13.1628L655.961 9.09144C654.307 9.1353 652.648 9.18034 650.985 9.22659L651.094 13.2978ZM890.118 13.324C891.786 13.3716 893.45 13.4202 895.111 13.4697L895.228 9.39876C893.566 9.34914 891.9 9.30051 890.23 9.2529L890.118 13.324ZM639.134 13.6494C640.792 13.598 642.445 13.5479 644.094 13.499L643.977 9.42798C642.326 9.47696 640.672 9.52715 639.013 9.57857L639.134 13.6494ZM902.063 13.6838C903.713 13.7362 905.359 13.7895 907.001 13.8438L907.131 9.77327C905.487 9.71888 903.839 9.66547 902.187 9.61305L902.063 13.6838ZM627.199 14.0385C628.867 13.9815 630.53 13.9257 632.189 13.8712L632.06 9.80056C630.399 9.85514 628.734 9.91098 627.065 9.96808L627.199 14.0385ZM914.004 14.0822C915.674 14.1407 917.34 14.2001 919.003 14.2606L919.145 10.1905C917.481 10.1299 915.813 10.0704 914.142 10.0119L914.004 14.0822ZM615.272 14.466C616.926 14.404 618.576 14.3433 620.221 14.2839L620.08 10.2137C618.432 10.2732 616.781 10.334 615.125 10.396L615.272 14.466ZM925.963 14.5206C927.615 14.5839 929.263 14.6483 930.908 14.7136L931.064 10.644C929.417 10.5786 927.767 10.5142 926.113 10.4508L925.963 14.5206ZM603.299 14.9345C604.971 14.8663 606.64 14.7994 608.304 14.7338L608.149 10.6641C606.483 10.7298 604.813 10.7967 603.138 10.865L603.299 14.9345ZM937.887 14.9976C939.558 15.0673 941.225 15.138 942.888 15.2097L943.057 11.1406C941.392 11.0688 939.723 10.998 938.051 10.9283L937.887 14.9976ZM591.403 15.4393C593.062 15.3661 594.716 15.2944 596.367 15.2239L596.199 11.1547C594.547 11.2253 592.89 11.2972 591.23 11.3704L591.403 15.4393ZM949.852 15.5169C951.506 15.5914 953.155 15.667 954.801 15.7436L954.984 11.6751C953.336 11.5985 951.685 11.5228 950.029 11.4481L949.852 15.5169ZM579.435 15.9871C581.099 15.9081 582.759 15.8305 584.416 15.7542L584.235 11.6856C582.577 11.762 580.915 11.8397 579.248 11.9188L579.435 15.9871ZM961.767 16.0748C963.437 16.1559 965.104 16.238 966.767 16.3212L966.963 12.2533C965.298 12.1701 963.63 12.0878 961.957 12.0067L961.767 16.0748ZM567.533 16.5718C569.195 16.4873 570.853 16.4043 572.508 16.3225L572.314 12.2546C570.658 12.3364 568.998 12.4196 567.334 12.5041L567.533 16.5718ZM973.732 16.6766C975.386 16.7626 977.036 16.8497 978.682 16.9378L978.892 12.8707C977.244 12.7825 975.592 12.6953 973.936 12.6091L973.732 16.6766ZM555.59 17.1988C557.24 17.1093 558.887 17.0213 560.53 16.9345L560.323 12.8673C558.678 12.9541 557.029 13.0423 555.377 13.1318L555.59 17.1988ZM985.642 17.3173C987.311 17.4101 988.977 17.5038 990.639 17.5987L990.863 13.5323C989.199 13.4374 987.531 13.3435 985.86 13.2506L985.642 17.3173ZM543.666 17.8651C545.331 17.7693 546.992 17.6748 548.65 17.5817L548.43 13.5152C546.77 13.6083 545.107 13.7029 543.44 13.7989L543.666 17.8651ZM997.602 18.003C999.255 18.1007 1000.9 18.1995 1002.55 18.2992L1002.79 14.2337C1001.14 14.1338 999.489 14.035 997.834 13.9371L997.602 18.003ZM531.746 18.5717C533.396 18.4711 535.042 18.3719 536.684 18.2741L536.451 14.2083C534.806 14.3062 533.159 14.4055 531.507 14.5062L531.746 18.5717ZM1009.51 18.7282C1011.18 18.8327 1012.84 18.9382 1014.5 19.0448L1014.75 14.9801C1013.09 14.8734 1011.43 14.7678 1009.76 14.6632L1009.51 18.7282ZM519.806 19.3201C521.473 19.2127 523.137 19.1068 524.796 19.0023L524.55 14.9374C522.888 15.042 521.223 15.148 519.553 15.2554L519.806 19.3201ZM1021.46 19.4985C1023.11 19.608 1024.76 19.7185 1026.41 19.83L1026.67 15.7663C1025.03 15.6546 1023.37 15.544 1021.72 15.4344L1021.46 19.4985ZM507.907 20.1062C509.559 19.9943 511.206 19.8838 512.85 19.7747L512.59 15.7106C510.944 15.8198 509.295 15.9305 507.642 16.0425L507.907 20.1062ZM1033.37 20.3091C1035.04 20.4254 1036.7 20.5427 1038.36 20.6611L1038.64 16.5983C1036.98 16.4798 1035.31 16.3624 1033.65 16.2459L1033.37 20.3091ZM495.957 20.9365C497.625 20.8178 499.29 20.7004 500.951 20.5846L500.678 16.5214C499.015 16.6374 497.348 16.7548 495.678 16.8737L495.957 20.9365ZM1045.31 21.1642C1046.96 21.2855 1048.61 21.4077 1050.25 21.531L1050.54 17.4693C1048.9 17.3458 1047.25 17.2234 1045.59 17.1021L1045.31 21.1642ZM484.077 21.8022C485.729 21.679 487.377 21.5573 489.022 21.4369L488.735 17.3747C487.089 17.4952 485.438 17.617 483.784 17.7404L484.077 21.8022ZM1057.22 22.0606C1058.88 22.1886 1060.54 22.3177 1062.2 22.4477L1062.51 18.3871C1060.85 18.2568 1059.19 18.1276 1057.52 17.9995L1057.22 22.0606ZM472.121 22.7139C473.79 22.5838 475.455 22.4552 477.117 22.328L476.817 18.2667C475.154 18.394 473.486 18.5228 471.815 18.6531L472.121 22.7139ZM1069.14 23C1070.79 23.1329 1072.44 23.2668 1074.08 23.4017L1074.4 19.3422C1072.76 19.2071 1071.11 19.073 1069.46 18.94L1069.14 23ZM460.255 23.6589C461.908 23.5245 463.556 23.3916 465.201 23.2601L464.888 19.1999C463.241 19.3315 461.591 19.4646 459.937 19.5991L460.255 23.6589ZM1081.06 23.9816C1082.72 24.1212 1084.37 24.2618 1086.03 24.4035L1086.36 20.3451C1084.71 20.2033 1083.05 20.0625 1081.39 19.9227L1081.06 23.9816ZM448.301 24.6512C449.969 24.5099 451.635 24.37 453.297 24.2316L452.97 20.1724C451.307 20.311 449.64 20.451 447.969 20.5925L448.301 24.6512ZM1092.96 25.0041C1094.61 25.149 1096.26 25.2948 1097.91 25.4416L1098.26 21.3844C1096.61 21.2374 1094.96 21.0914 1093.3 20.9464L1092.96 25.0041ZM436.446 25.675C438.098 25.5296 439.746 25.3857 441.39 25.2432L441.051 21.1852C439.405 21.3278 437.755 21.4719 436.102 21.6174L436.446 25.675ZM1104.88 26.0696C1106.53 26.2206 1108.19 26.3725 1109.84 26.5254L1110.2 22.4694C1108.55 22.3163 1106.89 22.1642 1105.23 22.0131L1104.88 26.0696ZM424.498 26.7469C426.166 26.5945 427.83 26.4436 429.491 26.2941L429.139 22.2372C427.476 22.3868 425.81 22.5379 424.14 22.6905L424.498 26.7469ZM1116.76 27.1732C1118.42 27.3299 1120.08 27.4875 1121.73 27.6461L1122.1 23.5914C1120.45 23.4326 1118.79 23.2748 1117.13 23.118L1116.76 27.1732ZM412.65 27.8492C414.3 27.693 415.946 27.5382 417.59 27.3849L417.225 23.3291C415.579 23.4826 413.931 23.6376 412.279 23.794L412.65 27.8492ZM1128.68 28.3203C1130.34 28.4822 1131.99 28.6451 1133.64 28.8089L1134.03 24.7554C1132.37 24.5914 1130.72 24.4284 1129.07 24.2663L1128.68 28.3203ZM400.713 28.9993C402.379 28.836 404.042 28.6742 405.701 28.5139L405.323 24.4594C403.662 24.6199 401.997 24.7819 400.33 24.9453L400.713 28.9993ZM1140.56 29.5027C1142.22 29.6706 1143.87 29.8394 1145.53 30.0092L1145.93 25.9569C1144.27 25.787 1142.61 25.618 1140.95 25.45L1140.56 29.5027ZM388.866 30.1797C390.514 30.0128 392.159 29.8474 393.8 29.6834L393.409 25.6301C391.766 25.7943 390.12 25.9599 388.47 26.127L388.866 30.1797ZM1152.47 30.7277C1154.12 30.9001 1155.77 31.0734 1157.42 31.2476L1157.83 27.1967C1156.18 27.0223 1154.53 26.8488 1152.88 26.6762L1152.47 30.7277ZM376.946 31.4064C378.61 31.2325 380.27 31.0601 381.927 30.8891L381.523 26.8372C379.865 27.0083 378.203 27.1809 376.538 27.355L376.946 31.4064ZM1164.35 31.9868C1166.01 32.1647 1167.66 32.3436 1169.31 32.5235L1169.74 28.4738C1168.08 28.2938 1166.43 28.1147 1164.77 27.9366L1164.35 31.9868ZM365.096 32.6646C366.741 32.4873 368.383 32.3114 370.021 32.137L369.605 28.0864C367.965 28.261 366.321 28.437 364.675 28.6145L365.096 32.6646ZM1176.24 33.284C1177.89 33.4663 1179.54 33.6495 1181.19 33.8336L1181.62 29.7852C1179.98 29.6009 1178.33 29.4175 1176.68 29.235L1176.24 33.284ZM353.198 33.9662C354.858 33.7819 356.515 33.5991 358.169 33.4178L357.74 29.3684C356.085 29.55 354.426 29.733 352.764 29.9175L353.198 33.9662ZM1188.12 34.6149C1189.78 34.8024 1191.43 34.9907 1193.08 35.1799L1193.53 31.1328C1191.87 30.9434 1190.22 30.7549 1188.57 30.5672L1188.12 34.6149ZM341.337 35.3018C342.979 35.1144 344.617 34.9284 346.252 34.7438L345.812 30.6958C344.175 30.8806 342.535 31.0668 340.891 31.2545L341.337 35.3018ZM1200 35.9797C1201.65 36.1714 1203.3 36.364 1204.95 36.5574L1205.41 32.5115C1203.76 32.3179 1202.11 32.1251 1200.46 31.9333L1200 35.9797ZM329.465 36.6766C331.122 36.4822 332.775 36.2892 334.425 36.0977L333.972 32.0512C332.32 32.2429 330.665 32.436 329.007 32.6307L329.465 36.6766ZM1211.88 37.3767C1213.53 37.5729 1215.18 37.77 1216.83 37.9679L1217.3 33.9232C1215.65 33.7251 1214 33.5279 1212.34 33.3315L1211.88 37.3767ZM317.589 38.0895C319.227 37.8921 320.861 37.6962 322.492 37.5016L322.027 33.4566C320.394 33.6513 318.758 33.8474 317.119 34.045L317.589 38.0895ZM1223.75 38.8039C1225.4 39.0042 1227.05 39.2054 1228.7 39.4073L1229.17 35.3637C1227.53 35.1616 1225.88 34.9603 1224.22 34.7598L1223.75 38.8039ZM305.748 39.5354C307.4 39.3311 309.049 39.1282 310.695 38.9268L310.217 34.8832C308.57 35.0848 306.919 35.2878 305.266 35.4923L305.748 39.5354ZM1235.62 40.2604C1237.27 40.4646 1238.92 40.6696 1240.57 40.8754L1241.05 36.833C1239.4 36.627 1237.75 36.4219 1236.1 36.2175L1235.62 40.2604ZM293.85 41.0254C295.5 40.8161 297.148 40.6083 298.792 40.4019L298.303 36.3598C296.657 36.5664 295.008 36.7744 293.355 36.9839L293.85 41.0254ZM1247.49 41.7441C1249.14 41.9518 1250.78 42.1604 1252.43 42.3697L1252.93 38.3283C1251.28 38.1188 1249.63 37.9102 1247.98 37.7022L1247.49 41.7441ZM282.044 42.5404C283.69 42.3265 285.334 42.1141 286.975 41.9031L286.474 37.8625C284.832 38.0737 283.186 38.2863 281.538 38.5004L282.044 42.5404ZM1259.35 43.253C1261 43.4643 1262.65 43.6764 1264.3 43.8891L1264.8 39.8488C1263.15 39.6358 1261.5 39.4236 1259.85 39.2122L1259.35 43.253ZM270.135 44.1051C271.796 43.8843 273.454 43.6649 275.109 43.447L274.596 39.4079C272.94 39.626 271.28 39.8456 269.617 40.0666L270.135 44.1051ZM1271.21 44.7858C1272.86 45.0001 1274.51 45.215 1276.15 45.4306L1276.66 41.3912C1275.01 41.1754 1273.37 40.9604 1271.72 40.746L1271.21 44.7858ZM258.349 45.6895C259.99 45.4664 261.629 45.2447 263.264 45.0245L262.739 40.9869C261.102 41.2074 259.462 41.4293 257.82 41.6526L258.349 45.6895ZM1283.07 46.3403C1284.72 46.5579 1286.37 46.7761 1288.02 46.9949L1288.54 42.9563C1286.88 42.7374 1285.24 42.519 1283.59 42.3014L1283.07 46.3403ZM246.482 47.3207C248.137 47.0907 249.789 46.8621 251.439 46.635L250.903 42.599C249.252 42.8264 247.598 43.0552 245.941 43.2854L246.482 47.3207ZM1294.93 47.9145C1296.57 48.1342 1298.22 48.3546 1299.86 48.5757L1300.39 44.5379C1298.74 44.3167 1297.09 44.0962 1295.45 43.8763L1294.93 47.9145ZM234.661 48.9809C236.296 48.7489 237.928 48.5182 239.558 48.2889L239.01 44.2545C237.379 44.484 235.745 44.7149 234.109 44.9472L234.661 48.9809ZM1306.79 49.5077C1308.43 49.73 1310.08 49.9529 1311.73 50.1763L1312.25 46.1392C1310.61 45.9157 1308.96 45.6927 1307.31 45.4704L1306.79 49.5077ZM222.839 50.6763C224.488 50.4374 226.134 50.2 227.777 49.964L227.218 45.9312C225.573 46.1674 223.926 46.4051 222.276 46.6442L222.839 50.6763ZM1318.63 51.115C1320.28 51.3394 1321.92 51.5643 1323.57 51.7898L1324.1 47.7533C1322.45 47.5278 1320.81 47.3028 1319.16 47.0783L1318.63 51.115ZM210.975 52.4127C212.619 52.1697 214.26 51.9281 215.898 51.688L215.328 47.6568C213.688 47.8972 212.046 48.139 210.401 48.3822L210.975 52.4127ZM1330.5 52.7401C1332.14 52.9657 1333.78 53.1917 1335.42 53.4183L1335.96 49.3825C1334.32 49.1558 1332.68 48.9296 1331.03 48.704L1330.5 52.7401ZM199.202 54.17C200.844 53.9226 202.483 53.6766 204.119 53.4319L203.538 49.4024C201.9 49.6473 200.26 49.8935 198.617 50.1412L199.202 54.17ZM1342.33 54.3724C1343.98 54.6003 1345.62 54.8288 1347.27 55.0577L1347.81 51.0223C1346.16 50.7933 1344.52 50.5648 1342.87 50.3368L1342.33 54.3724ZM187.334 55.976C188.989 55.7218 190.641 55.469 192.291 55.2176L191.699 51.1897C190.047 51.4413 188.394 51.6944 186.737 51.9488L187.334 55.976ZM1354.2 56.0201C1355.83 56.2483 1357.47 56.477 1359.12 56.7062L1359.66 52.6712C1358.02 52.442 1356.38 52.2132 1354.74 51.985L1354.2 56.0201ZM175.567 57.8002C177.202 57.5445 178.833 57.2902 180.462 57.0372L179.859 53.0111C178.229 53.2642 176.596 53.5188 174.96 53.7747L175.567 57.8002ZM1366.03 57.6716C1367.67 57.9021 1369.32 58.1331 1370.98 58.3646L1371.52 54.3299C1369.87 54.0984 1368.22 53.8674 1366.57 53.6368L1366.03 57.6716ZM163.753 59.6652C165.401 59.4028 167.045 59.1418 168.687 58.8822L168.073 54.8577C166.43 55.1175 164.784 55.3788 163.135 55.6414L163.753 59.6652ZM1377.88 59.3336C1379.52 59.5637 1381.16 59.7943 1382.81 60.0253L1383.36 55.9908C1381.71 55.7598 1380.07 55.5292 1378.43 55.299L1377.88 59.3336ZM151.929 61.5651C153.562 61.3005 155.191 61.0373 156.819 60.7754L156.194 56.7526C154.565 57.0147 152.934 57.2782 151.3 57.543L151.929 61.5651ZM1389.72 60.998L1394.68 61.6958L1395.23 57.6614L1390.27 56.9636L1389.72 60.998ZM1401.57 62.6669L1406.5 63.3615L1407.05 59.3272L1402.12 58.6326L1401.57 62.6669ZM140.172 63.4869C141.812 63.2167 143.448 62.9478 145.082 62.6804L144.447 58.6593C142.812 58.927 141.174 59.1961 139.533 59.4665L140.172 63.4869ZM1413.42 64.3376L1418.39 65.0373L1418.93 61.0031L1413.97 60.3034L1413.42 64.3376ZM128.325 65.4563C129.977 65.1794 131.626 64.904 133.273 64.6299L132.627 60.6105C130.979 60.8848 129.328 61.1605 127.675 61.4377L128.325 65.4563ZM1425.26 66.0067L1430.19 66.7014L1430.74 62.6671L1425.81 61.9724L1425.26 66.0067ZM116.586 67.4398C118.216 67.1621 119.844 66.8857 121.47 66.6107L120.814 62.5931C119.187 62.8683 117.558 63.1449 115.926 63.4229L116.586 67.4398ZM1437.12 67.6773L1442.08 68.3738L1442.62 64.3394L1437.67 63.6429L1437.12 67.6773ZM104.801 69.463C106.444 69.1787 108.084 68.8958 109.722 68.6143L109.056 64.5984C107.417 64.8801 105.775 65.1633 104.131 65.4478L104.801 69.463ZM1448.95 69.3404C1450.6 69.571 1452.24 69.8018 1453.89 70.0329L1454.43 65.9982C1452.79 65.7672 1451.14 65.5364 1449.5 65.3059L1448.95 69.3404ZM92.9875 71.5228C94.6227 71.2355 96.2554 70.9495 97.8855 70.6649L97.2094 66.6508C95.5779 66.9356 93.9438 67.2218 92.3073 67.5094L92.9875 71.5228ZM1460.83 71.005C1462.47 71.2351 1464.12 71.4656 1465.77 71.6963L1466.31 67.6614C1464.66 67.4307 1463.02 67.2003 1461.37 66.9702L1460.83 71.005ZM1472.65 72.6569C1474.29 72.8859 1475.94 73.1152 1477.59 73.3447L1478.13 69.3095C1476.48 69.08 1474.84 68.8508 1473.19 68.6218L1472.65 72.6569ZM81.2678 73.5974C82.9015 73.3061 84.5327 73.0161 86.1615 72.7274L85.4755 68.715C83.8455 69.0039 82.2128 69.2942 80.5778 69.5858L81.2678 73.5974ZM1484.53 74.3098C1486.18 74.5377 1487.82 74.7659 1489.47 74.9943L1490.01 70.9587C1488.36 70.7304 1486.72 70.5023 1485.07 70.2743L1484.53 74.3098ZM69.4615 75.7185C71.1074 75.4206 72.7506 75.1242 74.3914 74.829L73.6956 70.8184C72.0535 71.1138 70.4088 71.4105 68.7616 71.7086L69.4615 75.7185ZM1496.35 75.9459C1498 76.1727 1499.64 76.3997 1501.29 76.6269L1501.83 72.5909C1500.18 72.3638 1498.53 72.1368 1496.89 71.9101L1496.35 75.9459ZM57.7191 77.8588C59.3433 77.5606 60.9651 77.2638 62.5844 76.9683L61.8787 72.9595C60.2581 73.2552 58.6349 73.5523 57.0094 73.8507L57.7191 77.8588ZM1508.24 77.582L1510.73 77.9236L1511.27 73.8872L1508.78 73.5457L1508.24 77.582ZM45.9827 80.0283C47.6185 79.7238 49.252 79.4206 50.8831 79.1188L50.1677 75.1117C49.2042 75.29 48.2399 75.4688 47.2745 75.648L45.2633 76.022L45.9827 80.0283ZM34.1616 82.2438C35.8093 81.9328 37.4546 81.6233 39.0973 81.315L38.3724 77.3097C36.7283 77.6182 35.0817 77.9281 33.4327 78.2392L34.1616 82.2438ZM22.4834 84.4621C24.1091 84.1512 25.7325 83.8417 27.3536 83.5334L26.6193 79.5299C24.9968 79.8384 23.3722 80.1482 21.7451 80.4594L22.4834 84.4621ZM10.7365 86.723C12.3737 86.4058 14.0085 86.09 15.641 85.7754L14.8973 81.7737C13.2635 82.0885 11.6274 82.4046 9.98889 82.722L10.7365 86.723ZM1.37732 88.5452C2.20081 88.3841 3.0238 88.2232 3.84607 88.0627L3.09302 84.0628C2.27002 84.2235 1.44653 84.3844 0.622437 84.5457L1.37732 88.5452Z" fill="#F7E6B1"/>
</svg>
