<svg width="396" height="120" viewBox="0 0 396 120" fill="none" xmlns="http://www.w3.org/2000/svg">
<path d="M396 120V78.0016C339.069 29.9859 299.271 -0.00399861 196.992 3.71582e-06C87.6641 0.00428101 38.2901 38.9715 8.22544e-06 56.0993V120L396 120Z" fill="#155640"/>
<path fill-rule="evenodd" clip-rule="evenodd" d="M224.209 4C222.564 4.00067 220.931 4.01515 219.312 4.04266L219.244 0.0432369C220.885 0.0153598 222.54 0.000675559 224.207 0L224.209 4ZM235.939 4.23252C234.301 4.16644 232.671 4.11501 231.051 4.07751L231.144 0.078586C232.786 0.116603 234.439 0.168751 236.1 0.235768L235.939 4.23252ZM212.47 4.23738C210.825 4.30303 209.196 4.38158 207.584 4.47211L207.359 0.478407C208.993 0.386674 210.644 0.307086 212.311 0.240563L212.47 4.23738ZM247.637 4.9514C246.009 4.81626 244.386 4.69658 242.771 4.59168L243.03 0.600087C244.669 0.706511 246.315 0.827955 247.968 0.965099L247.637 4.9514ZM200.753 4.93351C199.107 5.06343 197.483 5.20525 195.882 5.35789L195.502 1.37595C197.125 1.22126 198.77 1.07756 200.438 0.945919L200.753 4.93351ZM259.298 6.18014C257.676 5.97209 256.058 5.78042 254.445 5.60451L254.879 1.62809C256.517 1.8067 258.16 2.00134 259.807 2.21266L259.298 6.18014ZM189.074 6.08606C188.267 6.18185 187.467 6.28022 186.674 6.38101C185.855 6.4851 185.041 6.59081 184.23 6.69813L183.705 2.73278C184.522 2.62452 185.344 2.51791 186.169 2.41294C186.973 2.31076 187.784 2.21104 188.602 2.11394L189.074 6.08606ZM270.884 7.94438C269.276 7.65994 267.67 7.39278 266.067 7.14228L266.684 3.19021C268.314 3.44478 269.946 3.71635 271.581 4.00554L270.884 7.94438ZM177.472 7.64531C175.853 7.885 174.251 8.13145 172.665 8.3846L172.034 4.43463C173.635 4.17906 175.252 3.9303 176.887 3.68841L177.472 7.64531ZM282.357 10.271C280.769 9.90656 279.18 9.56022 277.593 9.23145L278.404 5.31454C280.019 5.64902 281.635 6.00144 283.251 6.37241L282.357 10.271ZM165.932 9.51711C164.313 9.80362 162.71 10.0974 161.125 10.3985L160.379 6.46874C161.981 6.16453 163.599 5.86768 165.235 5.57828L165.932 9.51711ZM154.436 11.7317C152.832 12.0667 151.246 12.4094 149.675 12.7598L148.804 8.85579C150.392 8.50145 151.997 8.15491 153.618 7.81626L154.436 11.7317ZM293.693 13.1933C292.127 12.7436 290.558 12.3131 288.988 11.901L290.003 8.03202C291.602 8.45168 293.201 8.89034 294.797 9.34857L293.693 13.1933ZM143.034 14.3093C141.446 14.6963 139.874 15.0915 138.317 15.4948L137.314 11.6226C138.89 11.2145 140.48 10.8146 142.087 10.423L143.034 14.3093ZM304.836 16.7372C303.302 16.1997 301.764 15.6821 300.222 15.184L301.452 11.3778C303.024 11.8858 304.593 12.4137 306.159 12.9621L304.836 16.7372ZM131.733 17.2722C130.161 17.7138 128.604 18.1639 127.061 18.6225L125.922 14.7882C127.484 14.324 129.06 13.8684 130.65 13.4214L131.733 17.2722ZM315.746 20.9334C314.247 20.3029 312.741 19.6932 311.232 19.1038L312.686 15.3776C314.228 15.9794 315.765 16.602 317.297 17.2461L315.746 20.9334ZM120.544 20.6336C118.991 21.1306 117.451 21.6364 115.922 22.1509L114.646 18.3599C116.194 17.8391 117.753 17.3271 119.324 16.824L120.544 20.6336ZM326.363 25.8038C324.909 25.0783 323.447 24.3745 321.98 23.6919L323.667 20.065C325.167 20.7629 326.661 21.4825 328.148 22.2245L326.363 25.8038ZM109.48 24.3936C107.948 24.9448 106.426 25.505 104.912 26.074L103.505 22.3299C105.036 21.7543 106.576 21.1875 108.127 20.6297L109.48 24.3936ZM98.5506 28.5374C97.0393 29.1394 95.5353 29.7503 94.0373 30.37L92.5081 26.6739C94.022 26.0476 95.5423 25.43 97.0704 24.8213L98.5506 28.5374ZM336.625 31.3638C335.224 30.5411 333.814 29.7408 332.396 28.9623L334.321 25.4559C335.772 26.2526 337.215 27.0719 338.65 27.9142L336.625 31.3638ZM87.7548 33.0344C86.2641 33.6817 84.7776 34.3378 83.294 35.0025L81.6586 31.3521C83.1557 30.6813 84.6563 30.0191 86.1615 29.3654L87.7548 33.0344ZM346.474 37.622C345.134 36.702 343.785 35.8048 342.426 34.9301L344.591 31.5666C345.983 32.4626 347.366 33.3818 348.739 34.3246L346.474 37.622ZM77.0839 37.8409C75.6119 38.5265 74.141 39.2205 72.6697 39.9228L70.9467 36.3129C72.4287 35.6055 73.911 34.9061 75.3949 34.2149L77.0839 37.8409ZM355.839 44.5674C354.57 43.5518 353.289 42.5595 351.999 41.5901L354.401 38.3917C355.724 39.3855 357.036 40.4028 358.338 41.4442L355.839 44.5674ZM66.5204 42.9031C65.0641 43.6191 63.6057 44.343 62.1439 45.0747L60.3535 41.4977C61.8232 40.7621 63.2902 40.034 64.7555 39.3135L66.5204 42.9031ZM56.041 48.1625C54.5964 48.9008 53.1469 49.6463 51.6912 50.3991L49.8538 46.846C51.3147 46.0906 52.7699 45.3421 54.2208 44.6007L56.041 48.1625ZM364.667 52.186C363.477 51.0785 362.274 49.9946 361.06 48.9338L363.692 45.9217C364.937 47.0097 366.17 48.1213 367.392 49.2571L364.667 52.186ZM45.6194 53.5603C44.1821 54.3131 42.7375 55.0726 41.2844 55.8387L39.4189 52.3003C40.8747 51.5328 42.3225 50.7716 43.7635 50.0169L45.6194 53.5603ZM372.902 60.44C371.795 59.2442 370.675 58.072 369.542 56.9229L372.392 54.1155C373.553 55.2939 374.701 56.4961 375.837 57.7224L372.902 60.44ZM35.2287 59.0416C33.7942 59.8023 32.3504 60.5691 30.8962 61.3418L29.0193 57.8095C30.474 57.0365 31.9189 56.2692 33.3547 55.5078L35.2287 59.0416ZM24.8428 64.5591C23.4107 65.3201 21.9676 66.0864 20.5128 66.8581L18.6385 63.3244C20.0921 62.5534 21.5342 61.7875 22.9658 61.0268L24.8428 64.5591ZM380.497 69.2779C379.485 68.0087 378.46 66.7625 377.422 65.5391L380.472 62.9511C381.536 64.2054 382.587 65.4829 383.625 66.7839L380.497 69.2779ZM14.4455 70.0694C13.0153 70.8244 11.5731 71.5842 10.1181 72.3487L8.2576 68.8077C9.71003 68.0446 11.1499 67.286 12.578 66.5321L14.4455 70.0694ZM4.03557 75.5316C3.30811 75.9106 2.57733 76.2907 1.84315 76.6719L0 73.1219C0.732432 72.7416 1.46152 72.3624 2.18736 71.9842L4.03557 75.5316ZM387.446 78.6698C386.52 77.3188 385.58 75.9909 384.626 74.6856L387.856 72.3259C388.833 73.6633 389.796 75.0236 390.745 76.4073L387.446 78.6698ZM392.462 86.4357C392.036 85.7339 391.606 85.0377 391.172 84.3471L394.56 82.2205C395.004 82.9274 395.444 83.6399 395.881 84.3581L392.462 86.4357Z" fill="#F7E6B1"/>
</svg>
