<svg width="1514" height="121" viewBox="0 0 1514 121" fill="none" xmlns="http://www.w3.org/2000/svg">
<path d="M1512.04 120.864V78.9133C1294.8 30.9519 1142.95 0.99588 752.675 0.999878C335.505 1.00415 147.106 39.9274 1.00024 57.0358V120.864L1512.04 120.864Z" fill="#155640"/>
<path fill-rule="evenodd" clip-rule="evenodd" d="M861.324 4.7861C859.659 4.78558 857.997 4.78602 856.339 4.7874L856.336 0.787399C857.996 0.78602 859.659 0.785582 861.325 0.786099L861.324 4.7861ZM873.364 4.8065C871.684 4.80132 870.008 4.79713 868.334 4.79392L868.342 0.793923C870.017 0.797142 871.695 0.801336 873.376 0.80652L873.364 4.8065ZM849.266 4.79898C847.584 4.80309 845.904 4.80816 844.229 4.81417L844.215 0.814199C845.892 0.808182 847.572 0.803109 849.256 0.798994L849.266 4.79898ZM885.436 4.86064C883.766 4.85081 882.1 4.84197 880.436 4.83411L880.455 0.834149C882.12 0.842018 883.788 0.850868 885.459 0.860712L885.436 4.86064ZM837.213 4.84492C835.548 4.85354 833.887 4.86308 832.229 4.87352L832.204 0.8736C833.863 0.863146 835.526 0.853597 837.193 0.84497L837.213 4.84492ZM897.463 4.94848C895.786 4.93386 894.112 4.92026 892.441 4.90766L892.471 0.907775C894.144 0.920383 895.82 0.933998 897.498 0.948634L897.463 4.94848ZM825.169 4.92362C823.483 4.93692 821.802 4.95114 820.125 4.96628L820.089 0.966441C821.768 0.951294 823.45 0.937056 825.137 0.923744L825.169 4.92362ZM909.548 5.07123C907.87 5.05176 906.194 5.03333 904.52 5.01593L904.562 1.01615C906.237 1.03357 907.915 1.05201 909.595 1.0715L909.548 5.07123ZM813.106 5.03514C811.441 5.05279 809.78 5.07133 808.123 5.09073L808.076 1.09101C809.734 1.07158 811.397 1.05303 813.063 1.03537L813.106 5.03514ZM921.564 5.22797C919.89 5.2037 918.218 5.18048 916.548 5.1583L916.601 1.15866C918.272 1.18086 919.946 1.2041 921.622 1.22839L921.564 5.22797ZM801.07 5.17893C799.382 5.20136 797.699 5.22469 796.021 5.24889L795.964 1.2493C797.643 1.22508 799.328 1.20173 801.017 1.17928L801.07 5.17893ZM933.654 5.42111C931.969 5.39171 930.287 5.36339 928.607 5.33614L928.672 1.33667C930.354 1.36394 932.038 1.39229 933.723 1.42172L933.654 5.42111ZM789.003 5.35563C787.338 5.38224 785.679 5.40971 784.025 5.438L783.957 1.43859C785.612 1.41027 787.273 1.38278 788.939 1.35614L789.003 5.35563ZM945.665 5.64872C943.994 5.61454 942.323 5.58144 940.655 5.54942L940.732 1.55016C942.402 1.58221 944.074 1.61534 945.747 1.64956L945.665 5.64872ZM776.967 5.56432C775.279 5.59588 773.595 5.6283 771.918 5.66156L771.839 1.66234C773.518 1.62906 775.202 1.59661 776.893 1.56502L776.967 5.56432ZM957.733 5.91381C956.053 5.87434 954.374 5.83598 952.698 5.79872L952.786 1.79971C954.465 1.837 956.145 1.8754 957.827 1.91492L957.733 5.91381ZM764.906 5.80609C763.244 5.84165 761.588 5.87802 759.939 5.91518L759.849 1.91619C761.5 1.879 763.157 1.8426 764.82 1.80701L764.906 5.80609ZM752.86 6.08027C751.172 6.121 749.491 6.16254 747.816 6.20487L747.715 2.20615C749.391 2.16378 751.074 2.1222 752.764 2.08144L752.86 6.08027ZM969.766 6.21514C968.096 6.17072 966.427 6.12743 964.76 6.08525L964.861 2.08653C966.53 2.12876 968.201 2.17209 969.873 2.21655L969.766 6.21514ZM740.82 6.38727C739.162 6.43182 737.512 6.47714 735.867 6.52319L735.755 2.52476C737.401 2.47866 739.053 2.43331 740.713 2.38872L740.82 6.38727ZM981.815 6.55453C980.139 6.50465 978.463 6.45592 976.789 6.40833L976.903 2.40995C978.579 2.45759 980.256 2.50637 981.934 2.5563L981.815 6.55453ZM728.75 6.72845C727.066 6.7784 725.389 6.82912 723.72 6.88059L723.597 2.88249C725.267 2.83098 726.946 2.78021 728.631 2.7302L728.75 6.72845ZM993.864 6.93231C992.195 6.87728 990.527 6.82341 988.86 6.7707L988.986 2.7727C990.655 2.82547 992.325 2.87939 993.996 2.93448L993.864 6.93231ZM716.757 7.10103C715.933 7.12778 715.111 7.1547 714.292 7.1818C713.449 7.20966 712.608 7.23764 711.767 7.26573L711.634 3.26796C712.474 3.23985 713.316 3.21186 714.16 3.18398C714.98 3.15686 715.802 3.12991 716.627 3.10314L716.757 7.10103ZM1005.9 7.34881C1004.23 7.28812 1002.55 7.22863 1000.88 7.17032L1001.02 3.17275C1002.69 3.23112 1004.37 3.29068 1006.04 3.35143L1005.9 7.34881ZM704.737 7.50443C703.069 7.56191 701.407 7.61986 699.749 7.67827L699.608 3.68075C701.267 3.6223 702.931 3.56432 704.599 3.50681L704.737 7.50443ZM1017.95 7.80599C1016.28 7.7397 1014.61 7.67461 1012.94 7.61074L1013.09 3.61365C1014.76 3.6776 1016.44 3.74276 1018.11 3.80913L1017.95 7.80599ZM692.812 7.92629C691.167 7.98599 689.526 8.04614 687.89 8.10676L687.742 4.1095C689.379 4.04885 691.021 3.98865 692.667 3.92892L692.812 7.92629ZM1029.98 8.30289C1028.31 8.23094 1026.64 8.16022 1024.97 8.09072L1025.13 4.09418C1026.81 4.16375 1028.48 4.23455 1030.15 4.30659L1029.98 8.30289ZM680.893 8.36987C679.218 8.43378 677.548 8.49817 675.882 8.56305L675.726 4.56608C677.393 4.50116 679.064 4.43673 680.74 4.37278L680.893 8.36987ZM1042.03 8.84248C1040.36 8.76453 1038.68 8.68784 1037.01 8.6124L1037.19 4.61646C1038.86 4.69198 1040.54 4.76876 1042.22 4.8468L1042.03 8.84248ZM668.914 8.8384C667.262 8.90464 665.614 8.97136 663.971 9.03856L663.808 5.04191C665.452 4.97466 667.101 4.90789 668.754 4.84161L668.914 8.8384ZM1054.06 9.42379C1052.39 9.34003 1050.72 9.25754 1049.05 9.17633L1049.24 5.18105C1050.91 5.26236 1052.59 5.34494 1054.26 5.42881L1054.06 9.42379ZM657.06 9.3252C655.379 9.39589 653.703 9.4671 652.031 9.53881L651.86 5.54249C653.533 5.47073 655.21 5.39947 656.892 5.32873L657.06 9.3252ZM1066.09 10.0492C1064.42 9.95924 1062.75 9.87056 1061.08 9.78318L1061.29 5.78864C1062.96 5.87612 1064.63 5.96491 1066.31 6.05501L1066.09 10.0492ZM645.039 9.84301C643.381 9.91615 641.728 9.9898 640.079 10.064L639.899 6.068C641.549 5.99379 643.204 5.92009 644.863 5.8469L645.039 9.84301ZM633.181 10.3784C631.512 10.4555 629.848 10.5331 628.188 10.6112L628 6.61568C629.661 6.53748 631.326 6.45981 632.996 6.38266L633.181 10.3784ZM1078.12 10.7193C1076.45 10.6231 1074.78 10.5283 1073.11 10.4347L1073.34 6.44099C1075.01 6.53465 1076.68 6.62964 1078.35 6.72596L1078.12 10.7193ZM621.178 10.9458C619.516 11.0262 617.858 11.1072 616.205 11.1886L616.008 7.19348C617.662 7.11195 619.321 7.03095 620.985 6.95049L621.178 10.9458ZM1090.15 11.4352C1088.48 11.3325 1086.81 11.2312 1085.14 11.1313L1085.38 7.13841C1087.05 7.2385 1088.72 7.33994 1090.4 7.44274L1090.15 11.4352ZM609.289 11.5339C607.637 11.6175 605.99 11.7016 604.347 11.7862L604.141 7.79149C605.785 7.7068 607.434 7.62264 609.087 7.53903L609.289 11.5339ZM1102.18 12.1983C1100.51 12.089 1098.84 11.981 1097.17 11.8745L1097.42 7.88257C1099.09 7.98927 1100.77 8.09736 1102.44 8.20684L1102.18 12.1983ZM597.326 12.1526C595.66 12.2406 594 12.3292 592.344 12.4183L592.129 8.42412C593.786 8.33492 595.448 8.24627 597.114 8.15818L597.326 12.1526ZM1114.2 13.0098C1112.53 12.8937 1110.86 12.7791 1109.19 12.6658L1109.46 8.67496C1111.13 8.78839 1112.81 8.90322 1114.48 9.01948L1114.2 13.0098ZM585.417 12.7959C583.773 12.8866 582.135 12.9779 580.501 13.0696L580.277 9.07595C581.912 8.98409 583.552 8.89278 585.196 8.80202L585.417 12.7959ZM573.477 13.4692C571.811 13.5651 570.149 13.6617 568.492 13.7588L568.258 9.76565C569.917 9.66844 571.58 9.57182 573.247 9.47577L573.477 13.4692ZM1126.21 13.8704C1124.54 13.7475 1122.88 13.6259 1121.21 13.5058L1121.49 9.51615C1123.16 9.63642 1124.83 9.75812 1126.5 9.88128L1126.21 13.8704ZM561.559 14.1701C559.914 14.2689 558.274 14.3682 556.638 14.4681L556.395 10.4755C558.032 10.3755 559.673 10.2761 561.319 10.1773L561.559 14.1701ZM1138.23 14.7837C1136.57 14.6533 1134.9 14.5244 1133.23 14.397L1133.53 10.4086C1135.2 10.5362 1136.87 10.6653 1138.55 10.7958L1138.23 14.7837ZM549.633 14.9011C547.967 15.0053 546.305 15.1101 544.648 15.2156L544.394 11.2236C546.053 11.1181 547.716 11.0132 549.383 10.9089L549.633 14.9011ZM1150.23 15.7481C1148.57 15.6106 1146.9 15.4745 1145.24 15.34L1145.56 11.3529C1147.23 11.4877 1148.9 11.6239 1150.56 11.7617L1150.23 15.7481ZM537.714 15.6619C536.069 15.769 534.428 15.8767 532.792 15.985L532.528 11.9938C534.165 11.8854 535.807 11.7776 537.454 11.6704L537.714 15.6619ZM1162.25 16.7685C1160.58 16.6229 1158.91 16.4788 1157.24 16.3363L1157.58 12.3508C1159.25 12.4935 1160.92 12.6378 1162.59 12.7836L1162.25 16.7685ZM525.793 16.4537C524.128 16.5664 522.468 16.6798 520.811 16.7938L520.537 12.8033C522.194 12.6892 523.856 12.5757 525.523 12.4628L525.793 16.4537ZM513.881 17.2763C512.237 17.3921 510.597 17.5084 508.961 17.6254L508.676 13.6356C510.313 13.5185 511.954 13.402 513.6 13.2862L513.881 17.2763ZM1174.24 17.8439C1172.58 17.6908 1170.91 17.5392 1169.25 17.3893L1169.61 13.4054C1171.28 13.5556 1172.94 13.7074 1174.61 13.8608L1174.24 17.8439ZM501.959 18.1317C500.296 18.2533 498.638 18.3754 496.984 18.4983L496.688 14.5092C498.344 14.3863 500.003 14.264 501.667 14.1424L501.959 18.1317ZM1186.24 18.9777C1184.57 18.8157 1182.9 18.6554 1181.22 18.4967L1181.6 14.5146C1183.28 14.6735 1184.95 14.8341 1186.62 14.9964L1186.24 18.9777ZM490.061 19.0179C488.412 19.1429 486.767 19.2687 485.126 19.3951L484.819 15.4069C486.461 15.2804 488.108 15.1545 489.759 15.0293L490.061 19.0179ZM1198.23 20.1722C1196.57 20.0024 1194.9 19.8341 1193.24 19.6676L1193.64 15.6874C1195.3 15.8543 1196.97 16.0228 1198.64 16.193L1198.23 20.1722ZM478.134 19.9392C476.475 20.0697 474.819 20.2009 473.168 20.3327L472.85 16.3454C474.503 16.2134 476.16 16.0822 477.82 15.9515L478.134 19.9392ZM466.255 20.8901C464.598 21.0251 462.945 21.1608 461.296 21.2971L460.966 17.3107C462.617 17.1742 464.272 17.0385 465.93 16.9034L466.255 20.8901ZM1210.19 21.4263C1208.53 21.2477 1206.87 21.0708 1205.2 20.8955L1205.62 16.9175C1207.29 17.093 1208.95 17.2703 1210.62 17.4492L1210.19 21.4263ZM454.321 21.8793C452.666 22.0189 451.014 22.1591 449.366 22.3L449.025 18.3146C450.675 18.1735 452.328 18.0331 453.985 17.8934L454.321 21.8793ZM1222.19 22.7492C1220.53 22.5613 1218.86 22.3752 1217.2 22.1907L1217.64 18.215C1219.31 18.3998 1220.97 18.5863 1222.64 18.7746L1222.19 22.7492ZM442.464 22.8958C440.799 23.041 439.137 23.1868 437.479 23.3333L437.127 19.3489C438.787 19.2022 440.45 19.0562 442.117 18.9109L442.464 22.8958ZM1234.12 24.1327C1232.47 23.9363 1230.81 23.7417 1229.16 23.5488L1229.62 19.5757C1231.28 19.7689 1232.94 19.9639 1234.59 20.1607L1234.12 24.1327ZM430.523 23.9538C428.872 24.1025 427.224 24.2519 425.579 24.402L425.215 20.4186C426.862 20.2683 428.511 20.1188 430.164 19.97L430.523 23.9538ZM1246.11 25.5935C1244.45 25.3861 1242.79 25.1804 1241.12 24.9767L1241.61 21.0063C1243.27 21.2104 1244.94 21.4165 1246.61 21.6243L1246.11 25.5935ZM418.658 25.0392C416.995 25.1937 415.336 25.3488 413.68 25.5047L413.305 21.5223C414.963 21.3663 416.624 21.211 418.288 21.0564L418.658 25.0392ZM406.742 26.1634C405.094 26.3212 403.449 26.4797 401.807 26.6389L401.421 22.6576C403.065 22.4982 404.711 22.3395 406.361 22.1816L406.742 26.1634ZM1258.03 27.1195C1256.38 26.903 1254.73 26.6885 1253.08 26.4758L1253.59 22.5084C1255.24 22.7215 1256.9 22.9365 1258.55 23.1534L1258.03 27.1195ZM394.863 27.318C393.206 27.4814 391.551 27.6455 389.899 27.8104L389.502 23.8301C391.155 23.6652 392.811 23.5009 394.47 23.3373L394.863 27.318ZM1269.99 28.7264C1268.33 28.4977 1266.67 28.2709 1265 28.0461L1265.54 24.082C1267.21 24.3073 1268.87 24.5345 1270.54 24.7638L1269.99 28.7264ZM382.978 28.5068C381.33 28.674 379.685 28.8418 378.042 29.0103L377.634 25.0312C379.278 24.8625 380.925 24.6945 382.574 24.5273L382.978 28.5068ZM1281.91 30.4074C1280.26 30.1691 1278.61 29.9329 1276.95 29.6986L1277.51 25.7382C1279.17 25.973 1280.83 26.2097 1282.48 26.4485L1281.91 30.4074ZM371.088 29.7294C369.436 29.9016 367.786 30.0745 366.138 30.2481L365.719 26.2701C367.368 26.0963 369.02 25.9233 370.674 25.7509L371.088 29.7294ZM359.229 30.9815C357.574 31.1585 355.921 31.3362 354.27 31.5146L353.84 27.5378C355.492 27.3592 357.147 27.1813 358.803 27.0042L359.229 30.9815ZM1293.82 32.1725C1292.16 31.9205 1290.5 31.6707 1288.83 31.4229L1289.42 27.4664C1291.09 27.7147 1292.76 27.9652 1294.42 28.2178L1293.82 32.1725ZM347.334 32.2694C345.686 32.4502 344.039 32.6316 342.393 32.8137L341.953 28.838C343.6 28.6557 345.248 28.4741 346.898 28.2933L347.334 32.2694ZM1305.73 34.0231C1304.08 33.7609 1302.43 33.501 1300.78 33.2431L1301.4 29.291C1303.05 29.5495 1304.71 29.8101 1306.36 30.0728L1305.73 34.0231ZM335.474 33.585C333.821 33.7704 332.169 33.9566 330.519 34.1435L330.069 30.1689C331.721 29.9818 333.373 29.7955 335.028 29.6099L335.474 33.585ZM323.597 34.9325C321.951 35.1214 320.306 35.311 318.662 35.5013L318.202 31.5278C319.847 31.3374 321.494 31.1476 323.141 30.9586L323.597 34.9325ZM1317.6 35.9606C1315.94 35.6837 1314.28 35.4089 1312.62 35.1365L1313.27 31.1891C1314.93 31.4623 1316.6 31.7377 1318.26 32.0154L1317.6 35.9606ZM311.733 36.3081C310.084 36.5013 308.435 36.6952 306.788 36.8898L306.319 32.9174C307.967 32.7226 309.617 32.5286 311.267 32.3352L311.733 36.3081ZM1329.48 37.9974C1327.84 37.7091 1326.2 37.423 1324.55 37.1393L1325.23 33.1972C1326.88 33.4817 1328.53 33.7686 1330.18 34.0577L1329.48 37.9974ZM299.873 37.7112C298.225 37.9081 296.578 38.1056 294.931 38.3039L294.453 34.3326C296.101 34.1342 297.749 33.9365 299.398 33.7395L299.873 37.7112ZM288.01 39.1415C286.363 39.3419 284.716 39.543 283.07 39.7447L282.583 35.7744C284.231 35.5725 285.879 35.3713 287.527 35.1707L288.01 39.1415ZM1341.31 40.1245C1339.66 39.8213 1338.01 39.5204 1336.36 39.2218L1337.07 35.2856C1338.73 35.5849 1340.38 35.8867 1342.03 36.1908L1341.31 40.1245ZM276.155 40.5963C274.508 40.8001 272.862 41.0045 271.216 41.2096L270.721 37.2403C272.369 37.035 274.016 36.8305 275.663 36.6266L276.155 40.5963ZM1353.17 42.3669C1351.53 42.0496 1349.89 41.7348 1348.24 41.4224L1348.99 37.4925C1350.64 37.8059 1352.29 38.1217 1353.93 38.44L1353.17 42.3669ZM264.3 42.075C262.653 42.282 261.006 42.4897 259.358 42.6981L258.857 38.7297C260.505 38.5212 262.153 38.3134 263.801 38.1063L264.3 42.075ZM252.45 43.5756C250.805 43.7853 249.159 43.9958 247.513 44.2069L247.004 40.2393C248.651 40.0281 250.298 39.8176 251.944 39.6077L252.45 43.5756ZM1364.93 44.7042C1363.3 44.3716 1361.66 44.0415 1360.02 43.7139L1360.8 39.7912C1362.45 40.1198 1364.09 40.4509 1365.73 40.7846L1364.93 44.7042ZM240.595 45.0974C238.951 45.3099 237.305 45.523 235.659 45.7368L235.144 41.7701C236.791 41.5562 238.437 41.343 240.083 41.1304L240.595 45.0974ZM1376.76 47.1746C1375.13 46.8252 1373.49 46.4784 1371.85 46.1342L1372.67 42.2194C1374.32 42.5647 1375.96 42.9127 1377.6 43.2633L1376.76 47.1746ZM228.756 46.6364C227.111 46.8515 225.464 47.0672 223.817 47.2836L223.296 43.3176C224.944 43.1011 226.591 42.8853 228.237 42.6701L228.756 46.6364ZM216.897 48.1953C215.257 48.4119 213.616 48.6292 211.974 48.8471L211.448 44.8818C213.091 44.6638 214.732 44.4465 216.373 44.2297L216.897 48.1953ZM1388.47 49.7472C1386.84 49.3813 1385.21 49.0182 1383.58 48.6577L1384.44 44.7517C1386.08 45.1134 1387.72 45.4779 1389.35 45.8451L1388.47 49.7472ZM205.067 49.7659C203.42 49.9856 201.771 50.2059 200.121 50.4268L199.59 46.4621C201.241 46.2411 202.89 46.0208 204.538 45.801L205.067 49.7659ZM193.22 51.3526C191.58 51.5732 189.938 51.7943 188.294 52.0161L187.759 48.052C189.404 47.8302 191.046 47.6089 192.687 47.3883L193.22 51.3526ZM1400.24 52.4719C1398.62 52.0866 1396.99 51.7042 1395.36 51.3247L1396.26 47.4285C1397.9 47.8095 1399.54 48.1934 1401.16 48.5802L1400.24 52.4719ZM181.377 52.951C179.73 53.174 178.081 53.3977 176.429 53.6219L175.891 49.6583C177.543 49.434 179.193 49.2103 180.84 48.9872L181.377 52.951ZM1411.88 55.311C1410.27 54.9066 1408.65 54.5053 1407.02 54.1069L1407.97 50.2217C1409.6 50.6217 1411.23 51.0247 1412.85 51.4308L1411.88 55.311ZM169.547 54.5579C167.905 54.7816 166.261 55.0058 164.614 55.2307L164.073 51.2674C165.72 51.0425 167.365 50.8182 169.007 50.5945L169.547 54.5579ZM157.683 56.1783C156.046 56.4023 154.407 56.6269 152.765 56.8521L152.221 52.8892C153.863 52.664 155.503 52.4393 157.14 52.2153L157.683 56.1783ZM1423.58 58.3206C1421.97 57.8951 1420.35 57.4728 1418.73 57.0536L1419.73 53.1808C1421.36 53.6018 1422.99 54.026 1424.6 54.4534L1423.58 58.3206ZM145.874 57.798C144.229 58.024 142.582 58.2506 140.931 58.4777L140.386 54.515C142.037 54.2879 143.684 54.0613 145.329 53.8353L145.874 57.798ZM134.007 59.4312C132.374 59.6562 130.738 59.8818 129.099 60.1078L128.553 56.1453C130.192 55.9193 131.828 55.6937 133.461 55.4686L134.007 59.4312ZM1435.15 61.4648C1433.54 61.0152 1431.93 60.5689 1430.3 60.1258L1431.35 56.2669C1432.99 56.712 1434.61 57.1605 1436.23 57.6122L1435.15 61.4648ZM122.197 61.0604L117.243 61.7446L116.696 57.7822L121.65 57.098L122.197 61.0604ZM110.345 62.6978L105.431 63.3771L104.883 59.4148L109.798 58.7354L110.345 62.6978ZM1446.74 64.7953C1445.15 64.3246 1443.55 63.8573 1441.94 63.3933L1443.05 59.5503C1444.67 60.0166 1446.28 60.4863 1447.88 60.9595L1446.74 64.7953ZM98.5153 64.3332L93.5498 65.0196L93.0021 61.0573L97.9675 60.3709L98.5153 64.3332ZM86.6798 65.9691L81.7582 66.6489L81.211 62.6865L86.1323 62.0067L86.6798 65.9691ZM1458.23 68.2929C1456.62 67.7891 1455.01 67.2889 1453.38 66.7925L1454.55 62.9673C1456.19 63.4664 1457.81 63.9693 1459.43 64.476L1458.23 68.2929ZM74.8298 67.6054L69.8686 68.2898L69.3222 64.3273L74.283 63.6429L74.8298 67.6054ZM63.0093 69.235C61.3706 69.4607 59.728 69.6868 58.0814 69.9133L57.5362 65.9506C59.1826 65.7241 60.8251 65.498 62.4635 65.2724L63.0093 69.235ZM1469.67 71.9868C1468.1 71.4648 1466.52 70.9466 1464.94 70.432L1466.17 66.6275C1467.77 67.145 1469.35 67.6664 1470.93 68.1916L1469.67 71.9868ZM51.1416 70.8673C49.4976 71.0931 47.8496 71.3194 46.1974 71.546L45.6537 67.5831C47.3057 67.3565 48.9535 67.1303 50.5973 66.9045L51.1416 70.8673ZM39.3335 72.4867C37.6935 72.7113 36.0493 72.9362 34.4009 73.1616L33.8591 69.1984C35.5072 68.9731 37.1511 68.7482 38.7909 68.5237L39.3335 72.4867ZM27.4524 74.1105C25.8118 74.3342 24.167 74.5584 22.5179 74.7829L21.9783 70.8195C23.627 70.595 25.2715 70.3709 26.9118 70.1472L27.4524 74.1105ZM1481.06 75.8986C1479.47 75.338 1477.88 74.7815 1476.28 74.2291L1477.59 70.4479C1479.2 71.0039 1480.8 71.5641 1482.39 72.1284L1481.06 75.8986ZM15.6523 75.7166C14.0116 75.9395 12.3666 76.1627 10.7172 76.3863L10.1799 72.4225C11.829 72.199 13.4736 71.9758 15.114 71.753L15.6523 75.7166ZM3.76382 77.3276L1.2677 77.6648L0.732422 73.7008L3.22798 73.3636L3.76382 77.3276ZM1492.28 80.0061C1490.74 79.4257 1489.2 78.8494 1487.64 78.2773L1489.02 74.5234C1490.59 75.0995 1492.15 75.6799 1493.69 76.2646L1492.28 80.0061ZM1503.53 84.4082C1501.99 83.7831 1500.43 83.1625 1498.87 82.5464L1500.33 78.824C1501.91 79.4448 1503.48 80.0703 1505.03 80.7005L1503.53 84.4082ZM1512.21 88.0215C1511.46 87.7001 1510.71 87.3798 1509.95 87.0607L1511.51 83.375C1512.27 83.6968 1513.03 84.0199 1513.79 84.3441L1512.21 88.0215Z" fill="#F7E6B1"/>
</svg>
