<svg width="396" height="121" viewBox="0 0 396 121" fill="none" xmlns="http://www.w3.org/2000/svg">
<path d="M396 121V79.0016C339.069 30.9859 299.271 0.996001 196.992 1C87.6641 1.00428 38.2901 39.9715 8.22544e-06 57.0993V121L396 121Z" fill="#F7E6B1"/>
<path fill-rule="evenodd" clip-rule="evenodd" d="M224.287 4.78589C222.642 4.78655 221.01 4.80104 219.39 4.82855L219.322 0.829126C220.963 0.801248 222.618 0.786564 224.285 0.785889L224.287 4.78589ZM236.017 5.01841C234.379 4.95233 232.749 4.9009 231.129 4.8634L231.222 0.864475C232.864 0.902492 234.517 0.95464 236.179 1.02166L236.017 5.01841ZM212.548 5.02327C210.903 5.08892 209.274 5.16747 207.662 5.258L207.438 1.2643C209.071 1.17256 210.722 1.09297 212.389 1.02645L212.548 5.02327ZM247.715 5.73729C246.087 5.60215 244.464 5.48246 242.849 5.37757L243.109 1.38598C244.747 1.4924 246.393 1.61384 248.046 1.75099L247.715 5.73729ZM200.831 5.7194C199.185 5.84932 197.561 5.99114 195.96 6.14378L195.58 2.16184C197.203 2.00715 198.849 1.86345 200.516 1.73181L200.831 5.7194ZM259.376 6.96603C257.754 6.75798 256.136 6.56631 254.523 6.3904L254.957 2.41397C256.595 2.59259 258.238 2.78723 259.885 2.99855L259.376 6.96603ZM189.152 6.87195C188.345 6.96774 187.545 7.06611 186.752 7.1669C185.933 7.27099 185.119 7.37669 184.309 7.48402L183.783 3.51867C184.6 3.41041 185.422 3.3038 186.247 3.19883C187.051 3.09665 187.862 2.99693 188.68 2.89983L189.152 6.87195ZM270.962 8.73027C269.354 8.44583 267.748 8.17867 266.145 7.92817L266.762 3.9761C268.392 4.23067 270.024 4.50224 271.659 4.79143L270.962 8.73027ZM177.55 8.4312C175.931 8.67088 174.329 8.91733 172.743 9.17048L172.113 5.22052C173.713 4.96494 175.33 4.71618 176.965 4.4743L177.55 8.4312ZM282.435 11.0569C280.847 10.6925 279.258 10.3461 277.671 10.0173L278.482 6.10043C280.097 6.43491 281.713 6.78733 283.329 7.1583L282.435 11.0569ZM166.01 10.303C164.391 10.5895 162.789 10.8833 161.203 11.1844L160.457 7.25463C162.059 6.95042 163.677 6.65357 165.313 6.36417L166.01 10.303ZM154.514 12.5176C152.91 12.8526 151.324 13.1953 149.753 13.5457L148.882 9.64167C150.471 9.28734 152.075 8.9408 153.696 8.60215L154.514 12.5176ZM293.772 13.9792C292.205 13.5295 290.636 13.0989 289.066 12.6869L290.081 8.8179C291.68 9.23757 293.279 9.67623 294.875 10.1345L293.772 13.9792ZM143.112 15.0952C141.524 15.4822 139.952 15.8774 138.395 16.2807L137.392 12.4084C138.968 12.0004 140.558 11.6005 142.165 11.2089L143.112 15.0952ZM304.914 17.523C303.38 16.9856 301.842 16.468 300.3 15.9699L301.531 12.1637C303.102 12.6717 304.671 13.1996 306.237 13.748L304.914 17.523ZM131.811 18.0581C130.239 18.4997 128.683 18.9498 127.139 19.4084L126 15.5741C127.562 15.1099 129.138 14.6543 130.728 14.2073L131.811 18.0581ZM315.824 21.7193C314.325 21.0888 312.82 20.4791 311.31 19.8897L312.764 16.1635C314.306 16.7653 315.843 17.3879 317.375 18.032L315.824 21.7193ZM120.622 21.4195C119.069 21.9165 117.529 22.4223 116 22.9368L114.724 19.1458C116.272 18.625 117.831 18.113 119.403 17.6099L120.622 21.4195ZM326.441 26.5897C324.987 25.8642 323.525 25.1604 322.058 24.4778L323.745 20.8509C325.245 21.5488 326.739 22.2684 328.226 23.0103L326.441 26.5897ZM109.559 25.1795C108.026 25.7307 106.504 26.2909 104.99 26.8599L103.583 23.1158C105.114 22.5402 106.654 21.9734 108.205 21.4156L109.559 25.1795ZM98.6288 29.3232C97.1174 29.9252 95.6134 30.5362 94.1155 31.1559L92.5863 27.4598C94.1001 26.8335 95.6204 26.2159 97.1486 25.6072L98.6288 29.3232ZM336.703 32.1497C335.302 31.327 333.892 30.5267 332.474 29.7482L334.399 26.2418C335.85 27.0385 337.293 27.8578 338.728 28.7L336.703 32.1497ZM87.8329 33.8203C86.3422 34.4676 84.8558 35.1237 83.3722 35.7883L81.7367 32.138C83.2339 31.4672 84.7344 30.8049 86.2396 30.1513L87.8329 33.8203ZM346.552 38.4079C345.213 37.4879 343.863 36.5907 342.504 35.716L344.669 32.3525C346.061 33.2485 347.444 34.1677 348.817 35.1105L346.552 38.4079ZM77.162 38.6267C75.6901 39.3124 74.2191 40.0064 72.7479 40.7087L71.0248 37.0988C72.5069 36.3914 73.9892 35.692 75.473 35.0008L77.162 38.6267ZM355.917 45.3533C354.648 44.3377 353.367 43.3454 352.077 42.376L354.479 39.1776C355.802 40.1714 357.115 41.1887 358.416 42.2301L355.917 45.3533ZM66.5985 43.689C65.1422 44.405 63.6838 45.1289 62.222 45.8605L60.4316 42.2836C61.9014 41.548 63.3683 40.8198 64.8337 40.0994L66.5985 43.689ZM56.1191 48.9484C54.6745 49.6866 53.225 50.4322 51.7694 51.1849L49.932 47.6319C51.3928 46.8765 52.8481 46.128 54.2989 45.3865L56.1191 48.9484ZM364.745 52.9719C363.555 51.8644 362.352 50.7805 361.138 49.7196L363.77 46.7076C365.015 47.7955 366.249 48.9072 367.47 50.043L364.745 52.9719ZM45.6975 54.3461C44.2602 55.099 42.8156 55.8585 41.3625 56.6245L39.4971 53.0862C40.9528 52.3187 42.4007 51.5575 43.8416 50.8028L45.6975 54.3461ZM372.98 61.2258C371.873 60.0301 370.753 58.8579 369.621 57.7088L372.47 54.9013C373.631 56.0798 374.78 57.282 375.915 58.5083L372.98 61.2258ZM35.3069 59.8275C33.8723 60.5882 32.4285 61.355 30.9743 62.1277L29.0974 58.5954C30.5521 57.8224 31.997 57.0551 33.4329 56.2936L35.3069 59.8275ZM24.9209 65.345C23.4888 66.1059 22.0458 66.8723 20.591 67.644L18.7166 64.1103C20.1703 63.3393 21.6124 62.5734 23.044 61.8127L24.9209 65.345ZM380.576 70.0638C379.563 68.7945 378.538 67.5484 377.5 66.325L380.55 63.737C381.614 64.9913 382.665 66.2688 383.703 67.5698L380.576 70.0638ZM14.5236 70.8553C13.0934 71.6103 11.6512 72.3701 10.1962 73.1346L8.33573 69.5936C9.78816 68.8305 11.228 68.0719 12.6562 67.318L14.5236 70.8553ZM4.1137 76.3175C3.38623 76.6965 2.65546 77.0766 1.92128 77.4578L0.078125 73.9078C0.810557 73.5275 1.53965 73.1483 2.26549 72.7701L4.1137 76.3175ZM387.525 79.4557C386.598 78.1047 385.658 76.7768 384.704 75.4715L387.934 73.1118C388.911 74.4492 389.874 75.8095 390.823 77.1932L387.525 79.4557ZM392.541 87.2215C392.114 86.5197 391.684 85.8236 391.251 85.133L394.638 83.0064C395.082 83.7133 395.522 84.4258 395.959 85.144L392.541 87.2215Z" fill="#EF4E23"/>
</svg>
