<svg width="20" height="20" viewBox="0 0 20 20" fill="none" xmlns="http://www.w3.org/2000/svg">
<g id="icon-paw">
<g id="Paw">
<path id="Vector" d="M5.22805 3.00066C5.57117 1.40035 7.07406 -0.261669 8.4987 0.034532C9.93939 0.33279 10.6617 2.50288 10.3788 4.12376C10.0919 5.77549 8.64718 7.51568 7.2386 7.29558C5.76981 7.0652 4.84681 4.77993 5.22805 3.00272V3.00066Z" fill="white"/>
<path id="Vector_2" d="M11.4624 4.58641C11.8095 2.75984 13.5792 1.10193 14.9658 1.44339C16.4827 1.81775 17.3335 4.54322 16.5108 6.44179C15.9811 7.66362 14.5785 8.95538 13.2361 8.60364C11.7754 8.22105 11.1754 6.10444 11.4644 4.58641H11.4624Z" fill="white"/>
<path id="Vector_3" d="M15.7503 9.15092C16.5188 8.15946 18.0859 7.53621 19.1153 8.21911C20.263 8.98019 20.2369 11.0269 19.3661 12.2302C18.6036 13.2833 17.0104 13.9416 15.9771 13.2813C14.8093 12.5346 14.7972 10.3851 15.7523 9.15297L15.7503 9.15092Z" fill="white"/>
<path id="Vector_4" d="M2.0176 4.49182C3.22553 4.32521 4.4134 5.50796 4.7204 6.74624C5.09562 8.25811 4.24285 10.1978 2.83025 10.4138C1.62031 10.5989 0.438457 9.4532 0.107379 8.25811C-0.324025 6.69894 0.590954 4.68929 2.01961 4.49182H2.0176Z" fill="white"/>
<path id="Vector_5" d="M3.41213 12.2258C3.71913 11.7198 5.92231 8.2291 9.6043 8.70631C12.5499 9.08685 14.2815 11.7259 14.7691 13.8281C15.1504 15.4696 15.1082 18.2259 13.4267 19.4128C13.2963 19.5053 12.4455 20.0874 11.356 19.9887C9.98153 19.8653 9.86113 18.8039 8.38633 18.3946C6.93561 17.9914 6.50822 18.8656 4.94914 18.4295C4.65619 18.3473 3.28171 17.9626 2.64965 16.7922C1.70457 15.0438 3.08306 12.7667 3.41213 12.2237V12.2258Z" fill="white"/>
</g>
</g>
</svg>
