<svg width="150" height="150" viewBox="0 0 150 150" fill="none" xmlns="http://www.w3.org/2000/svg">
<g id="illustration-fish">
<g id="fish">
<path id="Vector" d="M23.3356 67.0333C35.7193 54.7973 51.7146 46.5631 68.8772 43.629C79.2501 41.8556 89.9768 42.04 100.283 44.1537C102.146 44.5356 102.943 41.678 101.072 41.2944C82.1676 37.4172 62.2187 39.8315 44.8386 48.2418C29.0891 55.8633 15.0996 68.4547 6.82553 83.9684C2.03674 92.9466 -0.801003 103.155 0.200259 113.38C0.278301 114.177 0.826255 114.863 1.68306 114.863C2.42363 114.863 3.2439 114.182 3.16585 113.38C1.43731 95.7295 11.1726 79.0518 23.3372 67.0333H23.3356Z" fill="#155640"/>
<path id="Vector_2" d="M20.2388 91.9686C18.8623 90.6452 16.7635 92.7408 18.1416 94.0658C19.8453 95.703 21.5489 97.3403 23.2509 98.9775C24.6274 100.301 26.7263 98.2054 25.3481 96.8803C23.6444 95.2431 21.9408 93.6059 20.2388 91.9686Z" fill="#155640"/>
<path id="Vector_3" d="M55.4175 105.634C55.811 99.5403 51.7014 94.1189 48.226 89.5094C44.6361 84.7472 40.465 80.2789 35.1282 77.4661C32.1975 75.9218 29.0426 74.9438 25.7383 74.6731C24.9396 74.6084 24.2555 75.4021 24.2555 76.1559C24.2555 77.0127 24.9363 77.574 25.7383 77.6387C30.9156 78.0622 35.6812 80.7156 39.4853 84.1411C43.5701 87.8191 47.0554 92.4136 49.8798 97.1193C51.4423 99.7213 52.6528 102.542 52.4536 105.634C52.3307 107.54 55.2963 107.532 55.4192 105.634H55.4175Z" fill="#155640"/>
<path id="Vector_4" d="M121.554 56.2703C117.715 73.5142 104.6 86.5107 90.3255 95.9339C75.2883 105.86 58.5308 113.661 40.9232 117.666C30.2248 120.1 19.2242 121.03 8.26681 120.509C6.35893 120.417 6.36391 123.383 8.26681 123.474C18.3425 123.953 28.4681 123.199 38.3644 121.238C47.5385 119.42 56.4586 116.52 65.0614 112.867C73.5747 109.251 81.7857 104.887 89.5965 99.9339C97.2729 95.0671 104.607 89.4747 110.676 82.6701C117.184 75.3723 122.276 66.6615 124.415 57.0573C124.828 55.1976 121.971 54.4039 121.556 56.2686L121.554 56.2703Z" fill="#155640"/>
<path id="Vector_5" d="M148.312 43.1891C145.305 39.2372 141.989 35.4829 138.662 31.8C137.229 30.2142 135.744 28.034 133.672 27.2636C131.386 26.4151 128.999 27.8032 126.994 28.7713C122.14 31.1125 117.517 33.9088 113.174 37.0935C112.529 37.5668 112.207 38.3804 112.642 39.1226C113.014 39.7586 114.022 40.1305 114.671 39.654C118.032 37.1898 121.557 34.9565 125.232 32.9889C127.052 32.0142 128.936 30.9382 130.887 30.2474C131.691 29.9635 132.462 29.7974 133.192 30.3354C133.938 30.8834 134.554 31.692 135.175 32.3678C138.115 35.5659 140.97 38.8453 143.733 42.1995C144.372 42.9766 145.013 43.7537 145.639 44.5424C146.202 45.2547 146.893 46.0982 147.039 47.0248C147.283 48.5773 145.617 49.4657 144.316 49.6616C143.205 49.8277 142.044 49.6799 140.937 49.5537C139.704 49.4125 138.474 49.2598 137.244 49.1137C134.71 48.8114 132.176 48.5092 129.642 48.2087C128.845 48.1141 128.159 48.9576 128.159 49.6915C128.159 50.5715 128.843 51.0796 129.642 51.1743C132.229 51.4831 134.818 51.7903 137.405 52.0992C139.731 52.3765 142.169 52.8962 144.513 52.6073C146.559 52.3549 148.643 51.3071 149.558 49.3644C150.587 47.1759 149.684 44.9874 148.316 43.1891H148.312Z" fill="#155640"/>
<path id="Vector_6" d="M62.8331 59.6993C63.2764 58.9405 62.9426 58.1534 62.3017 57.6702C59.6699 55.6909 56.339 55.0251 53.1226 55.5847C52.3339 55.7225 51.8889 56.6905 52.0865 57.4078C52.3157 58.2414 53.1193 58.5818 53.9097 58.444C56.3689 58.0156 58.8313 58.7462 60.8023 60.2306C61.4432 60.7122 62.4595 60.3336 62.8314 59.6993H62.8331Z" fill="#155640"/>
<path id="Vector_7" d="M79.667 48.9807C77.8255 48.4677 77.0401 51.3286 78.8782 51.8401C80.5121 52.295 82.0066 52.9924 83.4163 53.9356C85.007 54.9983 86.4948 52.4312 84.9124 51.3751C83.3034 50.3008 81.5283 49.5005 79.6653 48.9807H79.667Z" fill="#155640"/>
<path id="Vector_8" d="M69.998 79.7592C68.4156 78.6832 66.9311 81.2503 68.5019 82.3196C69.827 83.2213 70.9063 84.3952 71.7299 85.7668C72.7112 87.4007 75.2766 85.9112 74.2903 84.2707C73.1977 82.4525 71.7481 80.9514 69.998 79.7592Z" fill="#155640"/>
<path id="Vector_9" d="M88.0406 67.7243C86.425 66.6965 84.9372 69.2619 86.5445 70.2847C87.5939 70.9522 88.6434 71.6214 89.6944 72.2889C91.3101 73.3167 92.7979 70.7513 91.1905 69.7285C90.1411 69.061 89.0917 68.3918 88.0406 67.7243Z" fill="#155640"/>
<path id="Vector_10" d="M107.729 56.5425L111.45 59.4051C112.086 59.8933 113.11 59.5031 113.479 58.8738C113.926 58.1083 113.584 57.3345 112.948 56.8447C111.707 55.8899 110.467 54.9368 109.227 53.982C108.591 53.4939 107.566 53.8841 107.197 54.5134C106.751 55.2789 107.093 56.0526 107.729 56.5425Z" fill="#155640"/>
<path id="Vector_11" d="M138.238 36.1985C138.011 35.3732 137.204 35.0146 136.415 35.1624C132.79 35.8415 129.167 36.5223 125.542 37.2014C124.755 37.3492 124.307 38.299 124.506 39.0246C124.734 39.8499 125.541 40.2085 126.329 40.0607C129.954 39.3816 133.577 38.7008 137.202 38.0217C137.989 37.8739 138.437 36.9241 138.238 36.1985Z" fill="#155640"/>
<path id="Vector_12" d="M130.808 44.7083C133.385 44.6104 135.96 44.5141 138.537 44.4161C140.44 44.3447 140.448 41.3791 138.537 41.4505C135.96 41.5485 133.385 41.6448 130.808 41.7427C128.905 41.8141 128.897 44.7797 130.808 44.7083Z" fill="#155640"/>
</g>
</g>
</svg>
