<svg width="150" height="146" viewBox="0 0 150 146" fill="none" xmlns="http://www.w3.org/2000/svg">
<g id="illustration-toy-feather">
<g id="toy-feather">
<path id="Vector" d="M118.431 113.199C115.335 103.78 111.846 94.4773 107.65 85.4906C105.455 80.7911 103.058 76.1869 100.436 71.7114C101.256 71.6138 101.919 71.0499 102.306 70.3206C102.373 70.386 102.44 70.4504 102.507 70.5158C102.591 70.5974 102.679 70.6594 102.769 70.7053C102.254 70.9247 101.881 71.5207 102.237 72.1524C105.978 78.8089 109.353 85.6744 112.318 92.7133C115.263 99.7016 117.809 106.861 119.951 114.137C121.169 118.271 122.251 122.445 123.204 126.648C123.495 127.934 125.471 127.39 125.178 126.102C123.481 118.618 121.366 111.23 118.835 103.985C116.3 96.7248 113.355 89.6044 110.024 82.6734C108.143 78.7583 106.133 74.9052 104.005 71.1176C103.897 70.9258 103.757 70.796 103.603 70.7157C104.193 70.4469 104.559 69.6499 103.955 69.0653C103.68 68.7989 103.405 68.5313 103.13 68.2648C103.977 67.5505 104.679 66.68 105.124 65.6268C105.902 63.7824 105.772 61.4637 104.507 59.8857C105.308 58.4857 105.366 56.8078 104.937 55.2149C104.396 53.2062 103.117 51.6191 101.91 49.9756C101.309 49.1568 100.716 48.3104 100.3 47.379C99.8542 46.3821 99.7006 45.2807 99.5481 44.2081C99.2592 42.1833 98.7547 40.3251 97.5772 38.6265C95.4228 35.5211 92.1712 33.4711 89.6969 30.6597C87.4806 28.1423 85.4306 24.5303 81.8029 23.9791C81.3419 23.909 80.8902 23.9228 80.4281 23.8872C80.3444 23.8803 80.1713 23.8275 80.2241 23.8884C80.1335 23.7827 80.1908 23.3187 80.1805 23.1798C80.1048 22.153 79.9328 21.1298 79.6622 20.1363C79.1188 18.1472 78.1992 16.2511 77.0275 14.5594C74.5738 11.0164 71.0929 8.36578 67.2772 6.43407C65.3223 5.44525 63.2826 4.6218 61.213 3.90861C58.9027 3.11157 56.5144 2.47877 54.0643 2.34785C53.4875 2.31684 52.9097 2.31914 52.333 2.35359C51.801 2.3846 51.2208 2.48911 50.6991 2.34211C50.2669 2.22037 49.9 1.92062 49.5182 1.69208C49.0595 1.4176 48.5528 1.19824 48.0265 1.09603C45.8652 0.674543 43.9012 1.78051 41.7778 1.84368C40.6564 1.87698 39.5947 1.4888 38.5548 1.1144C37.5263 0.743451 36.5025 0.40121 35.4224 0.21516C33.4056 -0.131675 31.2753 -0.104112 29.3319 0.593003C25.7707 1.86894 23.2185 5.41768 23.8204 9.28225C23.9534 10.1333 24.271 10.9521 24.748 11.6699C25.4737 12.7644 27.2486 11.7377 26.516 10.6351C24.7182 7.92592 26.4036 4.32894 29.0579 2.93471C30.6883 2.07911 32.6191 1.90799 34.4249 2.12735C36.4761 2.37656 38.2877 3.41821 40.3033 3.76849C41.4028 3.96029 42.4588 3.88679 43.548 3.66513C44.4745 3.47679 45.3917 3.17474 46.3342 3.07138C47.3248 2.96342 48.0334 3.18393 48.8669 3.70418C49.8403 4.31172 50.7885 4.50925 51.9305 4.43575C56.3012 4.15552 60.6168 5.64278 64.5633 7.40796C68.2311 9.04796 71.704 11.2381 74.3067 14.3447C75.5163 15.7894 76.539 17.4524 77.2109 19.2176C77.5446 20.0938 77.8025 21 77.9722 21.9222C78.1431 22.8513 77.9906 23.9986 78.4251 24.8462C78.9285 25.8304 79.9328 25.9211 80.9189 25.9475C81.6458 25.9671 82.3314 26.1795 82.962 26.539C84.3734 27.3441 85.4397 28.6705 86.4487 29.9155C87.5391 31.2615 88.6168 32.5879 89.8781 33.78C91.1805 35.0112 92.569 36.1505 93.8463 37.4092C95.0284 38.5737 96.1348 39.8623 96.7964 41.4024C97.6162 43.3088 97.4591 45.4495 98.1218 47.3973C98.7811 49.3348 100.081 50.8841 101.26 52.5183C102.278 53.9286 103.199 55.5009 103.167 57.2994C103.154 58.0206 102.945 58.7234 102.461 59.2701C102.118 59.6583 102.019 60.3451 102.461 60.7206C103.669 61.745 103.858 63.5252 103.209 64.9263C102.843 65.7153 102.271 66.3607 101.594 66.8878C100.951 66.6352 100.258 67.1279 100.171 67.7297C100.141 67.74 100.111 67.7503 100.082 67.7641L98.9026 68.2878C98.8464 68.096 98.7879 67.9065 98.7249 67.7182C98.4692 66.9579 97.6311 66.8626 97.114 67.1887C97.0635 67.0727 96.9878 66.9579 96.8778 66.8511C94.9401 64.9699 91.6942 64.87 89.6774 66.6892C89.4343 66.9085 89.2211 67.1474 89.0353 67.4012C88.9528 66.9074 88.5228 66.5961 88.0275 66.5513C87.9989 66.549 88.0115 66.5456 88.0046 66.5399C87.8773 66.4331 87.8853 66.425 87.7867 66.2527C87.6113 65.9473 87.4967 65.6349 87.3614 65.3099C86.9933 64.4244 86.5565 63.5745 85.6851 63.0864C84.769 62.5742 83.6912 62.6018 82.6857 62.7339C81.8522 62.8441 81.0083 63.0853 80.1725 62.8763C79.8996 62.8085 79.574 62.6856 79.3985 62.534C79.2094 62.371 79.1956 62.3273 79.2701 61.969C79.402 61.3419 79.4627 60.7792 79.1681 60.1854C78.9342 59.7134 78.5375 59.362 78.1167 59.0599C77.2671 58.449 76.3533 57.985 75.5645 57.2821C74.7722 56.5758 74.0728 55.7765 73.5133 54.8727C72.9033 53.8884 72.5169 52.7836 71.8886 51.8109C71.2832 50.8749 70.4921 50.1065 69.5794 49.4726C67.7725 48.2196 65.5803 47.6098 63.4729 47.085C58.803 45.9239 53.851 45.2842 49.525 43.0562C45.7494 41.1118 42.1424 37.6458 41.7961 33.1771C41.7502 32.5845 41.1678 31.9218 40.5005 32.1883C39.8366 32.4524 39.2874 32.1814 38.7107 31.8208C38.0251 31.3924 37.414 30.8584 36.7409 30.4128C35.3674 29.5066 33.8241 28.9094 32.3324 28.233C30.944 27.6036 29.5635 26.8996 28.4754 25.8086C27.4951 24.8255 26.7556 23.6047 26.3245 22.284C25.8326 20.7749 25.7134 19.1716 26.0551 17.6166C26.3383 16.3303 24.3639 15.7814 24.0807 17.0711C23.3423 20.4246 24.2401 23.932 26.4093 26.5769C28.7884 29.4779 32.5136 30.1509 35.5485 32.0815C36.8739 32.9244 38.2796 34.3405 39.9054 34.3761C40.6152 38.2303 43.2213 41.3989 46.4339 43.5994C50.4709 46.3649 55.3862 47.3548 60.0779 48.3999C62.3481 48.9053 64.7433 49.3417 66.8747 50.3075C67.7943 50.7244 68.6771 51.2412 69.396 51.959C70.2536 52.8158 70.695 53.9229 71.2339 54.9875C72.2887 57.0708 73.9272 58.8073 75.8763 60.0763C76.2673 60.3313 76.7213 60.5346 77.0836 60.8297C77.4826 61.1547 77.2969 61.3201 77.2189 61.8082C77.0573 62.8234 77.5159 63.7238 78.3483 64.2981C79.1956 64.8815 80.349 65.0894 81.3603 64.9883C82.328 64.8918 83.5193 64.4474 84.4789 64.785C85.2689 65.0641 85.4822 66.1287 85.7975 66.8362C86.2354 67.8181 86.9245 68.5003 88.0287 68.6002C88.1662 68.6128 88.2992 68.5876 88.4208 68.5336C87.7546 70.2861 88.0791 72.3901 89.2589 73.8854C89.6017 74.3195 90.3447 74.2449 90.7047 73.8877C90.7907 74.0221 90.8973 74.1243 91.0177 74.1978C91.0166 74.2024 91.0143 74.207 91.0131 74.2116C90.8561 74.7824 91.2069 75.2831 91.7286 75.4726C92.8602 75.8849 94.0653 76.2788 95.2864 76.1513C96.465 76.0284 97.4843 75.4588 98.2135 74.524C98.5357 74.1117 98.7776 73.6729 98.9542 73.2159C103.618 81.2436 107.545 89.6813 110.94 98.3212C114.53 107.459 117.555 116.809 120.35 126.217C121.937 131.56 123.45 136.923 124.952 142.29C125.308 143.559 127.283 143.02 126.927 141.744C124.251 132.182 121.538 122.626 118.436 113.191L118.431 113.199ZM96.6668 73.1894C95.7496 74.4573 94.282 74.184 92.9783 73.7522C93.6995 73.3376 94.3955 72.83 94.9183 72.2259C94.9539 72.1845 94.9871 72.1432 95.0192 72.1007C95.5203 72.2546 96.1107 72.0777 96.2667 71.4197C96.3584 71.0303 96.3022 70.6261 96.1222 70.2988C96.0981 70.1747 96.058 70.0541 95.9995 69.9381C95.4595 68.8804 94.1811 68.9355 93.3636 69.5925C92.8969 69.968 92.9967 70.5388 93.3166 70.9316C93.2994 70.9511 93.2856 70.966 93.2822 70.9695C93.0746 71.175 92.843 71.3622 92.608 71.5357C92.1196 71.8951 91.5899 72.1926 91.0418 72.451C90.9558 72.4912 90.8824 72.5463 90.8194 72.6118C90.785 72.552 90.746 72.4946 90.7024 72.4406C89.7301 71.2072 89.9618 69.1664 91.1221 68.142C92.3168 67.0877 94.306 67.2163 95.4262 68.3039C95.8631 68.7288 96.4077 68.6473 96.7734 68.3464C97.2871 69.8957 97.7021 71.7585 96.6668 73.1894Z" fill="#155640"/>
<path id="Vector_2" d="M133.017 147.962C132.976 147.062 132.717 146.13 132.529 145.252C132.329 144.321 132.104 143.394 131.857 142.475C130.869 138.813 129.495 135.256 127.798 131.865C127.208 130.685 125.441 131.723 126.03 132.9C127.429 135.694 128.582 138.6 129.478 141.595C129.923 143.082 130.304 144.589 130.621 146.109C130.7 146.489 130.776 146.869 130.847 147.251C130.886 147.458 130.937 147.667 130.959 147.876C130.961 147.89 130.963 147.904 130.965 147.917C130.88 147.896 130.77 147.873 130.754 147.867C130.362 147.721 130.006 147.519 129.595 147.424C128.313 147.125 127.765 149.103 129.05 149.401C129.944 149.609 130.669 150.187 131.639 149.935C132.546 149.7 133.06 148.878 133.017 147.962Z" fill="#155640"/>
<path id="Vector_3" d="M28.7987 45.1872C30.0851 45.4491 30.6355 43.4726 29.3433 43.2096C24.9279 42.3115 21.3839 38.7157 20.5343 34.2849C20.43 33.7405 19.7776 33.4305 19.2754 33.5683C18.7067 33.7245 18.4556 34.2838 18.56 34.8293C19.5334 39.902 23.747 44.1582 28.7987 45.1861V45.1872Z" fill="#155640"/>
<path id="Vector_4" d="M29.4935 50.7632C24.7341 50.3211 20.3302 47.4557 17.9167 43.3396C17.2494 42.2026 15.4791 43.2328 16.1487 44.3743C18.9497 49.1508 24.0015 52.3033 29.4935 52.8132C30.045 52.8649 30.5173 52.3056 30.5173 51.7877C30.5173 51.1905 30.0461 50.8138 29.4935 50.7621V50.7632Z" fill="#155640"/>
<path id="Vector_5" d="M85.7298 15.6046C88.8072 17.5432 91.2482 20.3179 92.8316 23.5921C93.0723 24.0906 93.7821 24.2238 94.2327 23.9596C94.7406 23.6622 94.8415 23.0569 94.5996 22.5562C92.8671 18.9753 90.1223 15.9491 86.7628 13.8325C85.6438 13.1274 84.6153 14.9017 85.7298 15.6034V15.6046Z" fill="#155640"/>
<path id="Vector_6" d="M96.0832 21.0816C96.1657 22.3932 98.2135 22.4024 98.1309 21.0816C97.9509 18.2174 96.8078 15.5357 94.8461 13.4409C93.9426 12.4762 92.4968 13.929 93.398 14.8914C94.9745 16.5762 95.9376 18.7755 96.0832 21.0828V21.0816Z" fill="#155640"/>
</g>
</g>
</svg>
