<svg width="150" height="150" viewBox="0 0 150 150" fill="none" xmlns="http://www.w3.org/2000/svg">
<g id="illustration-food-can">
<g id="food-can">
<path id="Vector" d="M28.7567 75.7675C37.6417 78.4084 46.847 79.8966 56.0815 80.5756C65.1596 81.2439 74.3021 81.1396 83.3772 80.4744C92.2729 79.8215 101.175 78.5463 109.75 76.0434C113.979 74.8096 118.12 73.2677 122.108 71.3917C125.819 69.6475 129.516 67.6305 132.489 64.7628C135.449 61.9074 137.478 58.1661 137.668 54.0064C137.757 52.0492 137.372 50.0797 136.506 48.3201C135.585 46.4472 134.046 44.9927 132.382 43.7803C128.887 41.2345 124.774 39.4504 120.711 38.0342C116.422 36.5399 111.985 35.4946 107.529 34.6347C98.301 32.8553 88.8949 31.9939 79.4964 32C69.9861 32.0077 60.4803 32.9013 51.1171 34.5627C43.4475 35.9237 35.171 37.5284 28.7505 42.2246C27.2071 43.3542 25.794 44.6263 24.5648 46.0931C24.0912 46.6602 24.0099 47.4741 24.5648 48.0289C25.0522 48.5163 26.0239 48.5991 26.5005 48.0289C31.2565 42.3457 38.5598 39.9961 45.558 38.445C54.299 36.5077 63.2269 35.3444 72.1686 34.9152C79.2297 34.578 86.323 34.7083 93.3658 35.3628C84.1466 34.7405 74.8754 35.0271 65.7129 36.2318C56.7651 37.4089 47.7053 39.2604 39.2158 42.3794C34.8614 43.9795 30.6541 46.1268 27.4048 49.5064C26.1833 50.777 28.116 52.7143 29.3406 51.4422C32.0458 48.6297 35.5036 46.7277 39.1177 45.3314C43.1379 43.7772 47.3406 42.6415 51.5263 41.6299C60.3485 39.498 69.3669 38.2411 78.4358 37.884C83.5611 37.6817 88.6956 37.7675 93.8133 38.1293C95.4931 38.2488 95.559 35.7536 94.0325 35.4241C95.7522 35.5911 97.4672 35.7904 99.1793 36.0218C103.603 36.6196 108.006 37.4258 112.347 38.4665C116.059 39.3569 119.754 40.439 123.273 41.9319C122.711 41.7204 122.131 41.5472 121.546 41.4092C118.589 40.7088 115.487 40.413 112.452 40.3762C105.518 40.2919 98.6398 41.8001 92.345 44.6938C91.6737 45.0034 91.5066 45.9736 91.8545 46.5667C92.2576 47.2564 93.0531 47.3683 93.7275 47.0572C98.4911 44.8654 103.684 43.5565 108.915 43.2086C111.586 43.0308 114.275 43.0906 116.935 43.3925C119.297 43.6607 122.102 43.9581 124.092 45.3774C125.69 46.5177 126.481 48.6251 125.062 50.2268C123.538 51.9449 121.032 52.9397 118.963 53.8118C114.232 55.8073 109.111 56.9093 103.981 57.0672C102.166 57.1224 100.347 57.0672 98.5386 56.8894C101.063 57.081 103.618 56.543 105.932 55.5422C108.336 54.503 110.48 52.8569 112.088 50.7908C113.003 49.6152 113.594 48.1454 112.719 46.766C112.031 45.6793 110.716 45.2241 109.5 45.0739C106.197 44.6677 102.631 45.7023 99.7893 47.3469C98.2658 48.2297 99.6421 50.5962 101.17 49.7103C103.048 48.6236 105.151 47.9293 107.321 47.7821C108.179 47.7239 109.175 47.6304 109.992 47.9707C110.109 48.0197 110.374 48.1377 110.406 48.2052C110.492 48.3922 110.166 48.8274 110.006 49.039C107.726 52.0752 103.897 54.0018 100.125 54.175C98.767 54.2363 94.903 54.0585 95.743 51.7534C95.9959 51.059 95.4594 50.2544 94.7866 50.0705C94.0248 49.8605 93.3566 50.3295 93.1037 51.0269C93.1006 51.0361 93.0975 51.0452 93.0945 51.0544C93.0684 50.6284 92.8615 50.2283 92.4446 49.9846C91.8515 49.6382 90.8859 49.8022 90.5717 50.4751C89.3854 53.0194 88.5531 56.4725 91.5434 58.1539C92.7435 58.8283 94.1919 59.0229 95.5299 59.2375C97.0074 59.475 98.4957 59.6498 99.9901 59.7417C105.938 60.1096 112.009 59.2559 117.622 57.2511C120.324 56.2855 123.203 55.1375 125.534 53.4316C127.787 51.784 129.291 49.206 128.204 46.3981C127.494 44.5604 126.11 43.299 124.456 42.453C126.271 43.2806 128.041 44.2156 129.727 45.2839C131.335 46.3031 132.898 47.5093 133.866 49.1846C135.644 52.2683 135.069 56.2487 133.387 59.2421C131.534 62.545 128.383 64.89 125.157 66.7415C121.567 68.803 117.736 70.4644 113.838 71.8485C105.879 74.6732 97.5301 76.3101 89.1447 77.2159C80.462 78.1555 71.6797 78.4666 62.951 78.1953C54.1135 77.9194 45.2898 76.96 36.6592 75.0027C32.4137 74.0402 28.2126 72.8508 24.1157 71.3764C21.1024 70.2928 17.9972 68.8827 15.7472 66.5377C14.6942 65.4403 13.9401 64.1513 13.5554 62.6768C13.111 60.974 10.4701 61.6959 10.9161 63.4049C12.9194 71.0852 22.0787 73.7842 28.7536 75.7691L28.7567 75.7675ZM95.3429 56.4419C94.4202 56.2717 92.7864 56.1675 92.3067 55.1942C91.8254 54.2149 92.4891 52.8201 92.9121 51.9127C92.814 53.0423 93.26 54.1811 94.011 55.044C94.9184 56.0878 96.261 56.5767 97.5929 56.7852C96.8404 56.6932 96.0894 56.5798 95.3429 56.4419Z" fill="#155640"/>
<path id="Vector_2" d="M111.181 52.1534C110.663 52.8769 111.206 53.9574 112 54.1643C115.272 55.0134 118.826 54.0111 121.26 51.6829C122.405 50.5886 123.938 48.6405 123.444 46.9545C123.153 45.9583 122.263 45.5123 121.335 45.2456C120.249 44.9314 119.147 44.68 118.037 44.4655C117.424 44.3459 116.937 44.6065 116.641 45.0034C116.573 44.9115 116.501 44.8226 116.423 44.7337C115.26 43.4064 113.33 45.3483 114.487 46.6695C115.079 47.3454 114.412 48.5271 113.965 49.0835C113.094 50.1671 111.997 51.0146 111.18 52.155L111.181 52.1534ZM116.872 49.5862C117.249 48.7892 117.442 47.9416 117.396 47.1216C118.14 47.2672 118.879 47.4282 119.613 47.6151C119.916 47.6918 120.31 47.8772 120.637 47.9155C120.401 48.2727 120.241 48.7141 119.971 49.0513C119.617 49.4957 119.191 49.9126 118.738 50.2544C117.718 51.0223 116.509 51.5158 115.258 51.6752C115.884 51.0514 116.481 50.4062 116.871 49.5846L116.872 49.5862Z" fill="#155640"/>
<path id="Vector_3" d="M24.7872 69.0585C27.8908 71.3238 32.0291 71.7499 35.7091 72.3783C44.0377 73.8006 52.4415 74.8183 60.8774 75.3149C77.7278 76.3081 94.7958 75.2 111.197 71.0755C118.949 69.1259 130.268 66.5679 131.361 56.9502C131.446 56.2145 130.673 55.5815 129.993 55.5815C129.183 55.5815 128.708 56.213 128.624 56.9502C128.254 60.1965 125.663 62.7254 122.951 64.2458C119.713 66.0605 115.968 66.9832 112.406 67.935C104.803 69.9658 97.029 71.3376 89.1969 72.1101C73.3842 73.6673 57.3767 72.9101 41.6774 70.5759C39.455 70.2448 37.2372 69.8846 35.0255 69.4938C33.0621 69.1474 31.0666 68.8363 29.1676 68.2094C27.569 67.6821 25.9474 66.8453 24.9649 65.4306C24.1128 64.2045 23.5871 62.5415 24.2844 61.1222C25.0584 59.5466 22.6981 58.158 21.921 59.7413C20.2657 63.1101 21.9088 66.9556 24.7902 69.0585H24.7872Z" fill="#155640"/>
<path id="Vector_4" d="M138.627 58.7676C137.81 58.7676 137.35 59.399 137.258 60.1363C135.678 72.7472 134.751 85.4349 134.48 98.1424C134.21 97.2305 133.046 96.5959 132.24 97.5048C126.289 104.21 118.046 108.244 109.569 110.773C99.7825 113.695 89.5533 114.869 79.3625 114.938C68.9999 115.008 58.6558 113.961 48.4266 112.372C43.1818 111.557 37.9553 110.597 32.807 109.297C30.301 108.664 27.8135 107.955 25.3612 107.138C23.1096 106.388 20.8903 105.519 18.881 104.238C18.0073 103.68 17.0846 103.041 16.4915 102.172C15.8616 101.246 15.7819 100.097 15.67 99.016C15.3895 96.2756 15.109 93.5351 14.8285 90.7947C14.2737 85.3644 13.7173 79.934 13.1625 74.5037C13.023 73.1335 12.882 71.7633 12.7425 70.393C12.6674 69.6573 12.1678 69.0243 11.3738 69.0243C10.6918 69.0243 9.93004 69.6527 10.0051 70.393C10.5814 76.0257 11.1577 81.6598 11.734 87.2925C12.0252 90.1341 12.3149 92.9757 12.6061 95.8188C12.7425 97.1584 12.8651 98.4995 13.0184 99.8376C13.164 101.099 13.3771 102.356 14.0606 103.453C15.3374 105.505 17.7008 106.87 19.8282 107.886C22.1195 108.98 24.5412 109.783 26.9674 110.52C32.1862 112.108 37.5261 113.272 42.8951 114.219C53.4952 116.089 64.2563 117.398 75.0249 117.641C85.6955 117.882 96.4535 117.004 106.818 114.372C115.853 112.078 124.85 108.37 131.748 101.934C132.597 101.142 133.405 100.308 134.175 99.4406C134.371 99.2199 134.478 98.9808 134.516 98.7432C134.86 100.104 137.177 99.9755 137.209 98.3539C137.474 85.5759 138.403 72.8178 139.993 60.1363C140.085 59.4021 139.298 58.7676 138.624 58.7676H138.627Z" fill="#155640"/>
<path id="Vector_5" d="M123.647 87.8823C124.915 89.1054 126.854 87.1727 125.583 85.9465C121.771 82.2665 116.463 79.9062 111.128 81.2565C106.02 82.5501 103.229 87.1144 101.222 91.6206C101.184 91.7064 101.153 91.7937 101.127 91.8826C100.603 92.1371 100.245 92.6812 100.467 93.4077C101.471 96.6708 104.677 98.1789 107.859 98.4778C110.857 98.7583 114.131 98.4349 117.058 97.7483C119.733 97.1199 122.432 95.929 124.288 93.8399C124.757 93.3126 125.097 92.698 125.539 92.1555C125.588 92.0957 125.64 92.0374 125.693 91.9838C125.724 91.9961 125.759 92.0083 125.802 92.0252C126.251 92.206 126.749 92.3164 127.22 92.4176C128.665 92.7287 130.986 93.2207 132.174 92.0482C132.934 91.2987 132.872 90.3101 132.774 89.3368C132.662 88.2425 132.528 87.1528 132.377 86.063C132.083 83.9326 131.706 81.8175 131.254 79.7146C130.978 78.4318 129.402 78.5421 128.753 79.3882C127.775 80.6603 126.797 81.9309 125.819 83.203C125.368 83.79 125.729 84.7357 126.309 85.076C127.015 85.4883 127.73 85.1725 128.182 84.5855C128.513 84.1548 128.846 83.7226 129.177 83.2919C129.301 83.974 129.418 84.6575 129.525 85.3427C129.642 86.0906 129.747 86.8401 129.839 87.5911C129.933 88.3467 129.916 89.1958 130.068 89.9499C130.016 89.9438 130 89.9499 130.074 89.9775C130.074 89.9806 130.074 89.9836 130.075 89.9867C129.783 89.9177 129.353 89.9836 129.062 89.9561C128.325 89.8886 127.6 89.7185 126.893 89.5024C126.103 89.2602 125.33 89.1039 124.55 89.4809C123.908 89.7905 123.48 90.3208 123.088 90.9017C120.323 94.9833 115.02 95.6423 110.457 95.791C108.072 95.8692 104.604 95.7144 103.362 93.3142C103.452 93.2268 103.528 93.1241 103.581 93.0046C104.387 91.1929 105.307 89.2863 106.524 87.6677C106.529 87.7321 106.536 87.798 106.549 87.8624C106.789 89.1223 107.03 90.3821 107.269 91.642C107.407 92.3685 108.28 92.7823 108.952 92.5984C109.712 92.39 110.046 91.6435 109.908 90.9155C109.668 89.6556 109.428 88.3958 109.188 87.1359C109.074 86.5366 108.461 86.1519 107.873 86.1381C108.907 85.1495 110.129 84.3771 111.606 83.9663C116.045 82.7294 120.481 84.8353 123.641 87.8869L123.647 87.8823ZM125.626 91.9578C125.546 91.9501 125.496 91.9148 125.626 91.9578Z" fill="#155640"/>
<path id="Vector_6" d="M22.7069 96.5376C22.6334 95.8019 22.1306 95.1689 21.3382 95.1689C20.6547 95.1689 19.896 95.7973 19.9695 96.5376C20.7727 104.613 29.9121 108.266 36.9824 108.83C40.7237 109.129 44.56 108.234 47.4967 105.826C50.1896 103.619 51.6012 100.142 51.0464 96.6878C50.8962 95.7498 50.5774 94.8271 50.1084 94.001C49.8769 93.5948 49.5826 93.2362 49.319 92.853C49.0952 92.5281 48.9389 92.4177 49.0861 92.1081C49.296 91.6698 49.6915 91.305 49.929 90.8758C50.1881 90.4099 50.4011 89.9056 50.562 89.3983C50.8732 88.4082 50.9651 87.3338 50.8395 86.3069C50.7383 85.4884 50.0379 84.67 49.1075 84.9872L44.8466 86.4402C44.1845 86.6655 43.5209 86.8924 42.8587 87.1177C42.2641 87.32 41.6295 87.6051 40.9889 87.5576C40.2976 87.507 39.6248 87.1698 38.981 86.9399C38.3664 86.7192 37.7411 86.5307 37.1035 86.382C35.7624 86.0678 34.3722 85.8992 32.9943 85.8931C32.2939 85.89 31.595 85.9298 30.9007 86.0141C30.3474 86.08 29.6347 86.3314 29.0845 86.2257C28.6492 86.1429 28.3457 85.7122 28.0484 85.4133C27.5947 84.9581 27.1134 84.5428 26.6046 84.1519C24.5523 82.5732 22.1751 81.672 19.6216 81.3348C18.7373 81.2183 18.0659 82.302 18.302 83.0668C18.8522 84.8447 19.4024 86.6241 19.9527 88.4021C20.4723 90.0804 23.1146 89.3646 22.592 87.674C22.2686 86.6287 21.9452 85.585 21.6218 84.5397C23.2342 85.0807 24.7301 85.9927 25.9363 87.1729C26.9142 88.1277 27.7832 88.9661 29.2561 88.9584C29.8998 88.9554 30.542 88.7898 31.1781 88.7193C31.8739 88.6442 32.5744 88.6182 33.2748 88.6335C34.6052 88.6626 35.9111 88.8649 37.1878 89.2328C38.5335 89.6206 39.824 90.3302 41.2601 90.2965C42.7254 90.2612 44.2075 89.5439 45.5731 89.078C46.3793 88.8036 47.1855 88.5277 47.9917 88.2534C47.7894 89.0397 47.3955 89.7585 46.8621 90.5218C46.3747 91.2176 46.1341 92.0422 46.3195 92.8867C46.5004 93.7082 47.0522 94.3106 47.5043 94.9896C49.037 97.2947 48.5971 100.474 46.8989 102.57C42.6733 107.784 34.4688 106.465 29.1274 103.986C26.0957 102.581 23.061 100.09 22.7069 96.533V96.5376Z" fill="#155640"/>
<path id="Vector_7" d="M31.4331 104.106C31.7703 103.953 32.086 103.755 32.3772 103.527C32.7252 104.089 33.1896 104.587 33.8011 104.989C35.2771 105.959 36.6504 103.589 35.1821 102.625C34.3682 102.09 34.2517 101.028 34.2287 100.136C34.2119 99.4603 33.7214 98.8733 33.0424 98.792C32.4309 98.72 31.6492 99.0924 31.5404 99.773C31.3902 100.719 30.9243 101.344 30.0506 101.742C29.3778 102.049 29.2138 103.022 29.5602 103.615C29.9648 104.307 30.7572 104.414 31.4331 104.106Z" fill="#155640"/>
<path id="Vector_8" d="M27.8019 92.8428C27.0432 92.8765 26.4562 93.4436 26.4332 94.2115C26.4117 94.9548 26.5021 95.7058 26.6815 96.4262C26.8547 97.1205 27.6746 97.6064 28.3644 97.3826C29.0847 97.1496 29.5047 96.4431 29.3208 95.6997C29.2886 95.5694 29.2579 95.4407 29.2319 95.3089C29.2196 95.246 29.2089 95.1817 29.1997 95.1188C29.1997 95.1081 29.1966 95.0958 29.1951 95.079C29.1874 94.7878 29.1614 94.5042 29.1705 94.213C29.192 93.4972 28.5268 92.8121 27.8019 92.8443V92.8428Z" fill="#155640"/>
<path id="Vector_9" d="M37.8988 94.8574C37.1171 94.8574 36.5806 95.4858 36.5301 96.2261C36.4626 97.2362 36.5638 98.2462 36.7952 99.2317C36.9638 99.9521 37.7853 100.378 38.4781 100.188C39.2153 99.9858 39.6031 99.2271 39.4345 98.5052C39.2567 97.7496 39.2138 97.0032 39.2675 96.2276C39.3165 95.4889 38.6023 94.859 37.8988 94.859V94.8574Z" fill="#155640"/>
<path id="Vector_10" d="M84.274 87.8007C83.146 87.209 81.8401 87.2734 80.6186 87.4451C78.2015 87.7853 75.9377 88.8996 74.1644 90.5687C72.9275 89.4207 71.3274 88.7371 69.5863 88.6988C67.2673 88.6482 65.1507 89.9096 63.9061 91.8347C60.9358 96.4297 64.72 101.262 68.472 103.865C69.5679 104.625 70.745 105.218 71.9604 105.761C73.1161 106.276 74.3407 106.772 75.3676 107.529C75.386 107.833 75.5071 108.129 75.7523 108.374C76.2412 108.863 77.2083 108.941 77.6881 108.374C80.801 104.689 85.7623 102.491 87.2536 97.5746C87.9479 95.2848 87.6889 92.7926 86.6834 90.6392C86.1684 89.5387 85.3776 88.38 84.2771 87.8022L84.274 87.8007ZM76.8635 105.275C74.94 103.966 72.713 103.278 70.7205 102.064C68.7816 100.884 66.6879 99.1702 65.8772 96.9753C65.1522 95.0135 65.9093 92.8401 67.7777 91.8393C69.4284 90.9549 71.7106 91.5619 72.7896 93.07C73.2187 93.6709 73.982 93.959 74.6625 93.5605C74.7453 93.513 74.8219 93.4517 74.8924 93.3842C75.1438 93.3444 75.3936 93.2172 75.6205 92.9796C77.2053 91.3105 79.3832 90.1855 81.7068 90.069C82.2494 90.0415 82.7858 90.0215 83.2257 90.3817C83.6349 90.7158 83.9169 91.2354 84.1591 91.6968C84.7032 92.7329 84.9362 93.9115 84.907 95.0763C84.7844 99.751 80.0254 102.291 76.8666 105.278L76.8635 105.275Z" fill="#155640"/>
</g>
</g>
</svg>
