<svg width="150" height="150" viewBox="0 0 150 150" fill="none" xmlns="http://www.w3.org/2000/svg">
<g id="illustration-cat-face">
<g id="cat">
<path id="Vector" d="M25.2064 35.9887C26.4549 40.5045 28.0217 44.9247 29.865 49.2309C30.3156 50.2842 30.7846 51.3296 31.2694 52.3672C31.5366 52.9397 32.3606 53.0851 32.8703 52.7864C33.4572 52.4432 33.5581 51.7606 33.2895 51.1855C31.3585 47.0496 29.713 42.7867 28.3597 38.4281C27.6929 36.2796 27.0968 34.1075 26.5741 31.9197C26.4824 31.5345 26.3605 31.1336 26.3881 30.7327C26.4077 30.4498 26.3881 30.455 26.5924 30.4576C27.5632 30.4681 28.5667 30.7209 29.5165 30.903C37.6861 32.4751 45.4626 35.8485 52.1898 40.7456C53.0191 41.3495 53.8064 42.0504 54.7523 42.467C55.9039 42.974 56.9951 42.8076 58.1808 42.5286C60.3004 42.0281 62.4398 41.6168 64.5948 41.2997C68.9534 40.6565 73.3801 40.4207 77.7833 40.5425C82.1537 40.663 86.507 41.1517 90.7922 42.0163C92.9656 42.4552 95.1194 42.9871 97.2469 43.612C98.3107 43.9238 99.3679 44.2592 100.416 44.6181C101.402 44.9548 102.393 45.433 103.412 45.6544C104.59 45.9112 105.595 45.5758 106.681 45.15C107.765 44.7229 108.857 44.309 109.951 43.9081C112.14 43.105 114.349 42.3517 116.572 41.6495C120.98 40.2569 125.451 39.0648 129.967 38.0757C130.392 37.9826 130.819 37.8936 131.244 37.8045C128.996 43.6251 126.347 49.2833 123.323 54.7423C122.593 56.0603 124.612 57.2419 125.343 55.9227C128.789 49.7025 131.749 43.2203 134.21 36.5494C134.545 35.6442 133.566 34.9551 132.772 35.111C123.425 36.9411 114.388 39.7172 105.499 43.1155C105.075 43.2779 104.61 43.4771 104.144 43.4247C103.588 43.3631 103.014 43.067 102.494 42.877C101.416 42.484 100.327 42.1146 99.2317 41.7714C97.0793 41.0954 94.8954 40.515 92.6918 40.0316C88.2612 39.0582 83.7388 38.4647 79.206 38.2564C74.6968 38.0495 70.1705 38.2316 65.6927 38.808C63.4289 39.0988 61.1769 39.4748 58.9458 39.9582C58.4035 40.0761 57.8637 40.2019 57.324 40.329C56.8301 40.4456 56.3467 40.5766 55.8515 40.4036C54.903 40.0735 54.0789 39.2429 53.2759 38.6613C46.3679 33.6542 38.2992 30.1851 29.9148 28.6065C28.0794 28.2606 25.1003 27.3397 24.2278 29.6899C23.8845 30.6148 24.0915 31.6157 24.3129 32.5419C24.5893 33.6961 24.8841 34.845 25.2011 35.9887H25.2064Z" fill="#155640"/>
<path id="Vector_2" d="M93.2683 67.2745C92.8163 70.2234 92.494 73.1894 92.3224 76.1685C92.2359 77.6725 94.5757 77.6672 94.6622 76.1685C94.822 73.399 95.1037 70.6387 95.5242 67.8968C95.6198 67.2732 95.3657 66.6391 94.7067 66.4583C94.1526 66.3063 93.3639 66.647 93.2683 67.2758V67.2745Z" fill="#155640"/>
<path id="Vector_3" d="M59.3493 64.6494L58.6641 73.4583C58.5475 74.9596 60.8873 74.9518 61.0039 73.4583L61.6891 64.6494C61.8057 63.1481 59.4659 63.1559 59.3493 64.6494Z" fill="#155640"/>
<path id="Vector_4" d="M66.0175 100.067C64.5555 99.7093 63.9319 101.965 65.3952 102.323C69.273 103.271 72.3871 100.831 74.8801 98.1621C76.3867 101.909 80.3772 104.583 84.4502 104.342C85.9463 104.253 85.9567 101.913 84.4502 102.002C80.7021 102.223 77.2605 99.446 76.6264 95.7568C76.519 95.1332 75.7539 94.7847 75.188 94.9393C75.0701 94.9721 74.9653 95.0192 74.8723 95.0782C74.6299 95.0965 74.3849 95.2105 74.1714 95.4568C72.1735 97.7481 69.4525 100.905 66.0175 100.066V100.067Z" fill="#155640"/>
<path id="Vector_5" d="M74.8985 90.8545C75.712 90.8742 76.2688 90.1746 76.8125 89.6623C77.4138 89.0951 78.0151 88.5278 78.6165 87.9606C79.2125 87.3986 78.9767 86.1514 78.1003 86.0046C76.6003 85.7557 75.0911 85.5736 73.574 85.4701C73.1377 85.44 72.8286 85.6169 72.6465 85.8854C72.6439 85.8867 72.6399 85.888 72.636 85.8907C72.0386 86.2391 71.9613 86.9099 72.2168 87.4916C72.5246 88.1925 72.8639 88.8763 73.2491 89.5379C73.6251 90.1851 74.0679 90.8335 74.8972 90.8532L74.8985 90.8545ZM75.1133 88.0798C75.0871 88.0326 75.0609 87.9855 75.0347 87.9383C75.1042 87.9448 75.1736 87.9527 75.2417 87.9593C75.1985 87.9999 75.1553 88.0392 75.112 88.0798H75.1133Z" fill="#155640"/>
<path id="Vector_6" d="M148.831 84.0185C145.049 83.5796 141.249 83.294 137.445 83.163C136.058 78.904 134.197 74.8022 131.877 70.9506C130.654 68.9186 129.298 66.9771 127.846 65.1011C127.46 64.6007 126.599 64.6937 126.191 65.1011C125.698 65.595 125.804 66.254 126.191 66.7557C129.993 71.6685 132.955 77.2245 134.972 83.1001C130.678 83.0281 126.383 83.1512 122.1 83.4774C119.587 83.6687 117.081 83.9307 114.583 84.2556C113.957 84.3368 113.413 84.7351 113.413 85.4255C113.413 85.994 113.952 86.6779 114.583 86.5954C121.589 85.6823 128.661 85.2984 135.722 85.4517C135.961 86.2548 136.182 87.0644 136.384 87.8766C136.925 90.0487 137.347 92.2535 137.623 94.4754C137.702 95.1016 138.105 95.6453 138.793 95.6453C139.364 95.6453 140.041 95.1069 139.963 94.4754C139.586 91.4465 138.983 88.4544 138.159 85.525C139.207 85.5657 140.254 85.6181 141.3 85.6836C143.816 85.8395 146.326 86.0674 148.828 86.3569C149.457 86.4303 149.998 85.7674 149.998 85.187C149.998 84.494 149.458 84.0905 148.828 84.0172L148.831 84.0185Z" fill="#155640"/>
<path id="Vector_7" d="M147.032 100.769C136.89 98.4213 126.708 96.24 116.494 94.2278C115.023 93.9382 114.394 96.1929 115.872 96.4837C126.087 98.4973 136.267 100.679 146.41 103.025C147.874 103.364 148.501 101.108 147.032 100.769Z" fill="#155640"/>
<path id="Vector_8" d="M139.451 121.57C135.252 117.809 130.834 114.295 126.227 111.05C128.303 110.069 130.337 108.996 132.313 107.821C133.223 107.28 134.119 106.717 135.002 106.134C136.254 105.308 135.083 103.282 133.821 104.114C130.685 106.181 127.388 107.963 123.98 109.502C120.977 107.471 117.899 105.552 114.748 103.755C113.438 103.007 112.258 105.028 113.568 105.775C116.24 107.3 118.86 108.911 121.425 110.604C118.098 111.97 114.679 113.12 111.21 114.092C103.085 116.371 94.7119 117.754 86.3366 118.708C81.7095 119.234 77.0404 119.567 72.3844 119.285C67.883 119.013 63.4747 118.047 59.1803 116.695C51.6042 114.311 44.1721 111.053 37.3939 106.901C32.4864 103.896 27.8644 100.295 24.0286 95.9886C24.0823 95.9689 24.136 95.9506 24.1897 95.9309C25.6006 95.4331 24.9928 93.1719 23.5674 93.675C23.1849 93.8099 22.8036 93.9488 22.4211 94.0851C21.8604 93.3829 21.3207 92.6649 20.8045 91.9274C20.27 91.1662 19.763 90.3867 19.2756 89.5941C18.4896 88.3129 16.4655 89.4867 17.2555 90.7745C18.1372 92.213 19.0975 93.5938 20.1259 94.9183C15.2367 96.717 10.3986 98.6519 5.61558 100.719C5.03522 100.969 4.90421 101.821 5.19635 102.32C5.54745 102.919 6.21428 102.991 6.79726 102.739C11.7008 100.621 16.6686 98.6533 21.6888 96.8283C25.1054 100.803 29.1391 104.237 33.499 107.177C40.1568 111.666 47.5469 115.058 55.0863 117.775C59.3702 119.32 63.776 120.584 68.2944 121.21C73.0539 121.869 77.8513 121.823 82.6305 121.418C91.3961 120.677 100.218 119.305 108.753 117.164C113.86 115.883 118.909 114.259 123.751 112.171C128.66 115.553 133.355 119.241 137.801 123.224C138.92 124.226 140.58 122.576 139.456 121.569L139.451 121.57Z" fill="#155640"/>
<path id="Vector_9" d="M3.55743 69.0238C8.19769 69.6264 12.7986 70.5369 17.3249 71.7291C15.7122 74.04 14.2083 76.4256 12.8248 78.882C12.086 80.196 14.1061 81.3764 14.845 80.0624C16.3345 77.4147 17.9642 74.8549 19.721 72.388C23.1115 73.3614 26.4574 74.4933 29.7417 75.7785C30.33 76.009 31.0256 75.5256 31.1802 74.961C31.3623 74.2981 30.9535 73.7531 30.3627 73.5225C27.3469 72.3435 24.2853 71.302 21.187 70.3902C23.587 67.2198 26.2085 64.2171 29.0356 61.4057C30.1046 60.342 28.45 58.6873 27.381 59.7511C24.267 62.8481 21.3901 66.1809 18.7765 69.7076C13.7825 68.3596 8.69813 67.3521 3.55612 66.684C2.9286 66.6028 2.38623 67.2801 2.38623 67.8539C2.38623 68.5535 2.92598 68.9412 3.55612 69.0238H3.55743Z" fill="#155640"/>
<path id="Vector_10" d="M30.93 86.0412C31.0872 85.47 30.7374 84.7206 30.1125 84.6027C20.5648 82.7961 10.8467 81.9446 1.12993 82.0926C-0.374023 82.1162 -0.379263 84.4547 1.12993 84.4324C10.6384 84.287 20.1456 85.0901 29.4903 86.8587C30.1099 86.9766 30.7518 86.6857 30.9287 86.0412H30.93Z" fill="#155640"/>
<path id="Vector_11" d="M25.3898 121.371C23.6238 120.547 21.5945 120.514 19.7827 121.23C17.6997 122.052 16.032 123.672 15.3586 125.832C14.9105 127.273 17.1678 127.889 17.6145 126.454C18.4071 123.909 21.6037 122.344 24.1007 123.344C28.1409 124.961 24.8212 130.382 23.2452 132.693C22.1356 134.32 20.8504 135.815 19.5482 137.291C18.4281 136.65 17.211 136.218 15.9363 135.893C14.249 135.465 12.4987 135.211 10.8755 134.558C9.59168 134.042 8.26851 133.24 7.56894 132.007C6.8877 130.809 7.03181 129.29 7.91217 128.227C9.05193 126.847 11.0419 126.783 12.4516 127.767C12.9703 128.128 13.7511 127.861 14.0525 127.348C14.3931 126.765 14.152 126.11 13.6332 125.747C11.9157 124.547 9.57465 124.439 7.72614 125.406C5.93397 126.344 4.80863 128.368 4.7929 130.367C4.76015 134.642 9.19473 136.725 12.7424 137.556C14.9223 138.065 17.3944 138.386 19.1997 139.829C19.6923 140.223 20.3722 140.311 20.8543 139.829C21.0666 139.616 21.191 139.284 21.1936 138.959C22.6046 137.355 23.9946 135.727 25.2051 133.966C26.5439 132.018 27.7898 129.765 28.2234 127.416C28.4566 126.154 28.437 124.873 27.8658 123.7C27.3654 122.672 26.4182 121.852 25.3911 121.372L25.3898 121.371Z" fill="#155640"/>
<path id="Vector_12" d="M132.008 26.5865C132.283 26.7359 132.552 26.7647 132.793 26.7136C132.832 26.7437 132.873 26.7726 132.917 26.8001C133.962 27.4433 135.091 27.1302 136.165 26.7516C137.179 26.3939 138.185 26.018 139.173 25.5922C141.077 24.7708 142.984 23.6651 144.315 22.0406C145.591 20.4829 146.449 18.4811 146.377 16.4387C146.305 14.3885 145.245 12.2059 143.225 11.4605C140.634 10.5041 138.277 12.3238 136.491 13.9811C135.386 15.0082 137.043 16.6588 138.146 15.6357C139.324 14.5418 141.605 12.4732 143.16 14.1579C144.315 15.409 144.197 17.3335 143.589 18.8074C142.845 20.6113 141.311 21.8664 139.638 22.7795C138.714 23.2838 137.748 23.6887 136.762 24.0568C136.29 24.2336 135.815 24.4026 135.338 24.5677C134.999 24.6856 134.435 24.9896 134.097 24.7813C133.812 24.6057 133.533 24.569 133.284 24.6254C133.253 24.6044 133.221 24.5847 133.187 24.5664C129.957 22.8175 125.639 20.0336 126.315 15.7195C126.589 13.9719 127.997 12.5976 129.752 12.3553C131.569 12.105 133.215 13.2684 133.931 14.8811C134.188 15.4588 135.029 15.5951 135.532 15.3003C136.127 14.9518 136.21 14.2798 135.952 13.6994C135.179 11.9623 133.534 10.6129 131.686 10.1675C129.703 9.68929 127.627 10.2592 126.084 11.5705C122.753 14.4029 123.717 19.3654 126.252 22.3511C127.804 24.1812 129.917 25.4559 132.004 26.5865H132.008Z" fill="#155640"/>
</g>
</g>
</svg>
