<svg width="150" height="150" viewBox="0 0 150 150" fill="none" xmlns="http://www.w3.org/2000/svg">
<g id="illustration-paw">
<g id="paw">
<path id="Vector" d="M113.59 97.7366C112.641 96.3823 111.479 95.2492 110.101 94.3361C108.693 93.4038 107.141 92.7196 105.69 91.8627C104.2 90.9829 102.998 89.8677 102.009 88.4456C100.995 86.9877 100.132 85.4287 99.1523 83.9478C97.2276 81.0383 95.0702 78.2747 92.717 75.7003C90.3792 73.1425 87.8381 70.7689 85.1256 68.614C83.7598 67.5282 82.3645 66.4246 80.8746 65.5114C79.3642 64.5855 77.6659 64.0228 75.8934 64.3988C72.5184 65.1137 70.6333 68.5667 69.7049 71.5836C68.6831 74.9061 68.3621 78.3795 66.665 81.4731C63.3604 87.4967 57.356 91.3115 52.2418 95.6367C47.0636 100.017 42.2525 105.707 42.1131 112.844C42.0811 114.489 42.3445 116.147 42.9149 117.69C43.1285 118.268 43.6886 118.66 44.3191 118.488C44.8754 118.334 45.332 117.664 45.1172 117.084C42.8356 110.917 46.3167 104.571 50.592 100.242C55.2625 95.5127 61.1172 92.1006 65.4897 87.0567C67.619 84.6013 69.3378 81.8325 70.2765 78.7044C71.2101 75.5928 71.439 72.1591 73.1348 69.3225C73.8139 68.1856 74.8357 67.0857 76.1402 66.6944C77.6454 66.243 79.042 67.0167 80.2646 67.8352C82.995 69.664 85.5412 71.8035 87.9187 74.0684C90.3038 76.3397 92.5277 78.7913 94.5381 81.4002C95.551 82.7149 96.5102 84.0731 97.4169 85.4645C98.3275 86.861 99.1383 88.3254 100.099 89.6899C101.087 91.0941 102.225 92.3104 103.651 93.2785C104.99 94.1877 106.47 94.854 107.873 95.6546C110.511 97.1599 112.299 99.3531 113.316 102.217C114.302 104.99 114.81 108.12 114.649 111.064C114.57 112.486 114.244 113.943 113.403 115.117C112.633 116.191 111.451 116.887 110.211 117.286C107.214 118.25 103.81 118.03 100.72 117.779C97.1189 117.486 93.5534 116.782 90.1043 115.709C88.3637 115.168 86.673 114.514 84.9913 113.815C83.2827 113.102 81.4936 112.467 79.6149 112.743C77.8564 113.001 76.474 114.085 75.0544 115.067C73.6374 116.046 72.1667 116.948 70.6525 117.769C67.674 119.384 64.5305 120.668 61.2745 121.604C58.062 122.528 54.4888 123.355 51.243 122.127C49.9411 121.635 48.7684 120.774 48.0138 119.597C47.2235 118.362 45.2463 119.506 46.0418 120.749C50.3324 127.454 59.7961 124.798 65.8222 122.485C69.2023 121.187 72.4455 119.543 75.4637 117.541C76.841 116.628 78.2925 115.215 79.9935 114.978C81.8069 114.727 83.6383 115.714 85.2624 116.383C88.7704 117.828 92.4421 118.873 96.1841 119.498C99.834 120.108 103.657 120.458 107.355 120.129C110.484 119.85 113.679 118.866 115.486 116.106C117.305 113.329 117.098 109.718 116.669 106.576C116.248 103.488 115.404 100.323 113.595 97.7379L113.59 97.7366Z" fill="#155640"/>
<path id="Vector_2" d="M42.4635 88.1374C40.4135 88.186 39.4211 85.6538 38.7561 84.1243C38.5105 83.559 37.6805 83.4298 37.1933 83.715C36.6088 84.0565 36.5372 84.71 36.784 85.2778C37.6793 87.3394 38.7817 89.3677 41.0197 90.1759C43.2385 90.9765 45.2643 89.7117 46.3309 87.7844C47.4371 85.7843 48.0778 83.4222 48.4883 81.1867C48.9155 78.8591 49.0715 76.4817 48.9116 74.1183C48.7518 71.7614 48.3144 69.4108 47.5624 67.1702C46.8629 65.0843 45.8897 62.9345 44.1389 61.5188C42.3651 60.0839 40.017 59.4496 37.8519 60.3627C35.7929 61.2323 34.4667 63.1072 33.7275 65.1534C32.8093 67.6984 32.565 70.5937 32.4947 73.2794C32.4192 76.185 32.7121 79.0957 33.3196 81.9361C33.6265 83.3723 35.8287 82.7648 35.5218 81.3286C34.6253 77.1301 34.5025 72.7397 35.2417 68.5053C35.5474 66.7558 35.9899 64.8656 37.2432 63.533C38.3878 62.3156 39.9838 61.8398 41.5479 62.5521C43.1925 63.3016 44.2194 64.8951 44.8934 66.5103C45.6595 68.3442 46.148 70.3213 46.437 72.2844C47.0125 76.185 46.6404 80.2326 45.428 83.9785C44.9868 85.3405 44.277 88.0965 42.4623 88.1387L42.4635 88.1374Z" fill="#155640"/>
<path id="Vector_3" d="M64.565 64.5012C63.6148 65.8722 62.1083 66.1906 60.6695 65.3389C59.0505 64.381 58.2742 62.4793 57.5849 60.8206C57.3483 60.2515 56.8278 59.8448 56.1807 60.0226C55.6435 60.1697 55.1448 60.8539 55.3826 61.4268C56.1858 63.3566 57.0311 65.4029 58.7154 66.7418C60.337 68.0309 62.4727 68.5642 64.4013 67.6307C66.1175 66.7994 67.0984 64.9552 67.6752 63.2236C68.362 61.1621 68.6676 58.9279 68.7597 56.7627C68.9515 52.2726 68.0717 47.6469 66.326 43.5097C65.505 41.5633 64.2772 39.6577 62.2924 38.7433C60.3357 37.843 58.2332 38.0796 56.5809 39.4749C54.8135 40.9673 53.8007 43.3742 53.0832 45.515C52.2814 47.9065 51.9207 50.454 51.9898 52.9747C52.0294 54.4416 54.3135 54.448 54.2738 52.9747C54.1754 49.3632 55.0054 45.5214 56.9979 42.4636C57.7741 41.273 58.9545 40.2013 60.4777 40.5172C62.075 40.8484 63.1301 42.1643 63.8399 43.543C64.6852 45.1838 65.2223 47.0215 65.6597 48.8068C66.1137 50.6612 66.3976 52.5476 66.4769 54.4556C66.5524 56.2717 66.4628 58.1017 66.1406 59.8922C65.8566 61.4665 65.4947 63.161 64.5675 64.4987L64.565 64.5012Z" fill="#155640"/>
<path id="Vector_4" d="M94.7734 57.6086C94.3897 59.1561 93.8066 60.7547 92.6786 61.9235C91.6338 63.0055 90.1899 63.5068 88.8931 62.5195C87.3265 61.3263 87.0362 59.1151 86.7331 57.3094C86.6308 56.7006 85.8788 56.3604 85.3289 56.5113C84.6843 56.6891 84.4286 57.3055 84.5309 57.9155C84.8826 60.0065 85.3417 62.1704 86.8661 63.7498C88.2076 65.1412 90.2257 65.7704 92.0673 65.0466C96.0612 63.4761 97.1994 58.445 97.5447 54.6416C97.9233 50.484 97.6867 46.0501 96.0753 42.1546C95.3144 40.3156 94.3053 38.4139 92.6876 37.19C90.9227 35.8549 88.6271 35.8728 86.6998 36.855C84.6383 37.9049 83.2379 40.0266 82.335 42.0881C81.317 44.4131 80.8017 46.9044 80.8605 49.4455C80.895 50.9124 83.1791 50.9188 83.1446 49.4455C83.0666 46.0501 84.0948 42.0613 86.6564 39.6659C87.7204 38.6723 89.3548 38.0124 90.7641 38.6659C92.1555 39.3117 93.0086 40.9346 93.6378 42.248C95.1225 45.3467 95.4781 48.893 95.3949 52.2872C95.3515 54.0751 95.2082 55.8693 94.776 57.6086H94.7734Z" fill="#155640"/>
<path id="Vector_5" d="M117.437 56.3012C115.993 54.6783 113.843 53.3675 111.606 53.4468C108.922 53.5414 106.814 55.617 105.466 57.7719C104.108 59.9409 103.444 62.5498 103.59 65.1025C103.674 66.5642 105.959 66.5732 105.874 65.1025C105.769 63.275 106.108 61.4436 106.941 59.8054C107.726 58.2605 109.036 56.433 110.766 55.8869C112.439 55.3587 114.146 56.268 115.334 57.4113C116.77 58.7925 117.683 60.6699 118.278 62.5486C119.525 66.4875 119.683 70.8152 118.902 74.8616C118.508 76.9014 117.893 78.9208 117.016 80.8071C116.288 82.3725 115.211 84.2588 113.302 84.4647C112.329 84.5696 111.616 84.026 111.04 83.2971C110.339 82.4108 109.786 81.3749 109.299 80.3595C108.266 78.2071 107.601 75.8962 106.928 73.6134C106.514 72.2066 104.309 72.8052 104.726 74.2209C105.434 76.6277 106.164 79.032 107.231 81.3097C108.168 83.3137 109.46 85.7858 111.691 86.5518C113.99 87.3409 116.348 85.952 117.704 84.1591C119.157 82.2395 120.017 79.7546 120.644 77.4526C121.936 72.7054 122.016 67.5477 120.728 62.789C120.094 60.4435 119.063 58.1313 117.435 56.3012H117.437Z" fill="#155640"/>
<path id="Vector_6" d="M131.793 79.5752C132.009 74.5632 131.779 69.5436 131.095 64.5739C130.418 59.6515 129.264 54.7905 127.572 50.1149C126.762 47.8781 125.86 45.6491 124.772 43.5325C123.909 41.8546 122.851 40.2458 121.447 38.981C121.566 38.7329 121.598 38.4362 121.557 38.1395C121.136 35.1277 119.988 32.2004 118.228 29.7168C117.82 29.1413 117.387 28.4213 116.742 28.0824C115.959 27.6719 115.026 27.966 114.61 28.7372C114.241 29.4227 114.257 30.3703 114.169 31.1287C114.067 32.0162 113.989 32.905 113.931 33.7964C113.835 35.2646 116.119 35.2582 116.215 33.7964C116.265 33.0265 116.329 32.2592 116.412 31.4919C116.424 31.3896 116.43 31.2668 116.435 31.1351C116.598 31.3742 116.757 31.6147 116.908 31.8615C117.342 32.5649 117.731 33.2989 118.062 34.056C118.541 35.1482 118.889 36.2979 119.13 37.4681C117.6 36.7711 115.933 36.4002 114.427 35.5984C112.611 34.6315 111.08 33.2606 109.629 31.8193C106.613 28.8241 103.82 25.618 99.866 23.834C95.9539 22.0691 91.6185 21.5333 87.3867 22.2098C85.3085 22.5423 83.2866 23.2073 81.4079 24.1562C80.4718 24.6294 79.6341 25.2407 78.7312 25.7676C77.758 26.3367 77.0712 26.0643 76.1888 25.462C74.3421 24.1997 72.5108 23.1625 70.3034 22.6561C68.2201 22.1791 66.0563 22.1024 63.9397 22.3709C62.0022 22.6165 60.1542 23.1242 58.3919 23.8416C58.4022 23.8097 58.4124 23.7777 58.4213 23.7432C58.6669 22.7367 58.9815 21.7417 59.4138 20.7979C59.6337 20.3158 59.8767 19.8439 60.1414 19.3835C60.19 19.2991 60.2374 19.2108 60.286 19.1226C60.3844 19.3515 60.4727 19.5791 60.5532 19.7569C60.8154 20.3375 61.0341 20.9373 61.2349 21.5422C61.694 22.9311 63.9001 22.3364 63.4371 20.9347C62.969 19.519 61.4472 14.5416 59.1682 16.7592C58.4047 17.5022 57.8817 18.6877 57.443 19.6456C56.9276 20.771 56.5145 21.9335 56.2204 23.1357C56.0567 23.8058 56.4544 24.2956 56.9596 24.4785C55.0771 25.3891 53.2982 26.5349 51.6228 27.8484C47.9077 30.7616 44.9829 34.3796 41.8573 37.8773C41.145 38.6741 40.3764 39.4043 39.3558 39.7777C38.233 40.1883 37.0308 40.32 35.8773 40.6154C33.6993 41.173 31.7375 42.2958 29.9983 43.7001C26.5082 46.5174 23.9799 50.5421 22.2444 54.6319C20.4233 58.9225 19.4424 63.5112 19.1176 68.1548C18.4155 78.1633 20.9489 88.0567 24.2906 97.4091C27.8037 107.242 32.2644 116.737 35.1585 126.789C35.8581 129.22 36.4604 131.679 36.9362 134.165C37.0526 134.772 37.7802 135.117 38.3404 134.963C38.9747 134.789 39.2548 134.167 39.1384 133.559C37.1996 123.453 33.1456 113.958 29.3844 104.433C25.7064 95.1174 22.1626 85.4772 21.4234 75.406C20.7737 66.56 22.3148 57.2843 27.4444 49.8809C29.8576 46.3985 33.1021 43.5159 37.3339 42.6258C38.4964 42.3815 39.6474 42.1628 40.7345 41.6666C41.7742 41.1909 42.6438 40.4133 43.4035 39.5718C44.9189 37.8927 46.3321 36.1265 47.8757 34.4717C50.9642 31.1632 54.4223 28.0773 58.585 26.1948C62.2618 24.5322 66.6317 23.9363 70.5426 25.0809C71.5081 25.3635 72.4263 25.7523 73.296 26.26C74.2206 26.7997 75.0263 27.5465 75.9995 27.9967C77.1122 28.5108 78.2286 28.5287 79.3476 28.0223C80.303 27.5887 81.133 26.8994 82.055 26.3981C85.5387 24.499 89.6669 23.8365 93.5879 24.366C97.6394 24.9133 101.199 26.7626 104.154 29.5493C107.133 32.3577 109.735 35.7582 113.446 37.6625C115.439 38.6856 117.83 38.9503 119.597 40.3878C121.208 41.6986 122.264 43.5581 123.153 45.4022C125.23 49.7082 126.721 54.316 127.771 58.975C129.939 68.596 129.95 78.4357 128.735 88.1833C128.408 90.8063 128.059 93.4305 127.898 96.0701C127.738 98.7046 127.844 101.325 128.07 103.953C128.302 106.64 128.586 109.322 128.634 112.02C128.683 114.719 128.559 117.417 128.352 120.108C128.15 122.718 127.868 125.322 127.587 127.924C127.52 128.538 128.16 129.066 128.729 129.066C129.402 129.066 129.805 128.541 129.871 127.924C130.459 122.475 131.053 117.003 130.907 111.514C130.834 108.775 130.523 106.052 130.302 103.323C130.082 100.613 130.037 97.9168 130.241 95.2056C130.635 89.9814 131.566 84.8211 131.792 79.579L131.793 79.5752Z" fill="#155640"/>
<path id="Vector_7" d="M29.9497 41.769C30.6224 41.769 31.0252 41.2433 31.0917 40.6269C31.3718 38.0449 31.712 35.4014 32.6085 32.9626C33.019 35.1827 33.4295 37.4029 33.8413 39.623C33.9538 40.2305 34.6879 40.5745 35.2455 40.421C35.8824 40.2458 36.1561 39.6243 36.0435 39.0168C35.4322 35.7109 34.8196 32.4063 34.2083 29.1004C34.0178 28.0671 32.6174 28.0747 32.1212 28.828C29.8141 32.3283 29.2501 36.5511 28.8076 40.6282C28.7411 41.2421 29.3806 41.7702 29.9497 41.7702V41.769Z" fill="#155640"/>
<path id="Vector_8" d="M89.0608 20.3417C89.1081 19.669 89.1567 18.9976 89.2041 18.3249C89.2232 18.0614 89.2168 17.7673 89.2309 17.477C89.4099 17.5742 89.5852 17.679 89.7527 17.7954C90.1658 18.0844 90.5277 18.4502 90.864 18.8249C91.5597 19.6025 92.1122 20.4939 92.6621 21.3763C93.4371 22.6219 95.4143 21.476 94.6342 20.224C93.4857 18.3799 92.1877 16.3797 90.1734 15.3924C89.0711 14.8514 87.5556 14.6737 87.1208 16.1687C86.9481 16.7621 86.9839 17.4604 86.9404 18.0729C86.8867 18.8288 86.833 19.5858 86.7793 20.3417C86.6757 21.8085 88.9598 21.8021 89.0634 20.3417H89.0608Z" fill="#155640"/>
</g>
</g>
</svg>
