<svg width="150" height="150" viewBox="0 0 150 150" fill="none" xmlns="http://www.w3.org/2000/svg">
<g id="illustration-yarn">
<g id="yarn">
<path id="Vector" d="M19.8073 80.4674C18.9796 80.3167 17.9912 80.9609 18.2984 82.0119C20.2482 88.6761 23.0356 95.494 28.5494 100.011C30.3569 101.491 32.3323 102.714 34.3817 103.808C33.5596 104.037 32.9566 105.138 33.7374 105.945C40.8824 113.351 50.8973 117.017 60.8766 118.594C64.2514 119.128 67.6745 119.486 71.1133 119.657C71.0636 119.745 71.0223 119.84 70.9925 119.948C70.8275 120.547 71.1972 121.409 71.8799 121.51C82.0043 123.013 92.4046 122.054 102.05 118.596C102.491 118.438 102.748 118.121 102.856 117.764C109.782 114.865 116.03 110.479 121.141 104.97C126.544 99.1461 130.679 92.1334 133.007 84.5291C135.483 76.4384 135.793 67.766 134.202 59.472C132.601 51.131 128.995 43.201 123.702 36.5566C118.073 29.4913 110.534 23.8837 102.364 20.0865C94.4368 16.4074 85.8015 14.3225 77.0651 14.0338C68.5264 13.7522 59.9138 15.227 52.0321 18.5463C44.772 21.6054 38.1547 26.1464 32.6537 31.7867C27.15 37.4313 22.7839 44.1581 19.9894 51.5349C17.0156 59.3852 15.6176 68.4743 18.2188 76.6247C18.6411 77.9459 19.1716 79.233 19.8073 80.466V80.4674ZM80.0403 119.679C84.7078 119.466 89.3512 118.894 93.8907 117.937C96.0496 117.482 98.1885 116.923 100.293 116.266C100.209 116.364 100.141 116.474 100.091 116.59C93.6376 118.742 86.8339 119.8 80.0403 119.679ZM131.939 78.081C130.612 85.627 127.455 92.7336 122.909 98.8901C119.882 102.987 116.22 106.627 112.109 109.645C111.766 109.162 111.132 108.884 110.463 109.248C100.854 114.486 89.9343 116.787 79.059 117.142C68.9602 117.472 58.439 116.536 48.9546 112.856C44.1619 110.996 39.6991 108.288 36.0427 104.664C36.6628 104.971 37.2871 105.271 37.9129 105.567C41.4527 107.233 45.0237 108.867 48.7199 110.155C56.2901 112.795 64.3637 113.413 72.3307 113.319C80.3546 113.226 88.3813 112.278 96.2103 110.522C100.481 109.565 104.702 108.366 108.829 106.911C112.852 105.492 116.805 103.778 120.326 101.342C120.889 100.952 121.147 100.228 120.781 99.604C120.455 99.0466 119.611 98.7564 119.043 99.149C112.948 103.367 105.54 105.593 98.4217 107.386C90.9838 109.261 83.3653 110.37 75.7012 110.69C68.0386 111.01 60.1413 110.788 52.7077 108.743C49.0285 107.732 45.4973 106.265 42.0301 104.687C38.769 103.202 35.4639 101.719 32.4603 99.7505C29.2889 97.6742 26.7717 94.9436 24.8844 91.6613C23.2589 88.834 22.107 85.7806 21.1456 82.6732C21.2963 82.8126 21.4656 82.9036 21.6433 82.9505C21.5722 83.2534 21.6049 83.572 21.7955 83.8223C25.9895 89.3488 31.8374 93.1574 38.0821 96.0216C43.4992 98.5061 49.1736 100.58 54.9206 102.255C54.9775 102.278 55.0372 102.295 55.0998 102.308C56.5603 102.731 58.0252 103.13 59.4914 103.501C73.9164 107.156 89.0255 107.164 103.416 103.309C109.913 101.568 116.21 99.0594 122.119 95.8467C122.432 95.8069 122.732 95.6604 122.947 95.3902C123.941 94.8355 124.925 94.2624 125.895 93.6665C127.286 92.8132 126.012 90.616 124.614 91.4735C124.473 91.5603 124.329 91.6442 124.187 91.7295C126.633 83.1055 127.155 74.0094 125.777 65.1393C125.672 64.4609 124.821 64.0855 124.216 64.2519C123.492 64.451 123.223 65.1336 123.328 65.8134C124.77 75.0987 123.914 84.6699 120.962 93.5812C117.459 95.4883 113.82 97.1366 110.081 98.5189C111.793 94.6435 112.847 90.5619 113.212 86.3324C113.272 85.6483 112.587 85.0624 111.942 85.0624C111.206 85.0624 110.732 85.6455 110.672 86.3324C110.332 90.2547 109.316 94.1301 107.676 97.7112C107.427 98.2544 107.477 98.8887 107.913 99.2883C101.738 101.38 95.3172 102.753 88.8193 103.363C97.0067 97.879 104.955 91.8661 111.516 84.4751C118.397 76.7228 123.664 67.3764 125.419 57.0714C126.17 52.6641 126.268 48.17 125.575 43.7699C127.506 47.0252 129.069 50.5024 130.221 54.1403C132.656 61.8285 133.333 70.124 131.934 78.0824L131.939 78.081ZM92.3932 81.022C101.947 71.896 109.466 59.819 111.56 46.6241C112.564 40.3012 112.275 33.5416 109.533 27.7193C109.553 27.7165 109.573 27.7122 109.593 27.7094C109.796 27.6781 109.971 27.5799 110.113 27.4406C111.959 28.7177 113.731 30.1 115.417 31.5819C115.348 31.8564 115.388 32.1678 115.597 32.485C118.747 37.2834 118.732 43.3432 117.718 48.8015C116.672 54.4247 114.643 59.819 111.9 64.8293C106.183 75.2708 97.6296 83.8194 88.1722 90.9203C82.5746 95.1228 76.6584 98.8802 70.6554 102.473C70.4165 102.615 70.2572 102.798 70.1619 102.999C67.8665 102.693 65.5825 102.292 63.3142 101.796C62.0385 101.515 60.7657 101.211 59.4971 100.885C71.5471 96.3146 83.0339 89.9632 92.3932 81.0235V81.022ZM122.313 40.5956C124.894 50.1298 123.116 60.331 118.882 69.1228C114.492 78.2389 107.529 85.7707 99.7884 92.169C95.3826 95.8097 90.698 99.0963 85.9295 102.242C85.4033 102.589 85.2724 103.131 85.3876 103.612C85.1629 103.623 84.9382 103.637 84.7135 103.647C81.1353 103.805 77.5586 103.728 74.0003 103.421C84.2726 97.1764 94.3003 90.3031 102.63 81.5767C110.824 72.9939 117.419 62.4528 119.913 50.7427C120.92 46.0155 121.336 40.8345 120.013 36.1414C120.939 37.1852 121.816 38.2647 122.648 39.3796C122.341 39.6555 122.169 40.0751 122.31 40.5956H122.313ZM20.837 57.1809C21.1171 56.1313 21.4328 55.0917 21.7799 54.0621C21.612 63.4896 23.5604 72.883 27.3846 81.497C28.4854 83.9759 29.7497 86.3779 31.1605 88.6946C32.0095 90.0883 34.2067 88.8141 33.3534 87.4133C28.5892 79.5899 25.56 70.7071 24.6285 61.5896C24.3611 58.9742 24.2644 56.3461 24.3255 53.7179C24.354 52.5076 22.9716 52.1948 22.2349 52.775C24.2814 47.2101 27.2907 41.995 31.0382 37.4057C35.7882 31.5904 41.6489 26.7209 48.2577 23.1542C55.2761 19.3669 63.098 17.1853 71.0522 16.6677C71.8486 16.6165 72.645 16.5809 73.4414 16.5596C64.8416 21.2641 56.1977 26.509 49.7325 33.9982C47.8581 36.1698 46.1799 38.5107 44.7777 41.0151C43.9784 42.443 46.1714 43.7243 46.9707 42.2965C51.8074 33.6597 59.827 27.5302 68.1638 22.5C70.5701 21.0479 73.0219 19.6755 75.4893 18.3344C76.2545 17.9177 76.2488 17.1 75.8577 16.5454C82.6044 16.6421 89.3156 17.8537 95.6912 20.0922C99.1371 21.3025 102.483 22.8256 105.665 24.6375C105.392 24.9745 105.305 25.4367 105.598 25.916C98.1416 27.7364 91.3379 31.6957 85.2297 36.2864C77.7506 41.9068 70.836 48.3535 64.3182 55.0519C60.5111 58.9657 56.8533 63.0231 53.3476 67.21C52.9082 67.7362 52.8328 68.4914 53.3476 69.0062C53.7999 69.4584 54.7015 69.5352 55.1438 69.0062C55.6644 68.3833 56.1906 67.7646 56.7182 67.1488C56.7182 67.2541 56.7324 67.3636 56.7637 67.4773C56.9287 68.0789 57.6867 68.625 58.3252 68.3648C69.5973 63.7683 81.3131 60.2784 93.2678 57.9787C96.6142 57.3345 99.979 56.7798 103.358 56.3262C104.038 56.2351 104.628 55.8071 104.628 55.0562C104.628 54.4404 104.042 53.6937 103.358 53.7862C91.1303 55.4259 79.0831 58.2319 67.4143 62.2452C64.1945 63.3516 61.0074 64.552 57.8545 65.8333C63.1905 59.6981 68.8635 53.8587 74.8508 48.3563C75.1992 48.0349 75.5505 47.7149 75.9003 47.395C75.9757 48.1046 76.5744 48.7702 77.4633 48.5199C86.4557 45.9856 95.7509 44.7284 105.093 44.7867C106.727 44.7967 106.73 42.2567 105.093 42.2467C95.8249 42.1898 86.5566 43.4072 77.614 45.8462C83.2785 40.7734 89.2531 35.9394 95.9699 32.3641C99.4414 30.5167 103.111 29.0746 106.938 28.2085C109.434 33.1378 109.937 38.8335 109.331 44.3188C108.633 50.6375 106.43 56.8367 103.456 62.4287C97.2243 74.1487 87.3331 83.4397 76.0127 90.1993C72.8128 92.1107 69.5063 93.8272 66.1215 95.3774C60.0987 88.8155 55.1154 81.3449 51.2869 73.3054C47.4386 65.2246 44.8061 56.558 43.465 47.7107C42.7099 42.7274 42.4098 37.673 42.5221 32.6343C42.5591 30.9988 40.0191 31.0002 39.9821 32.6343C39.7774 41.8428 41.0004 51.0869 43.5376 59.9399C46.0733 68.7872 49.9131 77.2874 54.9149 85.0155C57.5288 89.053 60.4627 92.8857 63.6783 96.4625C60.9221 97.6486 58.1219 98.7294 55.2875 99.7164C52.9836 99.0323 50.6982 98.28 48.4355 97.468C49.431 97.832 50.7337 96.7882 50.0056 95.6775C41.6902 82.9775 36.202 68.5298 33.9294 53.5216C33.288 49.2864 32.9325 45.0086 32.823 40.7278C32.7817 39.0966 30.2417 39.0895 30.283 40.7278C30.6783 56.2309 34.4727 71.5775 41.2877 85.5047C43.2204 89.4555 45.402 93.2797 47.8112 96.9588C47.9776 97.212 48.188 97.3741 48.417 97.4623C46.1842 96.6602 43.9756 95.7998 41.7954 94.891C35.1255 92.1092 28.4356 88.3974 23.9899 82.5381C23.8036 82.292 23.5633 82.1001 23.2959 81.9962C23.3556 81.7274 23.3115 81.4259 23.1138 81.1188C18.5572 74.0378 18.7322 65.0554 20.8341 57.178L20.837 57.1809Z" fill="#155640"/>
<path id="Vector_2" d="M149.961 132.328C149.765 131.617 149.076 131.32 148.399 131.44C143.139 132.385 137.928 130.193 132.898 128.983C127.447 127.672 121.856 127.623 116.303 128.204C110.628 128.797 105.029 129.924 99.3888 130.756C93.7741 131.584 88.1252 132.176 82.4636 132.565C71.0906 133.349 59.6677 133.302 48.2933 132.572C42.6985 132.213 37.0539 131.826 31.5515 130.707C26.9892 129.779 21.7329 128.465 18.762 124.568C16.3002 121.339 15.5294 116.899 16.8762 113.059C18.2429 109.158 21.8908 106.275 25.8728 105.412C26.8427 105.201 27.824 105.142 28.8153 105.184C30.4493 105.254 30.4465 102.714 28.8153 102.644C24.2928 102.452 19.7191 104.561 16.8677 108.073C13.9181 111.705 12.9837 116.482 14.2253 120.989C14.8254 123.169 15.9148 125.201 17.4081 126.899C19.0791 128.799 21.2835 130.101 23.5988 131.061C28.8409 133.231 34.6888 133.946 40.2936 134.485C52.1274 135.622 64.0651 135.959 75.943 135.467C81.8649 135.221 87.7797 134.758 93.666 134.059C99.5424 133.36 105.355 132.305 111.201 131.413C116.894 130.544 122.746 129.94 128.488 130.717C134.044 131.467 139.272 133.906 144.908 134.178C146.307 134.245 147.695 134.138 149.074 133.891C149.749 133.77 150.13 132.946 149.961 132.329V132.328Z" fill="#155640"/>
<path id="Vector_3" d="M137.264 41.0535C137.376 41.7305 138.214 42.1088 138.825 41.9409C139.544 41.7433 139.825 41.0578 139.713 40.3794C138.844 35.1288 136.543 30.2294 133.167 26.1279C132.73 25.5974 131.823 25.6756 131.37 26.1279C130.846 26.6527 130.934 27.3922 131.37 27.9241C134.471 31.6914 136.467 36.2523 137.262 41.0549L137.264 41.0535Z" fill="#155640"/>
<path id="Vector_4" d="M142.869 41.4647C142.785 43.0988 145.325 43.0945 145.409 41.4647C145.598 37.7643 144.803 34.1065 143.172 30.7871C142.451 29.3209 140.259 30.6065 140.979 32.0685C142.415 34.9911 143.035 38.2179 142.87 41.4647H142.869Z" fill="#155640"/>
<path id="Vector_5" d="M13.7773 48.9835C14.5225 47.5315 12.3324 46.2458 11.5843 47.7021C9.69569 51.3798 8.75279 55.4714 8.90639 59.6071C8.96612 61.2369 11.5061 61.244 11.4464 59.6071C11.3098 55.9194 12.0906 52.2701 13.7787 48.9835H13.7773Z" fill="#155640"/>
<path id="Vector_6" d="M2.6759 56.9121C2.74559 56.228 2.04304 55.6421 1.40591 55.6421C0.662117 55.6421 0.205602 56.2266 0.135916 56.9121C-0.519702 63.4028 1.21534 70.087 4.9343 75.4472C5.3254 76.0103 6.04785 76.2677 6.67219 75.9023C7.22967 75.5766 7.52122 74.7304 7.12728 74.1644C3.6316 69.1242 2.0601 63.0132 2.6759 56.9107V56.9121Z" fill="#155640"/>
<path id="Vector_7" d="M47.851 57.1212C48.4966 57.4995 49.1793 57.2194 49.5889 56.6661C57.6796 45.7155 67.8153 36.268 79.278 28.9268C82.5219 26.849 85.8726 24.9419 89.3114 23.2054C90.7705 22.4688 89.4863 20.2758 88.03 21.0125C75.5875 27.297 64.2997 35.8869 54.9191 46.1976C52.254 49.1272 49.7496 52.2005 47.3959 55.3862C46.9877 55.938 47.3049 56.8041 47.851 57.1241V57.1212Z" fill="#155640"/>
<path id="Vector_8" d="M61.0913 80.7802C69.8931 76.6346 79.1813 73.54 88.7041 71.5475C91.4005 70.9829 94.1154 70.5108 96.8417 70.124C97.5215 70.0273 97.8941 69.1626 97.7291 68.5624C97.5286 67.8314 96.8488 67.5783 96.1676 67.675C86.3817 69.0659 76.7679 71.5973 67.575 75.2295C64.9511 76.2663 62.3613 77.387 59.81 78.5887C59.1899 78.8802 59.0306 79.7719 59.3549 80.3266C59.7261 80.9623 60.4698 81.0761 61.0928 80.7817L61.0913 80.7802Z" fill="#155640"/>
<path id="Vector_9" d="M83.6668 79.7194C77.6951 81.3321 71.722 82.9463 65.7503 84.559C64.1746 84.9842 64.843 87.4361 66.4259 87.008C72.3975 85.3952 78.3706 83.7811 84.3423 82.1684C85.9181 81.7431 85.2496 79.2913 83.6668 79.7194Z" fill="#155640"/>
<path id="Vector_10" d="M106.07 33.3256C102.304 33.2986 98.5412 33.4622 94.7909 33.8163C94.1083 33.8803 93.5209 34.3539 93.5209 35.0863C93.5209 35.7234 94.104 36.4217 94.7909 36.3563C98.5412 36.0021 102.304 35.8386 106.07 35.8656C107.704 35.877 107.707 33.337 106.07 33.3256Z" fill="#155640"/>
</g>
</g>
</svg>
