<svg width="150" height="150" viewBox="0 0 150 150" fill="none" xmlns="http://www.w3.org/2000/svg">
<g id="illustration-stretching">
<g id="stretching">
<path id="Vector" d="M73.1526 133.502C73.1721 132.634 73.0984 131.759 72.9357 130.892C72.7425 129.862 71.1274 129.666 70.6673 130.596C70.4532 131.029 70.2378 131.464 70.0237 131.897C69.8222 131.834 69.6206 131.775 69.4163 131.725C68.3988 131.472 67.3188 131.36 66.2736 131.449C65.8329 131.486 65.2297 131.708 64.8057 131.535C64.4235 131.379 64.0968 130.925 63.7827 130.668C62.0994 129.281 59.888 128.802 57.7599 129.191C57.6946 129.203 57.6293 129.219 57.5639 129.233C56.9913 129.084 56.4895 129.312 56.1517 129.708C55.7639 129.888 55.3942 130.104 55.055 130.354C54.7534 130.576 54.4434 130.957 54.0445 130.958C53.4774 130.958 52.8213 130.664 52.2653 130.548C49.8968 130.059 47.4866 130.19 45.6768 131.968C45.6615 131.984 45.6476 132 45.6323 132.016C45.3724 131.864 45.0819 131.761 44.708 131.76C43.8017 131.757 42.9705 132.405 42.9149 133.338C42.8732 134.03 43.2513 134.679 43.6585 135.259C43.3625 136.078 43.1581 136.93 43.0358 137.762C42.6536 140.366 43.318 142.818 45.4669 144.448C46.9695 145.588 48.8195 146.146 50.6557 146.535C50.7419 146.766 50.9073 146.977 51.1742 147.14C52.9825 148.232 55.1634 146.714 55.34 144.765C55.5276 142.695 53.8777 140.887 52.2876 139.799C50.7572 138.753 47.7131 137.73 46.8597 140.159C46.4705 141.266 47.0543 142.171 47.9216 142.818C48.1927 143.021 48.4693 143.219 48.7459 143.415C46.8569 142.673 45.3237 141.425 45.3877 139.063C45.4002 138.597 45.4544 138.111 45.5475 137.622C45.6476 137.73 45.7463 137.839 45.8492 137.943C46.9667 139.089 48.7209 137.333 47.6047 136.188C47.2336 135.807 46.875 135.416 46.5414 135.001C46.9194 134.8 47.1877 134.376 47.2322 133.929C48.4887 132.571 50.2234 132.632 51.9692 133.024C53.0006 133.256 54.0681 133.652 55.1106 133.267C55.3761 133.169 55.6152 133.027 55.8431 132.867C56.0822 133.797 56.5451 134.668 57.1622 135.429C57.5848 135.95 58.4785 135.868 58.9178 135.429C59.4335 134.914 59.3417 134.197 58.9178 133.675C58.726 133.437 58.5717 133.174 58.4521 132.895C59.029 132.73 59.5113 132.18 59.4098 131.532C60.2535 131.571 61.0889 131.821 61.7964 132.275C62.5595 132.766 63.0933 133.515 63.962 133.857C64.9211 134.233 65.8871 133.916 66.8754 133.904C67.8248 133.893 68.7602 134.066 69.6401 134.394C69.8667 134.66 70.1891 134.84 70.5186 134.882C70.3851 135.584 70.1725 136.273 69.8917 136.944C69.6318 137.562 70.1711 138.308 70.759 138.47C71.4749 138.667 72.0253 138.224 72.2852 137.603C72.4479 137.216 72.5855 136.824 72.7008 136.428C74.7191 138.661 75.1166 142.013 73.8726 144.755C73.8198 143.412 73.0066 142.222 71.9113 141.419C70.7715 140.583 68.9534 139.767 67.8151 141.039C66.735 142.243 67.4926 144.343 68.3419 145.453C68.6727 145.886 69.1745 146.153 69.6887 146.038C69.5317 146.257 69.4358 146.521 69.4358 146.771C69.4358 147.07 69.5317 147.317 69.6887 147.512C67.3174 147.576 64.9183 147.544 62.5859 147.192C62.7944 147.124 62.9946 147.033 63.1822 146.91C64.0885 146.317 64.1983 145.317 64.0482 144.329C63.7646 142.461 63.0849 140.579 61.4323 139.505C59.8574 138.482 57.6682 138.745 56.5548 140.315C55.3122 142.067 56.4658 143.948 57.7446 145.265C58.8594 146.413 60.6136 144.657 59.5002 143.51C59.1235 143.123 58.1519 142.278 58.6273 141.676C59.0429 141.151 59.8046 141.354 60.2563 141.699C60.993 142.259 61.2891 143.195 61.4823 144.059C61.5379 144.309 61.5601 144.576 61.6241 144.823C61.3947 144.814 61.0194 144.84 60.8999 144.825C60.2341 144.741 59.6586 145.456 59.6586 146.066C59.6586 146.263 59.7003 146.435 59.7726 146.587C58.8636 146.324 57.9726 145.996 57.1038 145.586C56.4978 145.3 55.7639 145.418 55.4053 146.031C55.0898 146.571 55.2427 147.441 55.8501 147.729C61.164 150.244 67.077 150.126 72.819 149.875C74.4105 149.806 74.4189 147.324 72.819 147.394C72.7731 147.395 72.7273 147.398 72.6828 147.399C72.8704 147.251 73.0414 147.08 73.1915 146.892C73.5599 147.654 74.8178 148.005 75.4377 147.062C77.8744 143.353 77.5561 138.249 74.6482 134.897C74.202 134.383 73.6961 133.918 73.1456 133.506L73.1526 133.502ZM52.8102 144.633C52.7004 144.518 52.5669 144.426 52.4154 144.372C52.421 144.364 52.4266 144.355 52.4321 144.347C52.5878 144.081 52.6281 143.804 52.5822 143.541C52.6642 143.687 52.7337 143.837 52.7866 143.991C52.831 144.12 52.8477 144.397 52.8102 144.633ZM51.5272 142.314C51.3132 142.158 51.0477 141.964 50.7725 141.763C50.8628 141.819 50.9504 141.878 51.0366 141.938C51.2006 142.052 51.366 142.178 51.5272 142.314ZM49.263 140.687C49.1851 140.636 49.1379 140.608 49.1337 140.613C49.2421 140.511 49.2713 140.575 49.263 140.687ZM61.8034 144.851C61.7936 144.843 61.7742 144.837 61.7492 144.833C61.7631 144.829 61.7797 144.833 61.8034 144.851ZM71.4095 144.903C71.3998 145.361 71.1107 145.577 70.6812 145.528C70.5908 145.518 70.5033 145.522 70.4171 145.539C70.6923 145.146 70.7868 144.587 70.4894 144.197C70.2809 143.924 70.0793 143.637 69.9556 143.313C69.9362 143.264 69.9223 143.178 69.9084 143.078C70.1447 143.199 70.381 143.341 70.5839 143.501C71.0078 143.833 71.4207 144.333 71.4082 144.9L71.4095 144.903Z" fill="#155640"/>
<path id="Vector_2" d="M12.8051 127.989C12.9094 128.135 13.0136 128.279 13.122 128.424C13.5237 128.959 14.1937 129.235 14.8206 128.868C15.0847 128.714 15.2974 128.424 15.3933 128.104C15.7352 128.136 16.0744 128.172 16.4121 128.213C18.8001 128.5 21.1534 129.066 23.4899 129.621C25.0425 129.991 25.7055 127.598 24.1502 127.229C21.5328 126.606 18.8515 125.989 16.1536 125.699C15.239 125.022 14.2646 124.505 13.1623 124.173C12.2908 123.912 11.4749 124.721 11.6097 125.573C10.6798 125.632 9.75132 125.752 8.82698 125.945C7.97214 126.123 7.06727 126.366 6.21799 126.72C6.13181 126.645 6.04424 126.569 5.95528 126.488C5.54384 126.116 4.94337 126.006 4.45132 126.294C4.00791 126.554 3.68961 127.187 3.88142 127.694C3.93007 127.825 3.98289 127.953 4.03432 128.082C3.57702 128.515 3.19755 129.028 2.93485 129.639C2.83755 129.865 2.76388 130.087 2.70967 130.305C2.358 130.181 1.998 130.087 1.63938 130.059C0.649715 129.985 -0.231535 130.8 0.0548019 131.838C0.254959 132.567 1.05976 132.951 1.68803 133.249C2.38302 133.579 3.10025 133.843 3.84668 134.023C3.85918 134.026 3.8703 134.027 3.88281 134.03C4.35819 134.521 4.93364 134.947 5.55079 135.297C8.03469 136.706 10.7855 137.515 13.6169 137.816C14.2841 137.887 14.8581 137.195 14.8581 136.576C14.8581 136.317 14.7858 136.096 14.6635 135.914C14.8526 135.502 14.8359 134.996 14.4425 134.568C13.8629 133.938 13.5515 133.108 12.933 132.5C12.2922 131.87 11.4499 131.483 10.5422 131.596C9.22313 131.76 8.44613 132.921 8.5476 134.019C8.32659 133.925 8.10836 133.826 7.89153 133.722C6.75452 133.176 4.45549 132.188 5.2311 130.552C5.27002 130.469 5.31589 130.39 5.36315 130.313C5.73427 130.506 6.20131 130.515 6.57521 130.297C6.64888 130.254 6.71699 130.204 6.77815 130.147C7.30634 130.311 7.936 130.058 8.21539 129.581C8.40443 129.257 8.42389 128.899 8.31408 128.578C8.99239 128.403 9.66653 128.292 10.2211 128.2C11.0704 128.06 11.935 127.997 12.8023 127.989H12.8051ZM11.5222 134.661C11.6139 134.785 11.6987 134.912 11.7821 135.042C11.6667 135.017 11.5527 134.992 11.4388 134.964C11.4791 134.865 11.5069 134.764 11.5222 134.661Z" fill="#155640"/>
<path id="Vector_3" d="M57.1831 62.9146C60.8707 56.8497 66.6058 52.1506 73.2513 49.6983C72.9622 51.3781 72.4117 53.0065 71.6194 54.5252C70.8814 55.9396 73.0233 57.1957 73.7628 55.7771C75.0444 53.3206 75.7755 50.6681 75.9423 47.9031C75.9909 47.1042 75.1097 46.4845 74.3716 46.7068C66.3556 49.1217 59.3876 54.5099 55.0397 61.6614C54.2085 63.03 56.3533 64.2777 57.1831 62.9133V62.9146Z" fill="#155640"/>
<path id="Vector_4" d="M113.23 58.4293C112.841 59.6784 112.41 60.915 111.939 62.135C110.849 64.9486 109.516 67.6622 107.995 70.266C107.189 71.6485 109.334 72.899 110.139 71.5179C111.662 68.9085 112.978 66.188 114.1 63.3827C114.648 62.0113 115.144 60.6191 115.586 59.2102C116.027 57.8069 116.569 56.3132 116.724 54.8446C116.894 53.2439 115.676 52.1213 114.101 52.37C112.756 52.5826 111.398 53.2689 110.136 53.7664C107.303 54.8835 104.515 56.1159 101.788 57.4678C98.7352 58.9809 95.7607 60.6455 92.8695 62.4462C91.5157 63.2882 92.7611 65.4363 94.1219 64.5887C98.6768 61.7529 103.44 59.2588 108.376 57.151C109.609 56.6244 110.854 56.1284 112.107 55.6532C112.705 55.4267 113.302 55.203 113.904 54.9905C113.937 54.9793 114.049 54.9543 114.172 54.9252C114.028 55.3878 113.957 55.9019 113.832 56.3632C113.644 57.0552 113.444 57.7443 113.23 58.4293ZM114.281 54.5861C114.291 54.4583 114.177 54.4666 114.281 54.5861Z" fill="#155640"/>
<path id="Vector_5" d="M74.5898 61.467C79.4548 59.6163 84.7464 58.9688 89.9047 59.74C90.5663 59.8386 91.2391 59.5746 91.4309 58.8729C91.5921 58.288 91.2307 57.446 90.5635 57.3473C84.9605 56.5109 79.2324 57.0569 73.9282 59.0744C73.3027 59.312 72.8718 59.9109 73.0609 60.6C73.2263 61.1989 73.9574 61.706 74.5871 61.467H74.5898Z" fill="#155640"/>
<path id="Vector_6" d="M92.5081 71.8932C92.5081 71.2735 91.9382 70.5858 91.2668 70.6524C85.7833 71.1943 80.5042 73.0895 75.9909 76.263C75.4433 76.6479 75.1875 77.3482 75.5461 77.9609C75.863 78.5028 76.6928 78.7932 77.2447 78.4055C81.3868 75.4933 86.2198 73.6328 91.2682 73.134C91.9354 73.0687 92.5095 72.6116 92.5095 71.8932H92.5081Z" fill="#155640"/>
<path id="Vector_7" d="M53.5719 73.3006C55.1496 75.2486 56.2699 77.5203 56.9218 79.9352C57.3374 81.4761 59.7324 80.8217 59.3154 79.2752C58.5467 76.4269 57.1817 73.8328 55.3275 71.5458C54.9049 71.0247 54.0112 71.1067 53.5719 71.5458C53.0563 72.0612 53.148 72.7782 53.5719 73.3006Z" fill="#155640"/>
<path id="Vector_8" d="M91.6491 81.2315C95.3423 79.5433 99.3232 78.4262 103.358 77.9552C104.024 77.8774 104.6 77.4411 104.6 76.7144C104.6 76.1045 104.028 75.3959 103.358 75.4737C98.8548 75.9989 94.5222 77.2035 90.3967 79.0876C89.7865 79.3669 89.6378 80.2478 89.9519 80.7855C90.3189 81.4121 91.0375 81.5108 91.6505 81.2301L91.6491 81.2315Z" fill="#155640"/>
<path id="Vector_9" d="M92.8125 86.0097C96.5308 86.0889 100.204 86.5877 103.81 87.5006C105.359 87.8938 106.02 85.5012 104.47 85.108C100.66 84.1423 96.7434 83.6115 92.8139 83.5282C91.2155 83.4948 91.2168 85.9764 92.8139 86.0097H92.8125Z" fill="#155640"/>
<path id="Vector_10" d="M100.865 89.4876C96.489 88.8207 92.0856 88.3691 87.664 88.1565C86.0669 88.0801 86.0711 90.5616 87.664 90.6381C91.8632 90.8395 96.0484 91.2466 100.204 91.8802C100.866 91.9816 101.539 91.7135 101.731 91.0132C101.892 90.4269 101.531 89.589 100.863 89.4876H100.865Z" fill="#155640"/>
<path id="Vector_11" d="M38.9035 84.5509C40.495 85.2665 42.1296 85.8375 43.8337 86.2196C44.9054 86.46 45.5545 85.3998 45.3432 84.6023C45.549 84.9802 45.9145 85.2428 46.4024 85.2428C47.021 85.2428 47.7118 84.6732 47.6437 84.0021C47.5519 83.0975 47.5186 82.1916 47.5394 81.2871C48.4874 81.0148 48.9947 79.6045 47.8869 79.0473C47.8299 79.0181 47.7729 78.9876 47.7159 78.9584C48.2692 74.6789 50.0706 70.5884 52.9756 67.3329C54.0362 66.145 52.2862 64.3831 51.2201 65.5781C48.1885 68.9766 46.1619 73.2061 45.3933 77.6648C44.291 76.9979 43.2221 76.274 42.1935 75.4903C41.6598 75.0846 40.805 75.407 40.495 75.935C40.1225 76.5727 40.4046 77.2258 40.9398 77.6329C42.2589 78.6374 43.6419 79.5475 45.0833 80.3617C45.0152 81.5705 45.0388 82.7877 45.1612 84.0021C45.1723 84.1146 45.1959 84.223 45.2279 84.3286C45.0875 84.0938 44.8484 83.9062 44.4926 83.827C43.0053 83.4935 41.5472 83.0336 40.1558 82.4084C39.5442 82.1333 38.8214 82.2319 38.4573 82.853C38.1473 83.3838 38.2877 84.2744 38.9021 84.5509H38.9035Z" fill="#155640"/>
<path id="Vector_12" d="M43.906 87.6422C42.6188 87.556 41.3317 87.4713 40.0446 87.3851C38.4503 87.2795 38.4559 89.7611 40.0446 89.8667C41.3317 89.9528 42.6188 90.0376 43.906 90.1237C45.5003 90.2293 45.4947 87.7478 43.906 87.6422Z" fill="#155640"/>
<path id="Vector_13" d="M74.9818 102.119C71.6708 110.73 68.2709 119.444 62.6624 126.866C62.2579 127.401 62.5776 128.254 63.1072 128.564C63.7438 128.936 64.3998 128.656 64.8057 128.119C70.5394 120.533 73.9907 111.582 77.3753 102.78C77.6158 102.155 77.1098 101.418 76.508 101.254C75.8074 101.063 75.2222 101.493 74.9818 102.121V102.119Z" fill="#155640"/>
<path id="Vector_14" d="M96.4821 106.711C90.3078 113.632 84.8187 121.167 80.1567 129.186C78.8279 131.471 77.5686 133.796 76.3746 136.154C75.6546 137.575 77.7951 138.832 78.5179 137.405C82.6309 129.287 87.5417 121.559 93.2073 114.432C94.8266 112.396 96.5057 110.407 98.2376 108.465C99.2982 107.277 97.5482 105.515 96.4821 106.71V106.711Z" fill="#155640"/>
<path id="Vector_15" d="M29.2861 121.256C36.1749 116.978 43.2763 112.529 48.5054 106.217C49.9732 104.445 51.284 102.554 52.3724 100.527C53.1285 99.1207 50.9865 97.866 50.229 99.2749C46.5025 106.21 40.235 111.192 33.7758 115.462C31.8826 116.714 29.9589 117.916 28.0324 119.113C26.6785 119.954 27.9226 122.102 29.2847 121.256H29.2861Z" fill="#155640"/>
<path id="Vector_16" d="M53.8916 117.296C55.7431 114.849 57.4403 112.29 58.9804 109.637C59.7838 108.253 57.639 107.003 56.837 108.385C51.5704 117.45 44.3869 125.405 35.8663 131.522C33.4352 133.267 30.8999 134.865 28.2784 136.312C26.8801 137.084 28.1297 139.228 29.5308 138.454C39.0355 133.209 47.3462 125.948 53.8916 117.296Z" fill="#155640"/>
<path id="Vector_17" d="M145.818 40.3822C143.629 37.2393 140.628 34.7674 137.336 32.8472C135.942 32.0344 134.682 34.195 136.074 35.0064C138.747 36.5654 141.242 38.5023 143.155 40.9546C145.027 43.357 146.181 46.1873 146.802 49.1523C147.501 52.4925 147.565 55.9453 147.439 59.3439C147.311 62.7591 146.868 66.1535 146.091 69.4826C145.226 73.1869 143.971 76.7897 142.304 80.2105C141.602 81.6514 143.76 82.9213 144.464 81.4721C147.672 74.8862 149.482 67.7111 149.891 60.4013C150.272 53.5958 149.844 46.1539 145.82 40.3808L145.818 40.3822Z" fill="#155640"/>
<path id="Vector_18" d="M144.264 87.6024C144.459 90.2215 143.415 92.5932 142.047 94.7677C140.62 97.0367 138.921 99.1556 137.222 101.226C135.484 103.345 133.65 105.391 131.674 107.292C130.702 108.226 129.696 109.125 128.652 109.977C127.645 110.798 126.59 111.656 125.398 112.193C124.504 112.594 123.438 112.768 122.519 112.34C121.628 111.925 121.346 111.024 121.578 110.106C121.881 108.902 122.785 108.031 123.687 107.239C124.651 106.39 125.638 105.583 126.521 104.645C128.225 102.835 129.66 100.744 130.705 98.4872C131.817 96.0863 132.852 93.2782 132.485 90.5952C132.269 89.0085 131.558 87.5662 130.847 86.149C130.157 84.7748 129.523 83.3812 128.984 81.9418C127.855 78.9295 127.076 75.7991 126.636 72.6145C126.545 71.9503 125.695 71.5877 125.11 71.7474C124.394 71.9447 124.151 72.6075 124.243 73.2731C124.66 76.2909 125.381 79.2588 126.415 82.1252C126.925 83.5369 127.506 84.9263 128.153 86.2824C128.774 87.5871 129.532 88.8501 129.9 90.259C130.264 91.6512 130.004 93.0351 129.611 94.3912C129.247 95.6514 128.767 96.8713 128.168 98.0385C126.969 100.375 125.363 102.467 123.403 104.217C121.402 106.006 118.923 107.847 119.015 110.845C119.107 113.793 121.917 115.404 124.636 114.987C127.372 114.567 129.712 112.38 131.715 110.623C133.928 108.679 135.962 106.539 137.873 104.301C139.989 101.823 142.073 99.2473 143.865 96.5253C145.605 93.8826 146.986 90.8356 146.745 87.6024C146.628 86.0198 144.145 86.0073 144.263 87.6024H144.264Z" fill="#155640"/>
<path id="Vector_19" d="M120.18 87.1602C120.78 86.4544 121.443 85.8055 122.084 85.1372C123.612 83.5463 124.897 81.8623 125.148 79.6114C125.221 78.9444 124.524 78.3706 123.906 78.3706C123.174 78.3706 122.74 78.9431 122.665 79.6114C122.49 81.187 121.236 82.4444 120.191 83.5254C118.812 84.9524 117.546 86.3502 116.603 88.1134C115.654 89.8891 114.623 91.5231 113.267 93.0195C111.925 94.5034 110.431 95.8428 108.917 97.1489C107.195 98.6356 105.443 100.089 103.809 101.674C102.659 102.787 104.416 104.542 105.564 103.429C106.804 102.227 108.116 101.102 109.43 99.9778C109.071 100.45 108.7 100.909 108.309 101.348C106.798 103.043 104.894 104.349 102.755 105.12C101.264 105.658 101.907 108.056 103.415 107.513C105.876 106.626 108.126 105.212 109.902 103.282C111.859 101.157 113.365 98.5856 114.981 96.2027C115.319 95.7039 115.226 95.2162 114.93 94.873C116.334 93.3349 117.532 91.6578 118.508 89.8168C119 88.8873 119.493 87.9633 120.178 87.1588L120.18 87.1602Z" fill="#155640"/>
<path id="Vector_20" d="M83.2662 32.7901C84.7674 28.487 87.5904 24.8258 90.7749 21.6245C92.415 19.9767 94.1567 18.433 95.9331 16.9352C97.754 15.3998 99.6013 13.8826 101.632 12.6279C103.671 11.3677 105.895 10.4076 108.289 10.0991C110.785 9.77816 113.326 10.0838 115.754 10.6952C118.151 11.2982 120.49 12.1736 122.726 13.2212C124.735 14.1618 126.706 15.2776 128.336 16.7962C130.047 18.3913 131.285 20.3601 131.658 22.693C131.981 24.7147 131.564 26.9002 130.139 28.4259C129.689 28.908 129.725 29.4902 129.997 29.9264C126.806 29.2679 123.546 29.2345 120.354 29.9028C117.026 30.6003 114.053 32.1287 111.195 33.9225C105.83 37.2905 101.471 42.098 96.724 46.2357C94.1122 48.5116 91.3545 50.5986 88.2965 52.2409C86.8774 53.0037 88.1395 55.1629 89.5586 54.4001C94.9003 51.5295 99.2913 47.3223 103.714 43.2442C108.266 39.0481 113.19 34.5727 119.251 32.7623C122.546 31.7786 126.023 31.6466 129.387 32.3482C130.544 32.59 131.212 31.3465 130.855 30.5434C131.2 30.6142 131.576 30.5239 131.896 30.1807C135.104 26.7432 134.793 21.248 132.23 17.5257C129.298 13.2684 124.314 10.9495 119.584 9.27101C114.254 7.3786 108.508 6.70055 103.197 9.00285C100.731 10.0713 98.5421 11.6483 96.4488 13.3129C94.4625 14.8927 92.5221 16.5461 90.6665 18.2788C87.0636 21.6426 83.8055 25.4524 81.7567 29.939C80.7586 28.1619 80.3806 26.0721 80.4862 24.0199C80.6363 21.1271 81.847 18.4511 83.5483 16.1418C85.3887 13.6422 87.8448 11.5886 90.3912 9.84346C93.0544 8.01913 95.922 6.46295 98.9299 5.28471C104.918 2.94072 111.545 1.87641 117.945 2.79066C123.833 3.63266 129.694 6.14755 133.543 10.8189C137.416 15.5193 138.872 22.6277 135.966 28.1619C135.224 29.5749 137.366 30.8296 138.109 29.4137C141.089 23.7407 140.287 16.7712 136.988 11.4094C133.488 5.72238 127.298 2.21821 120.893 0.812097C114.083 -0.681552 106.871 -0.0465776 100.287 2.15708C96.8699 3.30059 93.5799 4.85676 90.533 6.77975C87.621 8.61798 84.816 10.7758 82.574 13.406C80.1373 16.2641 78.4124 19.6279 78.0496 23.3989C77.7049 26.9781 78.7293 30.6712 81.1923 33.3347C81.8651 34.0628 82.9743 33.6251 83.2662 32.7873V32.7901Z" fill="#155640"/>
<path id="Vector_21" d="M84.1835 95.4441C83.6762 94.937 82.9409 95.0092 82.428 95.4441C79.1824 98.1938 74.7789 99.1192 70.6159 98.9719C69.1856 98.9219 67.7706 98.7468 66.3709 98.4856C66.8199 98.0451 67.1062 97.4352 67.109 96.6863C67.1159 95.0551 66.471 93.321 65.8107 91.8177C66.8921 91.4647 67.9444 90.9562 68.934 90.4393C70.3518 89.7002 69.0981 87.559 67.6817 88.2968C65.7246 89.3167 63.0919 90.688 61.0598 89.0902C60.5663 88.7025 60.1076 88.3052 59.5002 88.1051C58.8052 87.8758 58.081 87.9703 57.3638 87.9564C56.0419 87.93 54.7395 87.5993 53.5567 87.013C52.1305 86.3044 50.8712 88.4441 52.3043 89.1555C53.7123 89.8544 55.1899 90.2823 56.7592 90.4074C57.3833 90.4574 58.2423 90.2545 58.8191 90.4977C59.4071 90.7464 59.8435 91.3355 60.419 91.6343C61.3906 92.1372 62.383 92.3179 63.3727 92.2831C63.3963 92.4165 63.4367 92.5499 63.495 92.6777C64.0107 93.8226 64.4597 95.119 64.607 96.3723C64.6459 96.7085 64.7641 96.7807 64.4096 96.828C63.9787 96.8863 63.42 96.4737 63.0794 96.2611C61.3336 95.1745 60.0548 93.4419 59.4641 91.48C59.004 89.9544 56.6077 90.6047 57.0705 92.14C57.5376 93.6879 58.3132 95.094 59.3696 96.3167C59.4835 96.4487 59.6031 96.5793 59.7254 96.7099C58.4897 96.3069 57.2637 95.8818 56.0461 95.4608C54.5324 94.9384 53.8819 97.3351 55.3859 97.8534C60.451 99.5999 65.6481 101.371 71.0635 101.463C75.7811 101.544 80.539 100.282 84.1835 97.1962C84.6951 96.7627 84.6297 95.8873 84.1835 95.4413V95.4441Z" fill="#155640"/>
<path id="Vector_22" d="M24.5796 137.279C24.171 137.12 23.7568 136.981 23.3384 136.858C23.7206 136.552 23.9625 136.024 23.779 135.554C22.7963 133.049 20.7794 130.705 17.8146 131.158C16.5511 131.351 14.9707 132.296 15.1013 133.758C15.2084 134.96 16.5247 135.81 17.6381 136.327C16.5845 136.834 16.7526 138.735 18.1551 138.686C20.147 138.617 22.061 138.951 23.9194 139.67C24.5449 139.912 25.2816 139.403 25.4456 138.803C25.6388 138.101 25.2065 137.519 24.5783 137.277L24.5796 137.279ZM19.6188 133.874C20.4834 134.354 21.0352 135.324 21.3855 136.216C21.4147 136.291 21.4494 136.362 21.4883 136.43C20.8309 136.318 20.1678 136.246 19.502 136.216C19.6327 136.071 19.7328 135.903 19.78 135.727C19.9746 135.021 19.5382 134.448 18.9127 134.201C18.6903 134.112 18.2455 133.892 17.9175 133.667C18.0523 133.619 18.2024 133.594 18.3414 133.581C18.7904 133.538 19.231 133.659 19.6202 133.876L19.6188 133.874Z" fill="#155640"/>
<path id="Vector_23" d="M18.322 70.8814C19.7245 71.4122 21.1978 71.2774 22.5975 70.8189C23.2925 70.591 23.9889 70.2881 24.7159 70.1714C25.3998 70.0616 26.053 70.1978 26.7077 70.3895C28.1714 70.8189 29.5753 71.4552 31.1376 71.3371C32.7208 71.2176 32.7333 68.7347 31.1376 68.8556C29.8491 68.9528 28.6815 68.3957 27.475 68.0303C26.0642 67.6023 24.6881 67.5495 23.2689 67.9802C22.1319 68.3248 20.9629 68.9417 19.7425 68.7139C18.6556 68.511 17.7632 67.8357 17.2378 66.8729C16.4719 65.4709 14.3285 66.7214 15.0944 68.1247C15.7991 69.4155 16.9514 70.3631 18.3206 70.8814H18.322Z" fill="#155640"/>
<path id="Vector_24" d="M28.5467 77.0989C28.5467 76.4806 27.9768 75.7901 27.3054 75.8582C23.697 76.2264 20.1081 76.7585 16.5497 77.4602C14.9832 77.77 15.6462 80.1613 17.21 79.8528C20.5515 79.1928 23.9166 78.6843 27.3054 78.3383C27.9726 78.2702 28.5467 77.8173 28.5467 77.0976V77.0989Z" fill="#155640"/>
<path id="Vector_25" d="M26.2838 85.9182C23.7526 87.1896 21.0422 88.026 18.2427 88.4595C17.5797 88.5623 17.2128 89.3932 17.3754 89.9851C17.57 90.6924 18.2372 90.955 18.9016 90.8521C21.9151 90.3853 24.8118 89.428 27.5348 88.0608C28.9623 87.3438 27.7071 85.2027 26.2824 85.9182H26.2838Z" fill="#155640"/>
<path id="Vector_26" d="M59.889 82.7197C58.2925 82.7197 58.2897 85.2014 59.889 85.2014C61.4883 85.2014 61.4883 82.7197 59.889 82.7197Z" fill="#155640"/>
</g>
</g>
</svg>
