<svg width="150" height="131" viewBox="0 0 150 131" fill="none" xmlns="http://www.w3.org/2000/svg">
<g id="illustration-plate">
<g id="plate">
<path id="Vector" d="M16.105 80.5087C16.4163 76.4277 18.2977 72.5249 21.1994 69.6534C24.267 66.6187 28.4371 64.943 32.7416 64.8731C35.2251 64.8333 37.7249 65.3023 39.9931 66.3294C40.6321 66.6187 41.6537 66.4528 41.7922 65.5971C42.4271 61.6683 44.5252 58.0165 47.7176 55.6058C49.1205 54.5458 50.7153 53.7326 52.4774 53.505C53.9228 53.3185 55.6671 53.5392 56.5968 54.7967C56.9246 55.2397 57.4155 55.5153 57.9791 55.359C58.4604 55.2273 58.9322 54.7048 58.8787 54.1783C58.4083 49.6173 62.4879 46.0039 65.8682 43.6261C69.8107 40.8519 74.6349 38.8882 79.3975 40.686C81.6601 41.5403 83.6499 43.0611 85.556 44.5147C87.303 45.8476 89.0323 47.2367 90.4941 48.885C91.7941 50.351 92.9377 52.1707 93.1023 54.17C93.201 55.3809 93.1283 56.7261 94.5449 57.1896C95.5322 57.5133 96.6663 57.1005 97.6866 57.1211C101.995 57.2088 105.946 60.5219 106.777 64.7359C106.911 65.4175 107.674 65.7123 108.283 65.5916C113.509 64.5494 119.488 63.4675 124.25 66.5844C125.243 67.2344 126.022 68.0764 126.758 68.9979C127.153 69.493 127.555 69.9579 128.057 70.3487C128.634 70.7985 129.28 71.0645 129.945 71.3552C132.072 72.2891 133.576 74.1143 134.379 76.2727C135.499 79.2896 135.341 82.5725 135.119 85.7278C135.008 87.3007 137.458 87.2939 137.568 85.7278C137.964 80.0986 137.675 73.4259 132.482 69.9441C131.364 69.194 129.971 68.9486 129.044 67.9311C128.092 66.8875 127.312 65.8193 126.171 64.9553C124.009 63.3166 121.355 62.4952 118.685 62.1922C115.401 61.8192 112.088 62.3581 108.857 62.9889C107.645 59.1232 104.244 56.0638 100.339 55.0449C99.2677 54.7652 98.1336 54.628 97.027 54.6829C96.5539 54.7062 96.0904 54.8022 95.6214 54.8447C95.6282 54.5869 95.5569 54.2194 95.5432 54.0699C95.3156 51.6619 94.2117 49.5611 92.7005 47.7085C91.1619 45.8229 89.2489 44.2871 87.3291 42.8102C85.2571 41.2167 83.1535 39.6274 80.7318 38.6016C75.5798 36.4171 70.1453 37.9297 65.6173 40.8478C61.8462 43.2791 57.3648 47.042 56.5255 51.7277C54.4535 50.7034 51.8672 50.8611 49.6388 51.7305C46.2298 53.0606 43.3871 55.8389 41.5742 58.9792C40.7404 60.4218 40.1083 61.9837 39.7092 63.6019C35.4527 62.0838 30.7176 62.0139 26.4378 63.5511C21.8919 65.1843 18.1002 68.5221 15.8623 72.8033C14.6075 75.2058 13.8656 77.8086 13.6586 80.51C13.5393 82.0815 15.9884 82.0747 16.1077 80.51L16.105 80.5087Z" fill="#155640"/>
<path id="Vector_2" d="M26.2019 90.2118C24.4864 89.847 22.6954 89.5495 21.0663 88.8748C19.7814 88.3427 18.5706 87.535 18.284 86.0965C17.9768 84.5524 15.6154 85.2065 15.9226 86.7479C16.5438 89.8649 19.8459 91.2444 22.6091 91.9204C26.4967 92.8708 30.4556 93.588 34.4036 94.2352C42.5341 95.5681 50.74 96.4211 58.9609 96.9367C67.1778 97.4523 75.4125 97.6347 83.643 97.6456C92.0683 97.6566 100.498 97.5195 108.912 97.0587C113.446 96.8105 118.002 96.5363 122.51 95.9754C126.528 95.4749 130.612 94.589 133.949 92.17C134.484 91.7819 134.746 91.1045 134.388 90.4943C134.08 89.9663 133.251 89.6647 132.712 90.0555C129.916 92.0823 126.58 92.9448 123.206 93.433C119.381 93.987 115.487 94.205 111.631 94.4491C103.469 94.9675 95.2895 95.1567 87.1124 95.191C71.219 95.2568 55.2584 94.7906 39.5035 92.554C35.044 91.9204 30.6051 91.1484 26.1991 90.2118H26.2019Z" fill="#155640"/>
<path id="Vector_3" d="M149.471 113.331C147.049 106.181 144.541 99.0596 141.947 91.97C141.315 90.2435 140.677 88.5184 140.035 86.7947C139.805 86.1748 139.207 85.7525 138.529 85.939C137.934 86.1022 137.442 86.8221 137.674 87.4447C140.208 94.2463 142.665 101.078 145.04 107.937C145.642 109.675 146.239 111.415 146.83 113.155C147.088 113.912 147.444 114.698 147.576 115.489C147.697 116.212 147.27 116.621 146.741 117.05C144.425 118.934 141.7 120.423 139.003 121.678C133.365 124.3 127.23 125.764 121.115 126.754C114.164 127.88 107.12 128.427 100.092 128.781C92.972 129.139 85.8399 129.302 78.7132 129.4C71.8498 129.494 64.9823 129.463 58.1258 129.116C44.6089 128.43 31.0193 126.473 18.2908 121.704C15.4481 120.638 12.6658 119.399 10.0383 117.871C8.69172 117.088 7.37801 116.232 6.14521 115.278C4.99469 114.388 3.766 113.405 2.84037 112.273C2.32613 111.645 2.40841 111.131 2.67444 110.393C2.96927 109.572 3.31758 108.766 3.65218 107.959C4.31726 106.359 5.01937 104.774 5.7489 103.202C7.20111 100.074 8.77263 97.0027 10.4593 93.9954C11.2917 92.5116 12.1529 91.0443 13.0401 89.5935C13.8643 88.2441 11.747 87.0127 10.9256 88.358C7.17917 94.4959 3.93056 100.919 1.18521 107.564C0.520125 109.173 -0.485041 110.987 0.267805 112.733C0.886263 114.167 2.34259 115.297 3.50957 116.28C5.98477 118.363 8.73972 120.079 11.6386 121.505C17.7643 124.518 24.4192 126.535 31.0577 128.054C37.98 129.638 45.0381 130.605 52.1127 131.176C66.4524 132.332 80.9279 131.979 95.2895 131.443C102.788 131.163 110.287 130.689 117.73 129.707C124.192 128.854 130.65 127.617 136.754 125.272C139.776 124.111 142.708 122.702 145.434 120.951C146.704 120.135 148.203 119.266 149.178 118.096C150.41 116.616 150.037 115.008 149.471 113.333V113.331Z" fill="#155640"/>
<path id="Vector_4" d="M26.9835 41.4207C28.0998 42.5369 29.8317 40.805 28.7155 39.6887C27.4539 38.4271 26.1937 37.1669 24.9321 35.9053C23.8158 34.7891 22.0839 36.521 23.2001 37.6373C24.4617 38.8989 25.7219 40.1591 26.9835 41.4207Z" fill="#155640"/>
<path id="Vector_5" d="M45.8691 30.5725C46.9319 31.7409 48.6597 30.0048 47.6011 28.8406C46.6631 27.8093 45.7252 26.7781 44.7872 25.7455C43.7244 24.5772 41.9966 26.3132 43.0552 27.4775C43.9932 28.5087 44.9312 29.5399 45.8691 30.5725Z" fill="#155640"/>
<path id="Vector_6" d="M67.7153 24.2466C67.788 24.9035 68.2268 25.4712 68.9399 25.4712C69.546 25.4712 70.2372 24.9076 70.1645 24.2466C70.0164 22.9055 69.8683 21.5643 69.7202 20.2246C69.6475 19.5677 69.2087 19 68.4956 19C67.8895 19 67.1983 19.5636 67.271 20.2246C67.4191 21.5657 67.5672 22.9068 67.7153 24.2466Z" fill="#155640"/>
<path id="Vector_7" d="M92.1574 25.0407C92.6305 23.7009 93.1036 22.3612 93.5754 21.0214C94.1006 19.5322 91.7351 18.8918 91.214 20.3701C90.7409 21.7098 90.2678 23.0496 89.796 24.3893C89.2708 25.8786 91.6363 26.519 92.1574 25.0407Z" fill="#155640"/>
<path id="Vector_8" d="M111.465 32.2001C112.412 31.2539 113.356 30.309 114.303 29.3628C115.419 28.2466 113.687 26.5147 112.571 27.6309C111.624 28.5771 110.68 29.5219 109.733 30.4681C108.617 31.5844 110.349 33.3163 111.465 32.2001Z" fill="#155640"/>
<path id="Vector_9" d="M127.058 43.5039C128.32 42.5577 129.58 41.6128 130.842 40.6666C131.37 40.2703 131.643 39.608 131.281 38.9909C130.976 38.4698 130.137 38.153 129.605 38.5521C128.343 39.4983 127.083 40.4431 125.822 41.3893C125.294 41.7856 125.021 42.448 125.383 43.065C125.687 43.5861 126.526 43.9029 127.058 43.5039Z" fill="#155640"/>
<path id="Vector_10" d="M105.506 78.2871C105.245 78.8356 104.948 79.3677 104.616 79.8764C104.438 80.1507 104.251 80.4209 104.048 80.6787C104.008 80.7308 103.964 80.7801 103.923 80.8295C103.756 80.6238 103.601 80.403 103.469 80.2412C103.116 79.8093 102.781 79.3663 102.455 78.9138C102.068 78.3776 101.389 78.1184 100.779 78.475C100.25 78.7849 99.9506 79.6104 100.34 80.1507C100.98 81.0393 101.654 81.9101 102.379 82.7301C103.17 83.6228 104.295 83.9602 105.236 83.0455C106.678 81.6441 107.704 79.6378 108.343 77.755C108.672 76.7855 108.875 75.7858 108.997 74.7697C109.136 73.6274 108.95 72.5249 107.793 72.0011C106.811 71.5567 105.646 71.3867 104.591 71.1865C103.42 70.9643 102.235 70.7998 101.048 70.6915C100.436 70.6352 99.7339 70.5036 99.1511 70.7545C98.556 71.011 98.1803 71.5897 98.183 72.2369C98.1844 72.8663 98.449 73.5273 98.6067 74.1307C98.7877 74.8177 98.9688 75.5061 99.1498 76.1931C99.5502 77.7166 101.913 77.0708 101.511 75.5418C101.353 74.9398 101.194 74.3378 101.037 73.7371C100.983 73.5328 100.93 73.3285 100.876 73.1255C101.236 73.1571 101.595 73.1927 101.953 73.2352C102.619 73.3134 103.282 73.4231 103.94 73.5479C104.664 73.685 105.382 73.8468 106.097 74.0306C106.241 74.0676 106.427 74.154 106.578 74.1636C106.559 74.4255 106.542 74.7999 106.538 74.8314C106.366 76.0162 106.019 77.2065 105.506 78.2871Z" fill="#155640"/>
<path id="Vector_11" d="M50.0585 78.4829C50.6166 79.5978 51.1761 80.7126 51.7342 81.8275C52.1758 82.7093 52.5542 83.7473 53.3784 84.3507C53.7939 84.6551 54.2821 84.8115 54.8004 84.7854C55.3229 84.7593 55.7658 84.4796 56.2732 84.4028C57.3469 84.2396 58.3754 84.4165 59.3189 83.7405C60.069 83.2029 60.3885 82.4103 60.7834 81.6149C61.1866 80.8045 62.1616 80.4589 62.2781 79.5018C62.4208 78.3266 61.2264 77.3104 60.5078 76.5151C59.7412 75.6649 58.9514 74.7392 58.0093 74.0796C57.0795 73.4283 55.918 73.3542 54.8567 73.697C53.8391 74.0262 52.9451 74.6501 51.8782 74.8215C51.2241 74.9271 50.862 75.7403 51.0225 76.3272C51.0527 76.4396 51.0979 76.5384 51.15 76.6289C50.3684 76.6851 49.5895 77.5463 50.0585 78.4815V78.4829ZM52.5282 77.1829C53.2975 77.0595 54.001 76.7208 54.7031 76.3971C55.1762 76.1777 55.8193 75.8061 56.3582 75.9597C57.0521 76.1585 57.6939 77.0869 58.1684 77.5874C58.6195 78.0646 59.1749 78.572 59.5986 79.126C59.5616 79.1562 59.5232 79.1836 59.4875 79.2138C59.2901 79.4017 59.1173 79.6224 58.9665 79.8487C58.7059 80.2409 58.54 80.6797 58.3315 81.0993C58.1656 81.4339 58.0408 81.7411 57.6651 81.8522C57.1618 82.0003 56.5776 81.9166 56.0579 81.9783C55.7233 82.0181 55.423 82.0826 55.1049 82.1868C54.9156 82.2485 54.6894 82.2457 54.7511 82.3321C54.4439 82.0387 54.2519 81.3928 54.0887 81.0678C53.4511 79.7939 52.812 78.5199 52.1744 77.246C52.1662 77.2295 52.1579 77.2158 52.1483 77.2007C52.2731 77.209 52.4006 77.2035 52.5282 77.1829Z" fill="#155640"/>
<path id="Vector_12" d="M79.7156 65.3884C81.4722 65.1046 82.9875 63.8498 83.4222 62.0959C83.824 60.4764 83.3715 58.6005 82.0523 57.5213C80.1695 55.9813 77.6518 56.5106 75.5372 57.1922C75.3754 57.2443 75.241 57.3197 75.1272 57.4088C74.5595 57.2936 73.9328 57.5281 73.7477 58.2508C72.7782 62.0383 75.6195 66.0508 79.7156 65.3871V65.3884ZM77.2829 62.5622C76.3299 61.9136 75.9267 60.7205 75.9994 59.5988C76.0597 59.5878 76.1228 59.5741 76.1859 59.5535C77.4365 59.1504 79.4523 58.3962 80.574 59.4754C81.3255 60.1981 81.2885 61.5776 80.6042 62.3222C79.7787 63.2204 78.2469 63.2177 77.2815 62.5608L77.2829 62.5622Z" fill="#155640"/>
</g>
</g>
</svg>
