<svg width="150" height="150" viewBox="0 0 150 150" fill="none" xmlns="http://www.w3.org/2000/svg">
<g id="illustration-lying">
<g id="lying">
<path id="Vector" d="M39.483 46.0286C39.967 46.3108 40.7945 46.187 41.0435 45.62C42.6947 41.8463 44.5937 38.1876 46.7276 34.6655C47.2397 35.313 47.6675 36.023 47.9906 36.7918C48.481 37.9577 48.5385 39.1709 48.8373 40.3777C49.1578 41.6701 50.0543 42.8105 51.4948 42.7977C52.1806 42.7913 52.8664 42.5704 53.5368 42.4503C54.3337 42.3086 55.1357 42.2192 55.9427 42.1707C58.8799 41.997 61.8171 42.3852 64.6062 43.3264C66.0007 43.7976 67.4055 44.7158 68.9264 44.5511C70.4397 44.3876 71.8713 43.4554 73.2645 42.8871C75.977 41.7812 78.7724 40.8936 81.6215 40.2181C81.0072 42.8245 80.0788 45.3403 78.8286 47.7181C78.1467 49.0169 80.1146 50.1701 80.7978 48.8688C82.4222 45.7783 83.5792 42.4657 84.1909 39.0279C84.3467 38.1505 83.6852 37.4418 82.7887 37.6257C79.826 38.2323 76.9143 39.0649 74.0831 40.1287C72.6694 40.6599 71.2813 41.2525 69.9085 41.8795C69.3874 42.1183 68.837 42.3724 68.2534 42.2677C67.537 42.1387 66.8487 41.7352 66.1744 41.4747C63.4339 40.4122 60.4724 39.872 57.5352 39.849C56.0679 39.8375 54.6019 39.9678 53.155 40.2117C52.8561 40.2615 52.5573 40.319 52.261 40.3803C52.0554 40.4224 51.5995 40.6076 51.3812 40.5041C51.127 40.3828 51.053 39.8528 50.9993 39.6076C50.864 38.9857 50.818 38.3498 50.6749 37.7278C50.5089 37.0076 50.2586 36.3154 49.9598 35.6399C49.3481 34.2607 48.4503 33.0143 47.3559 31.976C46.8106 31.4601 45.9627 31.5751 45.5655 32.2072C43.1008 36.1277 40.9311 40.2257 39.0756 44.4681C38.8291 45.0325 38.9096 45.6915 39.4842 46.0286H39.483Z" fill="#155640"/>
<path id="Vector_2" d="M74.419 53.6457C70.7833 53.8717 67.2638 54.9355 64.1312 56.7987C62.8708 57.5483 64.0163 59.5214 65.2818 58.7679C68.0632 57.1141 71.1869 56.127 74.419 55.9265C75.8774 55.8358 75.8876 53.555 74.419 53.6457Z" fill="#155640"/>
<path id="Vector_3" d="M45.2131 54.6269C47.3215 55.6856 49.0736 57.2627 50.3072 59.2779C51.0722 60.5281 53.0465 59.3826 52.2764 58.1273C50.85 55.7967 48.808 53.8862 46.3637 52.659C45.056 52.0013 43.899 53.9692 45.2131 54.6282V54.6269Z" fill="#155640"/>
<path id="Vector_4" d="M59.9668 74.1116C60.544 73.8984 60.936 73.339 60.7636 72.7094C60.6104 72.1539 59.9412 71.698 59.3615 71.9126C57.995 72.417 56.3029 71.7555 55.8381 70.3111C55.5188 69.3176 53.8625 69.1375 53.639 70.3111C53.4934 71.0786 52.8639 71.6022 52.0747 71.6201C51.2203 71.6405 50.4388 71.0544 49.9752 70.3788C49.1515 69.1746 47.1734 70.315 48.006 71.5294C48.9536 72.9138 50.5039 74.0069 52.2522 73.8932C53.1882 73.832 54.1 73.4361 54.7781 72.8027C56.0833 74.1589 58.124 74.7923 59.968 74.1116H59.9668Z" fill="#155640"/>
<path id="Vector_5" d="M56.4127 98.248C56.4127 97.575 55.8866 97.1765 55.2723 97.1076C53.1562 96.8713 51.007 96.1677 49.2332 94.9749C47.8386 94.0376 46.5884 92.6213 46.6318 90.8539C46.6676 89.3853 44.3868 89.3866 44.351 90.8539C44.291 93.3237 45.8554 95.3299 47.7646 96.7219C49.9292 98.2991 52.6403 99.0934 55.2723 99.3884C55.8853 99.4573 56.4127 98.815 56.4127 98.248Z" fill="#155640"/>
<path id="Vector_6" d="M85.3084 57.0058C87.3746 58.0351 89.3387 59.2662 91.1342 60.7182C91.6131 61.1051 92.2797 61.1856 92.7471 60.7182C93.1468 60.3185 93.2286 59.4948 92.7471 59.1053C90.7958 57.5269 88.7078 56.1553 86.4602 55.0366C85.15 54.3841 83.9943 56.3507 85.3096 57.0058H85.3084Z" fill="#155640"/>
<path id="Vector_7" d="M30.3215 63.5163C31.2947 63.4192 32.2703 63.3758 33.2434 63.3924C33.2983 63.7232 33.3635 64.0526 33.4388 64.3783C32.7862 64.4792 32.1349 64.5813 31.4824 64.6822C30.8732 64.7767 30.5361 65.5404 30.6855 66.0844C30.8643 66.7344 31.4773 66.9758 32.0877 66.8813C32.7645 66.7766 33.4414 66.6706 34.1195 66.5659C34.7005 68.0587 35.4948 69.4788 36.4373 70.8082C37.6569 72.5271 39.0489 74.1132 40.4498 75.6839C41.428 76.7822 43.037 75.1642 42.0627 74.071C39.9287 71.6766 37.699 69.1659 36.4143 66.2083C36.4399 66.2045 36.4654 66.2006 36.4909 66.1968C37.1001 66.1023 37.4372 65.3386 37.2878 64.7946C37.109 64.1446 36.496 63.9032 35.8856 63.9977C35.8167 64.0079 35.7464 64.0194 35.6775 64.0297C35.643 63.8892 35.6111 63.7474 35.5804 63.6031C35.5766 63.584 35.5727 63.5648 35.5689 63.5469C36.035 63.6018 36.4999 63.6695 36.9634 63.7538C37.5688 63.8636 38.1932 63.5878 38.3656 62.9569C38.5176 62.404 38.1779 61.6646 37.5688 61.5548C36.823 61.4194 36.0733 61.3134 35.3237 61.2393C35.3199 60.9405 35.3263 60.6417 35.3429 60.3428C36.6761 60.6021 37.9787 61.0273 39.2174 61.6237C39.7717 61.8906 40.4498 61.7757 40.778 61.2151C41.0704 60.7157 40.9261 59.9227 40.3693 59.6545C38.865 58.9292 37.2827 58.403 35.6596 58.0901C36.0861 56.2231 36.9085 54.4467 38.0885 52.9603C38.4716 52.4788 38.5585 51.8173 38.0885 51.3474C37.6914 50.9502 36.8613 50.8621 36.4756 51.3474C34.9649 53.2489 33.9177 55.4518 33.4082 57.7964C32.6432 57.7441 31.8732 57.739 31.1018 57.7849C29.6434 57.8718 29.6332 60.1526 31.1018 60.0657C31.7659 60.0261 32.4287 60.0261 33.0876 60.0632C33.071 60.3199 33.0582 60.5765 33.0531 60.8345C33.0519 60.9277 33.0519 61.0209 33.0531 61.1142C32.1439 61.104 31.2334 61.1435 30.3215 61.2342C29.7086 61.2955 29.1812 61.7144 29.1812 62.3746C29.1812 62.9442 29.7047 63.5763 30.3215 63.515V63.5163Z" fill="#155640"/>
<path id="Vector_8" d="M78.9359 63.2146C80.4045 63.2478 80.4033 60.967 78.9359 60.9338C76.4355 60.8776 73.9363 61.285 71.5904 62.1534C71.0132 62.3667 70.6211 62.926 70.7935 63.5556C70.9468 64.1111 71.6159 64.567 72.1957 64.3525C74.3692 63.5479 76.6181 63.161 78.9347 63.2146H78.9359Z" fill="#155640"/>
<path id="Vector_9" d="M77.3805 65.2809C75.7343 64.9412 74.0627 64.7867 72.3821 64.8505C70.9186 64.9054 70.9122 67.1862 72.3821 67.1313C73.8622 67.0751 75.3231 67.1811 76.7739 67.48C78.2067 67.775 78.8184 65.5772 77.3805 65.2809Z" fill="#155640"/>
<path id="Vector_10" d="M71.1102 69.7713C72.8968 69.9194 74.6527 70.24 76.3831 70.7086C77.8019 71.0917 78.4072 68.8927 76.9897 68.5096C75.0639 67.9885 73.0985 67.6565 71.1115 67.4918C70.4972 67.4407 69.9711 68.0524 69.9711 68.6322C69.9711 69.2911 70.4947 69.7215 71.1115 69.7726L71.1102 69.7713Z" fill="#155640"/>
<path id="Vector_11" d="M55.4345 64.9964C55.3221 64.9759 55.2097 64.9529 55.0986 64.9287C54.8534 64.8738 54.6108 64.8074 54.3707 64.7333C53.7845 64.5532 53.3107 64.8533 53.0924 65.2965C53.0515 65.3271 53.0119 65.359 52.9762 65.3948C52.5139 65.8571 52.5713 66.5403 52.9762 67.0077C53.3401 67.4266 53.7462 67.7714 54.1842 68.1098C54.5354 68.3805 55.1369 68.2707 55.4511 68.0204C55.6299 67.8774 55.7588 67.6948 55.8303 67.4904C56.0462 67.3219 56.2633 67.152 56.4791 66.9834C56.829 66.7102 56.8775 66.1074 56.7153 65.7383C56.5161 65.2863 56.1471 65.096 55.6733 65.0372C55.7601 65.0474 55.4319 64.9964 55.4345 64.9976V64.9964Z" fill="#155640"/>
<path id="Vector_12" d="M7.76767 79.8672C9.70622 78.0487 11.9359 76.584 14.2461 75.2839C16.6712 73.9201 19.1844 72.6519 21.8024 71.7006C24.8481 70.5934 28.0267 69.9651 31.2691 70.3597C31.882 70.4337 32.4095 69.7824 32.4095 69.2193C32.4095 68.5412 31.8833 68.1542 31.2691 68.0789C25.0473 67.3216 18.9814 70.0851 13.6587 73.0019C8.69736 75.7194 3.84332 79.3488 1.47314 84.6523C0.153953 87.6036 -0.373465 90.8051 0.282934 93.9951C0.579207 95.4318 2.77827 94.8239 2.482 93.3885C1.43099 88.2906 4.13832 83.2705 7.7664 79.8672H7.76767Z" fill="#155640"/>
<path id="Vector_13" d="M18.1283 82.2732C17.5511 82.0573 16.8781 82.5132 16.7262 83.07C16.5499 83.7098 16.9433 84.2564 17.523 84.4722C24.8239 87.2076 31.582 91.3389 37.3849 96.539C38.4078 97.885 39.6184 99.0765 40.9823 100.03C41.0704 100.122 41.1585 100.213 41.2453 100.306C43.1022 102.279 44.83 104.369 46.4123 106.569C46.7711 107.068 47.4058 107.31 47.9728 106.978C48.4657 106.689 48.7429 105.92 48.3815 105.417C47.3343 103.96 46.2284 102.549 45.0663 101.184C46.199 101.055 47.2436 100.504 47.937 99.3753C48.7071 98.1212 46.7354 96.9745 45.9678 98.2247C45.1684 99.5273 43.5236 98.9411 42.3985 98.2323C41.3679 97.1596 40.3003 96.1227 39.2008 95.1215C38.7998 94.5928 38.4307 94.0398 38.0974 93.4652C36.1385 90.0835 35.491 86.057 36.3581 82.24C36.8753 79.9617 37.8714 77.8584 39.28 75.9965C39.6516 75.5048 39.3579 74.7207 38.8713 74.436C38.2864 74.0937 37.6837 74.3517 37.3108 74.8446C34.3749 78.7281 33.1706 83.752 33.9407 88.5485C34.0901 89.4821 34.3238 90.413 34.629 91.3248C31.8719 89.2394 28.9487 87.3724 25.8864 85.7493C23.3808 84.4211 20.7846 83.2654 18.1296 82.2719L18.1283 82.2732Z" fill="#155640"/>
<path id="Vector_14" d="M148.62 83.249C146.941 79.4306 143.834 76.2967 140.293 74.159C135.698 71.3827 130.387 70.121 125.142 69.2705C124.535 69.1721 123.915 69.4275 123.74 70.0673C123.59 70.6114 123.925 71.3712 124.536 71.4695C127.152 71.8935 129.86 72.4439 132.475 73.2523C131.286 73.131 130.081 73.1284 128.903 73.2012C126.591 73.3442 124.217 73.6609 121.973 74.2445C121.344 74.408 120.724 74.6085 120.12 74.846C120.635 72.1387 120.555 69.3662 119.513 66.5925C118.276 63.3016 115.932 60.6504 113.159 58.5484C110.442 56.4886 107.258 54.928 103.911 54.2269C100.127 53.4351 96.052 53.7455 92.7892 55.9714C91.5837 56.7938 92.7241 58.7706 93.9398 57.9406C99.2012 54.3508 106.216 56.5128 111.043 59.8204C113.523 61.5201 115.718 63.7409 117.012 66.4827C118.514 69.6689 118.319 73.3455 117.326 76.6479C116.145 80.5799 113.832 84.0522 111.6 87.453C111.449 87.6816 111.396 87.9076 111.414 88.1158C111.366 88.1426 111.319 88.1681 111.272 88.1949C110.457 88.6636 109.649 89.343 108.766 89.6648C108.314 89.8296 107.874 89.7197 107.422 89.615C106.844 89.4822 106.267 89.3519 105.686 89.237C98.3456 87.7939 90.5544 88.223 83.6916 91.2139C84.7655 89.6763 85.6799 87.9306 86.0502 86.1121C87.229 87.2333 88.6171 88.1004 90.1802 88.6483C91.5684 89.1336 92.1647 86.9319 90.7868 86.4492C88.7512 85.7366 87.0757 84.2438 85.9494 82.4138C85.9455 82.4023 85.943 82.3895 85.9404 82.378C85.7221 81.6246 85.3849 80.9375 84.9584 80.3296C84.8486 80.0155 84.7528 79.6962 84.6723 79.3744C84.219 77.538 84.4757 75.7629 85.45 74.1437C86.3874 72.5869 87.727 71.2282 89.1088 70.0584C90.5569 68.8324 92.3205 67.7904 94.2386 67.5733C94.8503 67.5043 95.379 67.0982 95.379 66.4329C95.379 65.8697 94.8542 65.2235 94.2386 65.2925C89.9325 65.779 86.1997 68.9767 83.8244 72.458C82.6801 74.1347 82.0953 76.0298 82.1872 78.0233C80.407 77.2073 78.2897 77.1613 76.3754 78.1791C75.0792 78.8687 76.2298 80.8379 77.526 80.1483C79.4301 79.1356 81.6585 79.8073 82.9151 81.3794C83.1603 82.0281 83.4604 82.6564 83.809 83.2566C84.4144 85.9244 82.8181 88.7058 81.2281 90.7414C78.0483 94.8126 73.1036 97.7332 67.906 98.101C66.4681 98.2031 65.0199 98.1316 63.6088 97.8277C63.1108 97.7204 62.4378 97.6834 62.319 97.0946C62.2002 96.5085 62.4939 95.7448 62.7162 95.2199C62.9562 94.6529 62.886 93.9991 62.3075 93.6594C61.8299 93.3797 60.9883 93.4985 60.747 94.0681C60.1225 95.5456 59.5516 97.4216 60.6678 98.8212C61.7303 100.153 64.0226 100.282 65.6023 100.387C68.0401 100.549 70.4806 100.168 72.7882 99.3933C72.1586 100.165 71.5673 100.969 71.0259 101.809C70.2277 103.047 72.2007 104.191 72.9951 102.96C77.1288 96.5545 84.1296 92.5343 91.5403 91.2075C95.8426 90.4374 100.326 90.5511 104.616 91.3454C105.71 91.5485 106.8 91.8933 107.906 92.0069C108.987 92.1193 109.919 91.7004 110.816 91.1385C112.586 90.0288 114.412 89.0289 116.331 88.2001C120.607 86.356 125.24 85.3356 129.89 85.1658C130.527 85.1428 130.888 84.6958 130.971 84.2042C132.168 84.6486 133.195 85.3791 133.434 86.7876C133.763 88.7338 132.1 90.3404 130.636 91.3148C128.67 92.6224 126.538 93.7194 124.46 94.8343C120.239 97.0998 115.92 99.1468 111.544 101.093C109.872 101.836 108.11 102.857 107.491 104.692C106.774 106.814 108.157 108.866 109.817 110.064C110.285 110.401 110.771 110.68 111.271 110.906C97.6087 114.687 83.3749 116.263 69.2112 115.536C67.4029 115.443 65.5269 115.425 63.7467 115.075C62.9039 114.909 62.1262 114.579 61.3076 114.337C60.3856 114.067 59.4393 114.023 58.4891 114.138C56.5659 114.372 54.6606 114.77 52.7399 115.035C50.9252 115.284 49.1029 115.479 47.2767 115.608C39.9848 116.126 32.7274 115.434 25.9323 112.612C18.7668 109.635 12.4761 104.902 6.3054 100.287C5.81246 99.9182 5.03091 100.207 4.74486 100.696C4.40389 101.278 4.65929 101.886 5.15351 102.256C10.775 106.462 16.463 110.703 22.838 113.715C26.0446 115.23 29.3969 116.432 32.8768 117.134C36.5802 117.881 40.3718 118.136 44.1441 118.042C47.9484 117.947 51.7374 117.507 55.4945 116.916C57.2683 116.636 59.1481 116.037 60.9155 116.604C61.7367 116.867 62.5195 117.167 63.3738 117.318C64.3827 117.495 65.4056 117.571 66.426 117.645C74.0448 118.198 81.7096 118.085 89.3093 117.322C97.8578 116.462 106.317 114.801 114.549 112.335C114.918 112.224 115.146 111.99 115.261 111.713C117.766 111.713 120.341 110.929 122.585 109.965C123.902 109.399 125.18 108.746 126.414 108.017C129.714 106.745 132.934 105.269 136.045 103.588C138.124 102.466 140.153 101.254 142.126 99.9552C144.033 98.7012 146.127 97.4228 147.694 95.7448C150.865 92.3504 150.363 87.2014 148.623 83.2438L148.62 83.249ZM117.151 85.4314C118.05 84.6639 119.154 84.1557 120.322 83.9169C120.875 83.8045 121.124 83.4099 121.141 82.9846C121.308 83.0944 121.52 83.1583 121.778 83.1506C123.147 83.1047 124.52 83.12 125.885 83.2324C122.926 83.6321 120.012 84.3549 117.216 85.4072C117.195 85.4148 117.174 85.4238 117.153 85.4314H117.151ZM110.838 108.004C110.227 107.51 109.638 106.8 109.581 105.985C109.529 105.243 110.031 104.646 110.585 104.217C111.213 103.731 111.968 103.388 112.688 103.069C113.702 102.619 114.717 102.175 115.726 101.714C119.915 99.7981 124.027 97.7153 128.05 95.4715C131.455 93.5726 136.417 91.0989 135.659 86.3828C134.909 81.7076 128.955 81.124 125.178 80.9005C124.045 80.8341 122.911 80.8315 121.777 80.8698C121.087 80.8928 120.722 81.4113 120.681 81.9477C120.437 81.7459 120.108 81.6386 119.716 81.7178C118.804 81.903 117.951 82.2312 117.168 82.6756C118.052 81.0192 118.834 79.3067 119.412 77.5546C119.57 77.5482 119.735 77.5074 119.903 77.4218C121.81 76.4577 123.954 76.0873 126.051 75.7821C128.277 75.4577 130.601 75.2547 132.838 75.588C136.386 76.1167 139.912 78.2008 140.674 81.9374C141.075 83.9015 140.659 85.9716 140.064 87.8501C139.503 89.6214 138.74 91.3275 137.856 92.9609C136.122 96.1675 133.879 99.0664 131.227 101.567C129.447 103.245 127.488 104.722 125.391 105.975C124.327 106.381 123.256 106.766 122.175 107.127C121.714 107.282 121.473 107.629 121.408 108.006C118.108 109.404 113.846 110.438 110.839 108.002L110.838 108.004ZM146.56 93.5636C145.369 95.2174 143.395 96.3642 141.733 97.4854C139.87 98.742 137.953 99.9207 135.993 101.019C135.294 101.41 134.589 101.789 133.881 102.159C136.085 99.908 138.002 97.3615 139.544 94.621C141.525 91.104 143.407 86.8298 143.065 82.7062C142.885 80.5429 142.027 78.6772 140.71 77.183C142.732 78.6478 144.485 80.4701 145.816 82.7611C147.582 85.8005 148.808 90.4464 146.56 93.5636Z" fill="#155640"/>
<path id="Vector_15" d="M103.391 35.8746C103.762 36.365 104.376 36.6204 104.952 36.2833C105.436 35.9998 105.733 35.2182 105.36 34.7228C104.693 33.8378 104.089 32.9119 103.546 31.9452C102.828 30.6656 100.856 31.8137 101.577 33.0958C102.119 34.0625 102.723 34.9884 103.391 35.8734V35.8746Z" fill="#155640"/>
<path id="Vector_16" d="M110.206 34.3179C110.202 33.5785 110.198 32.8391 110.194 32.101C110.186 30.6336 107.906 30.6311 107.913 32.101C107.917 32.8404 107.921 33.5798 107.925 34.3179C107.932 35.7852 110.213 35.7878 110.206 34.3179Z" fill="#155640"/>
<path id="Vector_17" d="M99.4656 38.3366C100.151 38.8257 100.881 39.2343 101.656 39.5625C102.223 39.8026 102.877 39.7324 103.216 39.1539C103.496 38.675 103.377 37.8347 102.808 37.5933C102.032 37.2651 101.303 36.8565 100.618 36.3674C100.116 36.0098 99.3481 36.2793 99.057 36.776C98.7224 37.3494 98.9637 37.9777 99.4656 38.3366Z" fill="#155640"/>
<path id="Vector_18" d="M103.186 41.2894C102.751 41.6048 102.316 41.9202 101.882 42.2344C101.4 42.583 101.117 43.242 101.473 43.7949C101.781 44.2725 102.517 44.579 103.034 44.2036C103.468 43.8881 103.903 43.5727 104.338 43.2586C104.819 42.9099 105.103 42.251 104.746 41.698C104.438 41.2204 103.703 40.9139 103.186 41.2894Z" fill="#155640"/>
<path id="Vector_19" d="M106.455 43.4796C106.455 43.4796 106.486 43.7031 106.488 43.7056C106.511 43.924 106.528 44.1424 106.537 44.362C106.561 44.9571 107.044 45.5305 107.677 45.5024C108.275 45.4756 108.843 45.0005 108.817 44.362C108.792 43.7452 108.713 43.1284 108.585 42.5231C108.462 41.9382 107.743 41.5449 107.183 41.7262C106.565 41.9267 106.254 42.5026 106.386 43.1284C106.41 43.2446 106.434 43.3621 106.455 43.4796Z" fill="#155640"/>
<path id="Vector_20" d="M110.765 39.8015C110.315 39.4094 109.589 39.3264 109.152 39.8015C108.757 40.2306 108.672 40.9955 109.152 41.4144C109.599 41.8039 110.032 42.2074 110.452 42.625C110.876 43.0465 111.647 43.0797 112.065 42.625C112.482 42.1704 112.517 41.4616 112.065 41.0121C111.645 40.5945 111.212 40.191 110.765 39.8015Z" fill="#155640"/>
<path id="Vector_21" d="M109.215 37.587C109.421 38.228 109.985 38.4847 110.617 38.3838C111.167 38.2957 111.71 38.1757 112.248 38.0263C112.822 37.8654 113.235 37.2115 113.044 36.6241C112.855 36.0379 112.256 35.6548 111.642 35.8272C111.105 35.9779 110.562 36.0967 110.011 36.1848C109.42 36.2793 109.04 37.0455 109.215 37.587Z" fill="#155640"/>
<path id="Vector_22" d="M13.1683 44.8637C14.2104 45.8994 15.8246 44.2878 14.7812 43.2508C13.9422 42.4169 13.1019 41.5817 12.2629 40.7478C11.2208 39.7121 9.60664 41.3238 10.65 42.3607C11.489 43.1946 12.3293 44.0298 13.1683 44.8637Z" fill="#155640"/>
<path id="Vector_23" d="M17.8564 43.1628C18.0581 43.7451 18.6379 44.1295 19.2585 43.9596C19.8243 43.8038 20.2572 43.141 20.0554 42.5574C19.7387 41.6418 19.4999 40.7096 19.3377 39.7543C19.2343 39.1465 18.4859 38.8068 17.9355 38.9575C17.2919 39.1337 17.0352 39.7505 17.1387 40.3596C17.3008 41.3149 17.5397 42.2471 17.8564 43.1628Z" fill="#155640"/>
<path id="Vector_24" d="M9.84931 50.2083C10.6309 50.3219 11.4124 50.4369 12.194 50.5505C12.8031 50.6399 13.4199 50.3998 13.5961 49.7537C13.743 49.2173 13.4123 48.4409 12.7993 48.3515C12.0177 48.2378 11.2362 48.1229 10.4546 48.0092C9.84548 47.9198 9.22867 48.1599 9.05244 48.8061C8.90558 49.3424 9.23633 50.1189 9.84931 50.2083Z" fill="#155640"/>
<path id="Vector_25" d="M14.7492 52.8377C14.7058 53.5119 14.6624 54.1849 14.6189 54.8592C14.5794 55.4748 15.1719 55.9996 15.7593 55.9996C16.4094 55.9996 16.8602 55.476 16.8997 54.8592C16.9432 54.1849 16.9866 53.5119 17.03 52.8377C17.0696 52.2221 16.477 51.6973 15.8896 51.6973C15.2396 51.6973 14.7888 52.2209 14.7492 52.8377Z" fill="#155640"/>
<path id="Vector_26" d="M19.2752 51.8464C19.5995 52.3534 19.9443 52.9932 20.1346 53.4669C20.3645 54.0378 20.8957 54.4401 21.5368 54.2638C22.0795 54.1144 22.5648 53.4363 22.3337 52.8616C22.0297 52.1069 21.6824 51.3828 21.2443 50.6958C20.9136 50.1773 20.2304 49.9666 19.6838 50.2871C19.1679 50.5898 18.9418 51.3266 19.2752 51.8477V51.8464Z" fill="#155640"/>
<path id="Vector_27" d="M22.5277 48.2108C23.1113 47.9567 23.7268 47.769 24.3436 47.6144C24.9413 47.4638 25.3001 46.7959 25.1405 46.2123C24.9745 45.6057 24.3372 45.2647 23.7383 45.4154C22.9235 45.621 22.1471 45.907 21.3771 46.2416C20.8126 46.4868 20.6836 47.3156 20.9684 47.8022C21.3094 48.3858 21.9619 48.4573 22.5289 48.2108H22.5277Z" fill="#155640"/>
</g>
</g>
</svg>
