<svg width="150" height="150" viewBox="0 0 150 150" fill="none" xmlns="http://www.w3.org/2000/svg">
<g id="illustration-mice">
<g id="mice">
<path id="Vector" d="M43.5022 70.172C44.7963 65.2274 47.3302 60.6528 50.8506 56.9454C54.4374 53.1689 59.3548 49.7027 64.7208 49.425C67.2777 49.2935 69.8875 49.8803 71.9675 51.4236C73.6288 52.6554 74.8104 54.482 75.4784 56.421C76.9934 60.8154 76.4012 65.6353 74.8185 69.9213C72.9188 75.0636 69.3618 79.6315 64.5975 82.3985C63.2519 83.1803 64.4687 85.2725 65.8184 84.4879C70.5461 81.7413 74.2237 77.3753 76.4107 72.3874C78.5083 67.6001 79.4853 62.1691 78.1831 57.0267C77.5801 54.6446 76.431 52.36 74.6898 50.6052C72.6654 48.5659 69.9702 47.4276 67.1422 47.0902C61.073 46.368 55.2707 49.5849 50.898 53.5199C46.1893 57.7584 42.7705 63.4008 41.1675 69.527C40.7732 71.0351 43.1066 71.6788 43.5009 70.1706L43.5022 70.172Z" fill="#155640"/>
<path id="Vector_2" d="M129.586 80.9851C131.035 78.1693 131.753 75.0364 131.588 71.8684C131.416 68.5892 130.42 65.4401 129.029 62.4847C127.638 59.524 125.834 56.7705 123.882 54.1526C121.966 51.5862 119.952 49.0414 117.537 46.9208C112.521 42.5155 106.112 40.8692 99.6008 40.2716C92.7727 39.6442 85.7753 40.0683 79.1546 41.9153C77.5679 42.3584 76.0069 42.8895 74.477 43.4993C73.87 43.7418 73.4445 44.3083 73.6315 44.9871C73.79 45.5644 74.5095 46.0752 75.1193 45.8327C81.2495 43.3882 87.8201 42.357 94.4042 42.4234C100.51 42.4857 107.113 43.1551 112.505 46.2514C115.153 47.7717 117.34 49.9086 119.3 52.2257C121.319 54.6106 123.191 57.1513 124.825 59.8167C127.955 64.9211 130.347 71.0526 128.581 77.0595C126.955 82.5894 122.33 86.8009 117.789 90.0516C113.056 93.4406 107.803 96.0463 102.314 97.961C90.7849 101.983 78.3999 103.22 66.2492 103.171C52.6772 103.116 39.2122 100.82 26.7837 95.2279C25.2742 94.549 23.7864 93.8268 22.3162 93.0666C20.9354 92.3525 19.7091 94.4392 21.0953 95.1561C27.2133 98.3187 33.6822 100.809 40.3545 102.519C47.3492 104.313 54.5553 105.221 61.7654 105.498C68.4417 105.754 75.1613 105.533 81.8051 104.82C87.9935 104.156 94.1508 103.046 100.109 101.227C105.936 99.4461 111.597 96.9921 116.728 93.6926C121.748 90.4649 126.809 86.3876 129.586 80.9864V80.9851Z" fill="#155640"/>
<path id="Vector_3" d="M33.7243 76.1895C32.9993 76.1895 32.5996 76.7491 32.5142 77.3995C32.2906 79.1082 32.2324 80.8237 32.3408 82.5432C32.4383 84.0907 34.8584 84.1015 34.7609 82.5432C34.6525 80.8237 34.7107 79.1082 34.9343 77.3995C35.0197 76.7504 34.3178 76.1895 33.7243 76.1895Z" fill="#155640"/>
<path id="Vector_4" d="M27.6103 91.0095C33.1443 91.3577 38.6945 91.1856 44.196 90.4959C44.8437 90.4146 45.406 89.9973 45.406 89.2859C45.406 88.6951 44.8491 87.9945 44.196 88.0758C38.6945 88.7655 33.1429 88.9376 27.6103 88.5894C26.0547 88.4918 26.0615 90.9119 27.6103 91.0095Z" fill="#155640"/>
<path id="Vector_5" d="M28.4694 95.3496C34.525 97.454 40.6755 99.2779 46.9006 100.814C48.4128 101.188 49.0578 98.8551 47.5442 98.4811C41.3192 96.9445 35.17 95.1206 29.113 93.0162C27.6387 92.504 27.0059 94.8415 28.4694 95.3496Z" fill="#155640"/>
<path id="Vector_6" d="M10.3648 79.0299C10.2428 75.5177 10.3986 72.0054 10.8323 68.5162C10.9122 67.8671 10.2184 67.3062 9.6222 67.3062C8.90132 67.3062 8.49346 67.8644 8.41215 68.5162C7.9799 72.0041 7.82271 75.5163 7.94467 79.0299C7.99887 80.5828 10.419 80.5896 10.3648 79.0299Z" fill="#155640"/>
<path id="Vector_7" d="M6.05164 82.8482C4.02315 81.6449 2.72367 79.6273 2.3551 77.3102C2.25211 76.6638 1.44722 76.3061 0.867265 76.4646C0.178906 76.653 -0.0812618 77.3048 0.0217211 77.9525C0.485144 80.859 2.30903 83.4417 4.83075 84.9377C6.17359 85.7344 7.39177 83.6436 6.05164 82.8482Z" fill="#155640"/>
<path id="Vector_8" d="M21.1115 75.9931C21.1888 75.0582 21.2674 74.1245 21.3446 73.1896C21.388 72.6692 20.9828 72.2099 20.5058 72.0446C24.7471 67.9103 29.7025 64.4428 34.8828 61.6392C38.3625 59.7557 41.971 58.1243 45.6499 56.6717C46.257 56.4318 46.6811 55.8613 46.4955 55.1838C46.3369 54.6052 45.6188 54.0971 45.0076 54.3383C31.8434 59.5362 19.1156 67.1691 11.3959 79.3943C9.34439 82.6437 7.71834 86.1695 6.62347 89.8552C6.27252 91.0368 7.65466 91.6831 8.46904 91.1682C8.34031 91.7509 8.28069 92.3498 8.29695 92.9447C8.31998 93.7726 8.47446 94.5843 9.12758 95.1493C9.78749 95.7198 10.7983 95.7821 11.6317 95.816C13.1358 95.8756 15.1805 95.6846 15.7591 94.0301C16.0058 93.3241 15.9326 92.5219 15.6697 91.8322C15.3906 91.1005 14.9014 90.4758 14.7876 89.6899C14.6941 89.0422 13.8729 88.6871 13.2997 88.8443C12.6046 89.0354 12.3607 89.6831 12.4542 90.3322C12.5342 90.8823 12.7618 91.381 13.0125 91.8728C13.1846 92.2102 13.4244 92.5476 13.48 92.9311C13.4935 93.0233 13.5179 93.1276 13.4827 93.217C13.4691 93.217 13.4393 93.2225 13.3716 93.2414C12.8919 93.3729 12.3837 93.404 11.8878 93.4C11.5694 93.3972 11.0355 93.442 10.7157 93.3092C10.8214 93.3322 10.7225 93.1303 10.7157 92.9433C10.7089 92.6818 10.7116 92.4162 10.7428 92.156C10.8566 91.2305 11.232 90.3999 11.7618 89.6438C12.1371 89.1086 11.858 88.2982 11.3282 87.9879C10.7238 87.6343 10.049 87.885 9.67231 88.4216C9.64792 88.4568 9.62488 88.4934 9.60049 88.5286C11.6073 82.9215 14.8594 77.9796 18.8811 73.6977C18.8175 74.4619 18.7538 75.2275 18.6901 75.9918C18.6359 76.6436 19.2849 77.2018 19.9001 77.2018C20.5993 77.2018 21.056 76.6463 21.1102 75.9918L21.1115 75.9931Z" fill="#155640"/>
<path id="Vector_9" d="M19.1318 67.4241C20.0722 62.7248 22.3798 58.3914 25.6942 54.9347C27.3487 53.2083 29.2214 51.7165 31.2878 50.5132C33.2865 49.3478 35.6714 48.1784 38.0007 47.9291C39.2704 47.7936 40.5346 48.0809 41.1254 49.314C41.6268 50.3587 41.5997 51.665 41.4167 52.7815C41.3124 53.4252 41.5848 54.0837 42.2623 54.2693C42.8395 54.4279 43.6458 54.0729 43.7501 53.4238C44.1864 50.7449 43.8883 47.3044 41.0848 45.9995C38.2866 44.696 34.9356 46.0605 32.3299 47.2489C27.3243 49.5321 23.06 53.4401 20.2023 58.1285C18.583 60.7844 17.4095 63.7289 16.7984 66.7804C16.4935 68.3008 18.8255 68.9525 19.1318 67.4241Z" fill="#155640"/>
<path id="Vector_10" d="M146.26 69.9386C142.855 65.6268 137.545 62.8856 132.038 62.765C130.479 62.7311 130.481 65.1512 132.038 65.1851C136.442 65.2813 140.629 67.3328 143.606 70.5456C146.467 73.6338 149.285 79.352 146.412 83.2532C144.999 85.1733 142.676 86.2465 140.53 87.1164C139.187 87.6598 137.826 88.172 136.523 88.8061C135.364 89.3712 134.123 90.0379 133.408 91.1558C133.086 91.6585 132.899 92.275 132.91 92.8712C132.923 93.5853 133.223 94.2032 133.36 94.8889C133.549 95.8306 133.085 96.6382 132.443 97.3009C131.657 98.1125 130.688 98.7033 129.692 99.2237C128.44 99.8768 127.164 100.485 125.876 101.067C119.987 103.724 113.764 105.63 107.415 106.812C106.773 106.931 106.407 107.709 106.57 108.3C106.755 108.975 107.414 109.264 108.058 109.145C114.134 108.014 120.05 106.195 125.727 103.758C128.296 102.655 131.055 101.543 133.265 99.7995C134.253 99.0204 135.096 98.061 135.55 96.874C135.757 96.3347 135.855 95.7304 135.825 95.1531C135.79 94.4593 135.531 93.8536 135.382 93.187C135.124 92.0298 136.694 91.4173 137.523 91.0013C138.852 90.3346 140.251 89.8292 141.623 89.2614C144.149 88.2167 146.63 86.9389 148.318 84.7139C151.728 80.2206 149.39 73.9007 146.259 69.9345L146.26 69.9386Z" fill="#155640"/>
<path id="Vector_11" d="M92.5247 56.1023C92.2971 57.1728 92.98 57.9994 93.7199 58.6687C95.098 59.914 96.4571 61.181 97.7444 62.5198C98.3907 63.1919 99.0208 63.8829 99.6238 64.5943C99.323 64.7745 99.0221 64.9548 98.7213 65.135C97.3866 65.9358 98.6021 68.028 99.9422 67.2245C100.341 66.9846 100.74 66.7461 101.139 66.5063C101.647 67.1974 102.127 67.9088 102.57 68.6418L100.364 70.0538C99.056 70.8912 100.269 72.9861 101.585 72.1432C102.297 71.6866 103.01 71.2313 103.723 70.7747C103.789 70.9142 103.857 71.0538 103.921 71.1947C104.236 71.8912 104.498 72.6134 104.723 73.3452C104.982 74.1866 105.037 75.2964 105.67 75.9604C106.41 76.7355 107.501 76.5282 108.292 75.978C109.217 75.3344 110.094 74.6054 110.982 73.9116C113.617 71.8533 116.196 69.7232 118.719 67.5293C119.287 68.2245 119.856 68.921 120.424 69.6161C120.837 70.1229 121.705 70.0456 122.135 69.6161C122.636 69.1147 122.55 68.4128 122.135 67.9047C121.6 67.2488 121.063 66.593 120.528 65.9372C120.948 65.5618 121.367 65.1851 121.784 64.8071C122.94 63.7583 121.224 62.0509 120.073 63.0957C119.715 63.4195 119.356 63.7407 118.995 64.0618C118.956 64.0144 118.918 63.9669 118.879 63.9195C118.466 63.4127 117.597 63.49 117.167 63.9195C116.666 64.4209 116.753 65.1228 117.167 65.6309C117.174 65.6404 117.182 65.6486 117.189 65.658C115.932 66.7556 114.662 67.8383 113.375 68.902C112.253 69.8302 111.12 70.7448 109.976 71.6459C109.418 72.0863 108.858 72.5227 108.295 72.9549C108.022 73.1636 107.751 73.3709 107.478 73.5782C107.419 73.6229 107.361 73.6677 107.303 73.7124C107.266 73.5186 107.236 73.3303 107.207 73.2259C107.041 72.6311 106.849 72.043 106.629 71.4657C106.372 70.7869 106.082 70.1202 105.766 69.4657C106.319 69.112 106.871 68.7584 107.423 68.4047C108.731 67.5673 107.518 65.4724 106.202 66.3152C105.671 66.6553 105.139 66.9955 104.608 67.3356C104.174 66.6242 103.711 65.9304 103.219 65.2569C103.293 65.2122 103.369 65.1675 103.444 65.1214C104.778 64.3206 103.563 62.2284 102.223 63.032C102.055 63.1322 101.887 63.2339 101.719 63.3341C101.518 63.0929 101.315 62.8531 101.109 62.6173C99.5967 60.8748 97.9462 59.2568 96.247 57.6999C95.8622 57.3476 95.4814 56.9072 95.0532 56.6118C95.037 56.601 95.0194 56.5793 95.0004 56.5562C95.2375 56.4099 95.5194 56.0088 95.6955 55.8408C96.6996 54.8746 97.7051 53.9085 98.7091 52.941C99.0194 52.6415 99.3311 52.3434 99.6414 52.044C100.494 52.6009 101.345 53.1565 102.197 53.7134C103.505 54.567 104.719 52.4735 103.418 51.6239C102.755 51.1903 102.091 50.758 101.429 50.3244C102.162 49.6184 102.896 48.9125 103.629 48.2079C104.48 48.8772 105.331 49.5453 106.184 50.2147C106.697 50.6185 107.394 50.716 107.895 50.2147C108.315 49.7946 108.411 48.9098 107.895 48.5033C107.056 47.8447 106.217 47.1848 105.379 46.5263C105.456 46.4517 105.534 46.3772 105.612 46.3027C106.736 45.2213 105.024 43.5113 103.9 44.5913C102.383 46.052 100.864 47.5127 99.346 48.9734C98.3392 48.4409 97.43 49.6035 97.7444 50.5141C96.5885 51.6266 95.4327 52.7377 94.2768 53.8502C93.6074 54.4939 92.7239 55.1429 92.5207 56.1023H92.5247Z" fill="#155640"/>
</g>
</g>
</svg>
