<svg width="150" height="150" viewBox="0 0 150 150" fill="none" xmlns="http://www.w3.org/2000/svg">
<g id="illustration-bell">
<g id="bell">
<path id="Vector" d="M96.9502 26.9204C97.6205 27.3131 98.7306 27.1298 99.0832 26.3618C100.083 24.1747 101.092 21.8584 102.826 20.1373C104.262 18.7095 106.282 17.6761 108.322 18.3045C110.509 18.9765 110.838 20.9542 110.586 22.9877C110.261 25.6182 109.144 28.1091 108.078 30.5074C107.736 31.2754 107.854 32.1831 108.636 32.6404C109.301 33.0297 110.426 32.8551 110.769 32.0819C112.969 27.1351 116.751 18.2312 109.598 15.4576C106.809 14.3771 103.812 15.3232 101.557 17.1123C99.0762 19.0795 97.6798 21.9753 96.3934 24.7908C96.0443 25.5554 96.1752 26.4683 96.9519 26.9239L96.9502 26.9204Z" fill="#155640"/>
<path id="Vector_2" d="M32.1417 43.7624C33.2326 39.9363 36.0185 36.9218 39.1778 34.6212C42.6217 32.1129 46.5142 30.1422 50.4399 28.5119C58.6962 25.0837 67.6524 23.2125 76.6086 23.5686C81.6182 23.7676 86.5563 24.7154 91.2744 26.412C93.1648 27.091 93.98 24.08 92.1035 23.4063C83.1124 20.1736 73.3777 19.7285 64.0043 21.3256C59.3123 22.1251 54.7146 23.4534 50.3002 25.2251C46.0377 26.9357 41.8101 28.9622 38.045 31.6137C34.0303 34.4414 30.5131 38.107 29.1359 42.9333C28.5843 44.8656 31.5918 45.6912 32.1417 43.7624Z" fill="#155640"/>
<path id="Vector_3" d="M126.294 47.0726C123.815 43.1871 120.869 39.5914 117.516 36.4285C116.057 35.0513 113.849 37.2524 115.311 38.6331C126.697 49.3784 132.899 65.0532 132.473 80.6563C132.355 85.0044 131.702 89.3018 130.525 93.4893C129.982 95.4233 132.988 96.249 133.531 94.3184C137.979 78.4884 135.112 60.9006 126.294 47.0726Z" fill="#155640"/>
<path id="Vector_4" d="M120.845 89.1183C112.709 83.2254 104.292 77.7235 95.6308 72.6336C86.9713 67.5437 78.0675 62.8675 68.9611 58.6276C59.7832 54.3546 50.3923 50.4028 40.6227 47.6903C35.1435 46.1682 29.4793 44.9568 23.8029 44.4942C21.4238 44.3005 19.385 45.2291 18.3447 47.4372C17.5348 49.16 17.3567 51.1708 16.2728 52.7575C15.1382 54.4175 17.8385 55.9797 18.9644 54.3302C19.9366 52.9076 20.27 51.197 20.8198 49.5929C20.9822 49.1181 21.2335 48.5176 21.5058 48.186C22.0626 47.507 22.9005 47.5367 23.8029 47.61C28.4565 47.9905 33.1013 48.9558 37.6169 50.113C46.8751 52.4869 55.7842 56.0408 64.4751 59.9804C81.7994 67.8335 98.4114 77.2575 114.041 88.1006C116.237 89.6227 118.412 91.1745 120.567 92.7524C122.498 94.1663 124.456 95.5767 126.109 97.3204C128.626 99.9736 130.709 104.744 127.706 107.867C126.315 109.314 128.516 111.52 129.911 110.071C132.868 106.994 132.809 102.234 130.902 98.6191C128.722 94.4857 124.523 91.7837 120.843 89.1183H120.845Z" fill="#155640"/>
<path id="Vector_5" d="M32.6399 105.315C30.6326 103.999 29.1489 101.968 27.9096 99.948C26.4818 97.6195 25.3105 95.1321 24.3016 92.5959C23.2124 89.8624 22.2332 87.0679 21.5856 84.1947C20.856 80.9586 20.5523 77.6595 20.4772 74.3466C20.3882 70.4261 20.5907 66.504 20.7303 62.587C20.8019 60.5814 17.6844 60.5832 17.6128 62.587C17.3562 69.7751 16.9443 77.0102 18.3843 84.111C19.0005 87.1499 19.9919 90.0911 21.1195 92.9747C22.2087 95.7605 23.4306 98.5149 24.9597 101.09C26.5341 103.741 28.4612 106.296 31.069 108.007C32.7516 109.11 34.3156 106.412 32.6417 105.315H32.6399Z" fill="#155640"/>
<path id="Vector_6" d="M120.288 114.731C113.463 119.957 106.83 125.541 98.7173 128.662C91.4298 131.465 83.6273 132.432 75.8703 131.575C71.6915 131.112 67.5826 130.088 63.6098 128.712C67.1287 123.839 67.3417 117.33 69.0593 111.685C69.2879 110.931 69.541 110.18 69.8482 109.454C70.131 108.786 70.3056 108.086 71.0928 107.983C71.8434 107.885 72.5992 107.963 73.3393 107.756C73.9537 107.583 74.5489 107.284 75.0813 106.935C77.4726 105.37 79.3787 102.861 80.4749 100.241C80.9864 99.0194 81.3355 97.6719 81.0806 96.3453C80.7717 94.7342 79.658 93.2051 78.5269 92.0618C77.2213 90.7422 75.6224 89.7054 73.9746 88.8693C72.1069 87.9232 70.1415 87.1307 68.0591 86.8392C64.3656 86.3243 60.1537 87.8289 58.7834 91.5765C58.0713 93.5263 58.5775 95.6453 57.9578 97.6055C57.4464 99.2271 56.3816 100.625 55.4198 102.004C53.3776 104.933 51.2673 107.822 48.9475 110.54C46.8214 113.031 44.479 115.693 41.5308 117.223C39.7504 118.148 41.3248 120.84 43.1035 119.915C45.6153 118.611 47.7309 116.525 49.63 114.462C51.8433 112.058 53.8524 109.468 55.7847 106.836C57.5843 104.382 59.6667 101.851 60.7663 98.9915C61.1067 98.1065 61.2848 97.1884 61.3668 96.2458C61.4541 95.2491 61.3563 94.221 61.5483 93.2365C61.8294 91.8017 62.8959 90.7666 64.2329 90.2377C67.5389 88.9321 71.489 90.8347 74.2592 92.6134C75.5753 93.4582 76.7971 94.5195 77.5739 95.8949C77.7205 96.155 77.8636 96.4221 77.9614 96.7049C77.998 96.8131 78.026 96.9213 78.0522 97.033C78.0522 97.04 78.0539 97.0435 78.0556 97.0487C78.0556 97.0679 78.0556 97.0906 78.0556 97.1185C78.0539 97.3524 78.0469 97.5706 78.0469 97.5706C78.0015 97.8883 77.9125 98.2043 77.8148 98.5097C77.1358 100.631 75.4112 102.963 73.5854 104.191C73.1542 104.481 72.8139 104.682 72.5136 104.746C71.8381 104.891 71.0614 104.837 70.3387 104.958C68.2912 105.298 67.5005 107.003 66.7988 108.737C65.4443 112.083 64.9311 115.689 64.1247 119.187C63.3637 122.493 62.3495 125.851 59.8779 128.302C58.9824 129.191 59.5061 130.501 60.5656 130.906C68.7765 134.052 77.6507 135.642 86.4393 134.757C94.432 133.952 102.257 131.263 109.033 126.934C113.514 124.071 117.649 120.648 121.866 117.419C122.533 116.907 122.887 116.077 122.425 115.286C122.041 114.63 120.966 114.212 120.292 114.727L120.288 114.731Z" fill="#155640"/>
</g>
</g>
</svg>
