<svg width="150" height="150" viewBox="0 0 150 150" fill="none" xmlns="http://www.w3.org/2000/svg">
<g id="illustration-toy-feather-2">
<g id="illustration-toy">
<path id="Vector" d="M22.3258 99.8645C23.5494 101.657 25.3257 102.863 27.2514 103.803C31.4451 105.849 35.9539 107.256 40.555 108.021C41.2 108.128 41.8601 107.851 42.0461 107.174C42.205 106.594 41.8492 105.79 41.1987 105.682C36.952 104.978 32.7747 103.738 28.877 101.902C27.2161 101.119 25.4833 100.196 24.4185 98.6409C23.3457 97.0723 22.8758 95.2077 22.4073 93.3906C22.0175 91.8805 19.6776 92.5201 20.0687 94.0357C20.5861 96.0416 21.1402 98.1316 22.3244 99.8645H22.3258Z" fill="#155640"/>
<path id="Vector_2" d="M42.5214 108.452C41.2747 108.492 40.0579 108.719 38.8967 109.176C38.3916 109.374 38.0059 109.77 38.0059 110.345C38.0059 110.849 38.3793 111.414 38.8967 111.514L42.6613 112.247C44.0628 112.52 44.7269 110.569 43.6336 110.02C43.8428 109.31 43.4734 108.422 42.5214 108.453V108.452Z" fill="#155640"/>
<path id="Vector_3" d="M18.6698 105.227C20.0265 105.303 21.371 105.815 22.5973 106.346C24.2582 107.066 25.9069 107.89 27.7009 108.223C29.245 108.51 30.9738 108.425 32.2518 109.47C33.402 110.41 34.3731 111.663 35.9416 111.882C36.9452 112.022 37.8171 111.143 37.339 110.157C38.4554 109.934 38.7813 108.113 37.4518 107.805C36.8787 107.672 36.3042 107.54 35.7311 107.407C35.12 107.266 34.5238 107.589 34.2929 108.105C33.9127 107.742 33.5365 107.381 33.1264 107.115C31.5456 106.086 29.6497 106.2 27.8829 105.788C26.0482 105.36 24.3791 104.449 22.6394 103.755C20.7164 102.988 18.7011 102.572 16.645 102.978C16.0325 103.099 15.5925 103.885 15.7976 104.469C17.3227 108.822 19.74 112.789 22.9314 116.12C24.0138 117.25 25.7263 115.534 24.6467 114.405C22.0989 111.746 20.0646 108.629 18.6698 105.227Z" fill="#155640"/>
<path id="Vector_4" d="M31.9911 93.9951C32.5954 93.9951 33.2704 93.4383 33.2038 92.7823C33.0069 90.8335 32.8643 88.8806 32.7774 86.925C33.0816 87.1871 33.3627 87.49 33.527 87.6285C34.2387 88.2342 34.9489 88.8399 35.6605 89.4469C37.1164 90.6882 38.5722 91.9281 40.0281 93.1694C40.5265 93.5944 41.2544 93.6583 41.7433 93.1694C42.1779 92.7348 42.2444 91.8806 41.7433 91.4541C40.0158 89.982 38.2897 88.5112 36.5623 87.0391C35.7434 86.3411 34.9394 85.6145 34.0933 84.9491C33.2391 84.2768 32.279 83.8436 31.183 84.1396C30.6819 84.2755 30.2772 84.782 30.2921 85.3089C30.3641 87.805 30.5271 90.2971 30.7783 92.7823C30.8449 93.4342 31.289 93.9951 31.9911 93.9951Z" fill="#155640"/>
<path id="Vector_5" d="M14.3703 116.376C12.2829 118.519 10.5949 120.999 8.59987 123.222C6.94983 125.061 4.85843 127.071 2.3338 127.482C5.35819 122.869 8.69629 118.478 12.3372 114.333C13.3639 113.165 11.6555 111.443 10.622 112.618C6.83168 116.931 3.34691 121.511 0.201654 126.316C-0.20033 126.929 0.048194 127.524 0.512649 127.846C-0.170453 128.484 0.0970839 129.965 1.31526 129.984C4.73077 130.035 7.62479 127.809 9.85743 125.434C12.0588 123.093 13.8406 120.393 16.0855 118.09C17.176 116.971 15.4621 115.254 14.3703 116.375V116.376Z" fill="#155640"/>
<path id="Vector_6" d="M43.4449 77.0924C50.4049 69.6897 57.7425 62.6427 65.4291 55.9977C67.6074 54.1155 69.8129 52.2658 72.0455 50.446C72.5534 50.0318 72.476 49.1613 72.0455 48.7308C71.543 48.2283 70.8396 48.3152 70.3303 48.7308C62.4536 55.1503 54.9069 61.9718 47.735 69.1695C45.7033 71.2093 43.7015 73.279 41.7296 75.3758C40.6609 76.5125 42.3734 78.2305 43.4449 77.0911V77.0924Z" fill="#155640"/>
<path id="Vector_7" d="M88.986 39.0399C79.8381 46.5173 70.9619 54.3275 62.3885 62.4568C59.9698 64.7492 57.5769 67.0688 55.2057 69.4101C54.0935 70.5087 55.8087 72.224 56.9209 71.1253C65.3259 62.8208 74.0324 54.8232 83.0241 47.1597C85.561 44.9977 88.1195 42.8641 90.6999 40.7551C91.2078 40.3409 91.1304 39.4704 90.6999 39.0399C90.1974 38.5374 89.4939 38.6243 88.9846 39.0399H88.986Z" fill="#155640"/>
<path id="Vector_8" d="M80.1844 43.5515C82.2459 41.9612 84.3074 40.3695 86.369 38.7793C87.3413 38.0296 88.2974 37.2542 89.2888 36.5303C89.6487 36.2682 90.1185 35.8717 90.5884 35.8445C90.7079 35.8377 90.7976 35.873 90.9171 35.892C91.0312 35.911 91.0733 35.9885 91.0855 36.0143C91.1901 36.6213 91.6111 37.1279 92.2833 37.1279C92.8808 37.1279 93.5721 36.5697 93.496 35.9151C93.3304 34.4756 92.2168 33.472 90.7541 33.4217C89.2141 33.3688 87.9891 34.4892 86.8511 35.3678C84.2205 37.3981 81.59 39.4271 78.9594 41.4573C78.442 41.8566 78.1636 42.5003 78.5248 43.1169C78.8222 43.6262 79.6629 43.9548 80.1844 43.5515ZM91.0828 35.9993C91.0801 35.983 91.0746 35.9572 91.0705 35.9165C91.0733 35.9436 91.0787 35.9722 91.0828 35.9993Z" fill="#155640"/>
<path id="Vector_9" d="M94.6748 31.1386C95.4761 30.1716 96.4199 29.3405 97.5417 28.7647C97.7698 28.6479 97.7943 28.6031 97.9939 28.7104C98.161 28.8 98.3036 29.039 98.3823 29.2033C98.5684 29.5931 98.6023 30.0304 98.5643 30.4568C98.3497 32.8483 95.7681 34.2974 94.2674 35.8795C93.1932 37.0121 94.9057 38.7301 95.9826 37.5948C97.228 36.2815 98.7164 35.2236 99.7933 33.7515C100.733 32.4654 101.191 30.8276 100.914 29.2468C100.627 27.6117 99.155 25.8503 97.3257 26.2577C96.4634 26.4492 95.6295 27.0359 94.9342 27.5601C94.2036 28.1114 93.5449 28.7212 92.9596 29.426C92.5413 29.9299 92.4666 30.6483 92.9596 31.1413C93.3901 31.5718 94.2538 31.6478 94.6748 31.1413V31.1386Z" fill="#155640"/>
<path id="Vector_10" d="M142.338 54.5135C143.193 53.2614 143.984 51.9672 144.71 50.6376C146.501 47.3511 147.905 43.831 148.822 40.201C149.94 35.7751 150.46 31.068 149.483 26.5661C148.639 22.6739 146.517 19.0316 143.282 16.6604C139.704 14.0367 135.11 13.765 130.836 14.1304C122.173 14.8705 113.7 17.5988 106.233 22.0533C104.438 23.1248 102.706 24.2981 101.041 25.5611C100.52 25.9563 100.247 26.6068 100.607 27.2207C100.907 27.734 101.741 28.0545 102.266 27.6552C108.675 22.7948 116.078 19.3562 123.931 17.6192C127.826 16.7582 131.986 16.1267 135.979 16.5192C139.689 16.8831 142.884 18.7369 144.936 21.8604C149.271 28.4579 147.642 37.3015 145.008 44.2412C143.733 47.601 142.017 50.7897 139.942 53.7272C135.607 52.8119 131.273 54.3152 127.324 56.044C123.682 57.6384 120.068 59.6864 117.405 62.6999C116.128 64.1435 114.513 66.1412 114.553 68.1756C114.595 70.396 116.739 71.788 118.801 71.7527C120.866 71.7187 122.94 70.6431 124.769 69.7699C126.425 68.9795 128.027 68.0764 129.565 67.0742C133.906 64.2413 137.746 60.6451 140.892 56.5234C141.126 56.6158 141.355 56.7176 141.581 56.8317C143.254 57.6832 144.397 59.0576 145.188 60.7402C146.834 64.2481 147.01 68.5028 146.418 72.2769C145.246 79.7462 141.366 86.7619 136.677 92.6043C132.256 98.1112 126.868 102.795 120.891 106.545C114.861 110.328 108.274 113.177 101.405 115.034C99.8042 115.467 98.1881 115.842 96.5625 116.168C96.2216 115.816 95.8359 115.521 95.4122 115.314C94.4833 114.86 93.5571 115.016 92.5875 115.238C91.6871 115.444 90.7867 115.652 89.8863 115.86C89.7586 115.619 89.5441 115.418 89.2303 115.301C89.2915 115.293 89.3526 115.288 89.4137 115.28C89.9135 115.21 90.238 114.703 90.2896 114.211C91.1547 114.12 91.8813 112.967 91.0909 112.129L78.8113 99.1012C78.5384 98.8119 78.0929 98.7033 77.6923 98.778C77.4845 98.0962 77.3066 97.4036 77.0649 96.7341C76.5529 95.3217 75.7707 94.0601 74.9775 92.7917C73.2745 90.0701 71.5715 87.35 69.8699 84.6284C69.18 83.5257 67.7595 84.1001 67.6101 85.2409C67.5761 85.4948 67.5259 85.7461 67.4621 85.9946C66.798 85.3658 66.0415 84.8362 65.2009 84.4342C64.5178 84.1083 63.6228 84.3473 63.4191 85.1594C61.8384 91.4621 65.3517 97.2081 68.7291 102.223C69.5969 103.511 71.6992 102.298 70.8233 101C68.1533 97.037 65.057 92.4318 65.4807 87.479C65.9832 87.8905 66.4259 88.3698 66.7953 88.9307C67.2719 89.6532 68.4412 89.7782 68.8894 88.9307C69.0184 88.6876 69.1325 88.4418 69.2398 88.1947C70.4539 90.1353 71.6693 92.076 72.8834 94.018C73.6249 95.2036 74.399 96.3837 74.8431 97.7201C75.3048 99.1107 75.6145 100.533 76.3193 101.831C76.686 102.506 77.7656 102.635 78.264 102.058C81.6918 105.695 85.1195 109.331 88.5473 112.968C83.1721 113.611 78.8181 110.249 74.949 106.964C74.4506 106.541 73.7241 106.474 73.2338 106.964C73.1048 107.093 73.0097 107.259 72.9513 107.438C69.8495 103.834 66.6296 100.334 63.2942 96.946C62.7415 96.3837 61.9565 96.5481 61.488 97.0709C61.0303 94.4797 58.4595 91.856 57.039 90.043C54.2047 86.4265 51.3691 82.81 48.5349 79.1935C47.849 78.3175 46.4855 79.0957 46.4652 80.0504C46.419 82.1418 46.2873 84.2318 46.0605 86.3124C45.3719 85.8181 44.5938 85.4487 43.7504 85.2327C42.9193 85.0195 42.3041 85.6211 42.2158 86.402C41.7296 90.7057 43.2602 95.0854 46.2126 98.2334C47.2827 99.3742 48.9952 97.6562 47.9278 96.5182C45.7997 94.2502 44.644 91.2829 44.5625 88.2191C45.0895 88.5749 45.5363 89.0434 45.8812 89.6152C46.3674 90.4219 47.9387 90.4124 48.0976 89.3259C48.3868 87.3432 48.6028 85.3536 48.7386 83.3559C50.6032 85.7352 52.4678 88.1132 54.3324 90.4925C55.5207 92.0081 56.7837 93.4911 57.8973 95.061C58.484 95.888 59.7266 97.6739 58.8683 98.6843C58.0779 99.6146 58.8276 100.962 60.0484 100.712C60.9597 100.524 61.7582 100.114 62.4373 99.5412C64.7881 101.957 67.0805 104.429 69.3145 106.953C69.2561 106.925 69.199 106.896 69.1406 106.867C68.4643 106.527 67.5558 106.789 67.3589 107.592C67.3412 107.664 67.3235 107.734 67.3059 107.806C61.3182 103.92 53.6873 104.123 47.3873 100.816C46.6689 100.439 45.7169 100.88 45.5675 101.624C39.4956 97.4566 32.8045 94.2217 25.7698 92.0271C24.2759 91.5613 23.6376 93.9012 25.1247 94.3657C33.0367 96.8333 40.4598 100.681 47.0668 105.682C47.9183 106.327 49.1568 105.26 48.8486 104.313C48.8241 104.237 48.7983 104.16 48.7739 104.084C51.4723 105.123 54.3161 105.754 57.1273 106.447C60.665 107.319 64.3385 108.326 67.1973 110.7C67.8641 111.254 68.9899 111.119 69.2235 110.165C69.2642 110 69.305 109.834 69.3457 109.67C75.5751 112.718 81.9919 115.379 88.5513 117.631C88.6355 117.659 88.7157 117.678 88.7944 117.689C89.0348 118.128 89.5101 118.436 90.1348 118.292C90.8234 118.133 91.5105 117.975 92.1991 117.817C92.7559 117.689 93.5829 117.322 94.1547 117.424C95.0252 117.579 95.5874 118.948 95.7585 119.687C96.1945 121.563 94.8554 123.52 92.8699 123.533C92.3036 123.537 91.9437 123.857 91.7889 124.266C91.5784 124.159 91.3285 124.103 91.0868 124.117C91.042 123.023 90.9103 121.934 90.6943 120.86C90.9483 120.86 91.2009 120.864 91.4548 120.864C93.0153 120.861 93.018 118.436 91.4548 118.439C90.8668 118.439 90.2774 118.434 89.6894 118.429C89.3621 118.269 88.9682 118.276 88.6301 118.411C84.1784 118.327 79.7308 118.033 75.3076 117.512C72.6919 117.205 70.0872 116.813 67.496 116.349C66.1909 116.114 64.8886 115.86 63.5903 115.587C63.1543 115.494 62.7143 115.407 62.2784 115.31C62.6573 115.037 62.8365 114.449 62.7048 114.019C61.8248 111.159 58.177 112.458 56.0788 112.574C53.0626 112.743 50.0898 112.204 47.3044 111.043C46.7001 110.79 45.9708 111.314 45.8133 111.89C45.6218 112.588 46.0537 113.129 46.6607 113.381C49.1799 114.432 51.8988 114.988 54.6298 115.03C55.9254 115.049 57.2183 114.936 58.4975 114.728C58.3359 115.094 58.3414 115.55 58.5451 115.868C59.6492 117.592 62.0312 117.742 63.8578 118.114C66.0239 118.554 68.2022 118.941 70.3873 119.274C74.8227 119.95 79.288 120.421 83.7683 120.666C85.2472 120.746 86.7275 120.799 88.2091 120.83C88.4563 121.906 88.6056 122.991 88.6586 124.085C88.6586 124.085 88.6559 124.085 88.6545 124.085C82.0883 123.903 75.5955 122.798 69.3321 120.815C68.5988 120.583 67.9605 121.133 67.822 121.808C63.5305 118.736 57.9964 117.955 52.8317 117.322C52.4596 117.276 52.1255 117.473 51.9015 117.762C51.6923 117.241 51.4832 116.721 51.274 116.199C51.035 115.604 50.4674 115.144 49.7829 115.352C43.9976 117.113 37.8524 117.663 31.8511 116.85C31.2033 116.761 30.5488 117.006 30.36 117.697C30.2052 118.262 30.5542 119.1 31.2074 119.188C37.2983 120.013 43.4788 119.634 49.3972 117.989C50.2351 120.075 51.0717 122.16 51.9096 124.246C52.112 124.749 52.5017 125.136 53.0789 125.136C53.5936 125.136 54.1314 124.763 54.2482 124.246C54.5687 122.821 54.6284 121.369 54.4112 119.945C59.2676 120.58 64.4227 121.573 67.9985 125.109C68.7835 125.885 69.9989 125.275 70.0682 124.252C70.0831 124.031 70.0981 123.808 70.1144 123.587C74.7929 124.961 79.6044 125.858 84.4622 126.272C80.4152 128.165 76.2691 129.83 72.0374 131.264C71.8812 130.548 71.0528 130.088 70.2502 130.459C64.1661 133.271 57.2984 134.449 50.6195 133.816C50.9522 133.346 51.365 132.934 51.8526 132.607C53.0246 131.819 52.2709 130.153 50.9182 130.391C48.7698 130.768 46.8346 132.103 45.6761 133.943C41.2095 133.58 36.459 133.115 32.6266 130.616C29.3944 128.51 26.8345 124.489 27.9005 120.539C28.308 119.031 25.9694 118.387 25.562 119.894C24.557 123.614 25.9857 127.4 28.4696 130.202C31.1803 133.26 35.1105 134.809 39.0434 135.557C41.4553 136.016 43.9066 136.226 46.3511 136.423C46.7463 136.455 47.223 136.175 47.3982 135.823C47.4864 135.645 47.5842 135.475 47.6861 135.311C47.8327 135.649 48.1125 135.933 48.4642 135.981C55.6579 136.962 62.937 136.059 69.6418 133.345C69.8848 133.904 70.4579 134.336 71.1057 134.125C76.6806 132.318 82.125 130.116 87.3929 127.55C87.8872 127.309 88.0543 126.892 88.0027 126.485C88.2105 126.493 88.4169 126.501 88.6247 126.508C88.6247 126.515 88.6247 126.523 88.6233 126.53C88.55 127.467 89.7016 128.014 90.4485 127.577C91.0732 127.212 91.6287 126.751 92.0755 126.181C92.1638 126.068 92.2357 125.946 92.2928 125.82C92.4544 125.907 92.6486 125.958 92.8767 125.957C96.409 125.934 98.7829 122.59 98.146 119.238C98.0917 118.951 98.0102 118.656 97.907 118.364C105.117 116.847 112.112 114.272 118.571 110.725C125.232 107.066 131.363 102.333 136.423 96.6526C141.76 90.6609 146.281 83.4347 148.222 75.5865C149.942 68.6332 149.688 57.925 142.347 54.5176L142.338 54.5135ZM133.404 61.0797C130.851 63.3789 128.018 65.3549 124.977 66.956C123.395 67.7885 121.73 68.6142 120.008 69.1113C119.219 69.3394 118.342 69.4779 117.599 69.0434C116.925 68.6482 116.882 68.0275 117.159 67.3349C117.819 65.6917 119.173 64.2318 120.459 63.0543C121.813 61.8158 123.347 60.7972 124.949 59.9064C126.616 58.9774 128.359 58.1762 130.135 57.4795C132.129 56.6959 134.223 56.021 136.374 55.8906C137.008 55.8526 137.65 55.8594 138.289 55.9191C136.802 57.7674 135.165 59.4976 133.405 61.0811L133.404 61.0797ZM73.3615 108.786C73.4633 108.872 73.5652 108.958 73.667 109.045C73.553 108.992 73.4389 108.939 73.3262 108.886C73.3397 108.853 73.3506 108.819 73.3615 108.786ZM60.3622 114.659C60.4776 114.689 60.3948 114.761 60.3622 114.659Z" fill="#155640"/>
</g>
</g>
</svg>
