<?xml version="1.0" encoding="utf-8"?>
<!-- Generator: Adobe Illustrator 27.8.0, SVG Export Plug-In . SVG Version: 6.00 Build 0)  -->
<svg version="1.1" xmlns="http://www.w3.org/2000/svg" xmlns:xlink="http://www.w3.org/1999/xlink" x="0px" y="0px"
	 viewBox="0 0 1000 1000" style="enable-background:new 0 0 1000 1000;" xml:space="preserve">
<style type="text/css">
	.st0{display:none;}
	.st1{display:inline;}
	.st2{fill:#FFFFFF;}
	.st3{display:inline;fill:#F0AEBE;}
	.st4{fill:#F0AEBE;}
</style>
<g id="blackbase" class="st0">
	<rect x="6" y="-15" class="st1" width="991" height="1032"/>
</g>
<g id="bg">
	<circle class="st2" cx="500" cy="500" r="445"/>
</g>
<g id="Asella" class="st0">
	<g class="st1">
		<g>
			<path d="M449.9,207.2c74.4-21,155.7-0.8,211.3,53c55.7,53.9,73.8,131.9,75.8,206.9c1.2,46.4-3.9,93-19.2,137
				c-2.6,7.3,9,10.4,11.6,3.2c14.2-40.8,19.9-84.1,19.8-127.2c0-40.5-4.2-81.6-15.8-120.5c-11-37-29.3-71.7-55.8-100
				c-25.3-27-57-47.8-91.9-60c-44.5-15.6-93.6-16.8-138.9-4C439.3,197.7,442.5,209.3,449.9,207.2L449.9,207.2z"/>
		</g>
	</g>
	<g class="st1">
		<g>
			<path d="M451.5,293c26.6,50.8,67.9,93.5,117.4,122.2c14,8.1,28.7,15,43.8,20.7c7.2,2.8,10.3-8.8,3.2-11.6
				c-51-19.5-96.4-53.9-129.1-97.7c-9.4-12.6-17.7-25.8-25-39.7C458.3,280.1,447.9,286.2,451.5,293L451.5,293z"/>
		</g>
	</g>
	<g class="st1">
		<g>
			<path d="M648.5,444.4c11.4,1.2,24,3.2,32.1,12.2c8.4,9.4,11.5,23.6,12.7,35.8c2.1,22.2-1.8,55.7-28.3,61.2
				c-7.6,1.6-4.4,13.2,3.2,11.6c32.7-6.9,40.1-46.6,37-74.6c-1.7-14.9-5.6-31-16-42.4c-10.4-11.4-26-14.2-40.6-15.7
				C640.8,431.6,640.8,443.6,648.5,444.4L648.5,444.4z"/>
		</g>
	</g>
	<g class="st1">
		<g>
			<path d="M391.9,223c-47.5,27.4-71.7,80.8-82.3,132.5C297,417,299.4,481.7,276.2,540.8c-11,28-28,54.4-52.7,72.2
				c-6.2,4.5-0.2,14.9,6.1,10.4c45.7-32.9,65.8-88.3,74.7-141.9c10.2-60.9,8.9-125.7,36.2-182.5c12.8-26.7,31.5-50.6,57.4-65.6
				C404.6,229.5,398.6,219.2,391.9,223L391.9,223z"/>
		</g>
	</g>
	<g class="st1">
		<g>
			<path d="M276.2,617.5c10.8-8,20.8-16.9,29.9-26.8c5.2-5.7-3.3-14.2-8.5-8.5c-8.3,9.2-17.4,17.6-27.4,25
				C264,611.6,269.9,622,276.2,617.5L276.2,617.5z"/>
		</g>
	</g>
	<g class="st1">
		<g>
			<path d="M312.7,624.5c6.9-8.7,13.8-17.3,20.8-26c4.8-6-3.7-14.5-8.5-8.5c-6.9,8.7-13.8,17.3-20.8,26
				C299.4,622,307.8,630.5,312.7,624.5L312.7,624.5z"/>
		</g>
	</g>
	<g class="st1">
		<g>
			<path d="M649.9,578.1c-9.6,21.5-25.5,39.3-46,51c-6.7,3.8-0.7,14.2,6.1,10.4c22.1-12.6,39.9-32,50.3-55.3
				C663.3,577.2,653,571.1,649.9,578.1L649.9,578.1z"/>
		</g>
	</g>
	<g class="st1">
		<g>
			<path d="M675.6,625.6c5.2-7,10.3-13.9,15.5-20.9c1.9-2.6,0.4-6.7-2.2-8.2c-3-1.8-6.3-0.4-8.2,2.2c-5.2,7-10.3,13.9-15.5,20.9
				c-1.9,2.6-0.4,6.7,2.2,8.2C670.4,629.6,673.7,628.2,675.6,625.6L675.6,625.6z"/>
		</g>
	</g>
	<g class="st1">
		<g>
			<path d="M438.3,316.2c-19.6,56.2-54,106.5-98.9,145.5c-5.8,5.1,2.7,13.5,8.5,8.5c46.5-40.4,81.7-92.7,102-150.8
				C452.4,312,440.8,308.9,438.3,316.2L438.3,316.2z"/>
		</g>
	</g>
	<g class="st1">
		<g>
			<path d="M359.3,487.6c2.4,25-12.5,48-10.1,73.1c2.2,22.6,17.9,40,37.1,50.8c45.6,25.8,102.7,19.1,152.1,11.1
				c32.6-5.2,65.1-11.6,97.5-18c7.6-1.5,4.4-13.1-3.2-11.6c-27.2,5.3-54.5,10.7-81.9,15.4c-25.2,4.3-50.5,8.3-76.1,9
				c-24.6,0.6-50.3-1.8-73.1-11.6c-17.8-7.7-35.5-21.3-39.8-41.2c-2.7-12.5,0.9-25.5,4-37.5c3.3-12.9,6.7-26,5.4-39.5
				C370.6,480,358.6,479.9,359.3,487.6L359.3,487.6z"/>
		</g>
	</g>
	<g class="st1">
		<g>
			<path d="M520.4,452.6c0.9,12.1,1.8,24.2,2.7,36.4c0.6,7.7,12.6,7.7,12,0c-0.9-12.1-1.8-24.2-2.7-36.4
				C531.9,444.9,519.9,444.8,520.4,452.6L520.4,452.6z"/>
		</g>
	</g>
	<g class="st1">
		<g>
			<path d="M404.7,460.4c0.9,13.9,1.8,27.7,2.7,41.6c0.5,7.7,12.5,7.7,12,0c-0.9-13.9-1.8-27.7-2.7-41.6
				C416.2,452.7,404.2,452.6,404.7,460.4L404.7,460.4z"/>
		</g>
	</g>
	<g class="st1">
		<g>
			<path d="M468.3,545.5c6.8-1.2,13.6-2.4,20.4-3.6c3.2-0.6,6.5-1.1,9.7-1.7c0.9-0.1,4.1-1.3,4.9-0.8c-1.7-1-1,0.9-1,2.2
				c0,10.9-3.9,23.2-11.9,30.9c-7.9,7.6-20,5-28.4-0.4c-8.4-5.3-13.8-14.1-15.5-23.8c-1.4-7.6-12.9-4.4-11.6,3.2
				c2.5,14,12,26.7,24.7,33c13.8,6.9,30.8,6.6,41.4-5.8c5.1-6,8.8-13.2,11-20.7c2-6.9,3.8-16.4,1.5-23.4c-3-9.1-11.8-7-19.2-5.8
				c-9.7,1.7-19.5,3.4-29.2,5.1C457.5,535.2,460.7,546.8,468.3,545.5L468.3,545.5z"/>
		</g>
	</g>
	<g class="st1">
		<g>
			<path d="M541.6,636c2.1,15.2,4.6,31.3,13.6,44.1c8.9,12.7,22.4,19.4,36.4,25.1c14,5.7,27.5,11.5,39,21.6
				c11,9.5,19.8,21.2,26.2,34.2c7.3,14.7,10.9,31,10.5,47.5c-0.2,7.7,11.8,7.7,12,0c0.6-29.7-11-58.9-30.8-80.9
				c-9.9-10.9-21.9-20-35.3-26.2c-13.6-6.3-29.3-10.1-40.9-20c-14.1-12-16.7-31.3-19.2-48.5C552.1,625.2,540.5,628.4,541.6,636
				L541.6,636z"/>
		</g>
	</g>
	<g class="st1">
		<g>
			<path d="M466.8,649.9c-1.8,15.3-4.2,32.6-17.4,42.5c-13.9,10.2-32.9,12.5-49.5,14.9c-17.4,2.5-34.7,5-50.9,12.1
				c-13.3,5.9-25.5,14.5-35.6,24.9c-11.6,12-20.4,26.2-26.1,41.9c-2.6,7.3,9,10.4,11.6,3.2c10-27.7,32.6-51,60.3-61.3
				c17-6.4,35.3-7.8,53.1-10.7c16.6-2.7,34.5-6.7,47.6-18.1c14.2-12.4,16.9-31.8,19-49.4C479.7,642.3,467.7,642.3,466.8,649.9
				L466.8,649.9z"/>
		</g>
	</g>
	<g class="st1">
		<g>
			<path d="M454.1,719c5.6,8.7,11.8,18.1,21.5,22.6c11,5.1,23.8,3.1,35-0.5c23.7-7.8,46.4-21.2,66.7-35.5c6.3-4.4,0.3-14.8-6.1-10.4
				c-17.8,12.5-37,23.7-57.2,31.8c-9.2,3.7-20.8,7.8-30.7,4.7c-8.9-2.7-14.2-11.5-18.9-18.8C460.3,706.5,450,712.5,454.1,719
				L454.1,719z"/>
		</g>
	</g>
	<circle class="st3" cx="591.5" cy="520.5" r="21.5"/>
	<circle class="st3" cx="370.5" cy="533.5" r="21.5"/>
</g>
<g id="David">
	<g>
		<g>
			<path d="M675.2,340.9c0.3,1,0.7,2.1,1,3.1c0.4,1.2,1.2,2.3,2.3,3c1.1,0.6,2.7,0.9,3.9,0.5c2.6-0.8,4.3-3.5,3.5-6.2
				c-0.3-1-0.6-2.1-1-3.1c-0.4-1.2-1.2-2.3-2.3-3c-1.1-0.6-2.7-0.9-3.9-0.5C676.2,335.5,674.3,338.2,675.2,340.9L675.2,340.9z"/>
		</g>
	</g>
	<g>
		<g>
			<path d="M315,318.8c3.1-6.7,6.5-13.2,9.9-19.7c3.4-6.5,6.2-13.4,10.4-19.5c3.6-5.2,8.1-9.8,12.9-13.8c2.4-2,5.1-4.3,7.9-5.7
				c3.3-1.6,7.3-2.2,10.8-3.5c12.2-4.8,22.8-12.5,32.5-21.3c5.3-4.8,9.4-9.7,16.9-10.9c7.9-1.3,16.5-0.1,24.5,0.2
				c16.5,0.6,33,1.6,49.5,2.8c15.4,1.2,31.4,1.7,46.5,5.4c14.8,3.7,28.9,9.7,43,15.3c13.9,5.6,28,11,40.5,19.2
				c7,4.5,10.3,11.8,15.4,18.1c4.8,5.9,10.3,11,15.6,16.4c2.6,2.7,5.9,5.4,8,8.4c1.9,2.7,2.8,5.8,5.1,8.3
				c5.1,5.7,7.8,14.2,10.4,21.3c2.2,6,11.9,3.4,9.6-2.7c-2.6-7-5.3-14.3-8.8-20.9c-1.4-2.6-3.9-4.1-5.4-6.7
				c-1.8-3.1-3.1-5.6-5.5-8.3c-4.9-5.4-10.4-10.4-15.5-15.7c-5.1-5.3-8.7-11.1-13-17.1c-4.4-6.2-11.3-10.1-17.8-13.8
				c-6.9-3.8-14-7.2-21.3-10.3c-14.6-6.2-29.5-12.3-44.6-17.3c-15.9-5.2-31.8-7.1-48.4-8.6c-17.5-1.6-35-2.7-52.5-3.5
				c-8.9-0.4-17.8-0.8-26.7-1c-7.2-0.2-14.5,0.6-20.9,4.2c-6.1,3.4-10.7,9.3-15.9,13.8c-5.5,4.7-11.4,8.9-17.9,12.2
				c-7.1,3.7-15.2,4.5-21.7,9c-6.1,4.2-11.9,9.1-16.7,14.8c-5.3,6.2-8.8,12.9-12.4,20.1c-4.3,8.6-8.9,17-13,25.7
				C303.7,319.6,312.3,324.7,315,318.8L315,318.8z"/>
		</g>
	</g>
	<g>
		<g>
			<path d="M527.8,207.4c7-22.5,31.1-35.4,53.7-28.1c5.1,1.6,9.3,4.1,14.8,3.4c5.4-0.7,10.1-3.1,15.7-2.8c4.9,0.3,10.4,2.4,12.6,7.1
				c2,4.2,1.3,8.9-2.3,11.9c-3,2.4-1.2,7.5,2.2,8.4c7.3,1.9,15.3,3.7,20.9,8.9c6,5.5,5.8,11.7,3.5,18.9c-2,6.2-3.9,12.5-1.1,18.8
				c2.3,5.2,8.3,11.3,1.6,16.2c-5.1,3.8-0.1,12.5,5,8.6c6.1-4.6,9.6-12.2,7.3-19.9c-1.2-4.2-5.3-7.5-5.5-11.9
				c-0.2-4.6,2.6-9.4,3.7-13.8c2-8.5-0.4-16.6-6.4-22.9c-6.9-7.3-17-10.2-26.4-12.6c0.7,2.8,1.5,5.6,2.2,8.4
				c9.8-7.9,7.5-23.6-1.9-30.8c-5.4-4.1-12.4-5.7-19.1-5.2c-3.6,0.3-6.8,1.2-10.2,2.2c-4.4,1.2-6.7,0.2-10.8-1.4
				c-28.5-11-60.1,5.2-69.1,34C516.3,210.9,525.9,213.6,527.8,207.4L527.8,207.4z"/>
		</g>
	</g>
	<g>
		<g>
			<path d="M519.5,212.2c6.4,0,6.4-10,0-10C513.1,202.2,513,212.2,519.5,212.2L519.5,212.2z"/>
		</g>
	</g>
	<g>
		<g>
			<path d="M298.6,332.1c-7.3,12.3-13.5,25.6-16.1,39.7c-1,5.3-2.9,12.9-0.9,18.1c1.7,4.5,6.7,7.5,11.3,5.7
				c11.9-4.5,19.3-19.1,25.7-29.1c7.7-12,14.7-24.5,20.7-37.4c-2.9,0-5.8,0-8.6,0c3.9,8.5,7.9,16.9,11.8,25.4c1.5,3.1,5.6,2.9,7.9,1
				c13.5-11.5,26.7-23.4,39.6-35.5c0.2-0.2,2.1-2.4,2.5-2.3c-0.8-0.2,0.9,2.8,1,3c1.2,2.3,2.1,4.8,3.6,6.9c2.8,4.2,8.5,8.6,13.8,7.1
				c6.5-1.9,12.4-7.4,17.1-12c5.4-5.2,10.9-9.8,16.7-14.4c1-0.8,3.3-3.5,4.6-3.5c0.5,0,1.2,0.8,1.8,1.8c1.6,2.9,1.8,6.6,2.8,9.7
				c1.5,4.9,4.9,10.7,9.6,13.1c13.5,6.8,24.5-17,31.5-24.5c-2.8-0.7-5.6-1.5-8.4-2.2c-0.4-1.2-0.3-2.1,0.4-2.8
				c-0.8,0.7-0.4,0.6,1-0.3c2.1,1.2,4.1,2.3,6.2,3.5c0,0,0-0.1,0-0.1c-0.2,1.3-0.3,2.6-0.5,3.9c0.4-0.7,0.9-1.3,1.4-1.9
				c-2.6-0.3-5.2-0.7-7.9-1c0.5,0.6,0.8,1.7,1.4,2.2c4.5,4.1,5.8-0.3,7.2-2.2c-2.9,0-5.8,0-8.6,0c4.3,5.6,8.5,11.2,12.9,16.7
				c4.2,5.2,8.5,11.4,13.9,15.5c4.5,3.4,10.3,4.5,15.6,2.4c5.6-2.2,9-7.3,12.4-12c3.1-4.2,6.5-9.9,11.7-11.8
				c6.2-2.3,11.9,3.3,15.4,7.7c7.4,9.2,11.2,20.3,21.6,26.8c2.2,1.4,5.6,0.5,6.8-1.8c2.5-4.7,5.7-8.5,9.9-11.8
				c-2.6-0.3-5.2-0.7-7.9-1c11.4,19.1,20.4,39.4,26.9,60.6c1,3.3,5.9,5.3,8.4,2.2c6.2-7.7,12.5-15.3,18.7-23
				c-2.8-0.7-5.6-1.5-8.4-2.2c2.4,14.1,6.9,27.5,13.4,40.3c1.3,2.6,5.9,3.5,7.9,1c4.5-5.8,7.9-11.8,10.6-18.6c2.4-6-7.3-8.6-9.6-2.7
				c-2,5.1-4.7,9.9-8.1,14.2c2.6,0.3,5.2,0.7,7.9,1c-6.1-12-10.2-24.6-12.4-37.9c-0.6-3.6-6.1-5-8.4-2.2c-6.2,7.7-12.5,15.3-18.7,23
				c2.8,0.7,5.6,1.5,8.4,2.2c-6.8-22.1-16.1-43.2-27.9-63c-1.8-3-5.3-3-7.9-1c-4.8,3.7-8.7,8.4-11.5,13.8c2.3-0.6,4.6-1.2,6.8-1.8
				c-9.6-6.1-13.3-18.1-20.5-26.4c-7.3-8.3-18.3-13.5-28.5-7.1c-4.4,2.7-7.7,6.8-10.8,10.9c-2.9,3.9-6.9,12.2-12.8,11.5
				c-3.1-0.4-5.3-3.5-7.2-5.6c-2.2-2.5-4.4-5-6.5-7.5c-4.7-5.7-9.2-11.6-13.7-17.5c-2.4-3.1-6.3-3.3-8.6,0
				c-3.6,5.1-2.3,13.7,5.2,13.4c7.8-0.3,6.8-8.9,3.4-13.4c-1.7-2.3-5.6-3.7-7.9-1c-1.8,2.2-4.4,4.8-3.4,7.9c0.7,2.4,3.6,4.5,6.2,3.5
				c3.4-1.3,6.8-5.3,5.6-9.2c-1-3.5-5.7-5-8.4-2.2c-3.4,3.6-6.2,7.6-9,11.6c-2,2.8-6.5,10.2-10.3,10.7c-3.1,0.4-5.2-6.4-5.8-9.1
				c-1.1-4.4-2.1-9.2-5.3-12.6c-8.5-9.1-18.1,1.1-25.2,6.7c-8.8,6.9-15.3,16.2-25.9,20.7c1.3-0.2,2.6-0.3,3.9-0.5
				c-5.8-1.6-6.4-7.4-9.4-11.9c-3.8-5.7-10.2-7.2-15.4-2.8c-14.4,12.1-27.7,25.7-42.1,37.8c2.6,0.3,5.2,0.7,7.9,1
				c-3.9-8.5-7.9-16.9-11.8-25.4c-1.5-3.3-7.1-3.3-8.6,0c-4.5,9.7-9.6,19.1-15.1,28.3c-5.6,9.3-11.3,19.1-18.3,27.5
				c-1.4,1.7-3.1,3.3-5,4.6c-0.6,0.4-1.3,0.9-2,1.2c-0.8,0.3-0.9,0.5-0.1,0.5c0.6,1.2,0.8-1.9,0.7-1.7c1.2-5.2,1.1-10.7,2.5-16
				c2.9-11.1,7.9-21.4,13.7-31.3C310.5,331.6,301.9,326.5,298.6,332.1L298.6,332.1z"/>
		</g>
	</g>
	<g>
		<g>
			<path d="M305.5,413.7c-1.1,30.4,9.2,60.9,4.1,91.2c-2.4,13.8-8.4,26.6-7.8,40.8c0.5,12.5,4.8,24.8,11.5,35.3
				c30.8,48.6,97.9,51.9,149.4,48.2c33.9-2.4,67.3-9.5,99.1-21.2c6-2.2,3.4-11.9-2.7-9.6c-27.5,10-56.2,16.8-85.4,19.8
				c-27.3,2.8-55.9,3.2-83-1.7c-24.9-4.5-49.7-14.7-65.4-35.5c-7.2-9.5-12.5-21.1-13.5-33.1c-1.1-13.9,4.7-26.1,7.1-39.5
				c5.7-31.6-4.7-63.1-3.5-94.7C315.7,407.2,305.7,407.2,305.5,413.7L305.5,413.7z"/>
		</g>
	</g>
	<g>
		<g>
			<path d="M661.6,417.6c1.1-4.1,3.2-12,8.1-13c5.7-1.1,11.8,8.8,14.3,12.8c6.8,10.6,10.3,23,10.7,35.6c0.5,12.7-1.8,25.6-7.1,37.2
				c-5,11.1-14.1,25-28,23.7c-6.4-0.6-6.4,9.4,0,10c27.9,2.6,41.7-34.4,44.4-56.4c1.6-12.6,0.6-25.7-3.4-37.8
				c-3.8-11.6-10.7-24.9-21-32c-5.7-3.9-12.9-4.2-18.4,0.3c-5.2,4.2-7.7,10.8-9.4,17C650.2,421.2,659.9,423.9,661.6,417.6
				L661.6,417.6z"/>
		</g>
	</g>
	<g>
		<g>
			<path d="M646.3,542.4c-4,11.3-8,22.7-12,34c-1.4,4,2.7,6.7,6.2,6.2c8.8-1.4,17.2-6,23-12.8c2.8-3.3,4.7-7.2,7-10.8
				c1.2-1.9,2.4-3.5,4.4-4.4c2-0.8,4.1-1.1,6-2.1c7.1-4.1,5.5-12,6.9-18.7c0.8-3.8,4-5.6,6.3-8.5c2.5-3.1,3.6-6.3,2.6-10.2
				c-1.5-6.3-11.1-3.6-9.6,2.7c0.3,1.3-4.6,5.2-5.5,6.3c-1.8,2.3-3,4.8-3.5,7.7c-0.6,3.2-0.2,6.7-1.1,9.8c-0.9,3.3-3.8,2.9-6.6,4.2
				c-6.8,3.1-8.9,10-12.9,15.7c-4.7,6.6-11.8,10.4-19.7,11.7c2.1,2.1,4.1,4.1,6.2,6.2c4-11.3,8-22.7,12-34
				C658.1,538.9,648.4,536.3,646.3,542.4L646.3,542.4z"/>
		</g>
	</g>
	<g>
		<g>
			<path d="M689.3,369.4c2.1,14.7,16.7,32.5,7.8,47.1c-3.4,5.5,5.3,10.5,8.6,5c11.3-18.4-4.1-36.5-6.8-54.8
				C698,360.4,688.4,363.1,689.3,369.4L689.3,369.4z"/>
		</g>
	</g>
	<g>
		<g>
			<path d="M543.2,416.3c4.5,19.6,7,39.6,7.7,59.7c0.2,6.4,10.2,6.4,10,0c-0.7-21-3.4-41.9-8.1-62.4
				C551.4,407.4,541.8,410,543.2,416.3L543.2,416.3z"/>
		</g>
	</g>
	<g>
		<g>
			<path d="M399.4,443.5c3.3,18.6,6.6,37.3,9.8,55.9c1.1,6.3,10.8,3.6,9.6-2.7c-3.3-18.6-6.6-37.3-9.8-55.9
				C407.9,434.5,398.3,437.2,399.4,443.5L399.4,443.5z"/>
		</g>
	</g>
	<g>
		<g>
			<path d="M471.5,545.9c7.9-1.8,15.7-3.7,23.6-5.5c3.8-0.9,7.5-1.8,11.3-2.6c2.4-0.6,8.2-2.9,10.5-2.3c-1-0.8-2-1.5-3-2.3
				c1.7,2.5,0.8,8.5,0.7,11.4c-0.2,3.8-0.8,7.6-1.9,11.2c-2.2,7-7,12.9-14.3,15c-17,5-31.4-8.7-39.6-21.8c-3.4-5.4-12.1-0.4-8.6,5
				c7.6,12.2,18.5,23.7,33.1,26.8c14.3,3,29.2-2.2,36.3-15.5c3.2-6,4.6-12.6,5-19.3c0.4-5.3,1.6-15.7-3.2-19.3
				c-3.3-2.4-7.3-1-10.9-0.2c-4.4,1-8.8,2.1-13.2,3.1c-9.4,2.2-18.9,4.4-28.3,6.6C462.6,537.7,465.2,547.3,471.5,545.9L471.5,545.9z
				"/>
		</g>
	</g>
	<g>
		<g>
			<path d="M465,644.9c-12.4,33.3-55,37.1-83.9,46.8c-28.6,9.5-53.7,27.7-72,51.5c-10.2,13.3-18.1,28.2-23.5,44.1
				c-2,6.1,7.6,8.7,9.6,2.7c9.6-28.5,28.6-53.7,53.3-70.9c12.9-9,27.1-15.4,42.2-19.9c17-5,34.5-8.5,50.4-16.6
				c14.9-7.6,27.6-19.1,33.5-35C476.9,641.5,467.2,638.9,465,644.9L465,644.9z"/>
		</g>
	</g>
	<g>
		<g>
			<path d="M557.4,637c11.5,29.6,42.3,39.2,68.7,51.4c26.1,12,49.4,29.4,68.5,50.8c10.9,12.2,20.2,25.6,28,40
				c3.1,5.7,11.7,0.6,8.6-5c-13.4-24.8-31.6-46.9-53.3-64.8c-10.6-8.7-22-16.6-34.1-23.2c-13.6-7.4-28.2-12.6-42.1-19.4
				c-14.3-7.1-28.8-16.9-34.8-32.4C564.7,628.4,555.1,631,557.4,637L557.4,637z"/>
		</g>
	</g>
	<g>
		<g>
			<path d="M447.4,705.3c16.7,21.6,44.3,29,70.2,22.3c28.9-7.4,57.1-21.4,82.6-36.6c5.5-3.3,0.5-11.9-5-8.6
				c-23.5,14-48.7,26.2-74.9,34.1c-12.2,3.7-24.5,5.3-36.9,1.7c-11.6-3.4-21.5-10.4-28.9-19.9C450.5,693.2,443.5,700.3,447.4,705.3
				L447.4,705.3z"/>
		</g>
	</g>
	<circle class="st4" cx="623.5" cy="470.5" r="21.5"/>
	<circle class="st4" cx="350.5" cy="530.5" r="21.5"/>
</g>
<g id="Mingyue" class="st0">
	<g class="st1">
		<g>
			<path d="M389.2,220.2c19.4-33,61.3-39.5,95.8-32c36.5,7.9,72.8,26.3,100.8,50.9c57.4,50.5,69.4,128.6,83.6,199.7
				c8.5,42.9,18.9,86.1,41.1,124.2c3.3,5.7,12.2,0.5,8.9-5.2c-41-70.3-39.7-154.9-65.9-230.5c-12.4-35.9-31.2-69.5-59.8-95
				c-28.8-25.6-65.7-44.7-103.2-53.5c-39.8-9.3-87.8-2-110.1,36.1C376.9,220.7,385.8,225.9,389.2,220.2L389.2,220.2z"/>
		</g>
	</g>
	<g class="st1">
		<g>
			<path d="M359.5,228.3c-25.5,9.7-45.7,29.3-59.3,52.7c-7.6,13-13.2,27.1-17.5,41.5c-4.1,13.4-7.5,27.2-8.6,41.2
				c-1.1,14.5,1.1,29.7,10,41.6c3.9,5.2,12.8,0.1,8.9-5.2c-9.3-12.4-10-28-7.9-42.9c2.3-16.6,7.2-33.3,13.4-49
				c11.8-30,32.8-58.3,63.8-70.1C368.4,235.9,365.7,225.9,359.5,228.3L359.5,228.3z"/>
		</g>
	</g>
	<g class="st1">
		<g>
			<path d="M382.8,274.4c-8.5,56.9-26,121.9-82.1,149.4c-5.9,2.9-0.7,11.8,5.2,8.9c58.6-28.7,77.9-96,86.9-155.6
				C393.7,270.6,383.8,267.8,382.8,274.4L382.8,274.4z"/>
		</g>
	</g>
	<g class="st1">
		<g>
			<path d="M426,280.6c54.2,7.6,94.3,49.4,129.1,88.2c19.1,21.3,37.3,43.7,44.8,71.9c7.5,28.3,6.9,59.2,4.6,88.2
				c-2.5,31.9-9.8,63.8-26.8,91.3c-3.5,5.6,5.4,10.8,8.9,5.2c15.7-25.3,23.5-54.2,27-83.6c3.5-30,4.3-61.8-1-91.6
				c-5.5-30.6-21.5-55.7-41.6-78.9c-18.6-21.6-38.1-42.8-60.2-61c-23.8-19.5-51.1-35.3-82-39.6C422.3,269.8,419.5,279.7,426,280.6
				L426,280.6z"/>
		</g>
	</g>
	<g class="st1">
		<g>
			<path d="M640.2,583c-3.1,13.4-6.3,26.7-9.4,40.1c-1.5,6.4,8.4,9.2,9.9,2.7c3.1-13.4,6.3-26.7,9.4-40.1
				C651.7,579.3,641.7,576.6,640.2,583L640.2,583z"/>
		</g>
	</g>
	<g class="st1">
		<g>
			<path d="M673.8,573.8c-0.9,7.1-1.8,14.3-2.7,21.4c-0.8,6.6,9.5,6.5,10.3,0c0.9-7.1,1.8-14.3,2.7-21.4
				C684.9,567.2,674.6,567.3,673.8,573.8L673.8,573.8z"/>
		</g>
	</g>
	<g class="st1">
		<g>
			<path d="M336.1,445.5c10.7,23.6,18.1,48.7,22,74.3c1.9,12.6,1.9,25.8,5.1,38.2c2.7,10.5,8.4,19.8,16.1,27.3
				c16.4,15.9,39.3,21.8,61.6,22.5c25.5,0.8,51.3-3.8,75.7-10.7c28.1-7.9,55.2-19,82.2-30.2c6-2.5,3.4-12.5-2.7-9.9
				c-45.6,18.8-92.7,38.5-142.7,40.5c-22,0.9-45.9-1.8-63.4-16.4c-8.2-6.8-14.2-15.5-16.8-25.8c-3-11.8-3.1-24.4-4.8-36.4
				c-4-27.2-12-53.6-23.3-78.6C342.3,434.2,333.4,439.5,336.1,445.5L336.1,445.5z"/>
		</g>
	</g>
	<g class="st1">
		<g>
			<path d="M311.6,460.1c7.8,61.3,13.8,125.7-8.8,184.7c-2.4,6.2,7.6,8.9,9.9,2.7c22.9-59.8,17-125.3,9.2-187.4
				C321.1,453.7,310.8,453.6,311.6,460.1L311.6,460.1z"/>
		</g>
	</g>
	<g class="st1">
		<g>
			<path d="M357.7,625.9c1.3-6.7,2.7-13.4,4-20c1.3-6.5-8.6-9.2-9.9-2.7c-1.3,6.7-2.7,13.4-4,20
				C346.5,629.6,356.4,632.4,357.7,625.9L357.7,625.9z"/>
		</g>
	</g>
	<g class="st1">
		<g>
			<path d="M383.5,607c6.6,0,6.6-10.3,0-10.3C376.9,596.7,376.9,607,383.5,607L383.5,607z"/>
		</g>
	</g>
	<g class="st1">
		<g>
			<path d="M383.9,404c1.6,20.6,4.2,41.2,7.6,61.6c1.1,6.5,11,3.8,9.9-2.7c-3.3-19.5-5.7-39.1-7.2-58.9
				C393.7,397.5,383.4,397.4,383.9,404L383.9,404z"/>
		</g>
	</g>
	<g class="st1">
		<g>
			<path d="M489.4,378.7c4.4,19.6,8.8,39.2,13.2,58.8c1.4,6.5,11.4,3.7,9.9-2.7c-4.4-19.6-8.8-39.2-13.2-58.8
				C497.8,369.5,487.9,372.2,489.4,378.7L489.4,378.7z"/>
		</g>
	</g>
	<g class="st1">
		<g>
			<path d="M447.7,527.9c13.9-4,27.3-9.6,39.9-16.8c2.6-1.5,7-3.1,9-5.5c1.5-0.5,1.5-0.9,0-1c-1.2-0.7-1.4-0.5-0.7,0.5
				c-0.1,1.2,0.7,3.6,0.9,4.7c1.2,7.6,1.2,15.6-0.1,23.2c-2.3,12.9-9.7,23.9-24.3,20.6c-12.3-2.7-25.3-11.7-29.6-23.9
				c-2.2-6.2-12.1-3.5-9.9,2.7c7.7,21.9,43.4,44.6,63.6,24.7c9-8.9,11.3-22.9,11.5-35c0.1-8.6-0.6-34.3-15.9-25.8
				c-7.4,4.1-14.3,8.7-21.9,12.2c-8.1,3.8-16.4,6.8-25,9.3C438.6,519.8,441.3,529.7,447.7,527.9L447.7,527.9z"/>
		</g>
	</g>
	<circle class="st3" cx="572.8" cy="450.1" r="22.1"/>
	<circle class="st3" cx="368" cy="509.8" r="22.1"/>
	<g class="st1">
		<g>
			<path d="M466,620.7c-20.1,27.6-51.5,44.2-72.9,70.6c-21.8,26.9-35.9,58.7-48.1,90.8c-2.4,6.2,7.6,8.9,9.9,2.7
				c12.1-31.9,26.3-64,48.8-90.2c21.7-25.2,51.6-41.8,71.3-68.8C478.8,620.5,469.9,615.4,466,620.7L466,620.7z"/>
		</g>
	</g>
	<g class="st1">
		<g>
			<path d="M575.9,594.7c-8.5-4.8-17.1-9.5-25.6-14.3c-5.8-3.2-11,5.7-5.2,8.9c8.5,4.8,17.1,9.5,25.6,14.3
				C576.5,606.8,581.7,597.9,575.9,594.7L575.9,594.7z"/>
		</g>
	</g>
	<g class="st1">
		<g>
			<path d="M673.1,658.4c29.4,26.7,56.4,56,80.4,87.6c4,5.2,12.9,0.1,8.9-5.2c-24.6-32.3-52-62.3-82-89.6
				C675.4,646.6,668.1,653.9,673.1,658.4L673.1,658.4z"/>
		</g>
	</g>
	<g class="st1">
		<g>
			<path d="M506.8,636.5c22.2,9.7,48.3,5.6,66.3-10.8c4.9-4.5-2.4-11.8-7.3-7.3c-14.2,13.1-36,17-53.8,9.2
				C505.9,625,500.7,633.9,506.8,636.5L506.8,636.5z"/>
		</g>
	</g>
</g>
<g id="Janah" class="st0">
	<g class="st1">
		<g>
			<path d="M311.4,306c11.7-20.1,24.8-41.6,45.3-53.9c11.1-6.7,23.9-8.7,36-13.1c13.4-4.9,26.4-10.8,40-15.1
				c13.9-4.5,28-8.3,42-12.3c12.9-3.7,26.3-8.7,39.8-6.5c13.2,2.2,25.1,9.3,35.7,17.1c9.9,7.3,19.1,15.6,27.5,24.6
				c18.6,20,33.1,43.7,42.4,69.4c2.2,6,11.8,3.4,9.7-2.7c-8.8-24.4-21.8-47-38.6-66.7c-16.7-19.6-38.1-39.2-62.5-48.3
				c-14-5.2-27.8-4.6-42-0.8c-14.7,3.9-29.4,8.2-44,12.5c-14.4,4.2-28.5,9.2-42.3,14.9c-13.7,5.7-28.5,8.5-42,14.7
				c-25.7,11.9-41.8,37.4-55.6,61C299.5,306.5,308.2,311.5,311.4,306L311.4,306z"/>
		</g>
	</g>
	<g class="st1">
		<g>
			<path d="M597.9,249.9c51.4,22.4,86.8,75.4,87.1,131.5c0,6.4,10,6.5,10,0c-0.3-59.4-37.5-116.4-92-140.2
				C597.1,238.7,592,247.3,597.9,249.9L597.9,249.9z"/>
		</g>
	</g>
	<g class="st1">
		<g>
			<path d="M290.4,337.3c-15.7,30.5-22.1,65.1-18,99.1c0.8,6.3,10.8,6.4,10,0c-3.9-32.3,1.8-65.1,16.7-94.1
				C302,336.6,293.3,331.6,290.4,337.3L290.4,337.3z"/>
		</g>
	</g>
	<g class="st1">
		<g>
			<path d="M341.2,391.5c0.2,17.8,3.5,35.4,10.1,51.9c2.4,5.9,12,3.3,9.7-2.7c-6.3-15.8-9.6-32.3-9.8-49.3
				C351.2,385.1,341.2,385.1,341.2,391.5L341.2,391.5z"/>
		</g>
	</g>
	<g class="st1">
		<g>
			<path d="M424.8,386.5c12.6,15.4,25.1,30.7,37.7,46.1c4.1,5,11.1-2.1,7.1-7.1c-12.6-15.4-25.1-30.7-37.7-46.1
				C427.8,374.4,420.8,381.6,424.8,386.5L424.8,386.5z"/>
		</g>
	</g>
	<g class="st1">
		<g>
			<path d="M607.4,215c10.1-8.7,31-25.3,43.4-10.6c2.1,2.5,3.4,5.6,3.1,8.8c-0.3,3.3-1.5,6.2,1,9c2.4,2.6,6.2,2.3,9.3,3.4
				c4,1.4,7.3,4.3,9.6,7.8c4.4,6.5,6.9,14.4,9.8,21.6c3.2,7.9,6.4,15.8,8.5,24.1c4.4,17.4,0.5,34.5-9.6,49.2
				c-3.7,5.3,5,10.3,8.6,5.1c6.7-9.8,11.1-20.9,12.5-32.7c1.4-12.2-1.3-24.1-5.4-35.5c-3.9-10.7-7.9-21.9-13-32
				c-2.3-4.5-5.2-8.8-9.2-11.9c-2.2-1.8-4.5-3.2-7.1-4.3c-2.3-1-6-1.1-8-2.4c0.8,1,1.5,2,2.3,3c-0.2-1,0.6-3,0.7-4.1
				c0.1-1.6-0.1-3.1-0.4-4.7c-0.6-3.3-2-6.5-4-9.2c-4-5.5-10-8.9-16.7-10c-16.8-2.7-30.6,8.3-42.5,18.5
				C595.4,212.1,602.5,219.2,607.4,215L607.4,215z"/>
		</g>
	</g>
	<g class="st1">
		<g>
			<path d="M338.4,479.5c4.7,21.2,5.8,43.2,2.7,64.7c-1.4,9.8-3.9,19.9-1.1,29.7c2.4,8.3,8.1,15.3,14.5,20.9
				c29.2,25.4,71.9,34,109.5,35.6c23.9,1,48-1.4,71.3-7c6.3-1.5,3.6-11.2-2.7-9.7c-38.5,9.2-79.2,9.3-117.6-0.6
				c-17.3-4.5-34.3-11.1-48.8-21.8c-6.8-5-13.7-11.3-16.3-19.5c-3-9.1,0.1-19.1,1.3-28.3c3-22.3,1.8-44.9-3.1-66.8
				C346.7,470.6,337,473.2,338.4,479.5L338.4,479.5z"/>
		</g>
	</g>
	<g class="st1">
		<g>
			<path d="M633.7,438.9c4-6.7,7.6-14.3,12.4-20.5c2.8-3.7,5.7-1.4,8.6,1.4c2.4,2.3,4.6,4.9,6.7,7.6c7.8,10.4,13.1,22.6,15.5,35.4
				c4.3,22.5-0.7,66.6-31.7,66.1c-6.4-0.1-6.4,9.9,0,10c30.5,0.5,42.9-34,43.2-59.3c0.2-13.3-2.6-26.6-7.8-38.8
				c-4.8-11.3-12.4-24.3-22.7-31.4c-6.2-4.3-13.7-4.3-18.7,1.8c-5.5,6.7-9.5,15.3-13.9,22.7C621.7,439.4,630.4,444.5,633.7,438.9
				L633.7,438.9z"/>
		</g>
	</g>
	<g class="st1">
		<g>
			<path d="M621.5,589.5c-3.2,18.1-5.2,36.4-6,54.8c-0.3,6.4,9.7,6.4,10,0c0.7-17.5,2.6-34.9,5.6-52.1
				C632.3,585.9,622.6,583.2,621.5,589.5L621.5,589.5z"/>
		</g>
	</g>
	<g class="st1">
		<g>
			<path d="M692.4,424.6c15.2,55.8,29.8,116.4,6.9,172.3c-2.4,6,7.2,8.6,9.7,2.7c23.5-57.4,8.7-120.2-6.9-177.6
				C700.4,415.7,690.7,418.3,692.4,424.6L692.4,424.6z"/>
		</g>
	</g>
	<g class="st1">
		<g>
			<path d="M656.2,588.1c-3.3,15.4-6.6,30.8-9.9,46.3c-1.3,6.3,8.3,9,9.7,2.7c3.3-15.4,6.6-30.8,9.9-46.3
				C667.2,584.5,657.5,581.8,656.2,588.1L656.2,588.1z"/>
		</g>
	</g>
	<g class="st1">
		<g>
			<path d="M305.1,479.6c-1.1,31.3,10.5,61,11.8,92.1c0.6,15.5-2.6,29.7-8.2,44.1c-5.4,13.6-11.2,26.7-12.8,41.4
				c-0.7,6.4,9.3,6.3,10,0c1.6-14.7,8.5-28.2,13.7-41.9c5.4-14.1,8-28.5,7.4-43.6c-1.3-31-12.9-60.8-11.8-92.1
				C315.3,473.2,305.3,473.2,305.1,479.6L305.1,479.6z"/>
		</g>
	</g>
	<g class="st1">
		<g>
			<path d="M338.4,625.6c-2.3,11.1-4.6,22.2-6.9,33.3c-1.3,6.3,8.3,9,9.7,2.7c2.3-11.1,4.6-22.2,6.9-33.3
				C349.4,622,339.7,619.3,338.4,625.6L338.4,625.6z"/>
		</g>
	</g>
	<g class="st1">
		<g>
			<path d="M534.2,400.3c13.7,10.3,28.7,18.5,44.6,25c6,2.4,8.6-7.3,2.7-9.7c-15.1-6.1-29.2-14.2-42.2-23.9
				C534.1,387.7,529.1,396.4,534.2,400.3L534.2,400.3z"/>
		</g>
	</g>
	<g class="st1">
		<g>
			<path d="M498.3,446.4c5.3,21,5.8,42.7,1.4,63.9c-1.3,6.3,8.3,9,9.7,2.7c4.7-22.9,4.3-46.4-1.4-69.2
				C506.4,437.5,496.7,440.2,498.3,446.4L498.3,446.4z"/>
		</g>
	</g>
	<g class="st1">
		<g>
			<path d="M393,455.1c4.9,18.5,5.5,37.7,1.6,56.4c-1.3,6.3,8.3,9,9.7,2.7c4.3-20.5,3.8-41.5-1.6-61.8
				C401,446.2,391.3,448.8,393,455.1L393,455.1z"/>
		</g>
	</g>
	<g class="st1">
		<g>
			<path d="M443.1,568.1c11.8,1.8,23.6,2.6,35.5,2.4c-1.7-1.7-3.3-3.3-5-5c0.6,12-9.9,22.5-21.8,22.8c-12.4,0.4-23.6-9-28.1-20.1
				c-2.4-5.9-12.1-3.3-9.7,2.7c6.3,15.6,21.4,28.7,39.1,27.4c16.6-1.3,31.3-15.8,30.4-32.8c-0.1-2.7-2.2-5.1-5-5
				c-11,0.2-22-0.4-32.9-2.1C439.4,557.5,436.7,567.1,443.1,568.1L443.1,568.1z"/>
		</g>
	</g>
	<g class="st1">
		<g>
			<path d="M432.1,649.4c-19.9,19.5-45.2,31.8-67.2,48.5c-20.9,15.9-38.6,36.5-45.6,62.4c-1.7,6.2,8,8.9,9.7,2.7
				c14.6-54.6,73.6-70.7,110.2-106.5C443.8,651.9,436.7,644.9,432.1,649.4L432.1,649.4z"/>
		</g>
	</g>
	<g class="st1">
		<g>
			<path d="M573.6,649.1c15.3,20.8,35.6,36.9,52.8,56.1c16.6,18.5,30.2,42.1,26.8,67.7c-0.9,6.4,9.2,6.3,10,0
				c3.5-25.9-9.3-50.4-25.4-69.8c-17.3-20.9-39.5-37.2-55.6-59.1C578.5,638.9,569.8,643.9,573.6,649.1L573.6,649.1z"/>
		</g>
	</g>
	<g class="st1">
		<g>
			<path d="M469,686.7c34.1,18.6,77.1,6.8,96.4-27c3.2-5.6-5.4-10.6-8.6-5.1c-16.6,28.9-53.4,39.4-82.7,23.4
				C468.4,674.9,463.3,683.6,469,686.7L469,686.7z"/>
		</g>
	</g>
	<circle class="st3" cx="577.5" cy="534.5" r="21.5"/>
	<circle class="st3" cx="351.5" cy="540.5" r="21.5"/>
</g>
<g id="Celine" class="st0">
	<g class="st1">
		<g>
			<path d="M485.1,182.1c-44.3-1.1-87.5,15.2-122.2,42.4c-36.1,28.3-61.3,68.3-75,111.8c-7.8,24.8-11.9,50.7-12.7,76.6
				c-0.2,6.4,9.7,6.4,9.9,0c1.3-43.9,12.7-87.8,35.5-125.6c22.1-36.5,55.2-66.1,94.9-82.2c22.1-9,45.6-13.6,69.5-13
				C491.5,192.2,491.5,182.3,485.1,182.1L485.1,182.1z"/>
		</g>
	</g>
	<g class="st1">
		<g>
			<path d="M476.6,272.5c-34.6,42.3-79,75.9-129.1,97.8c-14.4,6.3-29.3,11.5-44.4,15.7c-6.2,1.7-3.5,11.3,2.6,9.6
				c54.1-15.1,104.2-43.2,145.3-81.3c11.7-10.8,22.5-22.4,32.6-34.7C487.6,274.6,480.6,267.5,476.6,272.5L476.6,272.5z"/>
		</g>
	</g>
	<g class="st1">
		<g>
			<path d="M526.2,203.3c35.7,5.5,67.9,23.8,93.3,49.2c27.3,27.2,45.6,62,57,98.6c6.8,21.9,11.3,44.6,14,67.4
				c0.7,6.3,10.7,6.4,9.9,0c-9.4-79.2-41-160.9-112.7-203.3c-18.1-10.7-38-18.2-58.8-21.4C522.6,192.7,519.9,202.3,526.2,203.3
				L526.2,203.3z"/>
		</g>
	</g>
	<g class="st1">
		<g>
			<path d="M504,323.7c27.6,59,74.3,108.4,131.6,139.4c5.6,3,10.7-5.5,5-8.6c-55.9-30.3-101.1-78.3-128.1-135.9
				C509.9,312.9,501.3,318,504,323.7L504,323.7z"/>
		</g>
	</g>
	<g class="st1">
		<g>
			<path d="M325.1,457.2c-1,14-2,28.1-3,42.1c-1,13.6-2.8,27.4-2.6,41c0.4,23.2,17.8,40.2,36.6,51.4c19.9,11.8,42.9,17.3,65.5,20.4
				c25.9,3.6,52.2,4.8,78.3,4c30.6-0.9,61.1-4.8,91-11.3c6.2-1.4,3.6-11-2.6-9.6c-50.4,11-102.4,14-153.8,8.6
				c-21.1-2.2-42.7-6-62.1-14.8c-18.1-8.2-41-23.3-42.8-45.1c-1.1-13.6,1.3-28,2.2-41.6c1.1-15,2.1-30,3.2-45
				C335.5,450.8,325.6,450.9,325.1,457.2L325.1,457.2z"/>
		</g>
	</g>
	<g class="st1">
		<g>
			<path d="M521.2,425.5c0.6,20.6,1.1,41.1,1.7,61.7c0.2,6.4,10.1,6.4,9.9,0c-0.6-20.6-1.1-41.1-1.7-61.7
				C531,419.1,521,419.1,521.2,425.5L521.2,425.5z"/>
		</g>
	</g>
	<g class="st1">
		<g>
			<path d="M393.8,425.5c-1.9,23.4-1.6,47,0.9,70.3c0.7,6.3,10.6,6.4,9.9,0c-2.5-23.4-2.8-46.9-0.9-70.3
				C404.3,419.2,394.4,419.2,393.8,425.5L393.8,425.5z"/>
		</g>
	</g>
	<g class="st1">
		<g>
			<path d="M460.4,536.4c7.1-0.3,14.1-0.6,21.2-0.9c6.9-0.3,14.4,0.2,21.2-0.9c1.9,0.4,2.4,0.3,1.6-0.5c-0.6-0.9-0.7-0.4-0.3,1.3
				c-0.2,1.4-0.1,2.9-0.2,4.3c-0.3,3.3-0.9,6.5-1.7,9.6c-1.6,6.2-4.2,12.2-7.7,17.6c-3.3,5.1-7.5,9.7-13.7,10.9
				c-6.3,1.3-12.8-0.7-18.2-3.8c-5.4-3.1-10.1-7.2-14.4-11.6c-4.3-4.3-9.5-10-7.6-16.6c1.8-6.2-7.8-8.8-9.6-2.6
				c-4.6,16.1,13.1,31,25.2,38.5c14.6,9.1,32.8,8.7,43.9-5.5c5.2-6.7,8.9-14.5,11.3-22.6c1.2-4.3,2-8.7,2.4-13.1
				c0.4-3.5,1-7.9-0.5-11.3c-3.4-7.6-15.5-4.4-21.9-4.1c-10.3,0.4-20.5,0.9-30.8,1.3C454,526.8,454,536.7,460.4,536.4L460.4,536.4z"
				/>
		</g>
	</g>
	<g class="st1">
		<g>
			<path d="M656.2,443.4c4.1-5.3,8.7-11.3,14.1-15.2c4.3-3.1,9.3,2.9,11.3,6.4c5.3,9.6,5,22.1,5.2,32.7c0.6,23.1-3.5,53.8-28.9,62.8
				c-6,2.1-3.4,11.7,2.6,9.6c14.1-5,24.2-16.3,30-29.8c6.6-15.7,6.7-33.1,5.9-49.9c-0.6-12.5-1.5-27.6-11.2-36.8
				c-4.7-4.4-12-7.9-18.3-4.7c-7.1,3.7-13,11.7-17.8,17.9C645.3,441.4,652.3,448.5,656.2,443.4L656.2,443.4z"/>
		</g>
	</g>
	<g class="st1">
		<g>
			<path d="M638.4,223.3c4.4-21.9,29.9-24.9,47.9-20.1c19.2,5.1,38.4,16.1,49.6,32.9c11.9,17.8,14.6,39.9,16.4,60.7
				c2.1,24.1,2.5,48.2,2.7,72.4c0.2,27.4,0.2,54.9,1.8,82.3c0.4,6.4,10.3,6.4,9.9,0c-3.3-54,0.3-108.3-5.2-162.2
				c-2.3-22.2-6.5-45.1-20.6-63.1c-13.4-17.1-34.4-28.8-55.4-33.4c-12.2-2.7-25.2-2.6-36.6,3c-9.9,4.9-17.8,13.9-20,24.9
				C627.6,226.9,637.2,229.5,638.4,223.3L638.4,223.3z"/>
		</g>
	</g>
	<g class="st1">
		<g>
			<path d="M687.4,366.9c25.4,52.7,33.9,113.5,24.1,171.2c-2.8,16.3-7,32.3-12.5,47.9c-2.1,6,7.5,8.6,9.6,2.6
				c20.2-57.1,22.1-120.3,5.7-178.5c-4.7-16.6-10.9-32.8-18.4-48.3C693.2,356.2,684.6,361.2,687.4,366.9L687.4,366.9z"/>
		</g>
	</g>
	<g class="st1">
		<g>
			<path d="M737.9,474.3c-0.4,26.2-3.7,52.1-9.8,77.6c-1.5,6.2,8.1,8.9,9.6,2.6c6.4-26.3,9.8-53.2,10.2-80.2
				C748,467.9,738,467.9,737.9,474.3L737.9,474.3z"/>
		</g>
	</g>
	<g class="st1">
		<g>
			<path d="M547.7,639.5C602.1,683,662.8,737.4,662.9,813c0,6.4,9.9,6.4,9.9,0c-0.1-59.1-36.8-109.1-78.7-147.4
				c-12.7-11.6-26-22.4-39.4-33.1C549.8,628.5,542.7,635.5,547.7,639.5L547.7,639.5z"/>
		</g>
	</g>
	<g class="st1">
		<g>
			<path d="M419.2,645.3c-35.3,40.8-96.3,65.5-107.6,123.4c-1.2,6.2,8.4,8.9,9.6,2.6c10.9-55.6,71.1-79.8,105.1-119.1
				C430.4,647.5,423.4,640.5,419.2,645.3L419.2,645.3z"/>
		</g>
	</g>
	<g class="st1">
		<g>
			<path d="M462.1,657.4c4.3,7.4,9.1,15.5,16.9,19.7c8.6,4.8,18.4,3.5,27.1-0.2c17.8-7.4,32.8-20.6,43.8-36.2
				c3.7-5.2-4.9-10.2-8.6-5c-8.9,12.7-20.8,23-34.6,30.1c-6.8,3.5-15.4,6.8-22.8,2.8c-6.2-3.4-9.9-10.3-13.3-16.2
				C467.5,646.9,458.9,651.9,462.1,657.4L462.1,657.4z"/>
		</g>
	</g>
	<circle class="st3" cx="603.5" cy="514.5" r="21.5"/>
	<circle class="st3" cx="338.5" cy="522.5" r="21.5"/>
</g>
</svg>
