<svg width="25" height="25" viewBox="0 0 25 25" fill="none" xmlns="http://www.w3.org/2000/svg">
<g id="phone">
<path id="Vector (Stroke)" fill-rule="evenodd" clip-rule="evenodd" d="M2 4.85714C2 3.27919 3.27919 2 4.85714 2H6.16345C6.98286 2 7.69712 2.55767 7.89585 3.35261L8.94899 7.56517C9.12325 8.26219 8.8628 8.99576 8.28802 9.42684L7.056 10.3509C6.92807 10.4468 6.90025 10.5873 6.93619 10.6854C8.01763 13.6376 10.3624 15.9824 13.3146 17.0638C13.4127 17.0997 13.5532 17.0719 13.6491 16.944L14.5732 15.712C15.0042 15.1372 15.7378 14.8768 16.4348 15.051L20.6474 16.1041C21.4423 16.3029 22 17.0171 22 17.8365V19.1429C22 20.7208 20.7208 22 19.1429 22H17C8.71573 22 2 15.2843 2 7V4.85714Z" fill="#F1A41F"/>
</g>
</svg>
