<svg width="25" height="25" viewBox="0 0 25 25" fill="none" xmlns="http://www.w3.org/2000/svg">
<g id="home">
<path id="Vector 504 (Stroke)" fill-rule="evenodd" clip-rule="evenodd" d="M11.1162 2.36612C11.6043 1.87796 12.3958 1.87796 12.8839 2.36612L21.6339 11.1161C21.9914 11.4736 22.0984 12.0113 21.9049 12.4784C21.7114 12.9454 21.2556 13.25 20.75 13.25H19.5V20.75C19.5 21.4404 18.9404 22 18.25 22H15.75C15.0597 22 14.5 21.4404 14.5 20.75V17C14.5 16.3096 13.9404 15.75 13.25 15.75H10.75C10.0597 15.75 9.50004 16.3096 9.50004 17V20.75C9.50004 21.4404 8.94039 22 8.25004 22H5.75004C5.05968 22 4.50004 21.4404 4.50004 20.75V13.25H3.25004C2.74446 13.25 2.28866 12.9454 2.09519 12.4784C1.90171 12.0113 2.00866 11.4736 2.36615 11.1161L11.1162 2.36612Z" fill="#F1A41F"/>
</g>
</svg>
